<svg xmlns="http://www.w3.org/2000/svg" xmlns:xlink="http://www.w3.org/1999/xlink" width="500" zoomAndPan="magnify" viewBox="0 0 375 374.999991" height="500" preserveAspectRatio="xMidYMid meet" version="1.0"><defs><clipPath id="ceb876db59"><path d="M 53 53 L 322 53 L 322 322.34375 L 53 322.34375 Z M 53 53 " clip-rule="nonzero"/></clipPath></defs><path fill="#ffffff" d="M 307.292969 255.757812 C 307.292969 256.117188 307.257812 256.472656 307.1875 256.824219 C 307.117188 257.175781 307.015625 257.519531 306.878906 257.851562 C 306.738281 258.183594 306.570312 258.5 306.371094 258.796875 C 306.171875 259.097656 305.945312 259.371094 305.691406 259.625 C 305.4375 259.878906 305.160156 260.105469 304.859375 260.308594 C 304.5625 260.507812 304.246094 260.675781 303.914062 260.8125 C 303.582031 260.949219 303.242188 261.054688 302.886719 261.125 C 302.535156 261.195312 302.179688 261.230469 301.820312 261.230469 C 301.460938 261.230469 301.105469 261.195312 300.753906 261.125 C 300.402344 261.054688 300.058594 260.949219 299.726562 260.8125 C 299.394531 260.675781 299.078125 260.507812 298.78125 260.308594 C 298.480469 260.105469 298.203125 259.878906 297.949219 259.625 C 297.695312 259.371094 297.46875 259.097656 297.269531 258.796875 C 297.070312 258.5 296.902344 258.183594 296.765625 257.851562 C 296.625 257.519531 296.523438 257.175781 296.453125 256.824219 C 296.382812 256.472656 296.347656 256.117188 296.347656 255.757812 C 296.347656 255.398438 296.382812 255.042969 296.453125 254.6875 C 296.523438 254.335938 296.625 253.992188 296.765625 253.660156 C 296.902344 253.328125 297.070312 253.015625 297.269531 252.714844 C 297.46875 252.417969 297.695312 252.140625 297.949219 251.886719 C 298.203125 251.632812 298.480469 251.40625 298.78125 251.207031 C 299.078125 251.007812 299.394531 250.835938 299.726562 250.699219 C 300.058594 250.5625 300.402344 250.457031 300.753906 250.386719 C 301.105469 250.320312 301.460938 250.285156 301.820312 250.285156 C 302.179688 250.285156 302.535156 250.320312 302.886719 250.386719 C 303.242188 250.457031 303.582031 250.5625 303.914062 250.699219 C 304.246094 250.835938 304.5625 251.007812 304.859375 251.207031 C 305.160156 251.40625 305.4375 251.632812 305.691406 251.886719 C 305.945312 252.140625 306.171875 252.417969 306.371094 252.714844 C 306.570312 253.015625 306.738281 253.328125 306.878906 253.660156 C 307.015625 253.992188 307.117188 254.335938 307.1875 254.6875 C 307.257812 255.042969 307.292969 255.398438 307.292969 255.757812 Z M 307.292969 255.757812 " fill-opacity="1" fill-rule="nonzero"/><g clip-path="url(#ceb876db59)"><path fill="#ffffff" d="M 316.414062 224.132812 L 273.847656 224.132812 C 270.808594 224.132812 268.375 226.566406 268.375 229.609375 L 268.375 242.074219 L 261.078125 242.074219 L 234.015625 218.359375 C 233.105469 217.445312 231.585938 216.835938 230.367188 216.835938 L 156.785156 216.835938 C 153.746094 216.835938 151.617188 218.964844 151.3125 222.007812 L 151.007812 225.046875 C 150.707031 230.824219 152.832031 237.210938 156.179688 242.378906 L 153.136719 242.378906 L 134.589844 214.101562 C 128.507812 202.851562 116.042969 193.425781 102.664062 196.769531 L 102.664062 129.269531 C 102.664062 129.269531 102.664062 128.964844 102.664062 128.964844 L 168.949219 89.742188 L 235.234375 128.660156 C 235.234375 128.964844 235.234375 129.269531 235.234375 129.269531 L 235.234375 203.761719 C 235.234375 206.804688 237.664062 209.234375 240.707031 209.234375 C 243.746094 209.234375 246.179688 206.804688 246.179688 203.761719 L 246.179688 135.046875 L 256.210938 140.824219 C 258.949219 142.34375 261.683594 143.257812 264.726562 143.257812 C 270.808594 143.257812 276.28125 140.214844 279.320312 135.046875 C 284.183594 127.140625 281.449219 116.5 273.238281 111.9375 L 177.460938 55.382812 C 172.292969 52.34375 165.605469 52.34375 160.132812 55.382812 L 127.597656 74.84375 L 127.597656 59.335938 C 127.597656 56.296875 125.164062 53.863281 122.125 53.863281 L 97.191406 53.863281 C 94.152344 53.863281 91.71875 56.296875 91.71875 59.335938 L 91.71875 96.128906 L 68.914062 109.808594 C 61.007812 114.675781 58.273438 125.011719 62.832031 132.917969 C 65.265625 136.871094 68.914062 139.609375 73.171875 140.824219 C 77.429688 142.039062 81.988281 141.433594 85.941406 139 L 91.414062 135.65625 L 91.414062 201.027344 C 90.808594 201.632812 90.503906 202.242188 90.199219 203.15625 C 89.589844 204.675781 89.894531 206.195312 90.503906 207.410156 L 90.503906 207.714844 C 80.46875 203.15625 68.003906 203.15625 59.792969 211.667969 L 55.230469 216.230469 C 54.929688 216.535156 54.625 216.835938 54.320312 217.140625 C 53.40625 218.359375 52.800781 219.878906 53.105469 221.398438 C 53.40625 222.917969 54.015625 224.4375 55.535156 225.351562 L 122.125 271.261719 C 122.429688 271.566406 123.035156 271.871094 123.339844 271.871094 L 227.328125 310.484375 C 227.933594 310.789062 228.542969 310.789062 229.152344 310.789062 L 268.375 310.789062 L 268.375 317.175781 C 268.375 320.214844 270.808594 322.648438 273.847656 322.648438 L 301.515625 322.648438 C 304.558594 322.648438 306.988281 320.214844 306.988281 317.175781 C 306.988281 314.136719 304.558594 311.703125 301.515625 311.703125 L 279.320312 311.703125 L 279.320312 235.382812 L 316.109375 235.382812 C 319.152344 235.382812 321.585938 232.953125 321.585938 229.910156 C 322.191406 226.566406 319.457031 224.132812 316.414062 224.132812 Z M 104.488281 207.714844 C 112.394531 205.285156 120.605469 211.667969 124.558594 219.269531 C 124.558594 219.574219 124.859375 219.574219 124.859375 219.878906 L 132.765625 231.734375 L 109.050781 218.054688 C 109.050781 217.75 109.050781 217.75 108.746094 217.445312 L 103.578125 208.019531 Z M 102.664062 64.808594 L 116.347656 64.808594 L 116.347656 81.230469 L 102.664062 89.4375 Z M 80.164062 129.269531 C 78.949219 130.183594 77.429688 130.183594 75.90625 129.878906 C 74.386719 129.574219 73.171875 128.660156 72.257812 127.140625 C 70.738281 124.40625 71.652344 120.757812 74.386719 119.234375 L 165.90625 64.808594 C 167.734375 63.59375 169.859375 63.59375 171.683594 64.808594 L 267.460938 121.058594 C 270.199219 122.582031 271.109375 126.230469 269.589844 128.964844 C 268.070312 131.703125 264.421875 132.613281 261.683594 131.09375 L 171.683594 78.1875 C 170.773438 77.582031 169.859375 77.277344 168.949219 77.277344 C 168.035156 77.277344 167.125 77.582031 166.210938 78.1875 Z M 268.375 299.539062 L 230.367188 299.539062 L 127.902344 261.535156 L 67.394531 219.878906 L 68.003906 219.269531 C 73.78125 213.492188 84.421875 215.621094 91.414062 220.484375 C 91.71875 220.484375 91.71875 220.789062 92.023438 220.789062 L 147.058594 252.714844 C 147.96875 253.324219 148.882812 253.324219 149.792969 253.324219 L 173.8125 253.324219 C 174.421875 253.324219 174.726562 253.324219 175.332031 253.324219 L 216.683594 253.324219 C 219.726562 253.324219 222.160156 250.890625 222.160156 247.851562 C 222.160156 244.808594 219.726562 242.378906 216.683594 242.378906 L 174.117188 242.378906 C 171.078125 242.074219 168.339844 239.945312 165.90625 237.210938 C 163.78125 234.472656 162.5625 231.433594 161.957031 228.390625 L 228.238281 228.390625 L 255.300781 252.109375 C 256.210938 253.019531 257.734375 253.628906 258.949219 253.628906 L 268.375 253.628906 Z M 268.375 299.539062 " fill-opacity="1" fill-rule="nonzero"/></g><path fill="#ffffff" d="M 197.53125 131.09375 C 195.402344 128.964844 191.753906 128.964844 189.625 131.09375 L 136.71875 184 C 134.589844 186.128906 134.589844 189.777344 136.71875 191.90625 C 137.933594 193.121094 139.152344 193.425781 140.671875 193.425781 C 142.191406 193.425781 143.40625 192.816406 144.625 191.90625 L 197.53125 139 C 199.960938 136.566406 199.960938 133.222656 197.53125 131.09375 Z M 197.53125 131.09375 " fill-opacity="1" fill-rule="nonzero"/><path fill="#ffffff" d="M 157.089844 140.519531 C 157.089844 135.65625 153.136719 132.007812 148.578125 132.007812 C 143.710938 132.007812 140.0625 135.957031 140.0625 140.519531 C 140.0625 145.382812 144.015625 149.03125 148.578125 149.03125 C 153.136719 149.03125 157.089844 145.382812 157.089844 140.519531 Z M 157.089844 140.519531 " fill-opacity="1" fill-rule="nonzero"/><path fill="#ffffff" d="M 175.636719 181.871094 C 175.636719 186.734375 179.589844 190.382812 184.152344 190.382812 C 189.015625 190.382812 192.664062 186.433594 192.664062 181.871094 C 192.664062 177.007812 188.710938 173.359375 184.152344 173.359375 C 179.589844 173.359375 175.636719 177.007812 175.636719 181.871094 Z M 175.636719 181.871094 " fill-opacity="1" fill-rule="nonzero"/></svg>