<svg xmlns="http://www.w3.org/2000/svg" xmlns:xlink="http://www.w3.org/1999/xlink" width="500" zoomAndPan="magnify" viewBox="0 0 375 374.999991" height="500" preserveAspectRatio="xMidYMid meet" version="1.0"><defs><clipPath id="6ea7dc6ea8"><path d="M 53 48.332031 L 322 48.332031 L 322 326.582031 L 53 326.582031 Z M 53 48.332031 " clip-rule="nonzero"/></clipPath></defs><g clip-path="url(#6ea7dc6ea8)"><path fill="#ffffff" d="M 320.703125 209.371094 L 271 149.722656 C 270 148.234375 268.511719 147.738281 267.023438 147.738281 L 241.675781 147.738281 C 248.136719 137.796875 252.113281 125.871094 252.113281 112.949219 C 252.113281 77.160156 223.285156 48.332031 187.5 48.332031 C 151.710938 48.332031 122.882812 77.160156 122.882812 112.949219 C 122.882812 125.871094 126.855469 137.796875 133.320312 147.738281 L 107.972656 147.738281 C 106.484375 147.738281 104.988281 148.234375 104 149.722656 L 54.292969 209.371094 C 53.296875 210.859375 52.804688 212.851562 53.792969 214.839844 C 54.792969 216.328125 56.28125 217.324219 58.265625 217.324219 L 78.144531 217.324219 L 78.144531 321.699219 C 78.144531 324.683594 80.132812 326.667969 83.117188 326.667969 L 291.867188 326.667969 C 294.851562 326.667969 296.839844 324.683594 296.839844 321.699219 L 296.839844 217.324219 L 316.71875 217.324219 C 318.707031 217.324219 320.199219 216.328125 321.191406 214.339844 C 322.1875 212.851562 321.6875 210.859375 320.691406 209.371094 Z M 187.5 58.269531 C 217.816406 58.269531 242.175781 82.621094 242.175781 112.949219 C 242.175781 143.273438 217.824219 167.625 187.5 167.625 C 157.175781 167.625 132.824219 143.273438 132.824219 112.949219 C 132.824219 82.621094 157.179688 58.269531 187.5 58.269531 Z M 122.882812 316.730469 L 122.882812 262.054688 L 147.734375 262.054688 L 147.734375 316.730469 Z M 286.90625 316.730469 L 157.671875 316.730469 L 157.671875 257.082031 C 157.671875 254.101562 155.6875 252.113281 152.703125 252.113281 L 117.914062 252.113281 C 114.929688 252.113281 112.941406 254.101562 112.941406 257.082031 L 112.941406 316.730469 L 88.09375 316.730469 L 88.09375 217.324219 L 286.90625 217.324219 Z M 68.703125 207.382812 L 109.960938 157.675781 L 140.777344 157.675781 C 146.742188 164.136719 154.195312 169.113281 162.640625 172.585938 L 142.761719 172.585938 C 139.777344 172.585938 137.792969 174.574219 137.792969 177.558594 C 137.792969 180.539062 139.777344 182.527344 142.761719 182.527344 L 232.230469 182.527344 C 235.210938 182.527344 237.199219 180.539062 237.199219 177.558594 C 237.199219 174.574219 235.210938 172.585938 232.230469 172.585938 L 212.347656 172.585938 C 220.800781 169.105469 227.757812 164.136719 234.214844 157.675781 L 265.03125 157.675781 L 306.285156 207.382812 Z M 68.703125 207.382812 " fill-opacity="1" fill-rule="nonzero"/></g><path fill="#ffffff" d="M 192.46875 286.910156 L 262.054688 286.910156 C 265.039062 286.910156 267.023438 284.921875 267.023438 281.941406 L 267.023438 237.203125 C 267.023438 234.21875 265.039062 232.234375 262.054688 232.234375 L 192.46875 232.234375 C 189.484375 232.234375 187.5 234.21875 187.5 237.203125 L 187.5 281.941406 C 187.5 284.921875 189.484375 286.910156 192.46875 286.910156 Z M 197.4375 242.171875 L 257.085938 242.171875 L 257.085938 276.964844 L 197.4375 276.964844 Z M 197.4375 242.171875 " fill-opacity="1" fill-rule="nonzero"/><path fill="#ffffff" d="M 156.183594 126.859375 C 161.652344 140.28125 174.574219 149.226562 189.984375 149.226562 C 195.453125 149.226562 200.421875 148.230469 205.390625 145.746094 C 207.875 144.746094 208.875 141.769531 207.875 139.285156 C 206.878906 136.800781 203.902344 135.804688 201.417969 136.800781 C 197.9375 138.289062 193.964844 139.285156 190.480469 139.285156 C 181.039062 139.285156 172.589844 134.316406 168.117188 126.859375 L 191.476562 126.859375 C 194.460938 126.859375 196.449219 124.875 196.449219 121.890625 C 196.449219 118.90625 194.460938 116.921875 191.476562 116.921875 L 164.636719 116.921875 C 164.636719 115.433594 164.136719 114.4375 164.136719 112.949219 L 164.136719 110.460938 L 190.980469 110.460938 C 193.964844 110.460938 195.949219 108.476562 195.949219 105.492188 C 195.949219 102.507812 193.964844 100.523438 190.980469 100.523438 L 167.121094 100.523438 C 171.59375 92.070312 180.042969 86.601562 190.480469 86.601562 C 194.457031 86.601562 198.433594 87.597656 201.917969 89.085938 C 204.402344 90.085938 207.386719 89.085938 208.375 86.601562 C 209.371094 84.117188 208.375 81.132812 205.890625 80.144531 C 200.921875 77.660156 195.949219 76.664062 190.480469 76.664062 C 174.574219 76.664062 161.152344 86.601562 156.183594 100.523438 L 150.21875 100.523438 C 147.234375 100.523438 145.246094 102.507812 145.246094 105.492188 C 145.246094 108.476562 147.234375 110.460938 150.21875 110.460938 L 154.191406 110.460938 L 154.191406 116.921875 L 150.21875 116.921875 C 147.234375 116.921875 145.246094 118.90625 145.246094 121.890625 C 145.246094 124.875 147.234375 126.859375 150.21875 126.859375 Z M 156.183594 126.859375 " fill-opacity="1" fill-rule="nonzero"/></svg>