<svg xmlns="http://www.w3.org/2000/svg" xmlns:xlink="http://www.w3.org/1999/xlink" width="500" zoomAndPan="magnify" viewBox="0 0 375 374.999991" height="500" preserveAspectRatio="xMidYMid meet" version="1.0"><defs><clipPath id="9d123900da"><path d="M 67.484375 37.011719 L 307.484375 37.011719 L 307.484375 337.761719 L 67.484375 337.761719 Z M 67.484375 37.011719 " clip-rule="nonzero"/></clipPath><clipPath id="ff9e4bd4aa"><path d="M 200.726562 201.679688 L 307.226562 201.679688 L 307.226562 337.429688 L 200.726562 337.429688 Z M 200.726562 201.679688 " clip-rule="nonzero"/></clipPath></defs><path fill="#ffffff" d="M 129.675781 209.707031 C 129.675781 209.707031 129.679688 209.710938 129.679688 209.714844 C 129.679688 209.710938 129.675781 209.707031 129.675781 209.707031 " fill-opacity="1" fill-rule="nonzero"/><path fill="#ffffff" d="M 158.90625 191.664062 L 163.292969 196.148438 C 163.753906 196.617188 164.363281 196.859375 164.976562 196.859375 C 165.566406 196.859375 166.164062 196.632812 166.617188 196.1875 C 167.550781 195.277344 167.566406 193.789062 166.65625 192.859375 L 162.273438 188.371094 C 161.363281 187.445312 159.875 187.429688 158.945312 188.339844 C 158.015625 189.246094 158 190.734375 158.90625 191.664062 " fill-opacity="1" fill-rule="nonzero"/><g clip-path="url(#9d123900da)"><path fill="#ffffff" d="M 268.667969 136.0625 C 267.113281 137.554688 264.628906 137.507812 263.132812 135.957031 L 255.113281 127.652344 L 216.234375 87.394531 L 206.894531 77.726562 L 242.855469 43.171875 L 252.097656 52.742188 L 291.019531 93.042969 L 301.808594 104.214844 Z M 247.398438 134.777344 L 237.746094 144.210938 C 237.527344 144.425781 237.347656 144.6875 237.226562 144.972656 C 232.007812 157.25 224.476562 168.253906 214.839844 177.675781 C 205.140625 187.160156 193.941406 194.464844 181.546875 199.390625 C 181.398438 199.449219 181.257812 199.519531 181.121094 199.609375 C 181.105469 199.621094 181.089844 199.632812 181.070312 199.644531 C 181.023438 199.675781 180.980469 199.707031 180.933594 199.746094 C 180.871094 199.792969 180.8125 199.847656 180.753906 199.898438 C 180.511719 200.140625 157.828125 222.355469 144.4375 235.457031 C 143.546875 236.328125 142.695312 237.160156 141.894531 237.941406 C 139.304688 240.472656 136.070312 242.132812 132.5625 242.765625 C 132.976562 242.4375 133.378906 242.089844 133.761719 241.714844 L 146.324219 229.433594 C 146.851562 228.917969 147.105469 228.1875 147.015625 227.457031 C 146.921875 226.726562 146.492188 226.078125 145.855469 225.710938 C 145.800781 225.679688 140.203125 222.425781 136.023438 218.148438 C 132.035156 214.070312 129.25 208.773438 129.222656 208.722656 C 128.878906 208.0625 128.242188 207.601562 127.507812 207.484375 C 126.773438 207.367188 126.023438 207.601562 125.492188 208.125 L 112.929688 220.40625 C 112.445312 220.882812 112.003906 221.382812 111.59375 221.902344 L 111.550781 221.816406 C 111.570312 221.730469 111.582031 221.640625 111.601562 221.550781 C 111.617188 221.464844 111.632812 221.378906 111.652344 221.296875 C 111.695312 221.089844 111.742188 220.886719 111.792969 220.683594 C 111.804688 220.628906 111.816406 220.578125 111.832031 220.523438 C 111.894531 220.269531 111.96875 220.019531 112.042969 219.769531 C 112.066406 219.695312 112.089844 219.628906 112.109375 219.558594 C 112.167969 219.375 112.230469 219.191406 112.292969 219.007812 C 112.324219 218.921875 112.355469 218.835938 112.386719 218.75 C 112.453125 218.574219 112.519531 218.402344 112.589844 218.230469 C 112.621094 218.152344 112.652344 218.074219 112.6875 217.996094 C 112.789062 217.753906 112.894531 217.511719 113.007812 217.273438 C 113.019531 217.25 113.035156 217.222656 113.046875 217.199219 C 113.148438 216.984375 113.257812 216.773438 113.371094 216.558594 C 113.414062 216.480469 113.457031 216.40625 113.5 216.328125 C 113.589844 216.164062 113.679688 216.003906 113.773438 215.839844 C 113.824219 215.761719 113.871094 215.683594 113.917969 215.601562 C 114.027344 215.425781 114.140625 215.253906 114.253906 215.082031 C 114.289062 215.023438 114.324219 214.972656 114.359375 214.917969 C 114.511719 214.691406 114.667969 214.472656 114.832031 214.257812 C 114.875 214.199219 114.917969 214.144531 114.960938 214.089844 C 115.085938 213.925781 115.214844 213.765625 115.347656 213.601562 C 115.40625 213.527344 115.464844 213.460938 115.527344 213.386719 C 115.652344 213.238281 115.785156 213.089844 115.914062 212.941406 C 115.976562 212.878906 116.03125 212.816406 116.089844 212.753906 C 116.28125 212.546875 116.476562 212.347656 116.675781 212.148438 L 155.488281 174.136719 L 157.554688 172.128906 C 157.570312 172.117188 157.578125 172.109375 157.589844 172.097656 C 164.679688 164.929688 164.886719 159.820312 164.886719 159.261719 L 160.183594 159.261719 L 160.183594 159.203125 C 160.183594 159.242188 159.925781 163.039062 154.261719 168.773438 L 153.410156 169.597656 C 150.273438 168.050781 142.800781 164.660156 134.585938 162.957031 C 128.230469 161.636719 121.289062 161.765625 117.671875 161.964844 C 117.589844 161.824219 117.492188 161.691406 117.378906 161.570312 L 113.753906 157.660156 C 112.867188 156.710938 111.378906 156.652344 110.429688 157.539062 C 109.472656 158.421875 109.417969 159.910156 110.304688 160.863281 L 113.121094 163.898438 C 112.800781 164.796875 111.152344 169.214844 108.347656 173.582031 C 105.488281 178.03125 101.660156 182.636719 99.914062 184.675781 L 95.148438 183.429688 C 93.890625 183.097656 92.605469 183.851562 92.277344 185.105469 C 91.945312 186.363281 92.699219 187.648438 93.953125 187.976562 L 98.839844 189.261719 C 99.441406 191.410156 100.671875 196.011719 101.546875 200.734375 C 102.484375 205.808594 103.117188 211.132812 103.410156 213.875 L 100.644531 214.753906 C 99.402344 215.148438 98.71875 216.472656 99.113281 217.710938 C 99.433594 218.710938 100.359375 219.347656 101.355469 219.347656 C 101.589844 219.347656 101.832031 219.3125 102.070312 219.238281 L 104.707031 218.398438 L 106.691406 222.558594 C 106.691406 222.566406 106.6875 222.574219 106.6875 222.585938 C 106.664062 222.796875 106.648438 223.015625 106.632812 223.230469 C 106.621094 223.382812 106.605469 223.53125 106.597656 223.679688 C 106.582031 223.921875 106.574219 224.164062 106.570312 224.40625 C 106.566406 224.53125 106.558594 224.65625 106.554688 224.78125 C 106.550781 225.105469 106.558594 225.433594 106.566406 225.761719 C 106.570312 225.800781 106.566406 225.839844 106.570312 225.882812 C 106.582031 226.25 106.605469 226.617188 106.636719 226.980469 C 106.648438 227.097656 106.664062 227.214844 106.675781 227.335938 C 106.699219 227.582031 106.722656 227.828125 106.753906 228.078125 C 106.773438 228.226562 106.800781 228.371094 106.824219 228.515625 C 106.855469 228.734375 106.886719 228.949219 106.925781 229.167969 C 106.957031 229.324219 106.992188 229.484375 107.027344 229.644531 C 107.066406 229.847656 107.105469 230.046875 107.152344 230.25 C 107.191406 230.414062 107.238281 230.582031 107.28125 230.746094 C 107.332031 230.9375 107.375 231.128906 107.429688 231.320312 C 107.480469 231.492188 107.535156 231.65625 107.585938 231.828125 C 107.644531 232.011719 107.699219 232.195312 107.761719 232.382812 C 107.820312 232.550781 107.882812 232.71875 107.945312 232.886719 C 108.011719 233.066406 108.074219 233.246094 108.144531 233.425781 C 108.210938 233.59375 108.285156 233.761719 108.355469 233.929688 C 108.429688 234.105469 108.503906 234.28125 108.582031 234.453125 C 108.65625 234.625 108.742188 234.785156 108.820312 234.953125 C 108.902344 235.125 108.984375 235.296875 109.070312 235.46875 C 109.105469 235.535156 109.140625 235.601562 109.175781 235.667969 C 109.675781 237.207031 110.425781 238.65625 111.40625 239.96875 C 110.777344 241.386719 109.789062 242.664062 108.476562 243.640625 L 108.210938 243.835938 C 106.195312 245.339844 103.714844 245.953125 101.230469 245.558594 C 98.742188 245.164062 96.570312 243.816406 95.113281 241.757812 L 85.113281 227.625 C 84.203125 226.339844 83.53125 224.914062 83.121094 223.394531 L 73.726562 188.523438 C 72.847656 185.269531 73.230469 181.835938 74.796875 178.851562 L 98.898438 132.992188 C 100.5625 129.828125 103.484375 127.429688 106.914062 126.414062 L 185.667969 103.085938 C 185.710938 103.074219 185.757812 103.0625 185.796875 103.046875 C 192.683594 100.566406 196.949219 98.558594 201.125 94.476562 L 206.128906 89.585938 L 209.050781 86.730469 L 251.539062 130.726562 Z M 167.105469 223.558594 L 166.339844 220.601562 C 170.582031 216.449219 174.570312 212.542969 177.683594 209.496094 L 177.609375 216.242188 C 177.539062 222.5 173.347656 227.761719 167.648438 229.476562 C 167.78125 227.535156 167.617188 225.542969 167.105469 223.558594 Z M 132.660156 221.441406 C 135.441406 224.285156 138.695312 226.667969 140.90625 228.148438 L 130.472656 238.351562 C 128.53125 240.25 125.953125 241.289062 123.230469 241.25 C 120.503906 241.21875 117.957031 240.132812 116.058594 238.1875 C 114.15625 236.246094 113.128906 233.675781 113.160156 230.949219 C 113.191406 228.222656 114.277344 225.671875 116.21875 223.773438 L 126.621094 213.601562 C 127.953125 215.730469 130.054688 218.773438 132.660156 221.441406 Z M 129.371094 180.871094 C 133.066406 180.871094 136.601562 181.585938 139.839844 182.878906 L 113.386719 208.789062 C 113.117188 209.050781 112.855469 209.320312 112.601562 209.59375 C 112.515625 209.683594 112.4375 209.777344 112.355469 209.871094 C 112.1875 210.054688 112.023438 210.242188 111.863281 210.429688 C 111.769531 210.542969 111.679688 210.660156 111.585938 210.773438 C 111.449219 210.945312 111.308594 211.117188 111.175781 211.292969 C 111.082031 211.417969 110.992188 211.542969 110.898438 211.667969 C 110.777344 211.839844 110.652344 212.007812 110.535156 212.179688 C 110.445312 212.3125 110.355469 212.445312 110.269531 212.578125 C 110.15625 212.75 110.046875 212.921875 109.941406 213.09375 C 109.855469 213.230469 109.773438 213.371094 109.691406 213.507812 C 109.589844 213.679688 109.488281 213.855469 109.390625 214.03125 C 109.316406 214.171875 109.238281 214.3125 109.164062 214.453125 C 109.070312 214.628906 108.980469 214.808594 108.890625 214.988281 C 108.824219 215.132812 108.753906 215.273438 108.6875 215.417969 C 108.65625 215.484375 108.621094 215.550781 108.589844 215.617188 L 108.25 214.894531 C 108.078125 213.152344 107.378906 206.417969 106.171875 199.878906 C 105.835938 198.050781 105.449219 196.257812 105.066406 194.605469 C 110.042969 186.382812 119.074219 180.871094 129.371094 180.871094 Z M 149.332031 173.582031 L 143.464844 179.328125 C 139.1875 177.304688 134.410156 176.167969 129.371094 176.167969 C 128.320312 176.167969 127.285156 176.222656 126.257812 176.316406 L 122.332031 166.550781 C 125.679688 166.554688 129.816406 166.769531 133.632812 167.5625 C 139.75 168.832031 145.554688 171.171875 149.125 172.785156 Z M 103.347656 187.90625 C 105.105469 185.863281 109.183594 180.984375 112.304688 176.128906 C 114.707031 172.394531 116.308594 168.695312 117.089844 166.71875 C 117.164062 166.710938 117.242188 166.703125 117.324219 166.699219 L 121.507812 177.113281 C 114.316406 178.875 108.035156 182.992188 103.539062 188.601562 C 103.46875 188.351562 103.40625 188.113281 103.347656 187.90625 Z M 129.675781 209.707031 C 129.675781 209.707031 129.679688 209.710938 129.679688 209.714844 C 129.679688 209.710938 129.675781 209.707031 129.675781 209.707031 Z M 184.261719 324.550781 L 72.703125 324.550781 L 76.316406 302.59375 L 182.425781 302.59375 L 186.042969 324.550781 Z M 181.910156 333.019531 L 76.832031 333.019531 L 76.832031 329.257812 L 181.910156 329.257812 Z M 143.605469 297.890625 L 115.136719 297.890625 C 116.761719 292.882812 119.53125 282.601562 119.53125 270.597656 C 119.53125 258.777344 116.847656 248.628906 115.210938 243.542969 C 116.367188 244.296875 117.613281 244.886719 118.929688 245.292969 C 119.03125 245.34375 119.132812 245.394531 119.234375 245.445312 C 119.339844 245.496094 119.445312 245.546875 119.550781 245.597656 C 119.757812 245.691406 119.960938 245.789062 120.171875 245.878906 C 120.289062 245.929688 120.40625 245.976562 120.523438 246.027344 C 120.730469 246.113281 120.933594 246.195312 121.140625 246.273438 C 121.257812 246.316406 121.375 246.363281 121.492188 246.40625 C 121.71875 246.488281 121.949219 246.5625 122.175781 246.636719 C 122.273438 246.667969 122.371094 246.703125 122.46875 246.734375 C 122.796875 246.835938 123.128906 246.933594 123.460938 247.019531 C 123.496094 247.027344 123.53125 247.035156 123.5625 247.042969 C 123.863281 247.121094 124.164062 247.191406 124.464844 247.253906 C 124.578125 247.277344 124.6875 247.300781 124.796875 247.320312 C 125.027344 247.367188 125.261719 247.410156 125.492188 247.449219 C 125.617188 247.46875 125.742188 247.488281 125.867188 247.507812 C 126.09375 247.539062 126.320312 247.570312 126.546875 247.597656 C 126.671875 247.613281 126.792969 247.625 126.917969 247.636719 C 127.164062 247.664062 127.410156 247.683594 127.65625 247.699219 C 127.761719 247.710938 127.863281 247.71875 127.96875 247.722656 C 128.320312 247.746094 128.675781 247.757812 129.03125 247.761719 C 129.035156 247.761719 129.039062 247.761719 129.046875 247.761719 C 129.128906 247.761719 129.210938 247.761719 129.292969 247.761719 C 129.445312 247.761719 129.59375 247.753906 129.742188 247.75 C 129.921875 247.746094 130.105469 247.746094 130.285156 247.738281 C 130.492188 247.730469 130.699219 247.71875 130.90625 247.699219 C 131.066406 247.691406 131.230469 247.683594 131.390625 247.667969 C 131.617188 247.644531 131.835938 247.617188 132.058594 247.589844 C 132.203125 247.574219 132.347656 247.558594 132.492188 247.539062 C 132.726562 247.507812 132.960938 247.46875 133.195312 247.429688 C 133.324219 247.40625 133.453125 247.386719 133.582031 247.363281 C 133.828125 247.316406 134.070312 247.261719 134.316406 247.207031 C 134.429688 247.179688 134.542969 247.160156 134.65625 247.132812 C 134.910156 247.070312 135.164062 247 135.414062 246.933594 C 135.515625 246.90625 135.621094 246.878906 135.71875 246.851562 C 135.980469 246.777344 136.234375 246.691406 136.492188 246.605469 C 136.585938 246.574219 136.675781 246.546875 136.769531 246.515625 C 137.027344 246.429688 137.285156 246.328125 137.542969 246.230469 C 137.628906 246.195312 137.714844 246.167969 137.796875 246.132812 C 138.058594 246.027344 138.3125 245.914062 138.570312 245.800781 C 138.648438 245.765625 138.730469 245.734375 138.808594 245.699219 C 139.0625 245.582031 139.316406 245.457031 139.566406 245.332031 C 139.640625 245.289062 139.722656 245.253906 139.796875 245.214844 C 140.042969 245.085938 140.285156 244.949219 140.527344 244.8125 C 140.605469 244.769531 140.6875 244.726562 140.765625 244.679688 C 141 244.542969 141.234375 244.394531 141.464844 244.246094 C 141.546875 244.195312 141.628906 244.148438 141.707031 244.101562 C 141.933594 243.953125 142.152344 243.796875 142.375 243.640625 C 142.457031 243.582031 142.539062 243.527344 142.621094 243.46875 C 142.695312 243.417969 142.761719 243.363281 142.835938 243.308594 L 143.605469 243.308594 C 141.976562 248.316406 139.207031 258.59375 139.207031 270.597656 C 139.207031 282.601562 141.976562 292.882812 143.605469 297.890625 Z M 148.980469 242.195312 C 149.042969 242.027344 149.082031 241.921875 149.101562 241.871094 C 149.105469 241.871094 149.105469 241.871094 149.105469 241.871094 C 149.109375 241.855469 149.113281 241.839844 149.117188 241.839844 C 149.121094 241.828125 149.121094 241.820312 149.125 241.808594 C 149.15625 241.738281 149.175781 241.664062 149.199219 241.59375 C 149.207031 241.570312 149.210938 241.542969 149.21875 241.523438 C 149.234375 241.457031 149.246094 241.394531 149.257812 241.332031 C 149.261719 241.300781 149.265625 241.277344 149.269531 241.25 C 149.277344 241.1875 149.28125 241.121094 149.28125 241.058594 C 149.285156 241.03125 149.285156 241.003906 149.289062 240.980469 C 149.289062 240.96875 149.289062 240.964844 149.289062 240.957031 L 149.289062 237.292969 C 153.269531 233.398438 157.902344 228.863281 162.460938 224.398438 L 162.550781 224.734375 C 164.46875 232.199219 159.957031 239.832031 152.492188 241.757812 C 151.332031 242.054688 150.152344 242.199219 148.980469 242.195312 Z M 306.835938 102.644531 L 244.613281 38.21875 C 243.714844 37.285156 242.226562 37.257812 241.292969 38.15625 L 201.933594 75.964844 C 201.484375 76.398438 201.222656 76.992188 201.210938 77.617188 C 201.199219 78.246094 201.4375 78.847656 201.871094 79.296875 L 205.78125 83.34375 L 202.839844 86.222656 L 197.835938 91.113281 C 194.269531 94.601562 190.613281 96.308594 184.265625 98.59375 L 105.574219 121.902344 C 100.9375 123.277344 96.984375 126.523438 94.730469 130.804688 L 70.632812 176.664062 C 68.511719 180.699219 67.996094 185.347656 69.183594 189.746094 L 78.578125 224.617188 C 79.132812 226.679688 80.039062 228.605469 81.273438 230.34375 L 91.273438 244.476562 C 93.46875 247.574219 96.742188 249.609375 100.492188 250.203125 C 101.234375 250.324219 101.976562 250.378906 102.714844 250.378906 C 105.695312 250.378906 108.585938 249.429688 111.023438 247.609375 L 111.285156 247.410156 C 111.332031 247.378906 111.375 247.339844 111.421875 247.304688 C 112.925781 252.554688 114.828125 261.074219 114.828125 270.597656 C 114.828125 283.21875 111.492188 294.066406 110.160156 297.890625 L 74.320312 297.890625 C 73.167969 297.890625 72.1875 298.71875 72 299.859375 L 67.609375 326.523438 C 67.496094 327.203125 67.6875 327.898438 68.136719 328.425781 C 68.582031 328.953125 69.238281 329.257812 69.929688 329.257812 L 72.125 329.257812 L 72.125 335.371094 C 72.125 336.671875 73.179688 337.726562 74.476562 337.726562 L 184.261719 337.726562 C 185.5625 337.726562 186.613281 336.671875 186.613281 335.371094 L 186.613281 329.257812 L 188.8125 329.257812 C 189.5 329.257812 190.15625 328.953125 190.605469 328.425781 C 191.050781 327.898438 191.246094 327.203125 191.132812 326.523438 L 186.742188 299.859375 C 186.554688 298.71875 185.570312 297.890625 184.417969 297.890625 L 148.578125 297.890625 C 147.246094 294.0625 143.914062 283.21875 143.914062 270.597656 C 143.914062 260.78125 145.933594 252.035156 147.453125 246.835938 C 147.972656 246.878906 148.492188 246.90625 149.011719 246.90625 C 150.5625 246.90625 152.125 246.710938 153.664062 246.3125 C 159.875 244.714844 164.554688 240.15625 166.585938 234.535156 C 175.40625 233.128906 182.210938 225.519531 182.3125 216.296875 L 182.441406 204.835938 C 183.007812 204.28125 183.441406 203.859375 183.714844 203.59375 C 196.519531 198.4375 208.09375 190.851562 218.128906 181.039062 C 228.097656 171.292969 235.914062 159.925781 241.371094 147.246094 L 250.6875 138.144531 L 254.808594 134.109375 L 259.75 139.226562 C 262.238281 141.808594 265.976562 142.492188 269.128906 141.253906 C 270.140625 140.855469 271.09375 140.253906 271.925781 139.457031 L 306.769531 105.976562 C 307.21875 105.542969 307.480469 104.949219 307.492188 104.324219 C 307.503906 103.699219 307.265625 103.09375 306.835938 102.644531 " fill-opacity="1" fill-rule="nonzero"/></g><g clip-path="url(#ff9e4bd4aa)"><path fill="#ffffff" d="M 307.492188 299.753906 C 307.492188 282.785156 293.6875 268.980469 276.71875 268.980469 C 269.609375 268.980469 263.058594 271.402344 257.839844 275.46875 C 256.6875 273.464844 256.171875 270.59375 256.535156 267.785156 C 256.910156 264.902344 258.15625 262.570312 259.875 261.546875 C 267.03125 257.28125 272.808594 250.269531 276.578125 241.269531 C 279.621094 234.003906 281.273438 225.585938 281.292969 217.363281 L 281.761719 217.363281 C 286.078125 217.363281 289.59375 213.847656 289.59375 209.53125 C 289.59375 205.214844 286.082031 201.707031 281.761719 201.707031 L 208.539062 201.707031 C 204.226562 201.707031 200.714844 205.214844 200.714844 209.53125 C 200.714844 213.847656 204.226562 217.363281 208.539062 217.363281 L 209.015625 217.363281 C 209.035156 225.585938 210.6875 234.003906 213.730469 241.269531 C 217.5 250.269531 223.277344 257.28125 230.433594 261.546875 C 232.53125 262.796875 233.886719 265.953125 233.886719 269.589844 C 233.886719 273.226562 232.53125 276.382812 230.433594 277.632812 C 223.277344 281.898438 217.5 288.90625 213.730469 297.90625 C 210.6875 305.171875 209.035156 313.59375 209.015625 321.816406 L 208.539062 321.816406 C 204.226562 321.816406 200.714844 325.328125 200.714844 329.648438 C 200.714844 333.964844 204.226562 337.472656 208.539062 337.472656 L 281.761719 337.472656 C 286.078125 337.472656 289.59375 333.960938 289.59375 329.648438 C 289.59375 329.027344 289.515625 328.410156 289.367188 327.804688 C 300.046875 322.972656 307.492188 312.214844 307.492188 299.753906 Z M 204.429688 209.53125 C 204.429688 207.261719 206.273438 205.417969 208.539062 205.417969 L 281.761719 205.417969 C 284.03125 205.417969 285.878906 207.261719 285.878906 209.53125 C 285.878906 211.800781 284.03125 213.648438 281.761719 213.648438 L 208.539062 213.648438 C 206.273438 213.648438 204.429688 211.800781 204.429688 209.53125 Z M 232.332031 280.820312 C 235.582031 278.890625 237.597656 274.585938 237.597656 269.589844 C 237.597656 264.59375 235.582031 260.289062 232.335938 258.359375 C 217.867188 249.734375 212.773438 231.308594 212.726562 217.363281 L 277.582031 217.363281 C 277.535156 231.308594 272.445312 249.734375 257.976562 258.359375 C 255.246094 259.980469 253.378906 263.242188 252.851562 267.308594 C 252.335938 271.285156 253.160156 275.1875 255.015625 277.957031 C 253.183594 279.78125 251.578125 281.835938 250.25 284.074219 C 249.171875 283.765625 248.09375 283.554688 247.011719 283.441406 L 247.011719 258.1875 C 254.632812 257.039062 260.84375 248.855469 263.472656 236.246094 C 263.585938 235.699219 263.445312 235.132812 263.09375 234.699219 C 262.742188 234.265625 262.210938 234.011719 261.652344 234.011719 L 228.648438 234.011719 C 228.089844 234.011719 227.558594 234.265625 227.207031 234.699219 C 226.855469 235.132812 226.714844 235.699219 226.828125 236.246094 C 229.457031 248.863281 235.671875 257.046875 243.296875 258.1875 L 243.296875 283.441406 C 240.742188 283.703125 238.214844 284.5 235.773438 285.84375 C 227.523438 290.386719 221.40625 300.472656 218.539062 314.246094 C 218.425781 314.792969 218.5625 315.359375 218.917969 315.792969 C 219.269531 316.226562 219.796875 316.480469 220.355469 316.480469 L 250.898438 316.480469 C 252.160156 318.417969 253.632812 320.210938 255.285156 321.816406 L 212.726562 321.816406 C 212.773438 307.871094 217.867188 289.445312 232.332031 280.820312 Z M 245.175781 254.617188 C 245.167969 254.617188 245.160156 254.617188 245.152344 254.617188 C 245.148438 254.617188 245.140625 254.617188 245.132812 254.617188 C 239.0625 254.601562 233.640625 248.050781 230.984375 237.726562 L 259.316406 237.726562 C 256.660156 248.050781 251.238281 254.601562 245.175781 254.617188 Z M 248.511719 287.457031 C 246.859375 291.226562 245.945312 295.386719 245.945312 299.753906 C 245.945312 304.402344 246.980469 308.8125 248.835938 312.765625 L 222.675781 312.765625 C 225.476562 301.230469 230.714844 292.871094 237.5625 289.097656 C 241.09375 287.152344 244.839844 286.601562 248.511719 287.457031 Z M 285.878906 329.648438 C 285.878906 331.914062 284.03125 333.761719 281.761719 333.761719 L 208.539062 333.761719 C 206.273438 333.761719 204.429688 331.914062 204.429688 329.648438 C 204.429688 327.378906 206.273438 325.53125 208.539062 325.53125 L 259.925781 325.53125 C 264.757812 328.6875 270.527344 330.527344 276.71875 330.527344 C 279.894531 330.527344 282.960938 330.042969 285.847656 329.144531 C 285.871094 329.3125 285.878906 329.480469 285.878906 329.648438 Z M 276.71875 326.816406 C 261.796875 326.816406 249.65625 314.675781 249.65625 299.753906 C 249.65625 284.832031 261.796875 272.695312 276.71875 272.695312 C 291.640625 272.695312 303.777344 284.832031 303.777344 299.753906 C 303.777344 314.675781 291.640625 326.816406 276.71875 326.816406 Z M 292.53125 289.9375 L 277.738281 280.171875 C 277.121094 279.761719 276.316406 279.761719 275.695312 280.171875 L 260.902344 289.9375 C 260.378906 290.28125 260.066406 290.863281 260.066406 291.484375 L 260.066406 313.886719 C 260.066406 314.910156 260.898438 315.742188 261.925781 315.742188 L 291.511719 315.742188 C 292.535156 315.742188 293.367188 314.910156 293.367188 313.886719 L 293.367188 291.484375 C 293.367188 290.863281 293.054688 290.28125 292.53125 289.9375 Z M 280.160156 312.027344 L 273.28125 312.027344 L 273.28125 301.609375 L 280.160156 301.609375 Z M 289.652344 312.027344 L 283.875 312.027344 L 283.875 299.753906 C 283.875 298.730469 283.042969 297.898438 282.015625 297.898438 L 271.425781 297.898438 C 270.398438 297.898438 269.570312 298.730469 269.570312 299.753906 L 269.570312 312.027344 L 263.78125 312.027344 L 263.78125 292.484375 L 276.71875 283.945312 L 289.652344 292.484375 Z M 289.652344 312.027344 " fill-opacity="1" fill-rule="nonzero"/></g></svg>