<svg xmlns="http://www.w3.org/2000/svg" xmlns:xlink="http://www.w3.org/1999/xlink" width="500" zoomAndPan="magnify" viewBox="0 0 375 374.999991" height="500" preserveAspectRatio="xMidYMid meet" version="1.0"><defs><clipPath id="ec0811d1d3"><path d="M 52.476562 53.039062 L 322 53.039062 L 322 322 L 52.476562 322 Z M 52.476562 53.039062 " clip-rule="nonzero"/></clipPath></defs><g clip-path="url(#ec0811d1d3)"><path fill="#ffffff" d="M 124.429688 167.195312 L 110.617188 183.304688 C 109.871094 184.179688 108.800781 184.636719 107.722656 184.636719 C 106.984375 184.636719 106.242188 184.421875 105.589844 183.984375 L 97.074219 178.226562 C 95.328125 177.050781 94.871094 174.679688 96.050781 172.933594 C 97.226562 171.191406 99.597656 170.734375 101.339844 171.910156 L 107.042969 175.765625 L 118.640625 162.234375 C 120.011719 160.636719 122.417969 160.453125 124.015625 161.820312 C 125.613281 163.191406 125.796875 165.597656 124.429688 167.195312 Z M 96.050781 139.847656 C 94.871094 141.589844 95.328125 143.960938 97.070312 145.140625 L 105.585938 150.914062 C 106.238281 151.355469 106.984375 151.570312 107.722656 151.570312 C 108.800781 151.570312 109.867188 151.113281 110.617188 150.238281 L 124.425781 134.128906 C 125.796875 132.53125 125.613281 130.125 124.015625 128.753906 C 122.417969 127.386719 120.011719 127.570312 118.640625 129.167969 L 107.042969 142.695312 L 101.34375 138.832031 C 99.601562 137.652344 97.230469 138.105469 96.050781 139.847656 Z M 138.738281 183.679688 L 159.570312 183.679688 C 161.675781 183.679688 163.382812 181.972656 163.382812 179.867188 C 163.382812 177.761719 161.675781 176.054688 159.570312 176.054688 L 138.738281 176.054688 C 136.632812 176.054688 134.929688 177.761719 134.929688 179.867188 C 134.929688 181.972656 136.636719 183.679688 138.738281 183.679688 Z M 138.894531 161.859375 C 136.789062 161.859375 135.082031 163.566406 135.082031 165.671875 C 135.082031 167.777344 136.789062 169.484375 138.894531 169.484375 L 164.109375 169.484375 C 166.210938 169.484375 167.917969 167.777344 167.917969 165.671875 C 167.917969 163.566406 166.210938 161.859375 164.109375 161.859375 Z M 159.570312 194.941406 L 138.894531 194.941406 C 136.789062 194.941406 135.082031 196.648438 135.082031 198.753906 C 135.082031 200.859375 136.789062 202.566406 138.894531 202.566406 L 159.570312 202.566406 C 161.675781 202.566406 163.382812 200.859375 163.382812 198.753906 C 163.382812 196.648438 161.675781 194.941406 159.570312 194.941406 Z M 138.738281 150.613281 L 171.515625 150.613281 C 173.617188 150.613281 175.324219 148.90625 175.324219 146.800781 C 175.324219 144.695312 173.617188 142.988281 171.515625 142.988281 L 138.738281 142.988281 C 136.632812 142.988281 134.929688 144.695312 134.929688 146.800781 C 134.929688 148.90625 136.636719 150.613281 138.738281 150.613281 Z M 138.894531 136.414062 L 184.476562 136.414062 C 186.582031 136.414062 188.285156 134.710938 188.285156 132.605469 C 188.285156 130.5 186.582031 128.792969 184.476562 128.792969 L 138.894531 128.792969 C 136.789062 128.792969 135.082031 130.5 135.082031 132.605469 C 135.082031 134.710938 136.789062 136.414062 138.894531 136.414062 Z M 97.074219 211.292969 L 105.589844 217.050781 C 106.242188 217.488281 106.984375 217.703125 107.722656 217.703125 C 108.800781 217.703125 109.867188 217.246094 110.617188 216.375 L 124.425781 200.28125 C 125.796875 198.683594 125.613281 196.277344 124.015625 194.90625 C 122.417969 193.535156 120.011719 193.71875 118.640625 195.316406 L 107.042969 208.832031 L 101.339844 204.980469 C 99.597656 203.800781 97.226562 204.257812 96.050781 206.003906 C 94.871094 207.746094 95.328125 210.117188 97.074219 211.296875 Z M 138.738281 216.746094 L 164.109375 216.746094 C 166.210938 216.746094 167.917969 215.039062 167.917969 212.933594 C 167.917969 210.828125 166.210938 209.125 164.109375 209.125 L 138.738281 209.125 C 136.632812 209.125 134.929688 210.828125 134.929688 212.933594 C 134.929688 215.039062 136.636719 216.746094 138.738281 216.746094 Z M 97.074219 244.363281 L 105.589844 250.117188 C 106.242188 250.558594 106.984375 250.769531 107.722656 250.769531 C 108.800781 250.769531 109.867188 250.3125 110.617188 249.441406 L 124.425781 233.347656 C 125.796875 231.75 125.613281 229.34375 124.015625 227.972656 C 122.417969 226.601562 120.011719 226.789062 118.640625 228.382812 L 107.042969 241.898438 L 101.339844 238.046875 C 99.597656 236.867188 97.226562 237.328125 96.050781 239.070312 C 94.871094 240.816406 95.328125 243.183594 97.074219 244.363281 Z M 138.738281 249.828125 L 183.703125 249.828125 C 185.808594 249.828125 187.515625 248.125 187.515625 246.019531 C 187.515625 243.914062 185.808594 242.207031 183.703125 242.207031 L 138.738281 242.207031 C 136.632812 242.207031 134.929688 243.914062 134.929688 246.019531 C 134.929688 248.125 136.636719 249.828125 138.738281 249.828125 Z M 138.894531 228.011719 C 136.789062 228.011719 135.082031 229.71875 135.082031 231.820312 C 135.082031 233.925781 136.789062 235.632812 138.894531 235.632812 L 170.433594 235.632812 C 172.539062 235.632812 174.246094 233.925781 174.246094 231.820312 C 174.246094 229.71875 172.539062 228.011719 170.433594 228.011719 Z M 124.015625 261.039062 C 122.417969 259.671875 120.011719 259.855469 118.640625 261.453125 L 107.046875 274.980469 L 101.34375 271.117188 C 99.601562 269.9375 97.230469 270.390625 96.050781 272.132812 C 94.871094 273.875 95.328125 276.246094 97.070312 277.425781 L 105.585938 283.199219 C 106.238281 283.640625 106.984375 283.855469 107.722656 283.855469 C 108.800781 283.855469 109.867188 283.398438 110.617188 282.523438 L 124.425781 266.414062 C 125.796875 264.816406 125.613281 262.410156 124.015625 261.039062 Z M 138.738281 282.898438 L 193.300781 282.898438 C 195.40625 282.898438 197.113281 281.191406 197.113281 279.085938 C 197.113281 276.980469 195.40625 275.273438 193.300781 275.273438 L 138.738281 275.273438 C 136.632812 275.273438 134.929688 276.980469 134.929688 279.085938 C 134.929688 281.191406 136.636719 282.898438 138.738281 282.898438 Z M 135.082031 264.890625 C 135.082031 266.996094 136.789062 268.703125 138.894531 268.703125 L 193.300781 268.703125 C 195.40625 268.703125 197.113281 266.996094 197.113281 264.890625 C 197.113281 262.785156 195.40625 261.078125 193.300781 261.078125 L 138.894531 261.078125 C 136.789062 261.078125 135.082031 262.785156 135.082031 264.890625 Z M 320.65625 303.195312 C 318.894531 309.757812 314.703125 315.230469 308.851562 318.601562 C 304.875 320.898438 300.523438 321.992188 296.230469 321.992188 C 287.457031 321.992188 278.90625 317.441406 274.207031 309.308594 L 263.601562 290.925781 C 262.550781 289.105469 263.175781 286.773438 265 285.722656 L 267.5 284.28125 L 248.277344 250.988281 C 246.195312 251.476562 244.101562 251.859375 242 252.132812 L 242 314.175781 C 242 318.480469 238.496094 321.984375 234.191406 321.984375 L 60.414062 321.984375 C 56.109375 321.984375 52.605469 318.480469 52.605469 314.175781 L 52.605469 88.179688 C 52.605469 83.882812 56.109375 80.386719 60.414062 80.386719 L 103.851562 80.386719 L 103.851562 78.335938 C 103.851562 74.328125 107.117188 71.066406 111.132812 71.066406 L 125.832031 71.066406 C 127.640625 60.847656 136.578125 53.058594 147.304688 53.058594 C 158.027344 53.058594 166.96875 60.847656 168.773438 71.066406 L 183.472656 71.066406 C 187.488281 71.066406 190.753906 74.328125 190.753906 78.335938 L 190.753906 80.386719 L 234.191406 80.386719 C 238.496094 80.386719 242 83.882812 242 88.179688 L 242 126.773438 C 244.734375 127.136719 247.460938 127.675781 250.171875 128.398438 C 266.480469 132.769531 280.109375 143.230469 288.550781 157.855469 C 302.652344 182.277344 298.542969 212.300781 280.46875 232.101562 L 299.824219 265.625 L 302.324219 264.179688 C 304.148438 263.128906 306.476562 263.753906 307.53125 265.574219 L 318.144531 283.953125 C 321.523438 289.800781 322.414062 296.632812 320.652344 303.195312 Z M 248.199219 135.761719 C 244.800781 134.851562 241.363281 134.273438 237.929688 134.011719 C 237.867188 134.007812 237.808594 134.003906 237.75 133.996094 C 226.757812 133.195312 215.78125 135.6875 206.023438 141.320312 C 179.480469 156.648438 170.351562 190.707031 185.675781 217.246094 C 195.960938 235.058594 214.6875 245.027344 233.910156 245.03125 C 243.332031 245.03125 252.871094 242.636719 261.605469 237.59375 C 288.148438 222.269531 297.273438 188.207031 281.949219 161.667969 C 274.527344 148.804688 262.539062 139.605469 248.199219 135.761719 Z M 103.851562 110.167969 L 103.851562 108.132812 L 81.105469 108.132812 L 81.105469 294.238281 L 213.5 294.238281 L 213.5 249.273438 C 199.472656 244.519531 187.046875 234.863281 179.078125 221.058594 C 161.652344 190.878906 172.027344 152.148438 202.210938 134.71875 C 205.84375 132.625 209.621094 130.910156 213.5 129.585938 L 213.5 108.132812 L 190.757812 108.132812 L 190.757812 110.167969 C 190.757812 114.183594 187.488281 117.453125 183.472656 117.453125 L 111.132812 117.453125 C 107.117188 117.453125 103.851562 114.183594 103.851562 110.167969 Z M 190.757812 88.011719 L 190.757812 100.507812 L 216.789062 100.507812 C 219.179688 100.507812 221.125 102.453125 221.125 104.84375 L 221.125 127.507812 C 225.480469 126.609375 229.917969 126.179688 234.378906 126.226562 L 234.378906 88.179688 C 234.378906 88.105469 234.289062 88.011719 234.191406 88.011719 Z M 111.472656 109.828125 L 183.132812 109.828125 L 183.132812 78.691406 L 165.296875 78.691406 C 163.191406 78.691406 161.484375 76.984375 161.484375 74.878906 C 161.484375 67.050781 155.125 60.683594 147.304688 60.683594 C 139.484375 60.683594 133.125 67.050781 133.125 74.878906 C 133.125 76.984375 131.417969 78.691406 129.3125 78.691406 L 111.472656 78.691406 Z M 234.378906 252.644531 C 234.226562 252.644531 234.074219 252.652344 233.921875 252.652344 C 229.609375 252.652344 225.320312 252.203125 221.125 251.339844 L 221.125 297.523438 C 221.125 299.917969 219.179688 301.863281 216.789062 301.863281 L 77.820312 301.863281 C 75.429688 301.863281 73.484375 299.917969 73.484375 297.523438 L 73.484375 104.84375 C 73.484375 102.453125 75.429688 100.507812 77.820312 100.507812 L 103.851562 100.507812 L 103.851562 88.011719 L 60.414062 88.011719 C 60.316406 88.011719 60.230469 88.105469 60.230469 88.179688 L 60.230469 314.175781 C 60.230469 314.277344 60.332031 314.359375 60.414062 314.359375 L 234.191406 314.359375 C 234.277344 314.359375 234.378906 314.277344 234.378906 314.175781 Z M 274.101562 280.46875 L 293.222656 269.433594 L 274.820312 237.5625 C 271.941406 240.011719 268.804688 242.238281 265.417969 244.195312 C 262.285156 246.003906 259.0625 247.511719 255.777344 248.730469 Z M 311.546875 287.765625 L 302.835938 272.6875 L 300.339844 274.128906 C 300.339844 274.128906 300.335938 274.128906 300.335938 274.132812 C 300.335938 274.132812 300.332031 274.132812 300.332031 274.132812 L 274.617188 288.972656 C 274.617188 288.972656 274.613281 288.972656 274.613281 288.976562 C 274.613281 288.976562 274.613281 288.976562 274.609375 288.976562 L 272.113281 290.417969 L 280.808594 305.496094 C 285.707031 313.96875 296.578125 316.886719 305.042969 312 C 309.132812 309.640625 312.0625 305.8125 313.292969 301.21875 C 314.523438 296.625 313.90625 291.847656 311.546875 287.765625 Z M 233.824219 145.101562 C 258.273438 145.101562 278.167969 164.996094 278.167969 189.449219 C 278.167969 213.902344 258.277344 233.796875 233.824219 233.796875 C 228.703125 233.796875 223.789062 232.914062 219.210938 231.3125 C 219.007812 231.261719 218.808594 231.195312 218.613281 231.109375 C 209.878906 227.910156 202.421875 222.035156 197.238281 214.480469 C 197.042969 214.253906 196.878906 214 196.738281 213.730469 C 193.648438 209.023438 191.425781 203.699219 190.308594 197.980469 C 190.246094 197.761719 190.207031 197.539062 190.1875 197.304688 C 189.726562 194.753906 189.476562 192.132812 189.476562 189.449219 C 189.476562 186.769531 189.726562 184.140625 190.1875 181.585938 C 190.207031 181.375 190.246094 181.171875 190.296875 180.96875 C 191.414062 175.230469 193.640625 169.890625 196.742188 165.167969 C 196.878906 164.898438 197.042969 164.648438 197.238281 164.421875 C 202.449219 156.824219 209.960938 150.925781 218.761719 147.738281 C 218.855469 147.703125 218.949219 147.671875 219.042969 147.644531 C 223.671875 146.003906 228.640625 145.101562 233.820312 145.101562 Z M 220.171875 223.53125 C 224.65625 221.726562 228.65625 219.082031 232.011719 215.820312 L 208.300781 215.820312 C 211.695312 219.105469 215.71875 221.742188 220.171875 223.53125 Z M 242.992188 185.746094 L 197.285156 185.746094 C 197.160156 186.964844 197.097656 188.199219 197.097656 189.449219 C 197.097656 190.699219 197.160156 191.945312 197.285156 193.167969 L 242.992188 193.167969 C 243.117188 191.941406 243.1875 190.703125 243.1875 189.449219 C 243.1875 188.199219 243.117188 186.96875 242.992188 185.746094 Z M 241.382812 200.792969 L 198.898438 200.792969 C 199.746094 203.402344 200.878906 205.882812 202.261719 208.199219 L 238.023438 208.199219 C 239.40625 205.871094 240.535156 203.386719 241.382812 200.792969 Z M 241.390625 178.125 C 240.542969 175.523438 239.410156 173.035156 238.023438 170.703125 L 202.261719 170.703125 C 200.875 173.023438 199.742188 175.511719 198.894531 178.125 Z M 232.007812 163.078125 C 228.648438 159.820312 224.644531 157.175781 220.152344 155.375 C 215.707031 157.164062 211.691406 159.796875 208.300781 163.078125 Z M 233.824219 152.726562 C 233.019531 152.726562 232.222656 152.761719 231.429688 152.8125 C 236.027344 155.953125 239.964844 159.917969 243.066406 164.457031 C 243.226562 164.652344 243.367188 164.859375 243.488281 165.082031 C 246.632812 169.859375 248.867188 175.246094 249.988281 180.964844 C 250.042969 181.167969 250.082031 181.378906 250.101562 181.597656 C 250.5625 184.160156 250.8125 186.785156 250.8125 189.449219 C 250.8125 192.117188 250.5625 194.734375 250.101562 197.292969 C 250.082031 197.535156 250.039062 197.769531 249.976562 197.992188 C 248.851562 203.6875 246.625 209.050781 243.492188 213.8125 C 243.371094 214.039062 243.226562 214.25 243.0625 214.445312 C 239.964844 218.984375 236.03125 222.945312 231.441406 226.089844 C 232.226562 226.140625 233.023438 226.175781 233.824219 226.175781 C 254.074219 226.175781 270.546875 209.699219 270.546875 189.449219 C 270.546875 169.199219 254.074219 152.726562 233.824219 152.726562 Z M 233.824219 152.726562 " fill-opacity="1" fill-rule="nonzero"/></g></svg>