<svg xmlns="http://www.w3.org/2000/svg" xmlns:xlink="http://www.w3.org/1999/xlink" width="500" zoomAndPan="magnify" viewBox="0 0 375 374.999991" height="500" preserveAspectRatio="xMidYMid meet" version="1.0"><defs><clipPath id="97d3de3aeb"><path d="M 52.5625 96 L 322.5625 96 L 322.5625 275 L 52.5625 275 Z M 52.5625 96 " clip-rule="nonzero"/></clipPath><clipPath id="45f2e21221"><path d="M 52.5625 238 L 322.5625 238 L 322.5625 248 L 52.5625 248 Z M 52.5625 238 " clip-rule="nonzero"/></clipPath><clipPath id="73909b2102"><path d="M 108 52.222656 L 217 52.222656 L 217 120 L 108 120 Z M 108 52.222656 " clip-rule="nonzero"/></clipPath><clipPath id="debcc658bf"><path d="M 131 298 L 244 298 L 244 322.972656 L 131 322.972656 Z M 131 298 " clip-rule="nonzero"/></clipPath></defs><g clip-path="url(#97d3de3aeb)"><path fill="#ffffff" d="M 307.820312 274.839844 L 67.121094 274.839844 C 59.082031 274.839844 52.59375 268.296875 52.59375 260.316406 L 52.59375 111.410156 C 52.59375 103.371094 59.140625 96.886719 67.121094 96.886719 L 112.699219 96.886719 C 115.109375 96.886719 117.121094 98.835938 117.121094 101.304688 L 117.121094 104.519531 C 117.121094 108.136719 120.046875 111.121094 123.722656 111.121094 L 200.875 111.121094 C 204.488281 111.121094 207.476562 108.195312 207.476562 104.519531 L 207.476562 101.304688 C 207.476562 98.894531 209.425781 96.886719 211.894531 96.886719 L 307.820312 96.886719 C 315.855469 96.886719 322.34375 103.429688 322.34375 111.410156 L 322.34375 260.261719 C 322.34375 268.296875 315.855469 274.839844 307.820312 274.839844 Z M 67.121094 105.667969 C 63.960938 105.667969 61.378906 108.25 61.378906 111.410156 L 61.378906 260.261719 C 61.378906 263.417969 63.960938 266 67.121094 266 L 307.820312 266 C 310.976562 266 313.558594 263.417969 313.558594 260.261719 L 313.558594 111.410156 C 313.558594 108.25 310.976562 105.667969 307.820312 105.667969 L 216.199219 105.667969 C 215.625 113.589844 208.96875 119.90625 200.816406 119.90625 L 123.722656 119.90625 C 115.625 119.90625 108.96875 113.589844 108.335938 105.667969 Z M 67.121094 105.667969 " fill-opacity="1" fill-rule="nonzero"/></g><g clip-path="url(#45f2e21221)"><path fill="#ffffff" d="M 317.980469 247.058594 L 57.015625 247.058594 C 54.605469 247.058594 52.59375 245.105469 52.59375 242.636719 C 52.59375 240.167969 54.546875 238.21875 57.015625 238.21875 L 317.980469 238.21875 C 320.390625 238.21875 322.398438 240.167969 322.398438 242.636719 C 322.398438 245.105469 320.390625 247.058594 317.980469 247.058594 Z M 317.980469 247.058594 " fill-opacity="1" fill-rule="nonzero"/></g><path fill="#ffffff" d="M 291.746094 262.382812 C 289.335938 262.382812 287.324219 260.433594 287.324219 257.964844 L 287.324219 255.035156 C 287.324219 252.625 289.277344 250.617188 291.746094 250.617188 C 294.214844 250.617188 296.167969 252.570312 296.167969 255.035156 L 296.167969 257.964844 C 296.167969 260.433594 294.15625 262.382812 291.746094 262.382812 Z M 291.746094 262.382812 " fill-opacity="1" fill-rule="nonzero"/><path fill="#ffffff" d="M 276.878906 262.382812 C 274.46875 262.382812 272.457031 260.433594 272.457031 257.964844 L 272.457031 255.035156 C 272.457031 252.625 274.410156 250.617188 276.878906 250.617188 C 279.347656 250.617188 281.296875 252.570312 281.296875 255.035156 L 281.296875 257.964844 C 281.296875 260.433594 279.289062 262.382812 276.878906 262.382812 Z M 276.878906 262.382812 " fill-opacity="1" fill-rule="nonzero"/><path fill="#ffffff" d="M 262.011719 262.382812 C 259.597656 262.382812 257.589844 260.433594 257.589844 257.964844 L 257.589844 255.035156 C 257.589844 252.625 259.542969 250.617188 262.011719 250.617188 C 264.476562 250.617188 266.429688 252.570312 266.429688 255.035156 L 266.429688 257.964844 C 266.429688 260.433594 264.421875 262.382812 262.011719 262.382812 Z M 262.011719 262.382812 " fill-opacity="1" fill-rule="nonzero"/><path fill="#ffffff" d="M 247.140625 262.382812 C 244.730469 262.382812 242.722656 260.433594 242.722656 257.964844 L 242.722656 255.035156 C 242.722656 252.625 244.671875 250.617188 247.140625 250.617188 C 249.609375 250.617188 251.5625 252.570312 251.5625 255.035156 L 251.5625 257.964844 C 251.5625 260.433594 249.554688 262.382812 247.140625 262.382812 Z M 247.140625 262.382812 " fill-opacity="1" fill-rule="nonzero"/><path fill="#ffffff" d="M 263.332031 228.976562 L 254.660156 228.976562 C 251.964844 228.976562 249.324219 227.828125 247.488281 225.875 C 245.648438 223.980469 244.730469 221.511719 244.847656 218.929688 L 248.003906 150.503906 C 248.117188 148.089844 250.183594 146.195312 252.59375 146.3125 C 255.007812 146.425781 256.902344 148.492188 256.785156 150.902344 L 253.628906 219.332031 C 253.628906 219.503906 253.6875 219.617188 253.859375 219.789062 C 254.089844 220.019531 254.375 220.132812 254.660156 220.132812 L 263.332031 220.132812 C 263.617188 220.132812 263.960938 220.019531 264.132812 219.789062 C 264.304688 219.617188 264.363281 219.503906 264.363281 219.332031 L 261.207031 150.960938 C 261.089844 148.550781 262.984375 146.484375 265.398438 146.367188 C 267.863281 146.253906 269.875 148.148438 269.988281 150.558594 L 273.148438 218.988281 C 273.261719 221.570312 272.34375 224.039062 270.507812 225.933594 C 268.667969 227.882812 266.027344 228.976562 263.332031 228.976562 Z M 263.332031 228.976562 " fill-opacity="1" fill-rule="nonzero"/><path fill="#ffffff" d="M 278.886719 155.152344 L 238.992188 155.152344 C 236.578125 155.152344 234.570312 153.199219 234.570312 150.730469 C 234.570312 148.261719 236.523438 146.3125 238.992188 146.3125 L 278.886719 146.3125 C 281.296875 146.3125 283.308594 148.261719 283.308594 150.730469 C 283.308594 153.199219 281.355469 155.152344 278.886719 155.152344 Z M 278.886719 130.007812 L 238.992188 130.007812 C 236.578125 130.007812 234.570312 128.054688 234.570312 125.589844 C 234.570312 123.121094 236.523438 121.167969 238.992188 121.167969 L 278.886719 121.167969 C 281.296875 121.167969 283.308594 123.121094 283.308594 125.589844 C 283.308594 128.054688 281.355469 130.007812 278.886719 130.007812 Z M 278.886719 130.007812 " fill-opacity="1" fill-rule="nonzero"/><path fill="#ffffff" d="M 239.046875 162.5 L 229.691406 162.5 C 224.523438 162.5 220.332031 158.308594 220.332031 153.144531 L 220.332031 123.175781 C 220.332031 118.011719 224.523438 113.820312 229.691406 113.820312 L 239.046875 113.820312 C 241.457031 113.820312 243.46875 115.773438 243.46875 118.242188 L 243.46875 158.136719 C 243.46875 160.546875 241.457031 162.5 239.046875 162.5 Z M 229.691406 122.601562 C 229.402344 122.601562 229.117188 122.890625 229.117188 123.175781 L 229.117188 153.144531 C 229.117188 153.429688 229.402344 153.714844 229.691406 153.714844 L 234.628906 153.714844 L 234.628906 122.660156 L 229.691406 122.660156 Z M 229.691406 122.601562 " fill-opacity="1" fill-rule="nonzero"/><path fill="#ffffff" d="M 288.242188 162.5 L 278.886719 162.5 C 276.476562 162.5 274.46875 160.546875 274.46875 158.078125 L 274.46875 118.242188 C 274.46875 115.828125 276.417969 113.820312 278.886719 113.820312 L 288.242188 113.820312 C 293.410156 113.820312 297.601562 118.011719 297.601562 123.175781 L 297.601562 153.144531 C 297.660156 158.308594 293.410156 162.5 288.242188 162.5 Z M 283.308594 153.714844 L 288.242188 153.714844 C 288.53125 153.714844 288.816406 153.429688 288.816406 153.144531 L 288.816406 123.175781 C 288.816406 122.890625 288.53125 122.601562 288.242188 122.601562 L 283.308594 122.601562 Z M 283.308594 153.714844 " fill-opacity="1" fill-rule="nonzero"/><path fill="#ffffff" d="M 134.914062 90.457031 L 126.648438 90.457031 C 124.238281 90.457031 122.226562 88.503906 122.226562 86.035156 L 122.226562 73.003906 C 122.226562 70.59375 124.179688 68.585938 126.648438 68.585938 L 134.914062 68.585938 C 143.238281 68.585938 147.542969 74.09375 147.542969 79.550781 C 147.542969 85.003906 143.238281 90.457031 134.914062 90.457031 Z M 131.070312 81.671875 L 134.972656 81.671875 C 137.613281 81.671875 138.816406 80.582031 138.816406 79.550781 C 138.816406 78.515625 137.613281 77.425781 134.972656 77.425781 L 131.070312 77.425781 Z M 131.070312 81.671875 " fill-opacity="1" fill-rule="nonzero"/><path fill="#ffffff" d="M 138.1875 103.542969 L 126.648438 103.542969 C 124.238281 103.542969 122.226562 101.59375 122.226562 99.125 L 122.226562 86.035156 C 122.226562 83.625 124.179688 81.617188 126.648438 81.617188 L 138.1875 81.617188 C 144.214844 81.617188 149.152344 86.550781 149.152344 92.582031 C 149.152344 98.609375 144.214844 103.542969 138.1875 103.542969 Z M 131.070312 94.703125 L 138.1875 94.703125 C 139.335938 94.703125 140.3125 93.726562 140.3125 92.582031 C 140.3125 91.433594 139.335938 90.457031 138.1875 90.457031 L 131.070312 90.457031 Z M 131.070312 94.703125 " fill-opacity="1" fill-rule="nonzero"/><path fill="#ffffff" d="M 162.296875 103.542969 C 159.886719 103.542969 157.875 101.59375 157.875 99.125 L 157.875 73.003906 C 157.875 70.59375 159.828125 68.585938 162.296875 68.585938 C 164.765625 68.585938 166.71875 70.535156 166.71875 73.003906 L 166.71875 99.125 C 166.660156 101.535156 164.707031 103.542969 162.296875 103.542969 Z M 162.296875 103.542969 " fill-opacity="1" fill-rule="nonzero"/><path fill="#ffffff" d="M 167.464844 77.425781 L 157.015625 77.425781 C 154.605469 77.425781 152.59375 75.472656 152.59375 73.003906 C 152.59375 70.535156 154.546875 68.585938 157.015625 68.585938 L 167.464844 68.585938 C 169.875 68.585938 171.882812 70.535156 171.882812 73.003906 C 171.882812 75.472656 169.933594 77.425781 167.464844 77.425781 Z M 167.464844 77.425781 " fill-opacity="1" fill-rule="nonzero"/><path fill="#ffffff" d="M 167.464844 103.542969 L 157.015625 103.542969 C 154.605469 103.542969 152.59375 101.59375 152.59375 99.125 C 152.59375 96.65625 154.546875 94.703125 157.015625 94.703125 L 167.464844 94.703125 C 169.875 94.703125 171.882812 96.65625 171.882812 99.125 C 171.882812 101.59375 169.933594 103.542969 167.464844 103.542969 Z M 167.464844 103.542969 " fill-opacity="1" fill-rule="nonzero"/><path fill="#ffffff" d="M 188.644531 103.542969 L 179.804688 103.542969 C 177.394531 103.542969 175.386719 101.59375 175.386719 99.125 L 175.386719 73.003906 C 175.386719 70.59375 177.335938 68.585938 179.804688 68.585938 L 188.703125 68.585938 C 196.625 68.585938 202.367188 75.933594 202.367188 86.035156 C 202.367188 90.285156 201.273438 94.300781 199.378906 97.34375 C 196.855469 101.363281 193.066406 103.542969 188.644531 103.542969 Z M 184.226562 94.703125 L 188.703125 94.703125 C 189.566406 94.703125 190.769531 94.472656 191.917969 92.695312 C 192.953125 91.03125 193.582031 88.621094 193.582031 86.035156 C 193.582031 82.535156 192.261719 77.367188 188.703125 77.367188 L 184.226562 77.367188 Z M 184.226562 94.703125 " fill-opacity="1" fill-rule="nonzero"/><path fill="#ffffff" d="M 180.265625 228.113281 L 158.050781 228.113281 C 149.726562 228.113281 142.953125 221.742188 142.953125 213.878906 C 142.953125 206.011719 149.726562 199.640625 158.050781 199.640625 C 160.460938 199.640625 162.46875 201.59375 162.46875 204.0625 C 162.46875 206.53125 160.515625 208.480469 158.050781 208.480469 C 154.605469 208.480469 151.792969 210.890625 151.792969 213.878906 C 151.792969 217.09375 155.0625 219.273438 158.050781 219.273438 L 180.265625 219.273438 C 183.710938 219.273438 186.523438 216.863281 186.523438 213.878906 C 186.523438 210.890625 183.710938 208.480469 180.265625 208.480469 C 177.855469 208.480469 175.84375 206.53125 175.84375 204.0625 C 175.84375 201.59375 177.796875 199.640625 180.265625 199.640625 C 188.589844 199.640625 195.363281 206.011719 195.363281 213.878906 C 195.363281 221.742188 188.589844 228.113281 180.265625 228.113281 Z M 180.265625 228.113281 " fill-opacity="1" fill-rule="nonzero"/><path fill="#ffffff" d="M 182.042969 169.160156 C 179.632812 169.160156 177.625 167.207031 177.625 164.738281 C 177.625 162.269531 179.574219 160.316406 182.042969 160.316406 C 185.488281 160.316406 188.300781 157.90625 188.300781 154.921875 C 188.300781 153.199219 187.382812 151.9375 186.578125 151.25 C 185.375 150.15625 183.710938 149.527344 182.042969 149.527344 L 170.046875 149.527344 C 167.636719 149.527344 165.625 147.574219 165.625 145.105469 C 165.625 142.636719 167.578125 140.6875 170.046875 140.6875 L 182.042969 140.6875 C 186.003906 140.6875 189.738281 142.121094 192.550781 144.761719 C 195.476562 147.460938 197.085938 151.074219 197.085938 154.921875 C 197.085938 162.785156 190.367188 169.160156 182.042969 169.160156 Z M 182.042969 169.160156 " fill-opacity="1" fill-rule="nonzero"/><path fill="#ffffff" d="M 185.203125 208.480469 L 153.167969 208.480469 C 145.304688 208.480469 138.933594 202.109375 138.933594 194.246094 C 138.933594 186.378906 145.304688 180.007812 153.167969 180.007812 L 163.101562 180.007812 C 165.511719 180.007812 167.519531 181.960938 167.519531 184.429688 C 167.519531 186.898438 165.570312 188.847656 163.101562 188.847656 L 153.167969 188.847656 C 150.183594 188.847656 147.773438 191.257812 147.773438 194.246094 C 147.773438 197.230469 150.183594 199.640625 153.167969 199.640625 L 185.203125 199.640625 C 188.1875 199.640625 190.597656 197.230469 190.597656 194.246094 C 190.597656 191.257812 188.1875 188.847656 185.203125 188.847656 L 177.507812 188.847656 C 175.097656 188.847656 173.089844 186.898438 173.089844 184.429688 C 173.089844 181.960938 175.039062 180.007812 177.507812 180.007812 L 185.203125 180.007812 C 193.066406 180.007812 199.4375 186.378906 199.4375 194.246094 C 199.4375 202.109375 193.007812 208.480469 185.203125 208.480469 Z M 185.203125 208.480469 " fill-opacity="1" fill-rule="nonzero"/><path fill="#ffffff" d="M 192.492188 188.847656 L 185.316406 188.847656 C 182.90625 188.847656 180.894531 186.898438 180.894531 184.429688 C 180.894531 181.960938 182.847656 180.007812 185.316406 180.007812 L 192.492188 180.007812 C 195.9375 180.007812 198.75 177.597656 198.75 174.613281 C 198.75 173.292969 198.117188 171.914062 197.027344 170.9375 C 195.820312 169.847656 194.15625 169.214844 192.492188 169.214844 L 179.347656 169.214844 C 176.933594 169.214844 174.925781 167.265625 174.925781 164.796875 C 174.925781 162.328125 176.878906 160.375 179.347656 160.375 L 192.492188 160.375 C 196.453125 160.375 200.183594 161.8125 202.996094 164.453125 C 205.867188 167.09375 207.53125 170.824219 207.53125 174.613281 C 207.589844 182.417969 200.816406 188.847656 192.492188 188.847656 Z M 192.492188 188.847656 " fill-opacity="1" fill-rule="nonzero"/><path fill="#ffffff" d="M 158.050781 228.113281 L 139.964844 228.113281 C 134.570312 228.113281 129.347656 227.253906 124.410156 225.53125 C 124.121094 225.414062 123.835938 225.300781 123.546875 225.128906 C 109.082031 216.402344 106.613281 216.574219 97.488281 217.4375 C 93.582031 217.78125 88.761719 218.238281 81.757812 218.238281 C 79.347656 218.238281 77.335938 216.289062 77.335938 213.820312 L 77.335938 154.921875 C 77.335938 152.511719 79.289062 150.503906 81.757812 150.503906 L 99.667969 150.503906 C 100.816406 150.503906 101.964844 150.042969 102.824219 149.183594 C 105.410156 146.542969 108.222656 144.128906 111.035156 142.179688 C 120.105469 135.863281 136.0625 128.976562 149.78125 128.859375 C 153.054688 128.804688 156.039062 129.605469 158.851562 131.328125 C 165.453125 135.230469 186.636719 149.238281 183.710938 165.65625 C 181.070312 180.238281 181.988281 186.035156 182.332031 188.21875 C 182.5625 189.59375 182.390625 192.351562 178.714844 194.875 C 175.15625 197.34375 169.585938 198.722656 165.050781 196.140625 C 160.230469 193.441406 158.050781 187.585938 158.625 178.6875 C 159.140625 170.132812 156.785156 163.648438 152.078125 160.835938 C 147.773438 158.25 141.804688 158.941406 135.605469 162.785156 C 133.535156 164.050781 130.839844 163.417969 129.519531 161.351562 C 128.253906 159.285156 128.886719 156.585938 130.953125 155.265625 C 140.023438 149.699219 149.382812 148.953125 156.554688 153.257812 C 164.132812 157.792969 168.09375 167.265625 167.347656 179.203125 C 167.003906 185.289062 168.265625 188.046875 169.472656 188.503906 C 170.621094 188.964844 172.34375 188.390625 173.320312 187.816406 C 172.800781 183.335938 172.6875 176.5625 174.984375 164.050781 C 176.535156 155.4375 164.824219 145.105469 154.316406 138.90625 C 152.882812 138.046875 151.503906 137.699219 149.839844 137.699219 C 138.53125 137.816406 124.292969 143.671875 116.085938 149.410156 C 113.675781 151.074219 111.320312 153.144531 109.082031 155.4375 C 106.5 158.023438 103.167969 159.398438 99.667969 159.398438 L 86.179688 159.398438 L 86.179688 209.457031 C 90.539062 209.34375 93.871094 208.996094 96.683594 208.769531 C 107.648438 207.792969 111.894531 207.90625 127.738281 217.4375 C 131.644531 218.699219 135.777344 219.386719 140.023438 219.386719 L 158.105469 219.386719 C 160.515625 219.386719 162.527344 221.339844 162.527344 223.808594 C 162.527344 226.277344 160.460938 228.113281 158.050781 228.113281 Z M 158.050781 228.113281 " fill-opacity="1" fill-rule="nonzero"/><path fill="#ffffff" d="M 155.410156 188.847656 C 147.085938 188.847656 140.3125 182.476562 140.3125 174.613281 C 140.3125 170.824219 141.976562 167.09375 144.847656 164.453125 C 147.660156 161.8125 151.449219 160.375 155.351562 160.375 L 160.863281 160.375 C 163.273438 160.375 165.28125 162.328125 165.28125 164.796875 C 165.28125 167.265625 163.332031 169.214844 160.863281 169.214844 L 155.351562 169.214844 C 153.628906 169.214844 151.964844 169.847656 150.816406 170.9375 C 149.726562 171.972656 149.09375 173.292969 149.09375 174.613281 C 149.09375 177.597656 151.90625 180.007812 155.351562 180.007812 C 157.761719 180.007812 159.769531 181.960938 159.769531 184.429688 C 159.769531 186.898438 157.820312 188.847656 155.410156 188.847656 Z M 155.410156 188.847656 " fill-opacity="1" fill-rule="nonzero"/><g clip-path="url(#73909b2102)"><path fill="#ffffff" d="M 200.875 119.90625 L 123.722656 119.90625 C 115.226562 119.90625 108.335938 113.015625 108.335938 104.519531 L 108.335938 67.609375 C 108.335938 59.113281 115.226562 52.222656 123.722656 52.222656 L 200.875 52.222656 C 209.371094 52.222656 216.257812 59.113281 216.257812 67.609375 L 216.257812 104.519531 C 216.257812 113.015625 209.371094 119.90625 200.875 119.90625 Z M 123.722656 61.007812 C 120.105469 61.007812 117.121094 63.933594 117.121094 67.609375 L 117.121094 104.519531 C 117.121094 108.136719 120.046875 111.121094 123.722656 111.121094 L 200.875 111.121094 C 204.488281 111.121094 207.476562 108.195312 207.476562 104.519531 L 207.476562 67.609375 C 207.476562 63.992188 204.546875 61.007812 200.875 61.007812 Z M 123.722656 61.007812 " fill-opacity="1" fill-rule="nonzero"/></g><path fill="#ffffff" d="M 170.507812 149.527344 C 168.09375 149.527344 166.085938 147.574219 166.085938 145.105469 L 166.085938 115.484375 C 166.085938 113.074219 168.039062 111.066406 170.507812 111.066406 C 172.972656 111.066406 174.925781 113.015625 174.925781 115.484375 L 174.925781 145.105469 C 174.925781 147.574219 172.972656 149.527344 170.507812 149.527344 Z M 154.089844 138.273438 C 151.675781 138.273438 149.667969 136.324219 149.667969 133.855469 L 149.667969 115.484375 C 149.667969 113.074219 151.621094 111.066406 154.089844 111.066406 C 156.554688 111.066406 158.507812 113.015625 158.507812 115.484375 L 158.507812 133.855469 C 158.449219 136.324219 156.5 138.273438 154.089844 138.273438 Z M 154.089844 138.273438 " fill-opacity="1" fill-rule="nonzero"/><g clip-path="url(#debcc658bf)"><path fill="#ffffff" d="M 238.644531 322.773438 L 136.351562 322.773438 C 133.9375 322.773438 131.929688 320.824219 131.929688 318.355469 L 131.929688 310.835938 C 131.929688 304.234375 137.269531 298.894531 143.871094 298.894531 L 231.070312 298.894531 C 237.671875 298.894531 243.007812 304.234375 243.007812 310.835938 L 243.007812 318.355469 C 243.007812 320.824219 241.058594 322.773438 238.644531 322.773438 Z M 140.769531 313.933594 L 234.226562 313.933594 L 234.226562 310.835938 C 234.226562 309.113281 232.847656 307.734375 231.125 307.734375 L 143.871094 307.734375 C 142.148438 307.734375 140.769531 309.113281 140.769531 310.835938 Z M 140.769531 313.933594 " fill-opacity="1" fill-rule="nonzero"/></g><path fill="#ffffff" d="M 227.910156 307.675781 C 226.878906 307.675781 225.789062 307.332031 224.984375 306.53125 C 223.605469 305.265625 222.171875 304.0625 220.792969 302.855469 C 210.976562 294.359375 199.839844 284.773438 203.339844 269.386719 C 203.859375 267.035156 206.210938 265.542969 208.625 266.058594 C 210.976562 266.574219 212.46875 268.988281 211.953125 271.339844 C 209.769531 281.042969 216.085938 287.125 226.589844 296.195312 C 228.027344 297.402344 229.460938 298.664062 230.894531 299.984375 C 232.734375 301.59375 232.847656 304.40625 231.242188 306.183594 C 230.320312 307.21875 229.117188 307.675781 227.910156 307.675781 Z M 227.910156 307.675781 " fill-opacity="1" fill-rule="nonzero"/><path fill="#ffffff" d="M 147.085938 307.675781 C 145.878906 307.675781 144.671875 307.160156 143.8125 306.183594 C 142.207031 304.347656 142.320312 301.59375 144.15625 299.984375 C 145.59375 298.664062 147.085938 297.402344 148.519531 296.195312 C 159.023438 287.125 165.339844 281.097656 163.15625 271.339844 C 162.640625 268.988281 164.132812 266.574219 166.488281 266.058594 C 168.839844 265.542969 171.253906 267.035156 171.769531 269.386719 C 175.269531 284.773438 164.132812 294.359375 154.316406 302.855469 C 152.941406 304.0625 151.503906 305.265625 150.128906 306.53125 C 149.207031 307.332031 148.117188 307.675781 147.085938 307.675781 Z M 147.085938 307.675781 " fill-opacity="1" fill-rule="nonzero"/></svg>