<svg xmlns="http://www.w3.org/2000/svg" xmlns:xlink="http://www.w3.org/1999/xlink" width="500" zoomAndPan="magnify" viewBox="0 0 375 374.999991" height="500" preserveAspectRatio="xMidYMid meet" version="1.0"><path fill="#ffffff" d="M 77.289062 125.417969 C 70.746094 129.738281 61.902344 128.179688 57.246094 121.785156 C 57.242188 121.78125 57.238281 121.773438 57.234375 121.769531 C 52.484375 115.183594 53.953125 105.992188 60.511719 101.214844 L 60.515625 101.210938 L 121.363281 57.011719 C 121.367188 57.007812 121.371094 57.003906 121.375 57.003906 C 126.734375 53.136719 133.839844 53.386719 138.867188 57.175781 L 171.574219 80.9375 L 268.878906 80.9375 C 270.019531 80.9375 271.113281 81.390625 271.921875 82.195312 L 297.90625 108.183594 C 298.710938 108.988281 299.164062 110.082031 299.164062 111.222656 L 299.164062 225.738281 C 303.242188 227.542969 306.292969 231.148438 307.363281 235.753906 C 308.585938 240.960938 308.820312 243.148438 309.839844 244.917969 C 310.863281 246.6875 312.644531 247.984375 316.535156 251.644531 C 321.332031 256.136719 322.554688 263.007812 319.589844 268.894531 L 319.585938 268.902344 C 317.171875 273.675781 315.941406 275.5 315.585938 277.511719 C 315.230469 279.519531 315.765625 281.65625 316.402344 286.964844 C 316.402344 286.96875 316.402344 286.972656 316.40625 286.980469 C 317.167969 293.519531 313.695312 299.554688 307.636719 302.128906 C 302.722656 304.238281 300.601562 304.84375 299.039062 306.160156 C 297.472656 307.472656 296.507812 309.453125 293.585938 313.929688 L 293.582031 313.9375 C 289.984375 319.433594 283.421875 321.832031 277.121094 319.917969 C 272 318.371094 269.988281 317.480469 267.945312 317.480469 C 265.902344 317.480469 263.894531 318.371094 258.789062 319.914062 C 252.460938 321.835938 245.917969 319.433594 242.316406 313.9375 L 242.316406 313.933594 C 239.386719 309.453125 238.417969 307.472656 236.855469 306.15625 C 235.292969 304.84375 233.179688 304.238281 228.265625 302.128906 C 225.792969 301.078125 223.746094 299.449219 222.246094 297.445312 L 134.449219 297.445312 C 132.074219 297.445312 130.144531 295.519531 130.144531 293.144531 L 130.144531 193.492188 L 86.042969 193.492188 C 81.210938 193.492188 77.289062 189.574219 77.289062 184.738281 Z M 183.414062 89.539062 L 199.476562 101.210938 C 204.667969 104.976562 206.683594 111.480469 204.96875 117.292969 L 235.339844 117.292969 C 237.714844 117.292969 239.640625 119.222656 239.640625 121.597656 C 239.640625 123.972656 237.714844 125.898438 235.339844 125.898438 L 198.183594 125.898438 C 193.488281 128.589844 187.5 128.566406 182.726562 125.417969 L 182.726562 145.277344 L 262.144531 145.277344 C 264.519531 145.277344 266.445312 147.207031 266.445312 149.582031 C 266.445312 151.957031 264.519531 153.882812 262.144531 153.882812 L 182.726562 153.882812 L 182.726562 173.242188 L 262.144531 173.242188 C 264.519531 173.242188 266.445312 175.171875 266.445312 177.542969 C 266.445312 179.917969 264.519531 181.847656 262.144531 181.847656 L 182.726562 181.847656 L 182.726562 184.738281 C 182.726562 189.574219 178.808594 193.492188 173.972656 193.492188 L 138.75 193.492188 L 138.75 288.839844 L 219.386719 288.839844 C 219.386719 288.222656 219.421875 287.597656 219.496094 286.96875 C 220.128906 281.65625 220.664062 279.519531 220.308594 277.507812 C 219.957031 275.496094 218.726562 273.675781 216.3125 268.902344 L 216.308594 268.894531 C 215.800781 267.886719 215.417969 266.847656 215.152344 265.800781 L 167.1875 265.800781 C 164.8125 265.800781 162.886719 263.871094 162.886719 261.496094 C 162.886719 259.125 164.8125 257.195312 167.1875 257.195312 L 215.621094 257.195312 C 216.394531 255.144531 217.652344 253.246094 219.363281 251.648438 C 223.257812 247.984375 225.035156 246.691406 226.054688 244.921875 C 226.929688 243.40625 227.222656 241.582031 228.054688 237.816406 L 167.1875 237.816406 C 164.8125 237.816406 162.886719 235.886719 162.886719 233.511719 C 162.886719 231.136719 164.8125 229.210938 167.1875 229.210938 L 231.925781 229.210938 C 234.425781 226.453125 237.960938 224.71875 241.949219 224.496094 L 241.953125 224.496094 C 247.289062 224.195312 249.484375 224.347656 251.40625 223.648438 C 253.324219 222.949219 254.910156 221.421875 259.195312 218.21875 C 264.472656 214.273438 271.429688 214.273438 276.707031 218.21875 C 280.992188 221.421875 282.574219 222.949219 284.496094 223.648438 C 285.945312 224.175781 287.554688 224.21875 290.5625 224.335938 L 290.5625 115.527344 L 268.878906 115.527344 C 266.503906 115.527344 264.574219 113.601562 264.574219 111.222656 L 264.574219 89.539062 Z M 174.125 119.183594 C 159.464844 108.53125 130 87.121094 130 87.121094 L 85.894531 119.183594 L 85.894531 184.738281 C 85.894531 184.820312 85.960938 184.886719 86.042969 184.886719 L 109.371094 184.886719 L 109.371094 146.773438 C 109.371094 141.808594 113.398438 137.78125 118.363281 137.78125 L 141.648438 137.78125 C 146.613281 137.78125 150.640625 141.808594 150.640625 146.773438 L 150.640625 184.886719 L 173.972656 184.886719 C 174.054688 184.886719 174.125 184.820312 174.125 184.738281 Z M 284.476562 106.921875 C 281 103.445312 276.65625 99.101562 273.179688 95.625 C 273.179688 101.191406 273.179688 106.921875 273.179688 106.921875 Z M 117.976562 184.886719 L 142.035156 184.886719 L 142.035156 146.773438 C 142.035156 146.558594 141.863281 146.386719 141.648438 146.386719 L 118.363281 146.386719 C 118.148438 146.386719 117.976562 146.558594 117.976562 146.773438 Z M 72.761719 118.089844 L 127.46875 78.320312 C 128.976562 77.226562 131.019531 77.226562 132.527344 78.320312 C 132.527344 78.320312 187.253906 118.089844 187.253906 118.089844 C 189.996094 120.0625 193.816406 119.457031 195.789062 116.730469 L 195.792969 116.726562 C 197.78125 113.988281 197.167969 110.164062 194.425781 108.175781 L 194.421875 108.171875 L 133.777344 64.113281 C 133.753906 64.09375 133.730469 64.078125 133.707031 64.058594 C 131.613281 62.472656 128.648438 62.367188 126.410156 63.980469 L 65.578125 108.171875 C 62.847656 110.160156 62.234375 113.984375 64.207031 116.730469 C 66.199219 119.453125 70.019531 120.0625 72.761719 118.089844 Z M 167.1875 209.832031 C 164.8125 209.832031 162.886719 207.902344 162.886719 205.527344 C 162.886719 203.152344 164.8125 201.226562 167.1875 201.226562 L 262.144531 201.226562 C 264.519531 201.226562 266.445312 203.152344 266.445312 205.527344 C 266.445312 207.902344 264.519531 209.832031 262.144531 209.832031 Z M 271.554688 225.109375 C 269.382812 223.484375 266.519531 223.484375 264.347656 225.109375 C 258.933594 229.15625 256.773438 230.851562 254.347656 231.734375 C 251.921875 232.617188 249.179688 232.707031 242.433594 233.085938 C 239.722656 233.238281 237.519531 235.074219 236.898438 237.714844 C 235.363281 244.292969 234.800781 246.980469 233.511719 249.21875 C 232.222656 251.453125 230.179688 253.289062 225.253906 257.921875 C 225.25 257.925781 225.246094 257.929688 225.242188 257.933594 C 223.261719 259.78125 222.777344 262.605469 223.996094 265.023438 C 227.042969 271.054688 228.335938 273.476562 228.785156 276.019531 C 229.230469 278.558594 228.839844 281.277344 228.042969 287.984375 L 228.039062 287.992188 C 227.71875 290.675781 229.148438 293.15625 231.636719 294.214844 C 231.640625 294.214844 231.648438 294.21875 231.652344 294.21875 C 237.867188 296.882812 240.414062 297.910156 242.390625 299.570312 C 244.367188 301.230469 245.816406 303.5625 249.515625 309.222656 C 250.996094 311.484375 253.6875 312.46875 256.289062 311.679688 L 256.296875 311.679688 C 262.757812 309.726562 265.363281 308.875 267.945312 308.875 C 270.523438 308.875 273.136719 309.726562 279.605469 311.679688 C 279.609375 311.679688 279.613281 311.679688 279.617188 311.683594 C 282.207031 312.472656 284.902344 311.484375 286.382812 309.226562 C 290.078125 303.5625 291.527344 301.226562 293.507812 299.566406 C 295.484375 297.90625 298.035156 296.882812 304.25 294.21875 C 304.253906 294.21875 304.257812 294.214844 304.261719 294.214844 C 306.753906 293.15625 308.167969 290.667969 307.859375 287.980469 C 307.050781 281.273438 306.664062 278.554688 307.113281 276.015625 C 307.5625 273.472656 308.859375 271.050781 311.90625 265.023438 C 313.125 262.601562 312.625 259.773438 310.652344 257.925781 L 310.644531 257.921875 C 305.722656 253.289062 303.679688 251.457031 302.390625 249.21875 C 301.097656 246.984375 300.53125 244.296875 298.984375 237.714844 C 298.984375 237.710938 298.984375 237.707031 298.980469 237.703125 C 298.371094 235.066406 296.171875 233.238281 293.464844 233.085938 C 286.722656 232.707031 283.976562 232.617188 281.554688 231.734375 C 279.128906 230.851562 276.964844 229.15625 271.554688 225.109375 Z M 267.941406 297.664062 C 251.5625 297.664062 238.191406 284.296875 238.191406 267.914062 C 238.191406 251.535156 251.5625 238.164062 267.941406 238.164062 C 284.339844 238.164062 297.691406 251.535156 297.691406 267.914062 C 297.691406 284.296875 284.339844 297.664062 267.941406 297.664062 Z M 267.941406 289.058594 C 279.597656 289.058594 289.089844 279.558594 289.089844 267.914062 C 289.089844 256.273438 279.597656 246.769531 267.941406 246.769531 C 256.300781 246.769531 246.796875 256.273438 246.796875 267.914062 C 246.796875 279.558594 256.300781 289.058594 267.941406 289.058594 Z M 254.015625 270.542969 C 252.335938 268.863281 252.335938 266.136719 254.015625 264.457031 C 255.691406 262.777344 258.417969 262.777344 260.097656 264.457031 L 264.589844 268.949219 L 275.789062 257.753906 C 277.464844 256.074219 280.191406 256.074219 281.871094 257.753906 C 283.550781 259.433594 283.550781 262.160156 281.871094 263.835938 L 267.632812 278.078125 C 265.953125 279.757812 263.230469 279.757812 261.546875 278.078125 Z M 254.015625 270.542969 " fill-opacity="1" fill-rule="evenodd"/></svg>