<svg xmlns="http://www.w3.org/2000/svg" xmlns:xlink="http://www.w3.org/1999/xlink" width="500" zoomAndPan="magnify" viewBox="0 0 375 374.999991" height="500" preserveAspectRatio="xMidYMid meet" version="1.0"><defs><clipPath id="380aeb98a5"><path d="M 52.59375 86.488281 L 267 86.488281 L 267 271 L 52.59375 271 Z M 52.59375 86.488281 " clip-rule="nonzero"/></clipPath><clipPath id="639cdce719"><path d="M 202 169 L 322.59375 169 L 322.59375 288.238281 L 202 288.238281 Z M 202 169 " clip-rule="nonzero"/></clipPath></defs><path fill="#ffffff" d="M 130.050781 248.148438 L 127.464844 248.148438 C 128.085938 247.984375 128.667969 247.675781 129.054688 247.101562 C 129.898438 245.832031 129.5625 244.125 128.296875 243.277344 L 124.9375 241.03125 L 128.296875 238.785156 C 129.5625 237.9375 129.898438 236.230469 129.054688 234.960938 C 128.6875 234.417969 128.152344 234.085938 127.574219 233.902344 L 130.050781 233.902344 Z M 119.988281 244.347656 L 125.230469 247.855469 C 125.527344 248.054688 125.867188 248.078125 126.195312 248.148438 L 113.777344 248.148438 C 114.109375 248.078125 114.445312 248.054688 114.742188 247.855469 Z M 109.925781 233.902344 L 112.398438 233.902344 C 111.820312 234.085938 111.285156 234.417969 110.921875 234.960938 C 110.074219 236.230469 110.414062 237.9375 111.679688 238.785156 L 115.035156 241.03125 L 111.679688 243.277344 C 110.414062 244.125 110.074219 245.832031 110.921875 247.101562 C 111.308594 247.675781 111.890625 247.984375 112.511719 248.148438 L 109.925781 248.148438 Z M 125.957031 233.902344 C 125.710938 233.980469 125.457031 234.054688 125.230469 234.207031 L 119.988281 237.714844 L 114.742188 234.207031 C 114.515625 234.054688 114.265625 233.980469 114.015625 233.902344 Z M 131.746094 226.554688 L 108.226562 226.554688 C 105.113281 226.554688 102.574219 229.089844 102.574219 232.210938 L 102.574219 249.851562 C 102.574219 252.964844 105.113281 255.5 108.226562 255.5 L 131.746094 255.5 C 134.863281 255.5 137.398438 252.964844 137.398438 249.851562 L 137.398438 232.210938 C 137.398438 229.089844 134.863281 226.554688 131.746094 226.554688 Z M 169.546875 169.621094 L 166.957031 169.621094 C 167.578125 169.453125 168.164062 169.144531 168.546875 168.570312 C 169.394531 167.300781 169.058594 165.59375 167.789062 164.746094 L 164.4375 162.5 L 167.789062 160.253906 C 169.058594 159.40625 169.394531 157.699219 168.546875 156.429688 C 168.183594 155.890625 167.652344 155.554688 167.078125 155.375 L 169.546875 155.375 Z M 159.484375 165.816406 L 164.726562 169.324219 C 165.023438 169.523438 165.363281 169.546875 165.691406 169.621094 L 153.277344 169.621094 C 153.605469 169.546875 153.941406 169.523438 154.238281 169.324219 Z M 149.417969 155.375 L 151.890625 155.375 C 151.3125 155.554688 150.777344 155.890625 150.417969 156.429688 C 149.570312 157.699219 149.90625 159.40625 151.171875 160.253906 L 154.53125 162.5 L 151.171875 164.746094 C 149.90625 165.59375 149.570312 167.300781 150.417969 168.570312 C 150.804688 169.144531 151.386719 169.453125 152.007812 169.621094 L 149.417969 169.621094 Z M 165.453125 155.375 C 165.203125 155.449219 164.953125 155.523438 164.726562 155.675781 L 159.484375 159.183594 L 154.238281 155.675781 C 154.015625 155.523438 153.765625 155.449219 153.515625 155.375 Z M 171.242188 148.023438 L 147.722656 148.023438 C 144.609375 148.023438 142.070312 150.558594 142.070312 153.679688 L 142.070312 171.320312 C 142.070312 174.433594 144.609375 176.96875 147.722656 176.96875 L 171.242188 176.96875 C 174.355469 176.96875 176.894531 174.433594 176.894531 171.320312 L 176.894531 153.679688 C 176.894531 150.558594 174.355469 148.023438 171.242188 148.023438 Z M 90.554688 169.621094 L 87.96875 169.621094 C 88.585938 169.453125 89.171875 169.144531 89.554688 168.570312 C 90.40625 167.300781 90.066406 165.59375 88.800781 164.746094 L 85.445312 162.5 L 88.800781 160.253906 C 90.066406 159.40625 90.40625 157.699219 89.554688 156.429688 C 89.199219 155.890625 88.664062 155.554688 88.085938 155.375 L 90.554688 155.375 Z M 80.492188 165.816406 L 85.734375 169.324219 C 86.03125 169.523438 86.371094 169.546875 86.699219 169.621094 L 74.285156 169.621094 C 74.613281 169.546875 74.949219 169.523438 75.246094 169.324219 Z M 70.425781 155.375 L 72.898438 155.375 C 72.320312 155.554688 71.785156 155.890625 71.425781 156.429688 C 70.582031 157.699219 70.914062 159.40625 72.183594 160.253906 L 75.539062 162.5 L 72.183594 164.746094 C 70.914062 165.59375 70.582031 167.300781 71.425781 168.570312 C 71.8125 169.144531 72.394531 169.453125 73.015625 169.621094 L 70.425781 169.621094 Z M 86.460938 155.375 C 86.210938 155.449219 85.960938 155.523438 85.734375 155.675781 L 80.492188 159.183594 L 75.246094 155.675781 C 75.019531 155.523438 74.769531 155.449219 74.523438 155.375 Z M 92.253906 148.023438 L 68.730469 148.023438 C 65.617188 148.023438 63.078125 150.558594 63.078125 153.679688 L 63.078125 171.320312 C 63.078125 174.433594 65.617188 176.96875 68.730469 176.96875 L 92.253906 176.96875 C 95.367188 176.96875 97.902344 174.433594 97.902344 171.320312 L 97.902344 153.679688 C 97.902344 150.558594 95.367188 148.023438 92.253906 148.023438 " fill-opacity="1" fill-rule="nonzero"/><g clip-path="url(#380aeb98a5)"><path fill="#ffffff" d="M 143.0625 106.148438 L 120.777344 106.148438 C 119.257812 106.148438 118.023438 107.382812 118.023438 108.90625 C 118.023438 110.425781 119.257812 111.660156 120.777344 111.660156 L 143.0625 111.660156 C 144.585938 111.660156 145.824219 110.425781 145.824219 108.90625 C 145.824219 107.382812 144.585938 106.148438 143.0625 106.148438 Z M 113.410156 106.148438 L 106.390625 106.148438 C 104.867188 106.148438 103.636719 107.382812 103.636719 108.90625 C 103.636719 110.425781 104.867188 111.660156 106.390625 111.660156 L 113.410156 111.660156 C 114.933594 111.660156 116.167969 110.425781 116.167969 108.90625 C 116.167969 107.382812 114.933594 106.148438 113.410156 106.148438 Z M 181.558594 249.851562 C 181.558594 252.980469 184.101562 255.519531 187.230469 255.519531 L 210.753906 255.519531 C 211.5625 255.519531 212.359375 255.324219 213.125 254.945312 C 214.941406 254.035156 215.675781 251.832031 214.765625 250.015625 C 213.9375 248.367188 212.035156 247.597656 210.324219 248.171875 L 188.910156 248.171875 L 188.910156 233.925781 L 206.640625 233.925781 C 208.671875 233.925781 210.316406 232.28125 210.316406 230.253906 C 210.316406 228.222656 208.671875 226.578125 206.640625 226.578125 L 187.230469 226.578125 C 184.101562 226.578125 181.558594 229.097656 181.558594 232.191406 Z M 169.546875 233.902344 L 149.417969 233.902344 L 149.417969 248.148438 L 169.546875 248.148438 Z M 176.894531 232.210938 L 176.894531 249.851562 C 176.894531 252.964844 174.355469 255.5 171.242188 255.5 L 147.722656 255.5 C 144.609375 255.5 142.070312 252.964844 142.070312 249.851562 L 142.070312 232.210938 C 142.070312 229.089844 144.609375 226.554688 147.722656 226.554688 L 171.242188 226.554688 C 174.355469 226.554688 176.894531 229.089844 176.894531 232.210938 Z M 90.554688 233.902344 L 70.425781 233.902344 L 70.425781 248.148438 L 90.554688 248.148438 Z M 97.902344 232.210938 L 97.902344 249.851562 C 97.902344 252.964844 95.367188 255.5 92.253906 255.5 L 68.730469 255.5 C 65.617188 255.5 63.078125 252.964844 63.078125 249.851562 L 63.078125 232.210938 C 63.078125 229.089844 65.617188 226.554688 68.730469 226.554688 L 92.253906 226.554688 C 95.367188 226.554688 97.902344 229.089844 97.902344 232.210938 Z M 181.558594 210.597656 C 181.558594 213.6875 184.101562 216.210938 187.230469 216.210938 L 209 216.210938 C 211.035156 216.210938 212.675781 214.566406 212.675781 212.53125 C 212.675781 210.503906 211.035156 208.859375 209 208.859375 L 188.910156 208.859375 L 188.910156 194.613281 L 209.015625 194.613281 L 209.015625 203.28125 C 209.015625 205.3125 210.660156 206.957031 212.691406 206.957031 C 214.722656 206.957031 216.363281 205.3125 216.363281 203.28125 L 216.363281 192.933594 C 216.363281 189.808594 213.847656 187.265625 210.753906 187.265625 L 187.230469 187.265625 C 184.101562 187.265625 181.558594 189.808594 181.558594 192.933594 Z M 169.546875 194.640625 L 149.417969 194.640625 L 149.417969 208.886719 L 169.546875 208.886719 Z M 176.894531 210.582031 C 176.894531 213.703125 174.355469 216.238281 171.242188 216.238281 L 147.722656 216.238281 C 144.609375 216.238281 142.070312 213.703125 142.070312 210.582031 L 142.070312 192.941406 C 142.070312 189.828125 144.609375 187.292969 147.722656 187.292969 L 171.242188 187.292969 C 174.355469 187.292969 176.894531 189.828125 176.894531 192.941406 Z M 130.050781 194.640625 L 109.925781 194.640625 L 109.925781 208.886719 L 130.050781 208.886719 Z M 137.398438 192.941406 L 137.398438 210.582031 C 137.398438 213.703125 134.863281 216.238281 131.746094 216.238281 L 108.226562 216.238281 C 105.113281 216.238281 102.574219 213.703125 102.574219 210.582031 L 102.574219 192.941406 C 102.574219 189.828125 105.113281 187.292969 108.226562 187.292969 L 131.746094 187.292969 C 134.863281 187.292969 137.398438 189.828125 137.398438 192.941406 Z M 90.554688 194.640625 L 70.425781 194.640625 L 70.425781 208.886719 L 90.554688 208.886719 Z M 97.902344 210.582031 C 97.902344 213.703125 95.367188 216.238281 92.253906 216.238281 L 68.730469 216.238281 C 65.617188 216.238281 63.078125 213.703125 63.078125 210.582031 L 63.078125 192.941406 C 63.078125 189.828125 65.617188 187.292969 68.730469 187.292969 L 92.253906 187.292969 C 95.367188 187.292969 97.902344 189.828125 97.902344 192.941406 Z M 248.53125 155.375 L 228.410156 155.375 L 228.410156 169.621094 L 248.53125 169.621094 Z M 255.882812 153.679688 L 255.882812 171.320312 C 255.882812 174.433594 253.347656 176.96875 250.234375 176.96875 L 226.714844 176.96875 C 223.601562 176.96875 221.0625 174.433594 221.0625 171.320312 L 221.0625 153.679688 C 221.0625 150.558594 223.601562 148.023438 226.714844 148.023438 L 250.234375 148.023438 C 253.347656 148.023438 255.882812 150.558594 255.882812 153.679688 Z M 188.914062 169.621094 L 209.042969 169.621094 L 209.042969 155.375 L 188.914062 155.375 Z M 181.566406 171.320312 L 181.566406 153.679688 C 181.566406 150.558594 184.101562 148.023438 187.21875 148.023438 L 210.738281 148.023438 C 213.855469 148.023438 216.390625 150.558594 216.390625 153.679688 L 216.390625 171.320312 C 216.390625 174.433594 213.855469 176.96875 210.738281 176.96875 L 187.21875 176.96875 C 184.101562 176.96875 181.566406 174.433594 181.566406 171.320312 Z M 130.050781 155.375 L 109.925781 155.375 L 109.925781 169.621094 L 130.050781 169.621094 Z M 137.398438 171.320312 C 137.398438 174.433594 134.863281 176.96875 131.746094 176.96875 L 108.226562 176.96875 C 105.113281 176.96875 102.574219 174.433594 102.574219 171.320312 L 102.574219 153.679688 C 102.574219 150.558594 105.113281 148.023438 108.226562 148.023438 L 131.746094 148.023438 C 134.863281 148.023438 137.398438 150.558594 137.398438 153.679688 Z M 258.96875 134.417969 L 258.96875 109.480469 C 258.96875 106.503906 256.550781 104.082031 253.570312 104.082031 L 238.96875 104.082031 L 238.96875 115.214844 C 238.96875 120.71875 234.492188 125.195312 228.992188 125.195312 C 223.488281 125.195312 219.011719 120.71875 219.011719 115.214844 L 219.011719 104.082031 L 169.464844 104.082031 L 169.464844 115.214844 C 169.464844 120.71875 164.984375 125.195312 159.480469 125.195312 C 153.980469 125.195312 149.5 120.71875 149.5 115.214844 L 149.5 104.082031 L 99.957031 104.082031 L 99.957031 115.214844 C 99.957031 120.71875 95.476562 125.195312 89.972656 125.195312 C 84.472656 125.195312 79.996094 120.71875 79.996094 115.214844 L 79.996094 104.082031 L 65.367188 104.082031 C 62.390625 104.082031 59.96875 106.503906 59.96875 109.480469 L 59.96875 134.417969 Z M 89.972656 112.578125 C 88.523438 112.578125 87.34375 113.765625 87.34375 115.214844 C 87.34375 116.664062 88.523438 117.847656 89.972656 117.847656 C 91.425781 117.847656 92.605469 116.664062 92.605469 115.214844 C 92.605469 113.765625 91.425781 112.578125 89.972656 112.578125 Z M 87.34375 93.804688 L 87.34375 100.304688 C 87.34375 100.339844 87.363281 100.371094 87.363281 100.410156 C 87.363281 100.449219 87.34375 100.480469 87.34375 100.515625 L 87.34375 105.628906 C 88.1875 105.398438 89.058594 105.230469 89.972656 105.230469 C 90.890625 105.230469 91.765625 105.398438 92.605469 105.628906 L 92.605469 100.464844 C 92.605469 100.445312 92.597656 100.429688 92.597656 100.410156 C 92.597656 100.390625 92.605469 100.375 92.605469 100.355469 L 92.605469 93.804688 Z M 159.480469 112.578125 C 158.03125 112.578125 156.851562 113.765625 156.851562 115.214844 C 156.851562 116.664062 158.03125 117.847656 159.480469 117.847656 C 160.933594 117.847656 162.117188 116.664062 162.117188 115.214844 C 162.117188 113.765625 160.933594 112.578125 159.480469 112.578125 Z M 156.851562 93.804688 L 156.851562 100.390625 C 156.851562 100.398438 156.855469 100.402344 156.855469 100.410156 C 156.855469 100.417969 156.851562 100.421875 156.851562 100.429688 L 156.851562 105.628906 C 157.691406 105.398438 158.5625 105.230469 159.480469 105.230469 C 160.398438 105.230469 161.269531 105.398438 162.117188 105.628906 L 162.117188 100.550781 C 162.113281 100.5 162.085938 100.457031 162.085938 100.410156 C 162.085938 100.359375 162.113281 100.316406 162.117188 100.265625 L 162.117188 93.804688 Z M 228.992188 112.578125 C 227.539062 112.578125 226.359375 113.765625 226.359375 115.214844 C 226.359375 116.664062 227.539062 117.847656 228.992188 117.847656 C 230.441406 117.847656 231.621094 116.664062 231.621094 115.214844 C 231.621094 113.765625 230.441406 112.578125 228.992188 112.578125 Z M 226.359375 93.804688 L 226.359375 105.628906 C 227.203125 105.398438 228.074219 105.230469 228.992188 105.230469 C 229.90625 105.230469 230.777344 105.398438 231.621094 105.628906 L 231.621094 93.804688 Z M 266.320312 138.128906 L 266.320312 172.675781 C 266.320312 174.707031 264.675781 176.347656 262.644531 176.347656 C 260.613281 176.347656 258.96875 174.707031 258.96875 172.675781 L 258.96875 141.769531 L 59.96875 141.769531 L 59.96875 257.351562 C 59.96875 260.328125 62.390625 262.746094 65.367188 262.746094 L 221.035156 262.746094 C 223.066406 262.746094 224.710938 264.390625 224.710938 266.421875 C 224.710938 268.453125 223.066406 270.09375 221.035156 270.09375 L 65.367188 270.09375 C 58.335938 270.09375 52.621094 264.375 52.621094 257.351562 L 52.621094 109.480469 C 52.621094 102.453125 58.335938 96.734375 65.367188 96.734375 L 79.996094 96.734375 L 79.996094 93.046875 C 79.996094 89.417969 82.953125 86.457031 86.582031 86.457031 L 93.367188 86.457031 C 97 86.457031 99.957031 89.417969 99.957031 93.046875 L 99.957031 96.734375 L 149.5 96.734375 L 149.5 93.046875 C 149.5 89.417969 152.460938 86.457031 156.089844 86.457031 L 162.875 86.457031 C 166.503906 86.457031 169.464844 89.417969 169.464844 93.046875 L 169.464844 96.734375 L 219.011719 96.734375 L 219.011719 93.046875 C 219.011719 89.417969 221.964844 86.457031 225.597656 86.457031 L 232.382812 86.457031 C 236.015625 86.457031 238.96875 89.417969 238.96875 93.046875 L 238.96875 96.734375 L 253.570312 96.734375 C 260.597656 96.734375 266.320312 102.453125 266.320312 109.480469 L 266.320312 138.058594 C 266.320312 138.070312 266.324219 138.082031 266.324219 138.09375 C 266.324219 138.105469 266.320312 138.117188 266.320312 138.128906 Z M 75.945312 106.148438 L 73.367188 106.148438 C 66.855469 106.148438 61.554688 111.453125 61.554688 117.972656 C 61.554688 119.492188 62.789062 120.726562 64.308594 120.726562 C 65.832031 120.726562 67.066406 119.492188 67.066406 117.972656 C 67.066406 114.488281 69.894531 111.660156 73.367188 111.660156 L 75.945312 111.660156 C 77.464844 111.660156 78.699219 110.425781 78.699219 108.90625 C 78.699219 107.382812 77.464844 106.148438 75.945312 106.148438 Z M 262.644531 181.035156 C 260.613281 181.035156 258.96875 182.679688 258.96875 184.710938 L 258.96875 194.054688 C 258.96875 196.082031 260.613281 197.726562 262.644531 197.726562 C 264.675781 197.726562 266.320312 196.082031 266.320312 194.054688 L 266.320312 184.710938 C 266.320312 182.679688 264.675781 181.035156 262.644531 181.035156 Z M 231.621094 228.753906 C 231.621094 230.78125 229.976562 232.425781 227.949219 232.425781 L 218.605469 232.425781 C 216.570312 232.425781 214.929688 230.78125 214.929688 228.753906 C 214.929688 226.722656 216.570312 225.078125 218.605469 225.078125 L 227.949219 225.078125 C 229.976562 225.078125 231.621094 226.722656 231.621094 228.753906 " fill-opacity="1" fill-rule="nonzero"/></g><g clip-path="url(#639cdce719)"><path fill="#ffffff" d="M 261.410156 228.753906 C 261.410156 228.070312 261.964844 227.519531 262.644531 227.519531 C 263.324219 227.519531 263.875 228.070312 263.875 228.753906 C 263.878906 230.109375 261.410156 230.101562 261.410156 228.753906 Z M 272.203125 213.996094 L 265.457031 220.738281 C 264.566406 220.425781 263.640625 220.167969 262.644531 220.167969 C 261.648438 220.167969 260.722656 220.425781 259.832031 220.738281 L 244.835938 205.746094 C 243.402344 204.3125 241.078125 204.3125 239.644531 205.746094 C 238.207031 207.179688 238.207031 209.503906 239.644531 210.941406 L 254.632812 225.933594 C 254.316406 226.824219 254.0625 227.753906 254.0625 228.753906 C 254.0625 233.480469 257.914062 237.328125 262.644531 237.328125 C 267.375 237.328125 271.226562 233.480469 271.226562 228.753906 C 271.226562 227.753906 270.972656 226.824219 270.65625 225.933594 L 277.402344 219.195312 C 278.835938 217.757812 278.835938 215.433594 277.402344 213.996094 C 275.964844 212.5625 273.640625 212.5625 272.203125 213.996094 Z M 266.296875 272.910156 C 266.296875 272.867188 266.320312 272.832031 266.320312 272.785156 L 266.320312 263.449219 C 266.320312 261.421875 264.675781 259.777344 262.644531 259.777344 C 260.613281 259.777344 258.96875 261.421875 258.96875 263.449219 L 258.96875 272.785156 C 258.96875 272.832031 258.996094 272.867188 258.996094 272.910156 C 237.453125 271.144531 220.25 253.941406 218.480469 232.402344 C 218.523438 232.402344 218.558594 232.425781 218.605469 232.425781 L 227.949219 232.425781 C 229.976562 232.425781 231.621094 230.78125 231.621094 228.753906 C 231.621094 226.722656 229.976562 225.078125 227.949219 225.078125 L 218.605469 225.078125 C 218.558594 225.078125 218.523438 225.101562 218.480469 225.105469 C 220.246094 203.558594 237.453125 186.351562 258.996094 184.585938 C 258.996094 184.632812 258.96875 184.667969 258.96875 184.710938 L 258.96875 194.027344 C 258.96875 196.054688 260.613281 197.699219 262.644531 197.699219 C 264.675781 197.699219 266.320312 196.054688 266.320312 194.027344 L 266.320312 184.710938 C 266.320312 184.667969 266.296875 184.632812 266.296875 184.585938 C 287.835938 186.351562 305.042969 203.558594 306.808594 225.105469 C 306.761719 225.101562 306.730469 225.078125 306.683594 225.078125 L 297.339844 225.078125 C 295.308594 225.078125 293.664062 226.722656 293.664062 228.753906 C 293.664062 230.78125 295.308594 232.425781 297.339844 232.425781 L 306.683594 232.425781 C 306.730469 232.425781 306.761719 232.402344 306.808594 232.402344 C 305.042969 253.941406 287.835938 271.144531 266.296875 272.910156 Z M 262.644531 177.050781 C 234.136719 177.050781 210.945312 200.25 210.945312 228.753906 C 210.945312 257.257812 234.136719 280.445312 262.644531 280.445312 C 291.148438 280.445312 314.339844 257.257812 314.339844 228.753906 C 314.339844 200.25 291.148438 177.050781 262.644531 177.050781 Z M 262.644531 281.128906 C 233.765625 281.128906 210.269531 257.628906 210.269531 228.753906 C 210.269531 199.867188 233.765625 176.371094 262.644531 176.371094 C 291.523438 176.371094 315.019531 199.867188 315.019531 228.753906 C 315.019531 257.628906 291.523438 281.128906 262.644531 281.128906 Z M 262.644531 169.023438 C 229.710938 169.023438 202.917969 195.820312 202.917969 228.753906 C 202.917969 261.683594 229.710938 288.476562 262.644531 288.476562 C 295.578125 288.476562 322.367188 261.683594 322.367188 228.753906 C 322.367188 195.820312 295.578125 169.023438 262.644531 169.023438 " fill-opacity="1" fill-rule="nonzero"/></g></svg>