<svg xmlns="http://www.w3.org/2000/svg" xmlns:xlink="http://www.w3.org/1999/xlink" width="500" zoomAndPan="magnify" viewBox="0 0 375 374.999991" height="500" preserveAspectRatio="xMidYMid meet" version="1.0"><defs><clipPath id="65fe6e13bd"><path d="M 52.34375 52.34375 L 322.34375 52.34375 L 322.34375 322.34375 L 52.34375 322.34375 Z M 52.34375 52.34375 " clip-rule="nonzero"/></clipPath></defs><g clip-path="url(#65fe6e13bd)"><path fill="#ffffff" d="M 308.710938 172.925781 L 259.148438 172.925781 L 259.148438 73.6875 C 259.148438 71.832031 257.640625 70.324219 255.785156 70.324219 L 230.894531 70.324219 L 230.894531 55.707031 C 230.894531 53.851562 229.386719 52.34375 227.53125 52.34375 L 101.386719 52.34375 L 101.386719 52.347656 C 100.511719 52.347656 99.648438 52.6875 99.007812 53.324219 L 53.332031 99.003906 C 52.6875 99.648438 52.355469 100.503906 52.355469 101.378906 L 52.34375 101.378906 L 52.34375 284.894531 C 52.34375 286.75 53.851562 288.261719 55.707031 288.261719 L 80.597656 288.261719 L 80.597656 302.875 C 80.597656 304.730469 82.105469 306.238281 83.960938 306.238281 L 203.816406 306.238281 L 203.816406 308.707031 C 203.816406 316.390625 210.066406 322.644531 217.75 322.644531 L 308.710938 322.644531 C 316.394531 322.644531 322.648438 316.390625 322.648438 308.707031 L 322.648438 186.863281 C 322.648438 179.179688 316.394531 172.925781 308.710938 172.925781 Z M 252.417969 77.050781 L 252.417969 172.925781 L 230.894531 172.925781 L 230.894531 77.050781 Z M 98.019531 63.835938 L 98.019531 98.019531 L 63.835938 98.019531 Z M 87.328125 299.515625 L 87.328125 288.265625 L 203.816406 288.265625 L 203.816406 299.515625 Z M 203.820312 186.863281 L 203.820312 281.542969 L 59.074219 281.542969 L 59.074219 104.75 L 101.386719 104.75 C 103.242188 104.75 104.75 103.242188 104.75 101.386719 L 104.75 59.074219 L 224.167969 59.074219 L 224.167969 172.925781 L 217.757812 172.925781 C 210.066406 172.925781 203.820312 179.179688 203.820312 186.863281 Z M 315.917969 308.710938 C 315.917969 312.683594 312.6875 315.917969 308.710938 315.917969 L 217.75 315.917969 C 213.78125 315.917969 210.542969 312.6875 210.542969 308.710938 L 210.542969 186.863281 C 210.542969 182.890625 213.773438 179.65625 217.75 179.65625 L 308.710938 179.65625 C 312.683594 179.65625 315.917969 182.886719 315.917969 186.863281 Z M 308.335938 184.84375 L 218.125 184.84375 C 216.269531 184.84375 214.761719 186.351562 214.761719 188.207031 L 214.761719 216.277344 C 214.761719 218.132812 216.269531 219.640625 218.125 219.640625 L 308.335938 219.640625 C 310.191406 219.640625 311.703125 218.132812 311.703125 216.277344 L 311.703125 188.207031 C 311.703125 186.347656 310.199219 184.84375 308.335938 184.84375 Z M 304.972656 212.910156 L 221.492188 212.910156 L 221.492188 191.574219 L 304.972656 191.574219 Z M 228.277344 226.324219 C 221.40625 226.324219 215.820312 231.910156 215.820312 238.78125 C 215.820312 245.652344 221.40625 251.238281 228.277344 251.238281 C 235.148438 251.238281 240.734375 245.652344 240.734375 238.78125 C 240.734375 231.910156 235.148438 226.324219 228.277344 226.324219 Z M 228.277344 244.511719 C 225.121094 244.511719 222.550781 241.945312 222.550781 238.785156 C 222.550781 235.628906 225.121094 233.0625 228.277344 233.0625 C 231.433594 233.0625 234.003906 235.628906 234.003906 238.785156 C 234.003906 241.945312 231.441406 244.511719 228.277344 244.511719 Z M 263.230469 226.324219 C 256.363281 226.324219 250.777344 231.910156 250.777344 238.78125 C 250.777344 245.652344 256.363281 251.238281 263.230469 251.238281 C 270.101562 251.238281 275.6875 245.652344 275.6875 238.78125 C 275.6875 231.910156 270.101562 226.324219 263.230469 226.324219 Z M 263.230469 244.511719 C 260.074219 244.511719 257.507812 241.945312 257.507812 238.785156 C 257.507812 235.628906 260.074219 233.0625 263.230469 233.0625 C 266.390625 233.0625 268.957031 235.628906 268.957031 238.785156 C 268.957031 241.945312 266.390625 244.511719 263.230469 244.511719 Z M 298.1875 226.324219 C 291.316406 226.324219 285.730469 231.910156 285.730469 238.78125 C 285.730469 245.652344 291.316406 251.238281 298.1875 251.238281 C 305.054688 251.238281 310.640625 245.652344 310.640625 238.78125 C 310.640625 231.910156 305.054688 226.324219 298.1875 226.324219 Z M 298.1875 244.511719 C 295.027344 244.511719 292.460938 241.945312 292.460938 238.785156 C 292.460938 235.628906 295.027344 233.0625 298.1875 233.0625 C 301.34375 233.0625 303.914062 235.628906 303.914062 238.785156 C 303.914062 241.945312 301.34375 244.511719 298.1875 244.511719 Z M 228.277344 256.074219 C 221.40625 256.074219 215.820312 261.660156 215.820312 268.53125 C 215.820312 275.402344 221.40625 280.988281 228.277344 280.988281 C 235.148438 280.988281 240.734375 275.402344 240.734375 268.53125 C 240.734375 261.660156 235.148438 256.074219 228.277344 256.074219 Z M 228.277344 274.257812 C 225.121094 274.257812 222.550781 271.6875 222.550781 268.53125 C 222.550781 265.375 225.121094 262.804688 228.277344 262.804688 C 231.433594 262.804688 234.003906 265.375 234.003906 268.53125 C 234.003906 271.6875 231.441406 274.257812 228.277344 274.257812 Z M 263.230469 256.074219 C 256.363281 256.074219 250.777344 261.660156 250.777344 268.53125 C 250.777344 275.402344 256.363281 280.988281 263.230469 280.988281 C 270.101562 280.988281 275.6875 275.402344 275.6875 268.53125 C 275.6875 261.660156 270.101562 256.074219 263.230469 256.074219 Z M 263.230469 274.257812 C 260.074219 274.257812 257.507812 271.6875 257.507812 268.53125 C 257.507812 265.375 260.074219 262.804688 263.230469 262.804688 C 266.390625 262.804688 268.957031 265.375 268.957031 268.53125 C 268.957031 271.6875 266.390625 274.257812 263.230469 274.257812 Z M 228.277344 285.820312 C 221.40625 285.820312 215.820312 291.40625 215.820312 298.277344 C 215.820312 305.144531 221.40625 310.730469 228.277344 310.730469 C 235.148438 310.730469 240.734375 305.144531 240.734375 298.277344 C 240.734375 291.40625 235.148438 285.820312 228.277344 285.820312 Z M 228.277344 304 C 225.121094 304 222.550781 301.433594 222.550781 298.277344 C 222.550781 295.117188 225.121094 292.550781 228.277344 292.550781 C 231.433594 292.550781 234.003906 295.117188 234.003906 298.277344 C 234.003906 301.433594 231.441406 304 228.277344 304 Z M 263.230469 285.820312 C 256.363281 285.820312 250.777344 291.40625 250.777344 298.277344 C 250.777344 305.144531 256.363281 310.730469 263.230469 310.730469 C 270.101562 310.730469 275.6875 305.144531 275.6875 298.277344 C 275.6875 291.40625 270.101562 285.820312 263.230469 285.820312 Z M 263.230469 304 C 260.074219 304 257.507812 301.433594 257.507812 298.277344 C 257.507812 295.117188 260.074219 292.550781 263.230469 292.550781 C 266.390625 292.550781 268.957031 295.117188 268.957031 298.277344 C 268.957031 301.433594 266.390625 304 263.230469 304 Z M 298.1875 256.074219 C 291.316406 256.074219 285.730469 261.660156 285.730469 268.53125 L 285.730469 298.277344 C 285.730469 305.144531 291.316406 310.730469 298.1875 310.730469 C 305.054688 310.730469 310.640625 305.144531 310.640625 298.277344 L 310.640625 268.53125 C 310.640625 261.660156 305.054688 256.074219 298.1875 256.074219 Z M 303.914062 298.277344 C 303.914062 301.433594 301.34375 304 298.1875 304 C 295.027344 304 292.460938 301.433594 292.460938 298.277344 L 292.460938 268.53125 C 292.460938 265.375 295.027344 262.804688 298.1875 262.804688 C 301.34375 262.804688 303.914062 265.375 303.914062 268.53125 Z M 203.101562 116.351562 L 155.195312 76.335938 C 153.945312 75.292969 152.125 75.292969 150.882812 76.335938 L 138.757812 86.460938 L 138.757812 82.542969 L 138.828125 82.542969 C 140.6875 82.542969 142.195312 81.035156 142.195312 79.179688 C 142.195312 77.320312 140.6875 75.8125 138.828125 75.8125 L 121.109375 75.8125 C 119.253906 75.8125 117.742188 77.320312 117.742188 79.179688 C 117.742188 81.035156 119.253906 82.542969 121.109375 82.542969 L 121.175781 82.542969 L 121.175781 101.148438 L 102.972656 116.351562 C 101.882812 117.261719 101.488281 118.753906 101.96875 120.082031 C 102.449219 121.410156 103.71875 122.296875 105.132812 122.296875 L 107.609375 122.296875 L 107.609375 175.378906 C 107.609375 177.234375 109.117188 178.742188 110.976562 178.742188 L 195.105469 178.742188 C 196.960938 178.742188 198.472656 177.234375 198.472656 175.378906 L 198.472656 122.296875 L 200.949219 122.296875 C 202.363281 122.296875 203.628906 121.410156 204.113281 120.082031 C 204.59375 118.753906 204.191406 117.261719 203.101562 116.351562 Z M 127.898438 82.542969 L 132.023438 82.542969 L 132.023438 92.085938 L 127.898438 95.523438 Z M 153.039062 83.300781 L 191.675781 115.566406 L 114.40625 115.566406 Z M 141.746094 172.011719 L 126.109375 172.011719 L 126.109375 135.699219 L 141.746094 135.699219 Z M 191.742188 172.011719 L 148.476562 172.011719 L 148.476562 132.335938 C 148.476562 130.480469 146.96875 128.972656 145.109375 128.972656 L 122.746094 128.972656 C 120.890625 128.972656 119.382812 130.480469 119.382812 132.335938 L 119.382812 172.011719 L 114.335938 172.011719 L 114.335938 122.296875 L 191.734375 122.296875 L 191.734375 172.011719 Z M 157.09375 159.871094 L 183.328125 159.871094 C 185.1875 159.871094 186.695312 158.363281 186.695312 156.507812 L 186.695312 132.335938 C 186.695312 130.480469 185.1875 128.972656 183.328125 128.972656 L 157.09375 128.972656 C 155.238281 128.972656 153.730469 130.480469 153.730469 132.335938 L 153.730469 156.507812 C 153.730469 158.367188 155.238281 159.871094 157.09375 159.871094 Z M 160.460938 135.699219 L 179.964844 135.699219 L 179.964844 153.140625 L 160.460938 153.140625 Z M 153.035156 93.757812 C 148.042969 93.757812 143.984375 97.820312 143.984375 102.808594 C 143.984375 107.800781 148.042969 111.859375 153.035156 111.859375 C 158.027344 111.859375 162.085938 107.800781 162.085938 102.808594 C 162.085938 97.820312 158.027344 93.757812 153.035156 93.757812 Z M 153.035156 105.132812 C 151.757812 105.132812 150.714844 104.089844 150.714844 102.808594 C 150.714844 101.53125 151.757812 100.488281 153.035156 100.488281 C 154.3125 100.488281 155.355469 101.53125 155.355469 102.808594 C 155.355469 104.089844 154.320312 105.132812 153.035156 105.132812 Z M 198.472656 211.25 C 198.472656 213.109375 196.960938 214.617188 195.105469 214.617188 L 80.132812 214.617188 C 78.273438 214.617188 76.765625 213.109375 76.765625 211.25 C 76.765625 209.394531 78.273438 207.886719 80.132812 207.886719 L 195.105469 207.886719 C 196.960938 207.886719 198.472656 209.394531 198.472656 211.25 Z M 198.472656 236.363281 C 198.472656 238.21875 196.960938 239.730469 195.105469 239.730469 L 80.132812 239.730469 C 78.273438 239.730469 76.765625 238.21875 76.765625 236.363281 C 76.765625 234.507812 78.273438 233 80.132812 233 L 195.105469 233 C 196.960938 233 198.472656 234.507812 198.472656 236.363281 Z M 198.472656 261.472656 C 198.472656 263.328125 196.960938 264.835938 195.105469 264.835938 L 80.132812 264.835938 C 78.273438 264.835938 76.765625 263.328125 76.765625 261.472656 C 76.765625 259.613281 78.273438 258.105469 80.132812 258.105469 L 195.105469 258.105469 C 196.960938 258.105469 198.472656 259.613281 198.472656 261.472656 Z M 198.472656 261.472656 " fill-opacity="1" fill-rule="nonzero"/></g></svg>