<svg xmlns="http://www.w3.org/2000/svg" xmlns:xlink="http://www.w3.org/1999/xlink" width="1080" zoomAndPan="magnify" viewBox="0 0 810 809.999993" height="1080" preserveAspectRatio="xMidYMid meet" version="1.0"><defs><clipPath id="ddbf178bb8"><path d="M 197.597656 0 L 612.347656 0 L 612.347656 421.5 L 197.597656 421.5 Z M 197.597656 0 " clip-rule="nonzero"/></clipPath></defs><g clip-path="url(#ddbf178bb8)"><path fill="#ffffff" d="M 345.742188 157.605469 C 345.742188 153.972656 348.691406 151.027344 352.324219 151.027344 L 456.367188 151.027344 C 460.003906 151.027344 462.949219 153.972656 462.949219 157.605469 C 462.949219 161.238281 460.003906 164.1875 456.367188 164.1875 L 352.324219 164.1875 C 348.691406 164.1875 345.742188 161.238281 345.742188 157.605469 Z M 352.324219 127.429688 L 456.367188 127.429688 C 460.003906 127.429688 462.949219 124.480469 462.949219 120.847656 C 462.949219 117.214844 460.003906 114.269531 456.367188 114.269531 L 352.324219 114.269531 C 348.691406 114.269531 345.742188 117.214844 345.742188 120.847656 C 345.742188 124.480469 348.691406 127.429688 352.324219 127.429688 Z M 272.960938 134.230469 C 270.394531 131.660156 266.226562 131.660156 263.65625 134.230469 C 261.089844 136.800781 261.089844 140.964844 263.660156 143.535156 L 278.632812 158.511719 C 279.917969 159.792969 281.601562 160.4375 283.289062 160.4375 C 284.867188 160.4375 286.453125 159.871094 287.707031 158.730469 L 324.082031 125.71875 C 326.773438 123.277344 326.976562 119.117188 324.53125 116.425781 C 322.089844 113.734375 317.929688 113.53125 315.238281 115.976562 L 283.507812 144.773438 Z M 363.429688 23.84375 C 358.886719 23.84375 355.203125 27.527344 355.203125 32.070312 C 355.203125 36.613281 358.886719 40.296875 363.429688 40.296875 C 367.972656 40.296875 371.652344 36.613281 371.652344 32.070312 C 371.652344 27.527344 367.972656 23.84375 363.429688 23.84375 Z M 315.238281 178.488281 L 283.507812 207.285156 L 272.964844 196.742188 C 270.394531 194.171875 266.226562 194.171875 263.65625 196.742188 C 261.089844 199.3125 261.089844 203.476562 263.65625 206.046875 L 278.632812 221.023438 C 279.917969 222.304688 281.601562 222.949219 283.289062 222.949219 C 284.867188 222.949219 286.453125 222.382812 287.707031 221.242188 L 324.082031 188.230469 C 326.773438 185.789062 326.976562 181.628906 324.53125 178.9375 C 322.089844 176.246094 317.929688 176.042969 315.238281 178.488281 Z M 315.238281 240.996094 L 283.507812 269.792969 L 272.960938 259.25 C 270.394531 256.683594 266.226562 256.683594 263.65625 259.253906 C 261.089844 261.820312 261.089844 265.988281 263.660156 268.558594 L 278.632812 283.53125 C 279.917969 284.816406 281.601562 285.460938 283.289062 285.460938 C 284.867188 285.460938 286.453125 284.894531 287.707031 283.753906 L 324.082031 250.742188 C 326.773438 248.300781 326.976562 244.140625 324.53125 241.449219 C 322.089844 238.757812 317.929688 238.554688 315.238281 240.996094 Z M 315.238281 303.507812 L 283.507812 332.304688 L 272.960938 321.761719 C 270.394531 319.195312 266.226562 319.191406 263.65625 321.761719 C 261.089844 324.332031 261.089844 328.5 263.660156 331.070312 L 278.632812 346.042969 C 279.917969 347.324219 281.601562 347.972656 283.289062 347.972656 C 284.867188 347.972656 286.453125 347.40625 287.707031 346.261719 L 324.082031 313.253906 C 326.773438 310.8125 326.976562 306.652344 324.53125 303.960938 C 322.089844 301.265625 317.929688 301.066406 315.238281 303.507812 Z M 352.324219 347.972656 L 456.367188 347.972656 C 460.003906 347.972656 462.949219 345.023438 462.949219 341.390625 C 462.949219 337.757812 460.003906 334.8125 456.367188 334.8125 L 352.324219 334.8125 C 348.691406 334.8125 345.742188 337.757812 345.742188 341.390625 C 345.742188 345.023438 348.691406 347.972656 352.324219 347.972656 Z M 529.136719 346.445312 L 529.136719 396.253906 C 529.136719 409.96875 517.980469 421.125 504.265625 421.125 L 222.589844 421.125 C 208.875 421.125 197.71875 409.96875 197.71875 396.253906 L 197.71875 59.703125 C 197.71875 45.992188 208.875 34.835938 222.589844 34.835938 L 286.429688 34.835938 L 286.429688 30.359375 C 286.429688 26.726562 289.375 23.777344 293.007812 23.777344 L 328.394531 23.777344 C 334.003906 9.550781 347.746094 0 363.429688 0 C 379.113281 0 392.851562 9.550781 398.460938 23.777344 L 433.847656 23.777344 C 437.480469 23.777344 440.425781 26.722656 440.425781 30.359375 L 440.425781 34.832031 L 504.265625 34.832031 C 517.980469 34.832031 529.136719 45.988281 529.136719 59.703125 L 529.136719 152.640625 C 576.183594 159.800781 612.351562 200.527344 612.351562 249.542969 C 612.351562 298.5625 576.1875 339.289062 529.136719 346.445312 Z M 440.425781 47.996094 L 440.425781 60.277344 L 497.113281 60.277344 C 500.746094 60.277344 503.691406 63.226562 503.691406 66.859375 L 503.691406 152.105469 C 507.1875 151.726562 510.738281 151.527344 514.332031 151.527344 C 514.882812 151.527344 515.429688 151.539062 515.976562 151.546875 L 515.976562 59.703125 C 515.976562 53.246094 510.722656 47.996094 504.265625 47.996094 Z M 299.589844 71.332031 L 427.265625 71.332031 L 427.265625 36.9375 L 393.65625 36.9375 C 390.613281 36.9375 387.972656 34.855469 387.257812 31.902344 C 384.597656 20.867188 374.796875 13.160156 363.429688 13.160156 C 352.058594 13.160156 342.261719 20.867188 339.597656 31.902344 C 338.886719 34.855469 336.242188 36.9375 333.203125 36.9375 L 299.589844 36.9375 Z M 293.007812 84.492188 C 289.375 84.492188 286.429688 81.546875 286.429688 77.914062 L 286.429688 73.4375 L 236.324219 73.4375 L 236.324219 382.519531 L 490.53125 382.519531 L 490.53125 344.636719 C 469.640625 339.40625 451.382812 327.449219 438.203125 311.214844 L 352.324219 311.214844 C 348.691406 311.214844 345.742188 308.269531 345.742188 304.632812 C 345.742188 301 348.691406 298.054688 352.324219 298.054688 L 429.183594 298.054688 C 424.992188 290.726562 421.722656 282.808594 419.523438 274.457031 L 352.324219 274.457031 C 348.691406 274.457031 345.742188 271.511719 345.742188 267.875 C 345.742188 264.242188 348.691406 261.296875 352.324219 261.296875 L 417.019531 261.296875 C 416.554688 257.441406 416.3125 253.519531 416.3125 249.542969 C 416.3125 245.535156 416.558594 241.585938 417.03125 237.699219 L 352.324219 237.699219 C 348.691406 237.699219 345.746094 234.753906 345.746094 231.121094 C 345.746094 227.488281 348.691406 224.539062 352.324219 224.539062 L 419.550781 224.539062 C 421.753906 216.1875 425.035156 208.269531 429.234375 200.945312 L 352.324219 200.945312 C 348.691406 200.945312 345.746094 197.996094 345.746094 194.363281 C 345.746094 190.730469 348.691406 187.785156 352.324219 187.785156 L 438.28125 187.785156 C 451.453125 171.59375 469.679688 159.675781 490.535156 154.453125 L 490.535156 73.4375 L 440.429688 73.4375 L 440.429688 77.914062 C 440.429688 81.546875 437.480469 84.492188 433.847656 84.492188 Z M 515.976562 347.542969 C 515.429688 347.550781 514.882812 347.5625 514.332031 347.5625 C 510.738281 347.5625 507.1875 347.363281 503.691406 346.984375 L 503.691406 389.101562 C 503.691406 392.734375 500.746094 395.679688 497.113281 395.679688 L 229.742188 395.679688 C 226.109375 395.679688 223.164062 392.734375 223.164062 389.101562 L 223.164062 66.859375 C 223.164062 63.226562 226.109375 60.277344 229.742188 60.277344 L 286.429688 60.277344 L 286.429688 47.996094 L 222.589844 47.996094 C 216.132812 47.996094 210.878906 53.246094 210.878906 59.703125 L 210.878906 396.253906 C 210.878906 402.710938 216.132812 407.964844 222.589844 407.964844 L 504.265625 407.964844 C 510.726562 407.964844 515.976562 402.710938 515.976562 396.253906 Z M 599.191406 249.542969 C 599.191406 202.753906 561.125 164.683594 514.332031 164.683594 C 467.539062 164.683594 429.472656 202.753906 429.472656 249.542969 C 429.472656 296.335938 467.539062 334.40625 514.332031 334.40625 C 561.125 334.40625 599.191406 296.335938 599.191406 249.542969 Z M 568.890625 213.027344 C 575.605469 219.703125 575.636719 230.601562 568.957031 237.316406 C 561.808594 244.539062 554.660156 251.789062 547.511719 259.042969 C 534.605469 272.125 521.265625 285.660156 508.058594 298.867188 C 504.808594 302.117188 500.488281 303.90625 495.890625 303.90625 C 491.292969 303.90625 486.972656 302.117188 483.722656 298.867188 L 449.863281 265.007812 C 446.613281 261.757812 444.820312 257.4375 444.820312 252.839844 C 444.820312 248.242188 446.613281 243.921875 449.863281 240.671875 C 456.570312 233.964844 467.488281 233.964844 474.199219 240.671875 L 495.847656 262.324219 L 544.585938 213.101562 C 551.277344 206.375 562.175781 206.347656 568.890625 213.027344 Z M 559.613281 222.355469 C 558.039062 220.796875 555.492188 220.800781 553.929688 222.371094 L 500.550781 276.285156 C 499.316406 277.53125 497.640625 278.230469 495.890625 278.234375 C 495.886719 278.234375 495.878906 278.234375 495.875 278.234375 C 494.128906 278.234375 492.457031 277.542969 491.21875 276.308594 L 464.890625 249.976562 C 464.101562 249.1875 463.066406 248.796875 462.03125 248.796875 C 460.992188 248.796875 459.957031 249.1875 459.167969 249.980469 C 458.402344 250.742188 457.984375 251.757812 457.984375 252.839844 C 457.984375 253.921875 458.40625 254.9375 459.167969 255.703125 L 493.027344 289.5625 C 493.792969 290.328125 494.808594 290.746094 495.890625 290.746094 C 496.972656 290.746094 497.988281 290.328125 498.753906 289.5625 C 511.929688 276.386719 525.253906 262.871094 538.140625 249.800781 C 545.296875 242.542969 552.453125 235.289062 559.617188 228.050781 C 561.1875 226.46875 561.179688 223.917969 559.613281 222.355469 Z M 559.613281 222.355469 " fill-opacity="1" fill-rule="nonzero"/></g></svg>