<svg xmlns="http://www.w3.org/2000/svg" xmlns:xlink="http://www.w3.org/1999/xlink" width="1080" zoomAndPan="magnify" viewBox="0 0 810 809.999993" height="1080" preserveAspectRatio="xMidYMid meet" version="1.0"><defs><clipPath id="801e51680f"><path d="M 194.4375 0 L 615.9375 0 L 615.9375 421.5 L 194.4375 421.5 Z M 194.4375 0 " clip-rule="nonzero"/></clipPath></defs><g clip-path="url(#801e51680f)"><path fill="#ffffff" d="M 366.59375 322.839844 L 229.613281 322.839844 L 229.613281 308.804688 L 357.890625 308.804688 C 359.75 308.804688 361.535156 308.066406 362.851562 306.75 C 364.167969 305.4375 364.90625 303.652344 364.90625 301.789062 C 364.90625 299.929688 364.167969 298.144531 362.851562 296.828125 C 361.535156 295.511719 359.75 294.773438 357.890625 294.773438 L 355.921875 294.773438 L 355.921875 175.476562 C 355.921875 174.554688 355.742188 173.640625 355.390625 172.789062 C 355.035156 171.941406 354.519531 171.164062 353.867188 170.515625 C 353.214844 169.863281 352.441406 169.34375 351.589844 168.992188 C 350.738281 168.640625 349.828125 168.460938 348.90625 168.460938 L 278.730469 168.460938 C 277.8125 168.460938 276.898438 168.640625 276.046875 168.992188 C 275.195312 169.34375 274.421875 169.863281 273.769531 170.515625 C 273.117188 171.164062 272.601562 171.941406 272.25 172.789062 C 271.894531 173.640625 271.714844 174.554688 271.714844 175.476562 L 271.714844 294.773438 L 250.664062 294.773438 L 250.664062 144.398438 L 369.957031 51.054688 L 489.25 144.398438 L 489.25 163.410156 C 489.25 165.269531 489.988281 167.054688 491.304688 168.371094 C 492.621094 169.6875 494.40625 170.425781 496.265625 170.425781 C 498.128906 170.425781 499.914062 169.6875 501.230469 168.371094 C 502.546875 167.054688 503.285156 165.269531 503.285156 163.410156 L 503.285156 155.378906 L 514.332031 164.023438 C 515.796875 165.167969 517.65625 165.683594 519.503906 165.460938 C 521.347656 165.238281 523.03125 164.289062 524.179688 162.824219 L 543.894531 137.703125 C 544.464844 136.976562 544.886719 136.148438 545.132812 135.257812 C 545.382812 134.371094 545.453125 133.441406 545.339844 132.523438 C 545.230469 131.609375 544.9375 130.726562 544.484375 129.921875 C 544.03125 129.117188 543.421875 128.414062 542.695312 127.84375 L 503.285156 97 L 503.285156 7.058594 C 503.285156 6.136719 503.101562 5.226562 502.75 4.375 C 502.398438 3.523438 501.882812 2.75 501.230469 2.097656 C 500.578125 1.445312 499.804688 0.929688 498.953125 0.574219 C 498.101562 0.222656 497.1875 0.0429688 496.265625 0.0429688 L 440.128906 0.0429688 C 439.207031 0.0429688 438.296875 0.222656 437.445312 0.574219 C 436.59375 0.929688 435.820312 1.445312 435.167969 2.097656 C 434.515625 2.75 434 3.523438 433.644531 4.375 C 433.292969 5.226562 433.113281 6.136719 433.113281 7.058594 L 433.113281 42.082031 L 386.828125 5.859375 C 381.964844 2.207031 376.042969 0.234375 369.960938 0.234375 C 363.875 0.234375 357.957031 2.207031 353.089844 5.855469 L 197.21875 127.84375 C 196.492188 128.414062 195.882812 129.117188 195.429688 129.921875 C 194.976562 130.726562 194.683594 131.609375 194.574219 132.523438 C 194.460938 133.441406 194.53125 134.371094 194.78125 135.257812 C 195.027344 136.148438 195.449219 136.976562 196.019531 137.703125 L 215.734375 162.824219 C 216.882812 164.289062 218.566406 165.234375 220.410156 165.460938 C 222.257812 165.683594 224.117188 165.167969 225.582031 164.023438 L 236.628906 155.378906 L 236.628906 294.773438 L 222.59375 294.773438 C 221.671875 294.773438 220.761719 294.953125 219.910156 295.304688 C 219.058594 295.660156 218.285156 296.175781 217.632812 296.828125 C 216.980469 297.480469 216.464844 298.25 216.109375 299.105469 C 215.757812 299.957031 215.578125 300.867188 215.578125 301.789062 L 215.578125 329.859375 C 215.578125 330.78125 215.757812 331.695312 216.109375 332.542969 C 216.464844 333.394531 216.980469 334.171875 217.632812 334.820312 C 218.285156 335.472656 219.058594 335.988281 219.910156 336.34375 C 220.761719 336.695312 221.671875 336.875 222.59375 336.875 L 366.59375 336.875 C 368.453125 336.875 370.238281 336.136719 371.554688 334.820312 C 372.871094 333.503906 373.609375 331.71875 373.609375 329.859375 C 373.609375 327.996094 372.871094 326.214844 371.554688 324.898438 C 370.238281 323.582031 368.453125 322.839844 366.59375 322.839844 Z M 447.148438 14.078125 L 489.25 14.078125 L 489.25 86.019531 L 447.148438 53.066406 Z M 222.449219 148.652344 L 211.402344 134.566406 L 361.746094 16.90625 C 364.117188 15.128906 367 14.167969 369.960938 14.167969 C 372.921875 14.167969 375.804688 15.128906 378.171875 16.910156 L 528.511719 134.566406 L 517.464844 148.652344 L 374.28125 36.621094 C 373.046875 35.652344 371.523438 35.128906 369.957031 35.128906 C 368.390625 35.128906 366.867188 35.652344 365.632812 36.621094 Z M 285.75 182.496094 L 341.886719 182.496094 L 341.886719 294.773438 L 285.75 294.773438 Z M 419.078125 168.460938 C 420.9375 168.460938 422.722656 169.199219 424.039062 170.515625 C 425.355469 171.832031 426.09375 173.617188 426.09375 175.476562 C 426.09375 177.335938 425.355469 179.121094 424.039062 180.4375 C 422.722656 181.753906 420.9375 182.496094 419.078125 182.496094 L 391.007812 182.496094 L 391.007812 203.546875 C 391.007812 205.40625 390.269531 207.191406 388.953125 208.507812 C 387.636719 209.824219 385.851562 210.5625 383.992188 210.5625 C 382.128906 210.5625 380.34375 209.824219 379.03125 208.507812 C 377.714844 207.191406 376.972656 205.40625 376.972656 203.546875 L 376.972656 175.476562 C 376.972656 174.554688 377.15625 173.640625 377.507812 172.789062 C 377.859375 171.941406 378.375 171.164062 379.027344 170.515625 C 379.679688 169.863281 380.453125 169.34375 381.304688 168.992188 C 382.15625 168.640625 383.070312 168.460938 383.992188 168.460938 Z M 607.695312 375.222656 L 560.984375 328.511719 C 572.558594 307.765625 576.238281 283.535156 571.351562 260.289062 C 566.460938 237.042969 553.328125 216.351562 534.375 202.03125 C 515.421875 187.707031 491.929688 180.722656 468.234375 182.363281 C 444.535156 184.003906 422.230469 194.160156 405.433594 210.957031 C 388.636719 227.757812 378.484375 250.0625 376.84375 273.761719 C 375.203125 297.457031 382.1875 320.949219 396.511719 339.902344 C 410.835938 358.851562 431.527344 371.984375 454.773438 376.875 C 478.019531 381.761719 502.25 378.082031 522.992188 366.503906 L 569.703125 413.214844 C 572.195312 415.707031 575.160156 417.6875 578.417969 419.039062 C 581.675781 420.386719 585.171875 421.082031 588.699219 421.082031 C 592.226562 421.082031 595.71875 420.386719 598.980469 419.039062 C 602.238281 417.6875 605.199219 415.707031 607.695312 413.214844 C 610.1875 410.71875 612.167969 407.757812 613.519531 404.5 C 614.867188 401.238281 615.5625 397.746094 615.5625 394.21875 C 615.5625 390.691406 614.867188 387.195312 613.519531 383.9375 C 612.167969 380.679688 610.1875 377.714844 607.695312 375.222656 Z M 391.007812 280.738281 C 391.007812 264.082031 395.945312 247.800781 405.199219 233.953125 C 414.453125 220.105469 427.605469 209.3125 442.992188 202.9375 C 458.378906 196.566406 475.308594 194.898438 491.644531 198.148438 C 507.976562 201.394531 522.980469 209.414062 534.757812 221.191406 C 546.535156 232.96875 554.554688 247.972656 557.804688 264.308594 C 561.054688 280.644531 559.386719 297.574219 553.011719 312.960938 C 546.640625 328.347656 535.847656 341.5 522 350.753906 C 508.152344 360.007812 491.871094 364.945312 475.214844 364.945312 C 452.890625 364.921875 431.484375 356.039062 415.699219 340.253906 C 399.914062 324.46875 391.035156 303.0625 391.007812 280.738281 Z M 597.769531 403.292969 C 595.328125 405.625 592.078125 406.929688 588.699219 406.929688 C 585.316406 406.929688 582.070312 405.625 579.625 403.292969 L 534.914062 358.582031 C 541.726562 353.34375 547.828125 347.246094 553.0625 340.433594 L 597.769531 385.144531 C 600.171875 387.554688 601.523438 390.816406 601.523438 394.21875 C 601.523438 397.621094 600.171875 400.882812 597.769531 403.292969 Z M 475.214844 210.5625 C 461.335938 210.5625 447.769531 214.679688 436.230469 222.390625 C 424.691406 230.101562 415.695312 241.058594 410.382812 253.882812 C 405.074219 266.707031 403.683594 280.816406 406.390625 294.425781 C 409.097656 308.039062 415.78125 320.542969 425.597656 330.359375 C 435.410156 340.171875 447.914062 346.855469 461.527344 349.5625 C 475.136719 352.269531 489.246094 350.878906 502.070312 345.570312 C 514.890625 340.257812 525.851562 331.265625 533.5625 319.722656 C 541.273438 308.183594 545.386719 294.617188 545.386719 280.738281 C 545.367188 262.132812 537.96875 244.296875 524.8125 231.140625 C 511.65625 217.984375 493.820312 210.585938 475.214844 210.5625 Z M 475.214844 336.875 C 464.113281 336.875 453.257812 333.582031 444.027344 327.414062 C 434.796875 321.246094 427.601562 312.480469 423.351562 302.21875 C 419.101562 291.960938 417.988281 280.675781 420.15625 269.785156 C 422.324219 258.894531 427.667969 248.890625 435.519531 241.039062 C 443.371094 233.191406 453.375 227.84375 464.265625 225.675781 C 475.152344 223.511719 486.441406 224.621094 496.699219 228.871094 C 506.957031 233.121094 515.722656 240.316406 521.894531 249.546875 C 528.0625 258.78125 531.351562 269.632812 531.351562 280.738281 C 531.335938 295.621094 525.417969 309.890625 514.890625 320.414062 C 504.367188 330.9375 490.097656 336.859375 475.214844 336.875 Z M 475.214844 336.875 " fill-opacity="1" fill-rule="nonzero"/></g></svg>