<svg xmlns="http://www.w3.org/2000/svg" xmlns:xlink="http://www.w3.org/1999/xlink" width="800" zoomAndPan="magnify" viewBox="0 0 600 749.999995" height="1000" preserveAspectRatio="xMidYMid meet" version="1.0"><defs><clipPath id="7001ae88df"><path d="M 0 0 L 597.75 0 L 597.75 749.675781 L 0 749.675781 Z M 0 0 " clip-rule="nonzero"/></clipPath></defs><g clip-path="url(#7001ae88df)"><path fill="#ffffff" d="M 591.640625 42.757812 L 529.222656 42.757812 L 529.222656 3.398438 C 529.222656 0.101562 526.546875 -2.574219 523.25 -2.574219 L 6.308594 -2.574219 C 3.011719 -2.574219 0.335938 0.101562 0.335938 3.398438 L 0.335938 698.6875 C 0.335938 701.984375 3.011719 704.660156 6.308594 704.660156 L 68.726562 704.660156 L 68.726562 744.019531 C 68.726562 747.316406 71.402344 749.992188 74.699219 749.992188 L 591.640625 749.992188 C 594.9375 749.992188 597.613281 747.316406 597.613281 744.019531 L 597.613281 48.730469 C 597.613281 45.433594 594.9375 42.757812 591.640625 42.757812 Z M 12.28125 9.371094 L 517.277344 9.371094 L 517.277344 692.714844 L 12.28125 692.714844 Z M 585.667969 738.046875 L 80.671875 738.046875 L 80.671875 704.660156 L 523.25 704.660156 C 526.546875 704.660156 529.222656 701.984375 529.222656 698.6875 L 529.222656 54.703125 L 585.667969 54.703125 Z M 585.667969 738.046875 " fill-opacity="1" fill-rule="nonzero"/></g><path fill="#ffffff" d="M 80.671875 109.175781 C 80.671875 109.03125 80.597656 108.914062 80.585938 108.769531 C 80.5625 108.371094 80.460938 107.992188 80.347656 107.597656 C 80.242188 107.203125 80.132812 106.835938 79.949219 106.476562 C 79.882812 106.351562 79.882812 106.214844 79.8125 106.085938 L 60.769531 74.496094 L 95.816406 61.40625 C 98.558594 65 102.40625 67.640625 106.765625 68.917969 L 106.765625 133.96875 C 92.667969 136.257812 80.710938 146.476562 76.609375 160.398438 C 76.078125 162.203125 76.425781 164.15625 77.554688 165.660156 C 78.683594 167.171875 80.449219 168.054688 82.335938 168.054688 L 143.140625 168.054688 C 145.019531 168.054688 146.796875 167.171875 147.921875 165.660156 C 149.050781 164.15625 149.40625 162.203125 148.867188 160.398438 C 144.765625 146.480469 132.808594 136.257812 118.710938 133.96875 L 118.710938 68.917969 C 123.035156 67.636719 126.859375 65.007812 129.59375 61.40625 L 164.703125 74.503906 L 145.613281 106.085938 C 145.535156 106.214844 145.535156 106.355469 145.46875 106.480469 C 145.285156 106.835938 145.175781 107.210938 145.070312 107.597656 C 144.960938 107.992188 144.859375 108.371094 144.828125 108.769531 C 144.816406 108.914062 144.746094 109.03125 144.746094 109.175781 C 144.746094 124.980469 157.660156 137.84375 173.535156 137.84375 C 189.410156 137.84375 202.324219 124.984375 202.324219 109.175781 C 202.324219 109.03125 202.25 108.914062 202.238281 108.769531 C 202.210938 108.371094 202.113281 107.992188 202 107.597656 C 201.894531 107.210938 201.785156 106.835938 201.601562 106.480469 C 201.535156 106.355469 201.535156 106.214844 201.457031 106.089844 L 178.640625 68.339844 C 178.503906 68.113281 178.285156 67.980469 178.121094 67.777344 C 177.894531 67.492188 177.675781 67.234375 177.40625 66.996094 C 177.023438 66.660156 176.617188 66.417969 176.167969 66.195312 C 175.972656 66.09375 175.828125 65.914062 175.613281 65.835938 L 133.734375 50.210938 C 133.769531 49.722656 133.863281 49.226562 133.863281 48.738281 C 133.863281 37.113281 124.378906 27.652344 112.71875 27.652344 C 101.027344 27.652344 91.515625 37.109375 91.515625 48.738281 C 91.515625 49.226562 91.613281 49.722656 91.648438 50.21875 L 49.851562 65.832031 C 49.640625 65.910156 49.5 66.089844 49.296875 66.191406 C 48.847656 66.410156 48.441406 66.660156 48.058594 66.996094 C 47.789062 67.234375 47.570312 67.492188 47.347656 67.773438 C 47.1875 67.976562 46.964844 68.105469 46.828125 68.339844 L 24.011719 106.085938 C 23.933594 106.214844 23.933594 106.351562 23.871094 106.480469 C 23.691406 106.835938 23.578125 107.203125 23.46875 107.597656 C 23.363281 107.992188 23.261719 108.371094 23.230469 108.769531 C 23.226562 108.914062 23.152344 109.03125 23.152344 109.175781 C 23.152344 124.980469 36.070312 137.84375 51.941406 137.84375 C 67.78125 137.84375 80.671875 124.980469 80.671875 109.175781 Z M 173.546875 82.972656 L 185.773438 103.203125 L 161.320312 103.203125 Z M 64.125 103.203125 L 39.714844 103.203125 L 51.9375 82.984375 Z M 64.125 103.203125 " fill-opacity="1" fill-rule="nonzero"/><path fill="#ffffff" d="M 264.75 77.402344 L 416.816406 77.402344 C 420.113281 77.402344 422.789062 74.726562 422.789062 71.429688 C 422.789062 68.132812 420.113281 65.457031 416.816406 65.457031 L 264.75 65.457031 C 261.453125 65.457031 258.777344 68.132812 258.777344 71.429688 C 258.777344 74.726562 261.453125 77.402344 264.75 77.402344 Z M 264.75 77.402344 " fill-opacity="1" fill-rule="nonzero"/><path fill="#ffffff" d="M 241.933594 130.257812 L 477.621094 130.257812 C 480.917969 130.257812 483.59375 127.582031 483.59375 124.285156 C 483.59375 120.988281 480.917969 118.3125 477.621094 118.3125 L 241.933594 118.3125 C 238.636719 118.3125 235.960938 120.988281 235.960938 124.285156 C 235.960938 127.582031 238.636719 130.257812 241.933594 130.257812 Z M 241.933594 130.257812 " fill-opacity="1" fill-rule="nonzero"/><path fill="#ffffff" d="M 158.316406 209.039062 L 67.113281 209.039062 C 63.816406 209.039062 61.140625 211.714844 61.140625 215.011719 C 61.140625 218.308594 63.816406 220.984375 67.113281 220.984375 L 158.316406 220.984375 C 161.613281 220.984375 164.289062 218.308594 164.289062 215.011719 C 164.289062 211.714844 161.613281 209.039062 158.316406 209.039062 Z M 158.316406 209.039062 " fill-opacity="1" fill-rule="nonzero"/><path fill="#ffffff" d="M 99.1875 260.347656 C 99.1875 263.644531 101.863281 266.320312 105.160156 266.320312 L 462.390625 266.320312 C 465.6875 266.320312 468.363281 263.644531 468.363281 260.347656 C 468.363281 257.050781 465.6875 254.375 462.390625 254.375 L 105.160156 254.375 C 101.863281 254.375 99.1875 257.050781 99.1875 260.347656 Z M 99.1875 260.347656 " fill-opacity="1" fill-rule="nonzero"/><path fill="#ffffff" d="M 67.113281 326.761719 L 462.390625 326.761719 C 465.6875 326.761719 468.363281 324.085938 468.363281 320.789062 C 468.363281 317.492188 465.6875 314.816406 462.390625 314.816406 L 67.113281 314.816406 C 63.816406 314.816406 61.140625 317.492188 61.140625 320.789062 C 61.140625 324.085938 63.816406 326.761719 67.113281 326.761719 Z M 67.113281 326.761719 " fill-opacity="1" fill-rule="nonzero"/><path fill="#ffffff" d="M 67.113281 394.792969 L 462.390625 394.792969 C 465.6875 394.792969 468.363281 392.117188 468.363281 388.820312 C 468.363281 385.523438 465.6875 382.847656 462.390625 382.847656 L 67.113281 382.847656 C 63.816406 382.847656 61.140625 385.523438 61.140625 388.820312 C 61.140625 392.117188 63.816406 394.792969 67.113281 394.792969 Z M 67.113281 394.792969 " fill-opacity="1" fill-rule="nonzero"/><path fill="#ffffff" d="M 226.765625 455.238281 L 462.390625 455.238281 C 465.6875 455.238281 468.363281 452.5625 468.363281 449.265625 C 468.363281 445.96875 465.6875 443.292969 462.390625 443.292969 L 226.765625 443.292969 C 223.46875 443.292969 220.792969 445.96875 220.792969 449.265625 C 220.792969 452.5625 223.46875 455.238281 226.765625 455.238281 Z M 226.765625 455.238281 " fill-opacity="1" fill-rule="nonzero"/><path fill="#ffffff" d="M 232.738281 570.210938 C 232.738281 516.894531 189.140625 473.511719 135.558594 473.511719 C 81.941406 473.511719 38.324219 516.894531 38.324219 570.210938 C 38.324219 623.5 81.941406 666.851562 135.558594 666.851562 C 189.140625 666.851562 232.738281 623.5 232.738281 570.210938 Z M 50.269531 570.210938 C 50.269531 523.480469 88.53125 485.457031 135.558594 485.457031 C 182.558594 485.457031 220.792969 523.480469 220.792969 570.210938 C 220.792969 616.914062 182.558594 654.90625 135.558594 654.90625 C 88.53125 654.90625 50.269531 616.914062 50.269531 570.210938 Z M 50.269531 570.210938 " fill-opacity="1" fill-rule="nonzero"/><path fill="#ffffff" d="M 202.335938 570.210938 C 202.335938 533.585938 172.382812 503.796875 135.558594 503.796875 C 98.707031 503.796875 68.726562 533.585938 68.726562 570.210938 C 68.726562 606.835938 98.707031 636.628906 135.558594 636.628906 C 172.382812 636.628906 202.335938 606.835938 202.335938 570.210938 Z M 80.671875 570.210938 C 80.671875 540.175781 105.296875 515.742188 135.558594 515.742188 C 165.792969 515.742188 190.390625 540.175781 190.390625 570.210938 C 190.390625 600.25 165.792969 624.683594 135.558594 624.683594 C 105.296875 624.683594 80.671875 600.25 80.671875 570.210938 Z M 80.671875 570.210938 " fill-opacity="1" fill-rule="nonzero"/><path fill="#ffffff" d="M 162.152344 542.933594 C 159.625 540.820312 155.851562 541.144531 153.734375 543.679688 L 120.859375 582.917969 L 110.117188 566.886719 C 108.28125 564.136719 104.5625 563.402344 101.832031 565.25 C 99.089844 567.082031 98.355469 570.796875 100.195312 573.53125 L 115.367188 596.167969 C 116.410156 597.730469 118.132812 598.707031 120.007812 598.808594 C 120.113281 598.816406 120.222656 598.816406 120.328125 598.816406 C 122.089844 598.816406 123.769531 598.039062 124.910156 596.675781 L 162.898438 551.34375 C 165.011719 548.824219 164.683594 545.054688 162.152344 542.933594 Z M 162.152344 542.933594 " fill-opacity="1" fill-rule="nonzero"/><path fill="#ffffff" d="M 475.464844 571.035156 C 468.207031 573.84375 461.234375 576.167969 454.148438 578.136719 C 446.398438 580.3125 438.558594 582.09375 430.710938 583.464844 C 431.410156 581.714844 431.988281 579.925781 432.453125 578.089844 C 433.984375 572.195312 436.074219 564.125 431.28125 558.230469 C 426.433594 552.335938 416.90625 551.703125 402.90625 556.363281 C 392.507812 559.867188 383.789062 565.746094 376.800781 571.878906 C 377.085938 566.574219 376.191406 561.460938 372.757812 557.902344 C 365.265625 550.054688 351.273438 554.144531 329.613281 563.871094 C 307.152344 573.953125 284.8125 586.351562 263.226562 600.714844 C 260.484375 602.542969 259.738281 606.25 261.566406 609 C 262.71875 610.730469 264.613281 611.664062 266.542969 611.664062 C 267.675781 611.664062 268.832031 611.339844 269.84375 610.664062 C 290.882812 596.660156 312.640625 584.582031 334.5 574.769531 C 359.074219 563.742188 363.378906 565.386719 364.132812 566.179688 C 364.234375 566.289062 366.539062 568.875 362.6875 582.253906 C 361.203125 587.4375 358.566406 591.332031 357.148438 593.417969 C 354.445312 597.398438 354.484375 600.632812 357.601562 603.273438 C 362.585938 606.933594 366.3125 601.914062 368.304688 599.214844 C 373.328125 592.441406 386.671875 574.445312 406.730469 567.6875 C 418.871094 563.648438 422.023438 565.796875 422.03125 565.796875 C 422.992188 566.980469 421.410156 573.089844 420.878906 575.132812 C 419.753906 579.566406 417.671875 583.714844 414.695312 587.472656 C 413.199219 589.371094 412.988281 591.988281 414.171875 594.097656 C 415.359375 596.210938 417.707031 597.398438 420.101562 597.109375 C 432.539062 595.601562 445.078125 593.09375 457.359375 589.640625 C 464.820312 587.5625 472.15625 585.121094 479.777344 582.175781 C 482.851562 580.988281 484.378906 577.527344 483.191406 574.453125 C 482.003906 571.378906 478.550781 569.847656 475.464844 571.035156 Z M 475.464844 571.035156 " fill-opacity="1" fill-rule="nonzero"/><path fill="#ffffff" d="M 454.210938 617.1875 L 302.207031 632.300781 C 298.925781 632.628906 296.527344 635.546875 296.855469 638.832031 C 297.160156 641.914062 299.757812 644.214844 302.792969 644.214844 C 302.988281 644.214844 303.183594 644.207031 303.386719 644.183594 L 455.394531 629.074219 C 458.675781 628.746094 461.074219 625.824219 460.746094 622.539062 C 460.417969 619.261719 457.515625 616.839844 454.210938 617.1875 Z M 454.210938 617.1875 " fill-opacity="1" fill-rule="nonzero"/></svg>