<svg xmlns="http://www.w3.org/2000/svg" xmlns:xlink="http://www.w3.org/1999/xlink" width="1080" zoomAndPan="magnify" viewBox="0 0 810 809.999993" height="1080" preserveAspectRatio="xMidYMid meet" version="1.0"><defs><g/><clipPath id="299fcc2a88"><path d="M 345 319 L 453 319 L 453 377.25 L 345 377.25 Z M 345 319 " clip-rule="nonzero"/></clipPath></defs><rect x="-81" width="972" fill="#ffffff" y="-80.999999" height="971.999992" fill-opacity="1"/><rect x="-81" width="972" fill="#ffffff" y="-80.999999" height="971.999992" fill-opacity="1"/><path fill="#ffffff" d="M 508.859375 289.125 C 505.945312 289.125 503.519531 286.816406 503.417969 283.871094 C 503.304688 280.859375 505.660156 278.332031 508.664062 278.226562 C 508.890625 278.21875 531.945312 277.207031 551.53125 265.359375 C 554.105469 263.800781 557.460938 264.632812 559.019531 267.207031 C 560.582031 269.78125 559.75 273.132812 557.175781 274.695312 C 535.097656 288.046875 510.109375 289.085938 509.058594 289.125 C 508.992188 289.125 508.925781 289.125 508.859375 289.125 Z M 508.859375 289.125 " fill-opacity="1" fill-rule="nonzero"/><path fill="#ffffff" d="M 271.65625 283.027344 C 270.265625 283.027344 268.863281 282.496094 267.804688 281.429688 L 254.140625 267.765625 C 252.011719 265.636719 252.011719 262.179688 254.140625 260.050781 C 256.269531 257.917969 259.726562 257.917969 261.855469 260.050781 L 275.519531 273.710938 C 277.648438 275.84375 277.648438 279.296875 275.519531 281.429688 C 274.449219 282.496094 273.046875 283.027344 271.65625 283.027344 Z M 271.65625 283.027344 " fill-opacity="1" fill-rule="nonzero"/><g clip-path="url(#299fcc2a88)"><path fill="#ffffff" d="M 374.84375 377.277344 C 367.933594 377.277344 361.023438 374.648438 355.757812 369.382812 L 346.792969 360.417969 C 344.660156 358.285156 344.660156 354.832031 346.792969 352.699219 C 348.921875 350.570312 352.378906 350.570312 354.507812 352.699219 L 363.472656 361.667969 C 369.742188 367.945312 379.949219 367.933594 386.226562 361.667969 C 389.265625 358.636719 390.941406 354.605469 390.941406 350.296875 C 390.941406 348.203125 390.542969 346.167969 389.757812 344.238281 C 388.960938 342.25 387.769531 340.460938 386.226562 338.914062 C 384.09375 336.785156 384.09375 333.328125 386.226562 331.199219 C 388.355469 329.070312 391.8125 329.070312 393.941406 331.199219 L 413.910156 351.15625 C 416.949219 354.195312 420.992188 355.871094 425.28125 355.871094 C 429.570312 355.871094 433.613281 354.195312 436.652344 351.15625 C 439.691406 348.117188 441.367188 344.074219 441.367188 339.777344 C 441.367188 335.480469 439.691406 331.4375 436.660156 328.40625 C 434.53125 326.277344 434.53125 322.820312 436.660156 320.691406 C 438.789062 318.558594 442.246094 318.558594 444.375 320.691406 C 449.46875 325.785156 452.273438 332.5625 452.273438 339.777344 C 452.273438 346.992188 449.460938 353.769531 444.367188 358.875 C 439.265625 363.96875 432.496094 366.78125 425.28125 366.78125 C 418.066406 366.78125 411.296875 363.96875 406.191406 358.875 L 401.5625 354.246094 C 400.730469 359.972656 398.097656 365.246094 393.933594 369.390625 C 388.667969 374.65625 381.757812 377.277344 374.84375 377.277344 Z M 374.84375 377.277344 " fill-opacity="1" fill-rule="nonzero"/></g><path fill="#ffffff" d="M 464.503906 345.070312 C 457.59375 345.070312 450.683594 342.4375 445.417969 337.171875 L 396.375 288.132812 C 394.246094 286 394.246094 282.546875 396.375 280.414062 C 398.503906 278.285156 401.960938 278.285156 404.089844 280.414062 L 453.132812 329.457031 C 459.402344 335.734375 469.609375 335.734375 475.886719 329.457031 C 482.160156 323.191406 482.160156 312.984375 475.886719 306.707031 L 426.84375 257.664062 C 424.710938 255.535156 424.710938 252.078125 426.84375 249.949219 C 428.972656 247.816406 432.429688 247.816406 434.558594 249.949219 L 483.601562 298.992188 C 494.128906 309.519531 494.128906 326.644531 483.601562 337.164062 C 478.328125 342.4375 471.417969 345.070312 464.503906 345.070312 Z M 464.503906 345.070312 " fill-opacity="1" fill-rule="nonzero"/><path fill="#ffffff" d="M 487.605469 307.253906 C 480.695312 307.253906 473.78125 304.625 468.527344 299.371094 C 466.398438 297.238281 466.398438 293.78125 468.527344 291.652344 C 470.660156 289.523438 474.113281 289.523438 476.246094 291.652344 C 482.523438 297.921875 492.71875 297.921875 498.984375 291.652344 C 501.390625 289.238281 502.953125 286.179688 503.484375 282.828125 C 503.492188 282.792969 503.492188 282.761719 503.503906 282.726562 C 503.636719 281.976562 503.699219 281.152344 503.699219 280.273438 C 503.699219 275.984375 502.023438 271.941406 498.984375 268.890625 L 421.113281 191.019531 C 415.5 185.398438 407.261719 183.246094 399.613281 185.398438 C 395.683594 186.503906 392.152344 188.671875 389.40625 191.664062 L 365.132812 218.023438 C 365.082031 218.078125 365.027344 218.125 364.980469 218.183594 C 359.414062 223.75 352.007812 226.816406 344.140625 226.816406 C 336.273438 226.816406 328.859375 223.75 323.292969 218.183594 C 314.0625 208.953125 311.96875 195.015625 318.09375 183.523438 C 325.898438 168.855469 339.386719 148.726562 359.382812 136.136719 C 359.460938 136.089844 359.527344 136.050781 359.601562 136.003906 C 376.046875 125.710938 394.066406 122.246094 413.152344 125.710938 C 416.046875 126.136719 455.613281 132.214844 486.695312 153.492188 L 518.546875 139.714844 C 521.3125 138.523438 524.519531 139.789062 525.714844 142.554688 C 526.90625 145.320312 525.636719 148.527344 522.875 149.722656 L 488.222656 164.710938 C 486.460938 165.476562 484.414062 165.25 482.863281 164.121094 C 453.113281 142.613281 411.921875 136.550781 411.503906 136.496094 C 411.429688 136.484375 411.363281 136.476562 411.296875 136.457031 C 394.859375 133.457031 379.359375 136.449219 365.214844 145.359375 C 365.148438 145.394531 365.082031 145.441406 365.019531 145.480469 C 347.152344 156.8125 334.890625 175.199219 327.734375 188.644531 C 323.878906 195.886719 325.195312 204.652344 331.007812 210.46875 C 334.511719 213.96875 339.179688 215.902344 344.140625 215.902344 C 349.066406 215.902344 353.703125 214 357.199219 210.535156 L 381.386719 184.269531 C 385.496094 179.792969 390.78125 176.554688 396.660156 174.898438 C 408.105469 171.667969 420.433594 174.898438 428.832031 183.304688 L 506.703125 261.175781 C 511.804688 266.289062 514.609375 273.066406 514.609375 280.273438 C 514.609375 281.769531 514.484375 283.21875 514.25 284.582031 C 513.347656 290.195312 510.746094 295.308594 506.703125 299.359375 C 501.4375 304.625 494.515625 307.253906 487.605469 307.253906 Z M 487.605469 307.253906 " fill-opacity="1" fill-rule="nonzero"/><path fill="#ffffff" d="M 289.097656 152.867188 C 286.605469 152.867188 284.363281 151.152344 283.785156 148.625 C 283.113281 145.6875 284.949219 142.761719 287.894531 142.089844 C 322.070312 134.300781 360.632812 135.238281 362.421875 135.292969 C 365.378906 135.359375 367.753906 137.773438 367.753906 140.746094 C 367.753906 143.804688 365.214844 146.292969 362.148438 146.199219 C 360.566406 146.164062 323.246094 145.226562 290.316406 152.734375 C 289.910156 152.816406 289.503906 152.867188 289.097656 152.867188 Z M 289.097656 152.867188 " fill-opacity="1" fill-rule="nonzero"/><path fill="#ffffff" d="M 283.878906 303.921875 C 278.890625 303.921875 273.898438 302.019531 270.105469 298.222656 C 266.421875 294.539062 264.394531 289.644531 264.394531 284.449219 C 264.394531 279.25 266.421875 274.347656 270.105469 270.671875 L 286.699219 254.074219 C 290.382812 250.390625 295.269531 248.367188 300.476562 248.367188 C 305.683594 248.367188 310.578125 250.394531 314.25 254.074219 C 321.84375 261.667969 321.84375 274.035156 314.25 281.625 C 312.121094 283.757812 308.664062 283.757812 306.535156 281.625 C 304.40625 279.496094 304.40625 276.039062 306.535156 273.910156 C 309.878906 270.566406 309.878906 265.125 306.535156 261.78125 C 304.917969 260.164062 302.757812 259.273438 300.464844 259.273438 C 298.175781 259.273438 296.027344 260.164062 294.398438 261.78125 L 277.800781 278.378906 C 276.183594 280 275.292969 282.148438 275.292969 284.4375 C 275.292969 286.730469 276.183594 288.886719 277.800781 290.507812 C 281.144531 293.847656 286.585938 293.847656 289.929688 290.507812 C 292.058594 288.378906 295.515625 288.378906 297.644531 290.507812 C 299.777344 292.636719 299.777344 296.09375 297.644531 298.222656 C 293.859375 302.019531 288.867188 303.921875 283.878906 303.921875 Z M 283.878906 303.921875 " fill-opacity="1" fill-rule="nonzero"/><path fill="#ffffff" d="M 297.816406 329.664062 C 292.828125 329.664062 287.835938 327.761719 284.039062 323.964844 C 280.355469 320.285156 278.332031 315.398438 278.332031 310.191406 C 278.332031 304.984375 280.355469 300.089844 284.039062 296.414062 L 306.546875 273.910156 C 310.226562 270.226562 315.113281 268.203125 320.320312 268.203125 C 325.527344 268.203125 330.421875 270.226562 334.097656 273.910156 C 341.6875 281.503906 341.6875 293.867188 334.097656 301.460938 C 331.964844 303.59375 328.511719 303.59375 326.378906 301.460938 C 324.25 299.332031 324.25 295.875 326.378906 293.746094 C 329.722656 290.402344 329.722656 284.960938 326.378906 281.617188 C 324.761719 280 322.601562 279.109375 320.3125 279.109375 C 318.019531 279.109375 315.871094 280 314.242188 281.617188 L 291.738281 304.121094 C 290.117188 305.742188 289.226562 307.898438 289.226562 310.191406 C 289.226562 312.480469 290.117188 314.632812 291.738281 316.257812 C 295.078125 319.601562 300.523438 319.601562 303.867188 316.257812 C 305.996094 314.128906 309.453125 314.128906 311.582031 316.257812 C 313.710938 318.390625 313.710938 321.84375 311.582031 323.976562 C 307.792969 327.773438 302.796875 329.664062 297.816406 329.664062 Z M 297.816406 329.664062 " fill-opacity="1" fill-rule="nonzero"/><path fill="#ffffff" d="M 311.109375 356.042969 C 306.117188 356.042969 301.128906 354.140625 297.332031 350.34375 C 289.738281 342.75 289.738281 330.386719 297.332031 322.792969 L 326.378906 293.753906 C 333.972656 286.160156 346.335938 286.160156 353.929688 293.753906 C 357.613281 297.4375 359.640625 302.324219 359.640625 307.53125 C 359.640625 312.738281 357.613281 317.632812 353.929688 321.304688 L 324.894531 350.34375 C 321.085938 354.140625 316.097656 356.042969 311.109375 356.042969 Z M 340.15625 298.953125 C 337.957031 298.953125 335.761719 299.785156 334.085938 301.460938 L 305.039062 330.5 C 301.699219 333.839844 301.699219 339.285156 305.039062 342.628906 C 308.382812 345.96875 313.824219 345.96875 317.167969 342.628906 L 346.207031 313.589844 C 347.824219 311.972656 348.714844 309.8125 348.714844 307.519531 C 348.714844 305.230469 347.824219 303.070312 346.207031 301.453125 C 344.546875 299.785156 342.351562 298.953125 340.15625 298.953125 Z M 340.15625 298.953125 " fill-opacity="1" fill-rule="nonzero"/><path fill="#ffffff" d="M 339.386719 367.460938 C 334.398438 367.460938 329.410156 365.558594 325.613281 361.761719 C 318.011719 354.160156 318.011719 341.792969 325.613281 334.199219 C 327.742188 332.070312 331.199219 332.070312 333.328125 334.199219 C 335.460938 336.332031 335.460938 339.785156 333.328125 341.917969 C 329.988281 345.257812 329.988281 350.703125 333.339844 354.054688 C 336.679688 357.398438 342.125 357.398438 345.46875 354.054688 L 366.078125 333.445312 C 367.695312 331.824219 368.585938 329.664062 368.585938 327.375 C 368.585938 325.082031 367.695312 322.933594 366.078125 321.316406 C 364.460938 319.695312 362.300781 318.796875 360.007812 318.796875 C 360.007812 318.796875 360.007812 318.796875 360 318.796875 C 357.707031 318.796875 355.558594 319.6875 353.949219 321.304688 C 351.820312 323.4375 348.363281 323.4375 346.234375 321.304688 C 344.101562 319.175781 344.101562 315.71875 346.234375 313.589844 C 349.90625 309.917969 354.800781 307.890625 360 307.890625 C 360.007812 307.890625 360.007812 307.890625 360.019531 307.890625 C 365.226562 307.890625 370.113281 309.925781 373.792969 313.597656 C 377.476562 317.28125 379.503906 322.167969 379.503906 327.375 C 379.503906 332.582031 377.476562 337.476562 373.792969 341.148438 L 353.183594 361.761719 C 349.367188 365.558594 344.378906 367.460938 339.386719 367.460938 Z M 339.386719 367.460938 " fill-opacity="1" fill-rule="nonzero"/><path fill="#ffffff" d="M 573.753906 286.683594 C 561.453125 286.683594 550.167969 278.464844 546.835938 266.035156 L 516.1875 151.652344 C 514.265625 144.488281 515.261719 136.988281 518.992188 130.53125 C 522.722656 124.074219 528.722656 119.453125 535.882812 117.542969 L 565.800781 109.523438 C 568.707031 108.746094 571.699219 110.46875 572.476562 113.375 L 614.71875 271.042969 C 615.496094 273.949219 613.773438 276.941406 610.867188 277.714844 L 580.949219 285.734375 C 578.554688 286.378906 576.140625 286.683594 573.753906 286.683594 Z M 538.710938 128.070312 C 534.367188 129.234375 530.710938 132.046875 528.441406 135.984375 C 526.167969 139.921875 525.5625 144.488281 526.726562 148.832031 L 557.375 263.210938 C 559.796875 272.242188 569.113281 277.621094 578.136719 275.199219 L 602.78125 268.589844 L 563.355469 121.460938 Z M 537.300781 122.804688 Z M 537.300781 122.804688 " fill-opacity="1" fill-rule="nonzero"/><path fill="#ffffff" d="M 236.171875 286.636719 C 233.792969 286.636719 231.371094 286.332031 228.964844 285.679688 L 199.046875 277.660156 C 196.140625 276.882812 194.410156 273.890625 195.195312 270.984375 L 237.441406 113.320312 C 237.820312 111.917969 238.726562 110.734375 239.976562 110.003906 C 241.226562 109.285156 242.722656 109.085938 244.113281 109.457031 L 274.03125 117.476562 C 288.867188 121.453125 297.710938 136.761719 293.734375 151.597656 L 263.089844 265.976562 C 259.753906 278.40625 248.46875 286.636719 236.171875 286.636719 Z M 231.789062 275.140625 C 240.808594 277.554688 250.125 272.179688 252.550781 263.15625 L 283.199219 148.773438 C 285.621094 139.742188 280.242188 130.4375 271.210938 128.011719 L 246.558594 121.402344 L 207.132812 268.53125 Z M 231.789062 275.140625 " fill-opacity="1" fill-rule="nonzero"/><path fill="#ffffff" d="M 438.523438 142.714844 C 437.179688 142.714844 435.835938 142.222656 434.785156 141.230469 C 432.589844 139.164062 432.496094 135.710938 434.558594 133.523438 C 452.480469 114.511719 462.355469 90.417969 462.355469 65.648438 C 462.355469 55.640625 460.785156 45.765625 457.6875 36.25 C 437.085938 37.160156 417.402344 28.828125 404.972656 14.503906 C 392.539062 28.828125 372.894531 37.167969 352.253906 36.25 C 349.148438 45.765625 347.578125 55.640625 347.578125 65.648438 C 347.578125 89.960938 357.132812 113.734375 374.484375 132.566406 C 376.519531 134.78125 376.386719 138.226562 374.171875 140.273438 C 371.957031 142.316406 368.511719 142.167969 366.464844 139.960938 C 347.257812 119.101562 336.671875 92.707031 336.671875 65.648438 C 336.671875 52.980469 338.925781 40.519531 343.375 28.601562 C 344.246094 26.273438 346.585938 24.832031 349.054688 25.089844 C 351.136719 25.304688 353.25 25.421875 355.332031 25.421875 C 373.878906 25.421875 391.148438 16.644531 400.40625 2.507812 C 401.410156 0.964844 403.136719 0.046875 404.972656 0.046875 C 406.808594 0.046875 408.523438 0.972656 409.535156 2.507812 C 418.785156 16.644531 436.054688 25.421875 454.609375 25.421875 C 456.695312 25.421875 458.804688 25.304688 460.886719 25.089844 C 463.359375 24.832031 465.699219 26.273438 466.570312 28.601562 C 471.019531 40.511719 473.273438 52.980469 473.273438 65.648438 C 473.273438 93.199219 462.347656 119.964844 442.511719 141.003906 C 441.421875 142.136719 439.972656 142.714844 438.523438 142.714844 Z M 438.523438 142.714844 " fill-opacity="1" fill-rule="nonzero"/><path fill="#ffffff" d="M 392.285156 111.746094 C 390.835938 111.746094 389.453125 111.167969 388.429688 110.148438 L 369.003906 90.71875 C 366.875 88.589844 366.875 85.132812 369.003906 83.003906 C 371.132812 80.871094 374.589844 80.871094 376.71875 83.003906 L 392.285156 98.566406 L 433.203125 57.648438 C 435.335938 55.519531 438.789062 55.519531 440.921875 57.648438 C 443.050781 59.777344 443.050781 63.234375 440.921875 65.363281 L 396.148438 110.136719 C 395.117188 111.167969 393.734375 111.746094 392.285156 111.746094 Z M 392.285156 111.746094 " fill-opacity="1" fill-rule="nonzero"/><g fill="#ffffff" fill-opacity="1"><g transform="translate(227.097647, 626.363196)"><g><path d="M 49.34375 -49.5625 L 49.34375 -48.15625 C 48.269531 -47.644531 47.101562 -46.628906 45.84375 -45.109375 C 44.582031 -43.597656 43.414062 -41.347656 42.34375 -38.359375 L 28.703125 0 C 28.140625 -0.0390625 27.539062 -0.0703125 26.90625 -0.09375 C 26.28125 -0.125 25.640625 -0.140625 24.984375 -0.140625 C 24.378906 -0.140625 23.757812 -0.125 23.125 -0.09375 C 22.5 -0.0703125 21.90625 -0.0390625 21.34375 0 L 3.015625 -43.6875 C 2.359375 -45.3125 1.664062 -46.453125 0.9375 -47.109375 C 0.21875 -47.765625 -0.46875 -48.113281 -1.125 -48.15625 L -1.125 -49.5625 C 0.5625 -49.507812 2.535156 -49.457031 4.796875 -49.40625 C 7.054688 -49.363281 9.332031 -49.34375 11.625 -49.34375 C 14 -49.34375 16.234375 -49.363281 18.328125 -49.40625 C 20.429688 -49.457031 22.113281 -49.507812 23.375 -49.5625 L 23.375 -48.15625 C 21.925781 -48.113281 20.78125 -47.953125 19.9375 -47.671875 C 19.101562 -47.390625 18.628906 -46.835938 18.515625 -46.015625 C 18.398438 -45.203125 18.664062 -43.957031 19.3125 -42.28125 L 31.921875 -11.265625 L 30.234375 -9.09375 L 38.21875 -31.5 C 39.664062 -35.601562 40.4375 -38.859375 40.53125 -41.265625 C 40.625 -43.671875 40.15625 -45.410156 39.125 -46.484375 C 38.101562 -47.554688 36.660156 -48.113281 34.796875 -48.15625 L 34.796875 -49.5625 C 36.566406 -49.507812 38.140625 -49.457031 39.515625 -49.40625 C 40.890625 -49.363281 42.367188 -49.34375 43.953125 -49.34375 C 44.890625 -49.34375 45.847656 -49.363281 46.828125 -49.40625 C 47.804688 -49.457031 48.644531 -49.507812 49.34375 -49.5625 Z M 49.34375 -49.5625 "/></g></g></g><g fill="#ffffff" fill-opacity="1"><g transform="translate(270.705174, 626.363196)"><g><path d="M 20.15625 -37.3125 C 24.257812 -37.3125 27.488281 -36.109375 29.84375 -33.703125 C 32.207031 -31.296875 33.390625 -27.269531 33.390625 -21.625 L 11.484375 -21.625 L 11.34375 -22.953125 L 23.171875 -22.953125 C 23.210938 -25.242188 23.117188 -27.359375 22.890625 -29.296875 C 22.660156 -31.234375 22.285156 -32.785156 21.765625 -33.953125 C 21.253906 -35.117188 20.554688 -35.703125 19.671875 -35.703125 C 18.410156 -35.703125 17.382812 -34.707031 16.59375 -32.71875 C 15.800781 -30.738281 15.285156 -27.347656 15.046875 -22.546875 L 15.328125 -21.984375 C 15.285156 -21.515625 15.265625 -21.046875 15.265625 -20.578125 C 15.265625 -20.109375 15.265625 -19.617188 15.265625 -19.109375 C 15.265625 -15.835938 15.671875 -13.289062 16.484375 -11.46875 C 17.296875 -9.65625 18.320312 -8.398438 19.5625 -7.703125 C 20.800781 -7.003906 22.050781 -6.65625 23.3125 -6.65625 C 23.96875 -6.65625 24.75 -6.742188 25.65625 -6.921875 C 26.5625 -7.109375 27.550781 -7.539062 28.625 -8.21875 C 29.695312 -8.894531 30.75 -9.9375 31.78125 -11.34375 L 32.96875 -10.921875 C 32.40625 -9.054688 31.503906 -7.203125 30.265625 -5.359375 C 29.035156 -3.515625 27.441406 -1.992188 25.484375 -0.796875 C 23.523438 0.390625 21.144531 0.984375 18.34375 0.984375 C 15.351562 0.984375 12.632812 0.378906 10.1875 -0.828125 C 7.738281 -2.046875 5.789062 -4.054688 4.34375 -6.859375 C 2.894531 -9.660156 2.171875 -13.414062 2.171875 -18.125 C 2.171875 -22.601562 2.960938 -26.253906 4.546875 -29.078125 C 6.140625 -31.898438 8.300781 -33.976562 11.03125 -35.3125 C 13.757812 -36.644531 16.800781 -37.3125 20.15625 -37.3125 Z M 20.15625 -37.3125 "/></g></g></g><g fill="#ffffff" fill-opacity="1"><g transform="translate(305.213275, 626.363196)"><g><path d="M 27.015625 -37.3125 C 28.703125 -37.3125 30.007812 -36.945312 30.9375 -36.21875 C 31.875 -35.5 32.523438 -34.585938 32.890625 -33.484375 C 33.265625 -32.390625 33.453125 -31.304688 33.453125 -30.234375 C 33.453125 -28.140625 32.859375 -26.472656 31.671875 -25.234375 C 30.484375 -23.992188 28.929688 -23.375 27.015625 -23.375 C 24.960938 -23.375 23.410156 -23.84375 22.359375 -24.78125 C 21.316406 -25.71875 20.796875 -26.929688 20.796875 -28.421875 C 20.796875 -30.003906 21.128906 -31.304688 21.796875 -32.328125 C 22.472656 -33.359375 23.328125 -34.226562 24.359375 -34.9375 C 23.515625 -34.9375 22.769531 -34.769531 22.125 -34.4375 C 21.5625 -34.207031 21.019531 -33.878906 20.5 -33.453125 C 19.988281 -33.035156 19.546875 -32.554688 19.171875 -32.015625 C 18.804688 -31.484375 18.515625 -30.890625 18.296875 -30.234375 C 18.085938 -29.585938 17.984375 -28.910156 17.984375 -28.203125 L 17.984375 -7.203125 C 17.984375 -4.960938 18.453125 -3.445312 19.390625 -2.65625 C 20.328125 -1.863281 21.867188 -1.46875 24.015625 -1.46875 L 24.015625 0 C 22.941406 -0.0390625 21.34375 -0.0976562 19.21875 -0.171875 C 17.09375 -0.242188 14.910156 -0.28125 12.671875 -0.28125 C 10.566406 -0.28125 8.441406 -0.242188 6.296875 -0.171875 C 4.148438 -0.0976562 2.539062 -0.0390625 1.46875 0 L 1.46875 -1.46875 C 2.914062 -1.46875 3.929688 -1.816406 4.515625 -2.515625 C 5.097656 -3.210938 5.390625 -4.546875 5.390625 -6.515625 L 5.390625 -28.703125 C 5.390625 -30.796875 5.109375 -32.34375 4.546875 -33.34375 C 3.984375 -34.351562 2.957031 -34.859375 1.46875 -34.859375 L 1.46875 -36.328125 C 2.957031 -36.191406 4.40625 -36.125 5.8125 -36.125 C 8.144531 -36.125 10.328125 -36.203125 12.359375 -36.359375 C 14.390625 -36.523438 16.265625 -36.769531 17.984375 -37.09375 L 17.984375 -32.0625 C 18.597656 -33.269531 19.347656 -34.257812 20.234375 -35.03125 C 21.117188 -35.800781 22.128906 -36.375 23.265625 -36.75 C 24.410156 -37.125 25.660156 -37.3125 27.015625 -37.3125 Z M 27.015625 -37.3125 "/></g></g></g><g fill="#ffffff" fill-opacity="1"><g transform="translate(338.881436, 626.363196)"><g><path d="M 17.640625 -47.671875 L 17.640625 -36.328125 L 24.5 -36.328125 L 24.5 -34.9375 L 17.640625 -34.9375 L 17.640625 -5.875 C 17.640625 -4.988281 17.800781 -4.347656 18.125 -3.953125 C 18.457031 -3.554688 18.992188 -3.359375 19.734375 -3.359375 C 20.253906 -3.359375 20.863281 -3.507812 21.5625 -3.8125 C 22.257812 -4.113281 22.910156 -4.640625 23.515625 -5.390625 L 24.5625 -4.546875 C 23.582031 -2.867188 22.285156 -1.523438 20.671875 -0.515625 C 19.066406 0.484375 17.050781 0.984375 14.625 0.984375 C 13.082031 0.984375 11.691406 0.785156 10.453125 0.390625 C 9.222656 -0.00390625 8.210938 -0.601562 7.421875 -1.40625 C 6.390625 -2.425781 5.734375 -3.691406 5.453125 -5.203125 C 5.179688 -6.722656 5.046875 -8.695312 5.046875 -11.125 L 5.046875 -34.9375 L -0.28125 -34.9375 L -0.28125 -36.328125 L 5.046875 -36.328125 L 5.046875 -44.59375 C 7.515625 -44.59375 9.765625 -44.835938 11.796875 -45.328125 C 13.828125 -45.816406 15.773438 -46.597656 17.640625 -47.671875 Z M 17.640625 -47.671875 "/></g></g></g><g fill="#ffffff" fill-opacity="1"><g transform="translate(363.380099, 626.363196)"><g><path d="M 27.015625 -37.3125 C 28.703125 -37.3125 30.007812 -36.945312 30.9375 -36.21875 C 31.875 -35.5 32.523438 -34.585938 32.890625 -33.484375 C 33.265625 -32.390625 33.453125 -31.304688 33.453125 -30.234375 C 33.453125 -28.140625 32.859375 -26.472656 31.671875 -25.234375 C 30.484375 -23.992188 28.929688 -23.375 27.015625 -23.375 C 24.960938 -23.375 23.410156 -23.84375 22.359375 -24.78125 C 21.316406 -25.71875 20.796875 -26.929688 20.796875 -28.421875 C 20.796875 -30.003906 21.128906 -31.304688 21.796875 -32.328125 C 22.472656 -33.359375 23.328125 -34.226562 24.359375 -34.9375 C 23.515625 -34.9375 22.769531 -34.769531 22.125 -34.4375 C 21.5625 -34.207031 21.019531 -33.878906 20.5 -33.453125 C 19.988281 -33.035156 19.546875 -32.554688 19.171875 -32.015625 C 18.804688 -31.484375 18.515625 -30.890625 18.296875 -30.234375 C 18.085938 -29.585938 17.984375 -28.910156 17.984375 -28.203125 L 17.984375 -7.203125 C 17.984375 -4.960938 18.453125 -3.445312 19.390625 -2.65625 C 20.328125 -1.863281 21.867188 -1.46875 24.015625 -1.46875 L 24.015625 0 C 22.941406 -0.0390625 21.34375 -0.0976562 19.21875 -0.171875 C 17.09375 -0.242188 14.910156 -0.28125 12.671875 -0.28125 C 10.566406 -0.28125 8.441406 -0.242188 6.296875 -0.171875 C 4.148438 -0.0976562 2.539062 -0.0390625 1.46875 0 L 1.46875 -1.46875 C 2.914062 -1.46875 3.929688 -1.816406 4.515625 -2.515625 C 5.097656 -3.210938 5.390625 -4.546875 5.390625 -6.515625 L 5.390625 -28.703125 C 5.390625 -30.796875 5.109375 -32.34375 4.546875 -33.34375 C 3.984375 -34.351562 2.957031 -34.859375 1.46875 -34.859375 L 1.46875 -36.328125 C 2.957031 -36.191406 4.40625 -36.125 5.8125 -36.125 C 8.144531 -36.125 10.328125 -36.203125 12.359375 -36.359375 C 14.390625 -36.523438 16.265625 -36.769531 17.984375 -37.09375 L 17.984375 -32.0625 C 18.597656 -33.269531 19.347656 -34.257812 20.234375 -35.03125 C 21.117188 -35.800781 22.128906 -36.375 23.265625 -36.75 C 24.410156 -37.125 25.660156 -37.3125 27.015625 -37.3125 Z M 27.015625 -37.3125 "/></g></g></g><g fill="#ffffff" fill-opacity="1"><g transform="translate(396.348283, 626.363196)"><g><path d="M 20.15625 -37.3125 C 24.257812 -37.3125 27.488281 -36.109375 29.84375 -33.703125 C 32.207031 -31.296875 33.390625 -27.269531 33.390625 -21.625 L 11.484375 -21.625 L 11.34375 -22.953125 L 23.171875 -22.953125 C 23.210938 -25.242188 23.117188 -27.359375 22.890625 -29.296875 C 22.660156 -31.234375 22.285156 -32.785156 21.765625 -33.953125 C 21.253906 -35.117188 20.554688 -35.703125 19.671875 -35.703125 C 18.410156 -35.703125 17.382812 -34.707031 16.59375 -32.71875 C 15.800781 -30.738281 15.285156 -27.347656 15.046875 -22.546875 L 15.328125 -21.984375 C 15.285156 -21.515625 15.265625 -21.046875 15.265625 -20.578125 C 15.265625 -20.109375 15.265625 -19.617188 15.265625 -19.109375 C 15.265625 -15.835938 15.671875 -13.289062 16.484375 -11.46875 C 17.296875 -9.65625 18.320312 -8.398438 19.5625 -7.703125 C 20.800781 -7.003906 22.050781 -6.65625 23.3125 -6.65625 C 23.96875 -6.65625 24.75 -6.742188 25.65625 -6.921875 C 26.5625 -7.109375 27.550781 -7.539062 28.625 -8.21875 C 29.695312 -8.894531 30.75 -9.9375 31.78125 -11.34375 L 32.96875 -10.921875 C 32.40625 -9.054688 31.503906 -7.203125 30.265625 -5.359375 C 29.035156 -3.515625 27.441406 -1.992188 25.484375 -0.796875 C 23.523438 0.390625 21.144531 0.984375 18.34375 0.984375 C 15.351562 0.984375 12.632812 0.378906 10.1875 -0.828125 C 7.738281 -2.046875 5.789062 -4.054688 4.34375 -6.859375 C 2.894531 -9.660156 2.171875 -13.414062 2.171875 -18.125 C 2.171875 -22.601562 2.960938 -26.253906 4.546875 -29.078125 C 6.140625 -31.898438 8.300781 -33.976562 11.03125 -35.3125 C 13.757812 -36.644531 16.800781 -37.3125 20.15625 -37.3125 Z M 20.15625 -37.3125 "/></g></g></g><g fill="#ffffff" fill-opacity="1"><g transform="translate(431.556362, 626.363196)"><g><path d="M 17.640625 -47.671875 L 17.640625 -36.328125 L 24.5 -36.328125 L 24.5 -34.9375 L 17.640625 -34.9375 L 17.640625 -5.875 C 17.640625 -4.988281 17.800781 -4.347656 18.125 -3.953125 C 18.457031 -3.554688 18.992188 -3.359375 19.734375 -3.359375 C 20.253906 -3.359375 20.863281 -3.507812 21.5625 -3.8125 C 22.257812 -4.113281 22.910156 -4.640625 23.515625 -5.390625 L 24.5625 -4.546875 C 23.582031 -2.867188 22.285156 -1.523438 20.671875 -0.515625 C 19.066406 0.484375 17.050781 0.984375 14.625 0.984375 C 13.082031 0.984375 11.691406 0.785156 10.453125 0.390625 C 9.222656 -0.00390625 8.210938 -0.601562 7.421875 -1.40625 C 6.390625 -2.425781 5.734375 -3.691406 5.453125 -5.203125 C 5.179688 -6.722656 5.046875 -8.695312 5.046875 -11.125 L 5.046875 -34.9375 L -0.28125 -34.9375 L -0.28125 -36.328125 L 5.046875 -36.328125 L 5.046875 -44.59375 C 7.515625 -44.59375 9.765625 -44.835938 11.796875 -45.328125 C 13.828125 -45.816406 15.773438 -46.597656 17.640625 -47.671875 Z M 17.640625 -47.671875 "/></g></g></g><g fill="#ffffff" fill-opacity="1"><g transform="translate(456.055025, 626.363196)"><g><path d="M 38.359375 -37.09375 L 38.359375 -7.625 C 38.359375 -5.53125 38.648438 -3.976562 39.234375 -2.96875 C 39.816406 -1.96875 40.832031 -1.46875 42.28125 -1.46875 L 42.28125 0 C 40.832031 -0.132812 39.382812 -0.203125 37.9375 -0.203125 C 35.601562 -0.203125 33.429688 -0.132812 31.421875 0 C 29.421875 0.132812 27.535156 0.390625 25.765625 0.765625 L 25.765625 -4.265625 C 24.640625 -2.398438 23.128906 -1.054688 21.234375 -0.234375 C 19.347656 0.578125 17.144531 0.984375 14.625 0.984375 C 12.476562 0.984375 10.785156 0.710938 9.546875 0.171875 C 8.316406 -0.359375 7.375 -1.019531 6.71875 -1.8125 C 6.019531 -2.65625 5.503906 -3.773438 5.171875 -5.171875 C 4.847656 -6.578125 4.6875 -8.46875 4.6875 -10.84375 L 4.6875 -28.703125 C 4.6875 -30.796875 4.40625 -32.34375 3.84375 -33.34375 C 3.289062 -34.351562 2.265625 -34.859375 0.765625 -34.859375 L 0.765625 -36.328125 C 2.265625 -36.191406 3.710938 -36.125 5.109375 -36.125 C 7.441406 -36.125 9.625 -36.203125 11.65625 -36.359375 C 13.6875 -36.523438 15.566406 -36.769531 17.296875 -37.09375 L 17.296875 -7.0625 C 17.296875 -6.082031 17.410156 -5.265625 17.640625 -4.609375 C 17.867188 -3.960938 18.238281 -3.472656 18.75 -3.140625 C 19.269531 -2.816406 19.925781 -2.65625 20.71875 -2.65625 C 21.601562 -2.65625 22.421875 -2.863281 23.171875 -3.28125 C 23.921875 -3.707031 24.539062 -4.304688 25.03125 -5.078125 C 25.519531 -5.847656 25.765625 -6.722656 25.765625 -7.703125 L 25.765625 -28.703125 C 25.765625 -30.796875 25.484375 -32.34375 24.921875 -33.34375 C 24.359375 -34.351562 23.332031 -34.859375 21.84375 -34.859375 L 21.84375 -36.328125 C 23.332031 -36.191406 24.78125 -36.125 26.1875 -36.125 C 28.519531 -36.125 30.695312 -36.203125 32.71875 -36.359375 C 34.75 -36.523438 36.628906 -36.769531 38.359375 -37.09375 Z M 38.359375 -37.09375 "/></g></g></g><g fill="#ffffff" fill-opacity="1"><g transform="translate(499.592651, 626.363196)"><g><path d="M 29.125 -37.3125 C 31.269531 -37.3125 32.957031 -37.039062 34.1875 -36.5 C 35.425781 -35.96875 36.375 -35.304688 37.03125 -34.515625 C 37.726562 -33.671875 38.238281 -32.546875 38.5625 -31.140625 C 38.894531 -29.742188 39.0625 -27.859375 39.0625 -25.484375 L 39.0625 -6.515625 C 39.0625 -4.546875 39.351562 -3.210938 39.9375 -2.515625 C 40.519531 -1.816406 41.535156 -1.46875 42.984375 -1.46875 L 42.984375 0 C 42.046875 -0.0390625 40.628906 -0.0976562 38.734375 -0.171875 C 36.847656 -0.242188 35 -0.28125 33.1875 -0.28125 C 31.21875 -0.28125 29.300781 -0.242188 27.4375 -0.171875 C 25.570312 -0.0976562 24.171875 -0.0390625 23.234375 0 L 23.234375 -1.46875 C 24.453125 -1.46875 25.289062 -1.816406 25.75 -2.515625 C 26.21875 -3.210938 26.453125 -4.546875 26.453125 -6.515625 L 26.453125 -29.265625 C 26.453125 -30.242188 26.335938 -31.054688 26.109375 -31.703125 C 25.878906 -32.359375 25.519531 -32.847656 25.03125 -33.171875 C 24.539062 -33.503906 23.875 -33.671875 23.03125 -33.671875 C 22.1875 -33.671875 21.378906 -33.457031 20.609375 -33.03125 C 19.835938 -32.613281 19.207031 -32.019531 18.71875 -31.25 C 18.226562 -30.476562 17.984375 -29.601562 17.984375 -28.625 L 17.984375 -6.515625 C 17.984375 -4.546875 18.226562 -3.210938 18.71875 -2.515625 C 19.207031 -1.816406 20.035156 -1.46875 21.203125 -1.46875 L 21.203125 0 C 20.316406 -0.0390625 19.007812 -0.0976562 17.28125 -0.171875 C 15.5625 -0.242188 13.789062 -0.28125 11.96875 -0.28125 C 10.007812 -0.28125 8.023438 -0.242188 6.015625 -0.171875 C 4.015625 -0.0976562 2.5 -0.0390625 1.46875 0 L 1.46875 -1.46875 C 2.914062 -1.46875 3.929688 -1.816406 4.515625 -2.515625 C 5.097656 -3.210938 5.390625 -4.546875 5.390625 -6.515625 L 5.390625 -28.703125 C 5.390625 -30.796875 5.109375 -32.34375 4.546875 -33.34375 C 3.984375 -34.351562 2.957031 -34.859375 1.46875 -34.859375 L 1.46875 -36.328125 C 2.957031 -36.191406 4.40625 -36.125 5.8125 -36.125 C 8.144531 -36.125 10.328125 -36.203125 12.359375 -36.359375 C 14.390625 -36.523438 16.265625 -36.769531 17.984375 -37.09375 L 17.984375 -32.0625 C 19.109375 -33.925781 20.613281 -35.265625 22.5 -36.078125 C 24.394531 -36.898438 26.601562 -37.3125 29.125 -37.3125 Z M 29.125 -37.3125 "/></g></g></g><g fill="#ffffff" fill-opacity="1"><g transform="translate(542.99027, 626.363196)"><g><path d="M 15.46875 13.15625 C 12.289062 13.15625 9.546875 12.910156 7.234375 12.421875 C 4.929688 11.929688 3.148438 11.226562 1.890625 10.3125 C 0.628906 9.40625 0 8.300781 0 7 C 0 5.695312 0.648438 4.472656 1.953125 3.328125 C 3.265625 2.179688 5.34375 1.28125 8.1875 0.625 L 8.890625 1.75 C 8.140625 2.632812 7.632812 3.4375 7.375 4.15625 C 7.125 4.882812 7 5.578125 7 6.234375 C 7 8.046875 7.828125 9.453125 9.484375 10.453125 C 11.140625 11.460938 13.460938 11.96875 16.453125 11.96875 C 18.546875 11.96875 20.304688 11.675781 21.734375 11.09375 C 23.160156 10.507812 24.234375 9.703125 24.953125 8.671875 C 25.679688 7.648438 26.046875 6.488281 26.046875 5.1875 C 26.046875 3.875 25.550781 2.75 24.5625 1.8125 C 23.582031 0.882812 21.601562 0.421875 18.625 0.421875 L 14.84375 0.421875 C 12.695312 0.421875 10.898438 0.140625 9.453125 -0.421875 C 8.003906 -0.984375 6.90625 -1.765625 6.15625 -2.765625 C 5.414062 -3.765625 5.046875 -4.941406 5.046875 -6.296875 C 5.046875 -8.492188 5.90625 -10.335938 7.625 -11.828125 C 9.351562 -13.316406 11.570312 -14.644531 14.28125 -15.8125 L 14.90625 -15.265625 C 14.4375 -14.929688 13.945312 -14.53125 13.4375 -14.0625 C 12.925781 -13.601562 12.671875 -12.929688 12.671875 -12.046875 C 12.671875 -10.546875 13.507812 -9.796875 15.1875 -9.796875 L 21.984375 -9.796875 C 25.015625 -9.796875 27.660156 -9.46875 29.921875 -8.8125 C 32.179688 -8.164062 33.953125 -7.109375 35.234375 -5.640625 C 36.523438 -4.171875 37.171875 -2.242188 37.171875 0.140625 C 37.171875 2.472656 36.410156 4.628906 34.890625 6.609375 C 33.378906 8.597656 31.035156 10.1875 27.859375 11.375 C 24.679688 12.5625 20.550781 13.15625 15.46875 13.15625 Z M 16.453125 -14.90625 C 13.554688 -14.90625 10.972656 -15.300781 8.703125 -16.09375 C 6.441406 -16.894531 4.660156 -18.125 3.359375 -19.78125 C 2.054688 -21.4375 1.40625 -23.546875 1.40625 -26.109375 C 1.40625 -28.671875 2.054688 -30.78125 3.359375 -32.4375 C 4.660156 -34.101562 6.441406 -35.332031 8.703125 -36.125 C 10.972656 -36.914062 13.554688 -37.3125 16.453125 -37.3125 C 19.347656 -37.3125 21.925781 -36.914062 24.1875 -36.125 C 26.445312 -35.332031 28.226562 -34.101562 29.53125 -32.4375 C 30.84375 -30.78125 31.5 -28.671875 31.5 -26.109375 C 31.5 -23.546875 30.84375 -21.4375 29.53125 -19.78125 C 28.226562 -18.125 26.445312 -16.894531 24.1875 -16.09375 C 21.925781 -15.300781 19.347656 -14.90625 16.453125 -14.90625 Z M 16.453125 -16.171875 C 17.335938 -16.171875 18.035156 -16.894531 18.546875 -18.34375 C 19.054688 -19.789062 19.3125 -22.378906 19.3125 -26.109375 C 19.3125 -29.835938 19.054688 -32.425781 18.546875 -33.875 C 18.035156 -35.320312 17.335938 -36.046875 16.453125 -36.046875 C 15.566406 -36.046875 14.863281 -35.320312 14.34375 -33.875 C 13.832031 -32.425781 13.578125 -29.835938 13.578125 -26.109375 C 13.578125 -22.378906 13.832031 -19.789062 14.34375 -18.34375 C 14.863281 -16.894531 15.566406 -16.171875 16.453125 -16.171875 Z M 27.859375 -31.15625 L 26.390625 -31.640625 C 27.140625 -33.597656 28.296875 -35.171875 29.859375 -36.359375 C 31.421875 -37.554688 33.132812 -38.15625 35 -38.15625 C 36.632812 -38.15625 37.847656 -37.707031 38.640625 -36.8125 C 39.429688 -35.925781 39.828125 -34.832031 39.828125 -33.53125 C 39.828125 -32.175781 39.460938 -31.125 38.734375 -30.375 C 38.015625 -29.632812 37.144531 -29.265625 36.125 -29.265625 C 35.238281 -29.265625 34.429688 -29.566406 33.703125 -30.171875 C 32.984375 -30.773438 32.578125 -31.679688 32.484375 -32.890625 C 32.390625 -34.109375 32.832031 -35.648438 33.8125 -37.515625 L 34.09375 -37.03125 C 32.457031 -36.425781 31.171875 -35.675781 30.234375 -34.78125 C 29.304688 -33.894531 28.515625 -32.6875 27.859375 -31.15625 Z M 27.859375 -31.15625 "/></g></g></g></svg>