<svg xmlns="http://www.w3.org/2000/svg" xmlns:xlink="http://www.w3.org/1999/xlink" width="1080" zoomAndPan="magnify" viewBox="0 0 810 809.999993" height="1080" preserveAspectRatio="xMidYMid meet" version="1.0"><defs><g/><clipPath id="bc87f79b0b"><path d="M 291 353.132812 L 541 353.132812 L 541 421.089844 L 291 421.089844 Z M 291 353.132812 " clip-rule="nonzero"/></clipPath><clipPath id="cf3fb77385"><path d="M 194.4375 229 L 374 229 L 374 316 L 194.4375 316 Z M 194.4375 229 " clip-rule="nonzero"/></clipPath><clipPath id="d12dc7a811"><path d="M 456.746094 229.835938 L 635.875 229.835938 L 635.875 316 L 456.746094 316 Z M 456.746094 229.835938 " clip-rule="nonzero"/></clipPath></defs><path fill="#ffffff" d="M 415.230469 0.00390625 C 421.25 0.00390625 426.714844 2.460938 430.671875 6.414062 C 434.632812 10.371094 437.085938 15.835938 437.085938 21.855469 L 437.085938 36.875 C 437.085938 40.679688 434 43.765625 430.191406 43.765625 L 400.269531 43.765625 C 396.460938 43.765625 393.375 40.679688 393.375 36.875 L 393.375 21.855469 C 393.375 15.835938 395.832031 10.371094 399.792969 6.414062 C 403.746094 2.460938 409.214844 0.00390625 415.230469 0.00390625 Z M 415.230469 13.792969 C 413.019531 13.792969 411.003906 14.703125 409.539062 16.167969 C 408.078125 17.632812 407.164062 19.648438 407.164062 21.855469 L 407.164062 29.976562 L 423.296875 29.976562 L 423.296875 21.855469 C 423.296875 19.648438 422.386719 17.632812 420.921875 16.167969 C 419.457031 14.703125 417.441406 13.792969 415.230469 13.792969 Z M 437.085938 68.214844 L 437.085938 360.683594 C 437.085938 364.488281 434 367.578125 430.191406 367.578125 L 400.269531 367.578125 C 396.460938 367.578125 393.375 364.488281 393.375 360.683594 L 393.375 68.214844 C 393.375 64.40625 396.460938 61.320312 400.269531 61.320312 L 430.191406 61.320312 C 434 61.320312 437.085938 64.40625 437.085938 68.214844 Z M 423.296875 353.785156 L 423.296875 75.109375 L 407.164062 75.109375 L 407.164062 353.785156 L 423.296875 353.785156 " fill-opacity="1" fill-rule="nonzero"/><g clip-path="url(#bc87f79b0b)"><path fill="#ffffff" d="M 533.675781 421.089844 L 298.316406 421.089844 C 294.511719 421.089844 291.421875 418.003906 291.421875 414.191406 C 291.421875 397.574219 298.214844 382.46875 309.160156 371.527344 C 320.105469 360.582031 335.210938 353.785156 351.828125 353.785156 L 480.164062 353.785156 C 496.78125 353.785156 511.882812 360.582031 522.832031 371.527344 C 533.777344 382.46875 540.570312 397.574219 540.570312 414.191406 C 540.570312 418.003906 537.480469 421.089844 533.675781 421.089844 Z M 305.722656 407.300781 L 526.261719 407.300781 C 524.753906 397.230469 519.988281 388.183594 513.082031 381.277344 C 504.628906 372.824219 492.976562 367.578125 480.164062 367.578125 L 351.828125 367.578125 C 339.015625 367.578125 327.359375 372.824219 318.910156 381.277344 C 312.003906 388.183594 307.238281 397.230469 305.722656 407.300781 " fill-opacity="1" fill-rule="nonzero"/></g><path fill="#ffffff" d="M 260.046875 29.976562 L 571.941406 29.976562 C 575.75 29.976562 578.835938 33.0625 578.835938 36.875 L 578.835938 68.214844 C 578.835938 72.019531 575.75 75.109375 571.941406 75.109375 L 260.046875 75.109375 C 256.242188 75.109375 253.15625 72.019531 253.15625 68.214844 L 253.15625 36.875 C 253.15625 33.0625 256.242188 29.976562 260.046875 29.976562 Z M 565.046875 43.765625 L 266.945312 43.765625 L 266.945312 61.320312 L 565.046875 61.320312 L 565.046875 43.765625 " fill-opacity="1" fill-rule="nonzero"/><g clip-path="url(#cf3fb77385)"><path fill="#ffffff" d="M 201.488281 229.949219 L 366.605469 229.949219 C 370.410156 229.949219 373.496094 233.035156 373.496094 236.84375 C 373.496094 258.507812 364.640625 278.199219 350.371094 292.464844 C 336.097656 306.738281 316.410156 315.597656 294.746094 315.597656 L 273.34375 315.597656 C 251.679688 315.597656 231.988281 306.738281 217.714844 292.464844 C 203.445312 278.199219 194.589844 258.507812 194.589844 236.84375 C 194.589844 233.035156 197.675781 229.949219 201.488281 229.949219 Z M 359.339844 243.738281 L 208.75 243.738281 C 210.363281 258.859375 217.226562 272.476562 227.464844 282.714844 C 239.246094 294.496094 255.484375 301.804688 273.34375 301.804688 L 294.746094 301.804688 C 312.601562 301.804688 328.84375 294.496094 340.621094 282.714844 C 350.863281 272.476562 357.726562 258.859375 359.34375 243.738281 L 359.339844 243.738281 " fill-opacity="1" fill-rule="nonzero"/></g><path fill="#ffffff" d="M 289.582031 72.96875 C 291.117188 69.488281 289.535156 65.425781 286.050781 63.894531 C 282.574219 62.359375 278.507812 63.941406 276.976562 67.417969 L 203.589844 234.066406 C 202.058594 237.550781 203.636719 241.613281 207.121094 243.148438 C 210.601562 244.675781 214.664062 243.101562 216.195312 239.617188 L 289.582031 72.96875 " fill-opacity="1" fill-rule="nonzero"/><path fill="#ffffff" d="M 289.582031 67.417969 C 288.054688 63.941406 283.984375 62.359375 280.507812 63.894531 C 277.023438 65.421875 275.445312 69.488281 276.976562 72.96875 L 350.367188 239.617188 C 351.894531 243.097656 355.964844 244.675781 359.441406 243.148438 C 362.921875 241.613281 364.5 237.550781 362.96875 234.066406 L 289.582031 67.417969 " fill-opacity="1" fill-rule="nonzero"/><g clip-path="url(#d12dc7a811)"><path fill="#ffffff" d="M 463.855469 229.949219 L 628.976562 229.949219 C 632.789062 229.949219 635.875 233.035156 635.875 236.84375 C 635.875 258.507812 627.015625 278.199219 612.746094 292.464844 C 598.476562 306.738281 578.785156 315.597656 557.121094 315.597656 L 535.71875 315.597656 C 514.054688 315.597656 494.363281 306.738281 480.09375 292.464844 C 465.824219 278.199219 456.964844 258.507812 456.964844 236.84375 C 456.964844 233.035156 460.050781 229.949219 463.855469 229.949219 Z M 621.714844 243.738281 L 471.125 243.738281 C 472.738281 258.859375 479.601562 272.476562 489.839844 282.714844 C 501.621094 294.496094 517.859375 301.804688 535.71875 301.804688 L 557.121094 301.804688 C 574.976562 301.804688 591.21875 294.496094 602.996094 282.714844 C 613.238281 272.476562 620.101562 258.859375 621.714844 243.738281 " fill-opacity="1" fill-rule="nonzero"/></g><path fill="#ffffff" d="M 551.957031 72.96875 C 553.488281 69.488281 551.90625 65.425781 548.425781 63.894531 C 544.949219 62.359375 540.886719 63.941406 539.351562 67.417969 L 465.964844 234.066406 C 464.433594 237.550781 466.011719 241.613281 469.492188 243.148438 C 472.976562 244.675781 477.039062 243.101562 478.566406 239.617188 L 551.957031 72.96875 " fill-opacity="1" fill-rule="nonzero"/><path fill="#ffffff" d="M 551.957031 67.417969 C 550.425781 63.941406 546.359375 62.359375 542.878906 63.894531 C 539.398438 65.421875 537.816406 69.488281 539.351562 72.96875 L 612.738281 239.617188 C 614.269531 243.097656 618.332031 244.675781 621.816406 243.148438 C 625.296875 241.613281 626.875 237.550781 625.34375 234.066406 L 551.957031 67.417969 " fill-opacity="1" fill-rule="nonzero"/><g fill="#ffffff" fill-opacity="1"><g transform="translate(41.953127, 626.363196)"><g><path d="M -1.75 13.15625 L -1.75 11.6875 C -0.0703125 11.457031 1.394531 10.910156 2.65625 10.046875 C 3.914062 9.179688 4.882812 7.660156 5.5625 5.484375 C 6.238281 3.316406 6.578125 0.207031 6.578125 -3.84375 L 6.578125 -42.140625 C 6.578125 -43.867188 6.457031 -45.140625 6.21875 -45.953125 C 5.988281 -46.773438 5.507812 -47.335938 4.78125 -47.640625 C 4.0625 -47.941406 3.003906 -48.113281 1.609375 -48.15625 L 1.609375 -49.5625 C 2.867188 -49.507812 4.546875 -49.457031 6.640625 -49.40625 C 8.742188 -49.363281 10.960938 -49.34375 13.296875 -49.34375 C 15.628906 -49.34375 17.925781 -49.363281 20.1875 -49.40625 C 22.457031 -49.457031 24.316406 -49.507812 25.765625 -49.5625 L 25.765625 -48.15625 C 24.359375 -48.113281 23.289062 -47.941406 22.5625 -47.640625 C 21.84375 -47.335938 21.367188 -46.773438 21.140625 -45.953125 C 20.910156 -45.140625 20.796875 -43.867188 20.796875 -42.140625 L 20.796875 -16.515625 C 20.796875 -14.609375 20.804688 -12.546875 20.828125 -10.328125 C 20.847656 -8.109375 20.773438 -5.945312 20.609375 -3.84375 C 20.453125 -1.75 20.113281 0.113281 19.59375 1.75 C 18.570312 4.96875 16.3125 7.671875 12.8125 9.859375 C 9.3125 12.054688 4.457031 13.15625 -1.75 13.15625 Z M -1.75 13.15625 "/></g></g></g><g fill="#ffffff" fill-opacity="1"><g transform="translate(68.201672, 626.363196)"><g><path d="M 38.359375 -37.09375 L 38.359375 -7.625 C 38.359375 -5.53125 38.648438 -3.976562 39.234375 -2.96875 C 39.816406 -1.96875 40.832031 -1.46875 42.28125 -1.46875 L 42.28125 0 C 40.832031 -0.132812 39.382812 -0.203125 37.9375 -0.203125 C 35.601562 -0.203125 33.429688 -0.132812 31.421875 0 C 29.421875 0.132812 27.535156 0.390625 25.765625 0.765625 L 25.765625 -4.265625 C 24.640625 -2.398438 23.128906 -1.054688 21.234375 -0.234375 C 19.347656 0.578125 17.144531 0.984375 14.625 0.984375 C 12.476562 0.984375 10.785156 0.710938 9.546875 0.171875 C 8.316406 -0.359375 7.375 -1.019531 6.71875 -1.8125 C 6.019531 -2.65625 5.503906 -3.773438 5.171875 -5.171875 C 4.847656 -6.578125 4.6875 -8.46875 4.6875 -10.84375 L 4.6875 -28.703125 C 4.6875 -30.796875 4.40625 -32.34375 3.84375 -33.34375 C 3.289062 -34.351562 2.265625 -34.859375 0.765625 -34.859375 L 0.765625 -36.328125 C 2.265625 -36.191406 3.710938 -36.125 5.109375 -36.125 C 7.441406 -36.125 9.625 -36.203125 11.65625 -36.359375 C 13.6875 -36.523438 15.566406 -36.769531 17.296875 -37.09375 L 17.296875 -7.0625 C 17.296875 -6.082031 17.410156 -5.265625 17.640625 -4.609375 C 17.867188 -3.960938 18.238281 -3.472656 18.75 -3.140625 C 19.269531 -2.816406 19.925781 -2.65625 20.71875 -2.65625 C 21.601562 -2.65625 22.421875 -2.863281 23.171875 -3.28125 C 23.921875 -3.707031 24.539062 -4.304688 25.03125 -5.078125 C 25.519531 -5.847656 25.765625 -6.722656 25.765625 -7.703125 L 25.765625 -28.703125 C 25.765625 -30.796875 25.484375 -32.34375 24.921875 -33.34375 C 24.359375 -34.351562 23.332031 -34.859375 21.84375 -34.859375 L 21.84375 -36.328125 C 23.332031 -36.191406 24.78125 -36.125 26.1875 -36.125 C 28.519531 -36.125 30.695312 -36.203125 32.71875 -36.359375 C 34.75 -36.523438 36.628906 -36.769531 38.359375 -37.09375 Z M 38.359375 -37.09375 "/></g></g></g><g fill="#ffffff" fill-opacity="1"><g transform="translate(111.739298, 626.363196)"><g><path d="M 27.015625 -37.3125 C 28.703125 -37.3125 30.007812 -36.945312 30.9375 -36.21875 C 31.875 -35.5 32.523438 -34.585938 32.890625 -33.484375 C 33.265625 -32.390625 33.453125 -31.304688 33.453125 -30.234375 C 33.453125 -28.140625 32.859375 -26.472656 31.671875 -25.234375 C 30.484375 -23.992188 28.929688 -23.375 27.015625 -23.375 C 24.960938 -23.375 23.410156 -23.84375 22.359375 -24.78125 C 21.316406 -25.71875 20.796875 -26.929688 20.796875 -28.421875 C 20.796875 -30.003906 21.128906 -31.304688 21.796875 -32.328125 C 22.472656 -33.359375 23.328125 -34.226562 24.359375 -34.9375 C 23.515625 -34.9375 22.769531 -34.769531 22.125 -34.4375 C 21.5625 -34.207031 21.019531 -33.878906 20.5 -33.453125 C 19.988281 -33.035156 19.546875 -32.554688 19.171875 -32.015625 C 18.804688 -31.484375 18.515625 -30.890625 18.296875 -30.234375 C 18.085938 -29.585938 17.984375 -28.910156 17.984375 -28.203125 L 17.984375 -7.203125 C 17.984375 -4.960938 18.453125 -3.445312 19.390625 -2.65625 C 20.328125 -1.863281 21.867188 -1.46875 24.015625 -1.46875 L 24.015625 0 C 22.941406 -0.0390625 21.34375 -0.0976562 19.21875 -0.171875 C 17.09375 -0.242188 14.910156 -0.28125 12.671875 -0.28125 C 10.566406 -0.28125 8.441406 -0.242188 6.296875 -0.171875 C 4.148438 -0.0976562 2.539062 -0.0390625 1.46875 0 L 1.46875 -1.46875 C 2.914062 -1.46875 3.929688 -1.816406 4.515625 -2.515625 C 5.097656 -3.210938 5.390625 -4.546875 5.390625 -6.515625 L 5.390625 -28.703125 C 5.390625 -30.796875 5.109375 -32.34375 4.546875 -33.34375 C 3.984375 -34.351562 2.957031 -34.859375 1.46875 -34.859375 L 1.46875 -36.328125 C 2.957031 -36.191406 4.40625 -36.125 5.8125 -36.125 C 8.144531 -36.125 10.328125 -36.203125 12.359375 -36.359375 C 14.390625 -36.523438 16.265625 -36.769531 17.984375 -37.09375 L 17.984375 -32.0625 C 18.597656 -33.269531 19.347656 -34.257812 20.234375 -35.03125 C 21.117188 -35.800781 22.128906 -36.375 23.265625 -36.75 C 24.410156 -37.125 25.660156 -37.3125 27.015625 -37.3125 Z M 27.015625 -37.3125 "/></g></g></g><g fill="#ffffff" fill-opacity="1"><g transform="translate(145.40746, 626.363196)"><g><path d="M 11.28125 -54.734375 C 13.695312 -54.734375 15.570312 -54.234375 16.90625 -53.234375 C 18.238281 -52.234375 18.90625 -50.726562 18.90625 -48.71875 C 18.90625 -46.707031 18.238281 -45.203125 16.90625 -44.203125 C 15.570312 -43.203125 13.695312 -42.703125 11.28125 -42.703125 C 8.851562 -42.703125 6.972656 -43.203125 5.640625 -44.203125 C 4.304688 -45.203125 3.640625 -46.707031 3.640625 -48.71875 C 3.640625 -50.726562 4.304688 -52.234375 5.640625 -53.234375 C 6.972656 -54.234375 8.851562 -54.734375 11.28125 -54.734375 Z M 17.984375 -37.09375 L 17.984375 -6.515625 C 17.984375 -4.546875 18.273438 -3.210938 18.859375 -2.515625 C 19.441406 -1.816406 20.457031 -1.46875 21.90625 -1.46875 L 21.90625 0 C 20.976562 -0.0390625 19.578125 -0.0976562 17.703125 -0.171875 C 15.835938 -0.242188 13.925781 -0.28125 11.96875 -0.28125 C 10.007812 -0.28125 8.023438 -0.242188 6.015625 -0.171875 C 4.015625 -0.0976562 2.5 -0.0390625 1.46875 0 L 1.46875 -1.46875 C 2.914062 -1.46875 3.929688 -1.816406 4.515625 -2.515625 C 5.097656 -3.210938 5.390625 -4.546875 5.390625 -6.515625 L 5.390625 -28.703125 C 5.390625 -30.796875 5.109375 -32.34375 4.546875 -33.34375 C 3.984375 -34.351562 2.957031 -34.859375 1.46875 -34.859375 L 1.46875 -36.328125 C 2.957031 -36.191406 4.40625 -36.125 5.8125 -36.125 C 8.144531 -36.125 10.328125 -36.203125 12.359375 -36.359375 C 14.390625 -36.523438 16.265625 -36.769531 17.984375 -37.09375 Z M 17.984375 -37.09375 "/></g></g></g><g fill="#ffffff" fill-opacity="1"><g transform="translate(168.506202, 626.363196)"><g><path d="M 16.171875 -37.3125 C 18.222656 -37.3125 20.03125 -37.085938 21.59375 -36.640625 C 23.15625 -36.203125 24.285156 -35.796875 24.984375 -35.421875 C 26.617188 -34.441406 27.625 -35.046875 28 -37.234375 L 29.40625 -37.234375 C 29.3125 -35.878906 29.238281 -34.234375 29.1875 -32.296875 C 29.144531 -30.367188 29.125 -27.816406 29.125 -24.640625 L 27.71875 -24.640625 C 27.53125 -26.367188 27.117188 -28.070312 26.484375 -29.75 C 25.859375 -31.425781 24.953125 -32.820312 23.765625 -33.9375 C 22.578125 -35.0625 21.023438 -35.625 19.109375 -35.625 C 17.941406 -35.625 16.960938 -35.273438 16.171875 -34.578125 C 15.378906 -33.878906 14.984375 -32.921875 14.984375 -31.703125 C 14.984375 -30.304688 15.398438 -29.054688 16.234375 -27.953125 C 17.078125 -26.859375 18.148438 -25.8125 19.453125 -24.8125 C 20.765625 -23.8125 22.070312 -22.75 23.375 -21.625 C 24.820312 -20.457031 26.101562 -19.3125 27.21875 -18.1875 C 28.34375 -17.070312 29.242188 -15.847656 29.921875 -14.515625 C 30.597656 -13.191406 30.9375 -11.617188 30.9375 -9.796875 C 30.9375 -7.703125 30.296875 -5.835938 29.015625 -4.203125 C 27.734375 -2.566406 26.03125 -1.289062 23.90625 -0.375 C 21.78125 0.53125 19.410156 0.984375 16.796875 0.984375 C 15.160156 0.984375 13.734375 0.804688 12.515625 0.453125 C 11.304688 0.109375 10.332031 -0.296875 9.59375 -0.765625 C 8.84375 -1.140625 8.195312 -1.429688 7.65625 -1.640625 C 7.125 -1.847656 6.601562 -1.953125 6.09375 -1.953125 C 5.625 -1.953125 5.222656 -1.707031 4.890625 -1.21875 C 4.566406 -0.726562 4.3125 -0.160156 4.125 0.484375 L 2.734375 0.484375 C 2.828125 -1.003906 2.894531 -2.820312 2.9375 -4.96875 C 2.988281 -7.113281 3.015625 -9.960938 3.015625 -13.515625 L 4.40625 -13.515625 C 4.6875 -11.035156 5.234375 -8.835938 6.046875 -6.921875 C 6.867188 -5.015625 7.921875 -3.507812 9.203125 -2.40625 C 10.484375 -1.3125 11.96875 -0.765625 13.65625 -0.765625 C 14.394531 -0.765625 15.066406 -0.90625 15.671875 -1.1875 C 16.285156 -1.46875 16.773438 -1.890625 17.140625 -2.453125 C 17.515625 -3.015625 17.703125 -3.738281 17.703125 -4.625 C 17.703125 -6.675781 17.082031 -8.398438 15.84375 -9.796875 C 14.613281 -11.203125 13.066406 -12.742188 11.203125 -14.421875 C 9.796875 -15.722656 8.472656 -16.992188 7.234375 -18.234375 C 6.003906 -19.472656 4.992188 -20.828125 4.203125 -22.296875 C 3.410156 -23.765625 3.015625 -25.410156 3.015625 -27.234375 C 3.015625 -29.328125 3.628906 -31.117188 4.859375 -32.609375 C 6.097656 -34.109375 7.71875 -35.265625 9.71875 -36.078125 C 11.726562 -36.898438 13.878906 -37.3125 16.171875 -37.3125 Z M 16.171875 -37.3125 "/></g></g></g><g fill="#ffffff" fill-opacity="1"><g transform="translate(201.544401, 626.363196)"><g><path d="M 17.640625 -47.671875 L 17.640625 -36.328125 L 24.5 -36.328125 L 24.5 -34.9375 L 17.640625 -34.9375 L 17.640625 -5.875 C 17.640625 -4.988281 17.800781 -4.347656 18.125 -3.953125 C 18.457031 -3.554688 18.992188 -3.359375 19.734375 -3.359375 C 20.253906 -3.359375 20.863281 -3.507812 21.5625 -3.8125 C 22.257812 -4.113281 22.910156 -4.640625 23.515625 -5.390625 L 24.5625 -4.546875 C 23.582031 -2.867188 22.285156 -1.523438 20.671875 -0.515625 C 19.066406 0.484375 17.050781 0.984375 14.625 0.984375 C 13.082031 0.984375 11.691406 0.785156 10.453125 0.390625 C 9.222656 -0.00390625 8.210938 -0.601562 7.421875 -1.40625 C 6.390625 -2.425781 5.734375 -3.691406 5.453125 -5.203125 C 5.179688 -6.722656 5.046875 -8.695312 5.046875 -11.125 L 5.046875 -34.9375 L -0.28125 -34.9375 L -0.28125 -36.328125 L 5.046875 -36.328125 L 5.046875 -44.59375 C 7.515625 -44.59375 9.765625 -44.835938 11.796875 -45.328125 C 13.828125 -45.816406 15.773438 -46.597656 17.640625 -47.671875 Z M 17.640625 -47.671875 "/></g></g></g><g fill="#ffffff" fill-opacity="1"><g transform="translate(226.043064, 626.363196)"><g><path d="M 11.28125 -54.734375 C 13.695312 -54.734375 15.570312 -54.234375 16.90625 -53.234375 C 18.238281 -52.234375 18.90625 -50.726562 18.90625 -48.71875 C 18.90625 -46.707031 18.238281 -45.203125 16.90625 -44.203125 C 15.570312 -43.203125 13.695312 -42.703125 11.28125 -42.703125 C 8.851562 -42.703125 6.972656 -43.203125 5.640625 -44.203125 C 4.304688 -45.203125 3.640625 -46.707031 3.640625 -48.71875 C 3.640625 -50.726562 4.304688 -52.234375 5.640625 -53.234375 C 6.972656 -54.234375 8.851562 -54.734375 11.28125 -54.734375 Z M 17.984375 -37.09375 L 17.984375 -6.515625 C 17.984375 -4.546875 18.273438 -3.210938 18.859375 -2.515625 C 19.441406 -1.816406 20.457031 -1.46875 21.90625 -1.46875 L 21.90625 0 C 20.976562 -0.0390625 19.578125 -0.0976562 17.703125 -0.171875 C 15.835938 -0.242188 13.925781 -0.28125 11.96875 -0.28125 C 10.007812 -0.28125 8.023438 -0.242188 6.015625 -0.171875 C 4.015625 -0.0976562 2.5 -0.0390625 1.46875 0 L 1.46875 -1.46875 C 2.914062 -1.46875 3.929688 -1.816406 4.515625 -2.515625 C 5.097656 -3.210938 5.390625 -4.546875 5.390625 -6.515625 L 5.390625 -28.703125 C 5.390625 -30.796875 5.109375 -32.34375 4.546875 -33.34375 C 3.984375 -34.351562 2.957031 -34.859375 1.46875 -34.859375 L 1.46875 -36.328125 C 2.957031 -36.191406 4.40625 -36.125 5.8125 -36.125 C 8.144531 -36.125 10.328125 -36.203125 12.359375 -36.359375 C 14.390625 -36.523438 16.265625 -36.769531 17.984375 -37.09375 Z M 17.984375 -37.09375 "/></g></g></g><g fill="#ffffff" fill-opacity="1"><g transform="translate(249.141807, 626.363196)"><g><path d="M 16.171875 -37.3125 C 18.222656 -37.3125 20.03125 -37.085938 21.59375 -36.640625 C 23.15625 -36.203125 24.285156 -35.796875 24.984375 -35.421875 C 26.617188 -34.441406 27.625 -35.046875 28 -37.234375 L 29.40625 -37.234375 C 29.3125 -35.878906 29.238281 -34.234375 29.1875 -32.296875 C 29.144531 -30.367188 29.125 -27.816406 29.125 -24.640625 L 27.71875 -24.640625 C 27.53125 -26.367188 27.117188 -28.070312 26.484375 -29.75 C 25.859375 -31.425781 24.953125 -32.820312 23.765625 -33.9375 C 22.578125 -35.0625 21.023438 -35.625 19.109375 -35.625 C 17.941406 -35.625 16.960938 -35.273438 16.171875 -34.578125 C 15.378906 -33.878906 14.984375 -32.921875 14.984375 -31.703125 C 14.984375 -30.304688 15.398438 -29.054688 16.234375 -27.953125 C 17.078125 -26.859375 18.148438 -25.8125 19.453125 -24.8125 C 20.765625 -23.8125 22.070312 -22.75 23.375 -21.625 C 24.820312 -20.457031 26.101562 -19.3125 27.21875 -18.1875 C 28.34375 -17.070312 29.242188 -15.847656 29.921875 -14.515625 C 30.597656 -13.191406 30.9375 -11.617188 30.9375 -9.796875 C 30.9375 -7.703125 30.296875 -5.835938 29.015625 -4.203125 C 27.734375 -2.566406 26.03125 -1.289062 23.90625 -0.375 C 21.78125 0.53125 19.410156 0.984375 16.796875 0.984375 C 15.160156 0.984375 13.734375 0.804688 12.515625 0.453125 C 11.304688 0.109375 10.332031 -0.296875 9.59375 -0.765625 C 8.84375 -1.140625 8.195312 -1.429688 7.65625 -1.640625 C 7.125 -1.847656 6.601562 -1.953125 6.09375 -1.953125 C 5.625 -1.953125 5.222656 -1.707031 4.890625 -1.21875 C 4.566406 -0.726562 4.3125 -0.160156 4.125 0.484375 L 2.734375 0.484375 C 2.828125 -1.003906 2.894531 -2.820312 2.9375 -4.96875 C 2.988281 -7.113281 3.015625 -9.960938 3.015625 -13.515625 L 4.40625 -13.515625 C 4.6875 -11.035156 5.234375 -8.835938 6.046875 -6.921875 C 6.867188 -5.015625 7.921875 -3.507812 9.203125 -2.40625 C 10.484375 -1.3125 11.96875 -0.765625 13.65625 -0.765625 C 14.394531 -0.765625 15.066406 -0.90625 15.671875 -1.1875 C 16.285156 -1.46875 16.773438 -1.890625 17.140625 -2.453125 C 17.515625 -3.015625 17.703125 -3.738281 17.703125 -4.625 C 17.703125 -6.675781 17.082031 -8.398438 15.84375 -9.796875 C 14.613281 -11.203125 13.066406 -12.742188 11.203125 -14.421875 C 9.796875 -15.722656 8.472656 -16.992188 7.234375 -18.234375 C 6.003906 -19.472656 4.992188 -20.828125 4.203125 -22.296875 C 3.410156 -23.765625 3.015625 -25.410156 3.015625 -27.234375 C 3.015625 -29.328125 3.628906 -31.117188 4.859375 -32.609375 C 6.097656 -34.109375 7.71875 -35.265625 9.71875 -36.078125 C 11.726562 -36.898438 13.878906 -37.3125 16.171875 -37.3125 Z M 16.171875 -37.3125 "/></g></g></g><g fill="#ffffff" fill-opacity="1"><g transform="translate(282.180006, 626.363196)"><g><path d="M 20.09375 -37.3125 C 22.144531 -37.3125 23.960938 -37.097656 25.546875 -36.671875 C 27.140625 -36.253906 28.398438 -35.765625 29.328125 -35.203125 C 30.585938 -34.460938 31.601562 -33.472656 32.375 -32.234375 C 33.144531 -30.992188 33.53125 -29.5625 33.53125 -27.9375 C 33.53125 -26.019531 32.898438 -24.40625 31.640625 -23.09375 C 30.378906 -21.789062 28.769531 -21.140625 26.8125 -21.140625 C 24.757812 -21.140625 23.171875 -21.722656 22.046875 -22.890625 C 20.929688 -24.054688 20.375 -25.570312 20.375 -27.4375 C 20.375 -29.207031 20.941406 -30.710938 22.078125 -31.953125 C 23.222656 -33.191406 24.566406 -34.019531 26.109375 -34.4375 C 25.785156 -34.675781 25.398438 -34.875 24.953125 -35.03125 C 24.515625 -35.195312 23.96875 -35.28125 23.3125 -35.28125 C 21.632812 -35.28125 20.269531 -34.773438 19.21875 -33.765625 C 18.164062 -32.765625 17.347656 -31.445312 16.765625 -29.8125 C 16.179688 -28.1875 15.769531 -26.4375 15.53125 -24.5625 C 15.300781 -22.695312 15.1875 -20.878906 15.1875 -19.109375 C 15.1875 -15.835938 15.628906 -13.289062 16.515625 -11.46875 C 17.398438 -9.65625 18.519531 -8.398438 19.875 -7.703125 C 21.226562 -7.003906 22.582031 -6.65625 23.9375 -6.65625 C 24.59375 -6.65625 25.375 -6.742188 26.28125 -6.921875 C 27.195312 -7.109375 28.191406 -7.539062 29.265625 -8.21875 C 30.335938 -8.894531 31.382812 -9.9375 32.40625 -11.34375 L 33.59375 -10.921875 C 33.039062 -9.054688 32.144531 -7.203125 30.90625 -5.359375 C 29.664062 -3.515625 28.066406 -1.992188 26.109375 -0.796875 C 24.148438 0.390625 21.769531 0.984375 18.96875 0.984375 C 15.84375 0.984375 13.007812 0.378906 10.46875 -0.828125 C 7.925781 -2.046875 5.894531 -4.054688 4.375 -6.859375 C 2.851562 -9.660156 2.09375 -13.414062 2.09375 -18.125 C 2.09375 -22.601562 2.882812 -26.253906 4.46875 -29.078125 C 6.0625 -31.898438 8.222656 -33.976562 10.953125 -35.3125 C 13.679688 -36.644531 16.726562 -37.3125 20.09375 -37.3125 Z M 20.09375 -37.3125 "/></g></g></g><g fill="#ffffff" fill-opacity="1"><g transform="translate(317.388095, 626.363196)"><g><path d="M 17.78125 -54.734375 L 17.78125 -32.0625 C 18.894531 -33.925781 20.394531 -35.265625 22.28125 -36.078125 C 24.175781 -36.898438 26.382812 -37.3125 28.90625 -37.3125 C 31.050781 -37.3125 32.742188 -37.039062 33.984375 -36.5 C 35.222656 -35.96875 36.164062 -35.304688 36.8125 -34.515625 C 37.519531 -33.671875 38.035156 -32.546875 38.359375 -31.140625 C 38.679688 -29.742188 38.84375 -27.859375 38.84375 -25.484375 L 38.84375 -6.515625 C 38.84375 -4.546875 39.132812 -3.210938 39.71875 -2.515625 C 40.300781 -1.816406 41.316406 -1.46875 42.765625 -1.46875 L 42.765625 0 C 41.835938 -0.0390625 40.425781 -0.0976562 38.53125 -0.171875 C 36.644531 -0.242188 34.789062 -0.28125 32.96875 -0.28125 C 31.007812 -0.28125 29.097656 -0.242188 27.234375 -0.171875 C 25.367188 -0.0976562 23.96875 -0.0390625 23.03125 0 L 23.03125 -1.46875 C 24.238281 -1.46875 25.078125 -1.816406 25.546875 -2.515625 C 26.015625 -3.210938 26.25 -4.546875 26.25 -6.515625 L 26.25 -29.265625 C 26.25 -30.242188 26.128906 -31.054688 25.890625 -31.703125 C 25.660156 -32.359375 25.300781 -32.847656 24.8125 -33.171875 C 24.320312 -33.503906 23.65625 -33.671875 22.8125 -33.671875 C 21.976562 -33.671875 21.175781 -33.457031 20.40625 -33.03125 C 19.632812 -32.613281 19.003906 -32.019531 18.515625 -31.25 C 18.023438 -30.476562 17.78125 -29.601562 17.78125 -28.625 L 17.78125 -6.515625 C 17.78125 -4.546875 18.023438 -3.210938 18.515625 -2.515625 C 19.003906 -1.816406 19.832031 -1.46875 21 -1.46875 L 21 0 C 20.113281 -0.0390625 18.804688 -0.0976562 17.078125 -0.171875 C 15.347656 -0.242188 13.578125 -0.28125 11.765625 -0.28125 C 9.796875 -0.28125 7.804688 -0.242188 5.796875 -0.171875 C 3.796875 -0.0976562 2.285156 -0.0390625 1.265625 0 L 1.265625 -1.46875 C 2.710938 -1.46875 3.726562 -1.816406 4.3125 -2.515625 C 4.894531 -3.210938 5.1875 -4.546875 5.1875 -6.515625 L 5.1875 -46.34375 C 5.1875 -48.4375 4.90625 -49.984375 4.34375 -50.984375 C 3.78125 -51.992188 2.753906 -52.5 1.265625 -52.5 L 1.265625 -53.96875 C 2.753906 -53.832031 4.195312 -53.765625 5.59375 -53.765625 C 7.925781 -53.765625 10.109375 -53.84375 12.140625 -54 C 14.171875 -54.164062 16.050781 -54.410156 17.78125 -54.734375 Z M 17.78125 -54.734375 "/></g></g></g><g fill="#ffffff" fill-opacity="1"><g transform="translate(360.925721, 626.363196)"><g><path d="M 20.15625 -37.3125 C 24.257812 -37.3125 27.488281 -36.109375 29.84375 -33.703125 C 32.207031 -31.296875 33.390625 -27.269531 33.390625 -21.625 L 11.484375 -21.625 L 11.34375 -22.953125 L 23.171875 -22.953125 C 23.210938 -25.242188 23.117188 -27.359375 22.890625 -29.296875 C 22.660156 -31.234375 22.285156 -32.785156 21.765625 -33.953125 C 21.253906 -35.117188 20.554688 -35.703125 19.671875 -35.703125 C 18.410156 -35.703125 17.382812 -34.707031 16.59375 -32.71875 C 15.800781 -30.738281 15.285156 -27.347656 15.046875 -22.546875 L 15.328125 -21.984375 C 15.285156 -21.515625 15.265625 -21.046875 15.265625 -20.578125 C 15.265625 -20.109375 15.265625 -19.617188 15.265625 -19.109375 C 15.265625 -15.835938 15.671875 -13.289062 16.484375 -11.46875 C 17.296875 -9.65625 18.320312 -8.398438 19.5625 -7.703125 C 20.800781 -7.003906 22.050781 -6.65625 23.3125 -6.65625 C 23.96875 -6.65625 24.75 -6.742188 25.65625 -6.921875 C 26.5625 -7.109375 27.550781 -7.539062 28.625 -8.21875 C 29.695312 -8.894531 30.75 -9.9375 31.78125 -11.34375 L 32.96875 -10.921875 C 32.40625 -9.054688 31.503906 -7.203125 30.265625 -5.359375 C 29.035156 -3.515625 27.441406 -1.992188 25.484375 -0.796875 C 23.523438 0.390625 21.144531 0.984375 18.34375 0.984375 C 15.351562 0.984375 12.632812 0.378906 10.1875 -0.828125 C 7.738281 -2.046875 5.789062 -4.054688 4.34375 -6.859375 C 2.894531 -9.660156 2.171875 -13.414062 2.171875 -18.125 C 2.171875 -22.601562 2.960938 -26.253906 4.546875 -29.078125 C 6.140625 -31.898438 8.300781 -33.976562 11.03125 -35.3125 C 13.757812 -36.644531 16.800781 -37.3125 20.15625 -37.3125 Z M 20.15625 -37.3125 "/></g></g></g><g fill="#ffffff" fill-opacity="1"><g transform="translate(396.133789, 626.363196)"><g/></g></g><g fill="#ffffff" fill-opacity="1"><g transform="translate(411.742934, 626.363196)"><g><path d="M 1.953125 -49.5625 C 3.304688 -49.507812 5.09375 -49.457031 7.3125 -49.40625 C 9.53125 -49.363281 11.757812 -49.34375 14 -49.34375 C 16.332031 -49.34375 18.570312 -49.363281 20.71875 -49.40625 C 22.863281 -49.457031 24.378906 -49.484375 25.265625 -49.484375 C 31.660156 -49.484375 36.421875 -48.457031 39.546875 -46.40625 C 42.671875 -44.351562 44.234375 -41.71875 44.234375 -38.5 C 44.234375 -36.863281 43.648438 -35.171875 42.484375 -33.421875 C 41.316406 -31.671875 39.539062 -30.128906 37.15625 -28.796875 C 34.78125 -27.472656 31.75 -26.578125 28.0625 -26.109375 L 28.0625 -25.96875 C 32.875 -25.738281 36.722656 -24.992188 39.609375 -23.734375 C 42.503906 -22.472656 44.601562 -20.941406 45.90625 -19.140625 C 47.21875 -17.347656 47.875 -15.492188 47.875 -13.578125 C 47.875 -10.453125 47.035156 -7.882812 45.359375 -5.875 C 43.679688 -3.875 41.265625 -2.394531 38.109375 -1.4375 C 34.960938 -0.476562 31.21875 0 26.875 0 C 25.757812 0 24.113281 -0.03125 21.9375 -0.09375 C 19.769531 -0.164062 17.171875 -0.203125 14.140625 -0.203125 C 11.804688 -0.203125 9.53125 -0.191406 7.3125 -0.171875 C 5.09375 -0.148438 3.304688 -0.09375 1.953125 0 L 1.953125 -1.40625 C 3.398438 -1.5 4.472656 -1.679688 5.171875 -1.953125 C 5.878906 -2.234375 6.347656 -2.796875 6.578125 -3.640625 C 6.816406 -4.484375 6.9375 -5.742188 6.9375 -7.421875 L 6.9375 -42.140625 C 6.9375 -43.867188 6.816406 -45.140625 6.578125 -45.953125 C 6.347656 -46.773438 5.867188 -47.335938 5.140625 -47.640625 C 4.421875 -47.941406 3.359375 -48.113281 1.953125 -48.15625 Z M 24.921875 -48.15625 C 23.335938 -48.15625 22.3125 -47.757812 21.84375 -46.96875 C 21.375 -46.175781 21.140625 -44.566406 21.140625 -42.140625 L 21.140625 -7.421875 C 21.140625 -5.785156 21.253906 -4.546875 21.484375 -3.703125 C 21.722656 -2.867188 22.164062 -2.3125 22.8125 -2.03125 C 23.46875 -1.75 24.425781 -1.609375 25.6875 -1.609375 C 28.300781 -1.609375 30.203125 -2.671875 31.390625 -4.796875 C 32.585938 -6.921875 33.1875 -9.941406 33.1875 -13.859375 C 33.1875 -17.453125 32.332031 -20.226562 30.625 -22.1875 C 28.914062 -24.144531 26.082031 -25.125 22.125 -25.125 L 17.015625 -25.125 C 17.015625 -25.125 17.015625 -25.320312 17.015625 -25.71875 C 17.015625 -26.113281 17.015625 -26.3125 17.015625 -26.3125 L 23.03125 -26.3125 C 24.851562 -26.3125 26.253906 -26.835938 27.234375 -27.890625 C 28.210938 -28.941406 28.882812 -30.34375 29.25 -32.09375 C 29.625 -33.84375 29.8125 -35.722656 29.8125 -37.734375 C 29.8125 -41.179688 29.4375 -43.78125 28.6875 -45.53125 C 27.945312 -47.28125 26.691406 -48.15625 24.921875 -48.15625 Z M 24.921875 -48.15625 "/></g></g></g><g fill="#ffffff" fill-opacity="1"><g transform="translate(461.02023, 626.363196)"><g><path d="M 20.15625 -37.3125 C 24.257812 -37.3125 27.488281 -36.109375 29.84375 -33.703125 C 32.207031 -31.296875 33.390625 -27.269531 33.390625 -21.625 L 11.484375 -21.625 L 11.34375 -22.953125 L 23.171875 -22.953125 C 23.210938 -25.242188 23.117188 -27.359375 22.890625 -29.296875 C 22.660156 -31.234375 22.285156 -32.785156 21.765625 -33.953125 C 21.253906 -35.117188 20.554688 -35.703125 19.671875 -35.703125 C 18.410156 -35.703125 17.382812 -34.707031 16.59375 -32.71875 C 15.800781 -30.738281 15.285156 -27.347656 15.046875 -22.546875 L 15.328125 -21.984375 C 15.285156 -21.515625 15.265625 -21.046875 15.265625 -20.578125 C 15.265625 -20.109375 15.265625 -19.617188 15.265625 -19.109375 C 15.265625 -15.835938 15.671875 -13.289062 16.484375 -11.46875 C 17.296875 -9.65625 18.320312 -8.398438 19.5625 -7.703125 C 20.800781 -7.003906 22.050781 -6.65625 23.3125 -6.65625 C 23.96875 -6.65625 24.75 -6.742188 25.65625 -6.921875 C 26.5625 -7.109375 27.550781 -7.539062 28.625 -8.21875 C 29.695312 -8.894531 30.75 -9.9375 31.78125 -11.34375 L 32.96875 -10.921875 C 32.40625 -9.054688 31.503906 -7.203125 30.265625 -5.359375 C 29.035156 -3.515625 27.441406 -1.992188 25.484375 -0.796875 C 23.523438 0.390625 21.144531 0.984375 18.34375 0.984375 C 15.351562 0.984375 12.632812 0.378906 10.1875 -0.828125 C 7.738281 -2.046875 5.789062 -4.054688 4.34375 -6.859375 C 2.894531 -9.660156 2.171875 -13.414062 2.171875 -18.125 C 2.171875 -22.601562 2.960938 -26.253906 4.546875 -29.078125 C 6.140625 -31.898438 8.300781 -33.976562 11.03125 -35.3125 C 13.757812 -36.644531 16.800781 -37.3125 20.15625 -37.3125 Z M 20.15625 -37.3125 "/></g></g></g><g fill="#ffffff" fill-opacity="1"><g transform="translate(496.228343, 626.363196)"><g><path d="M 15.46875 13.15625 C 12.289062 13.15625 9.546875 12.910156 7.234375 12.421875 C 4.929688 11.929688 3.148438 11.226562 1.890625 10.3125 C 0.628906 9.40625 0 8.300781 0 7 C 0 5.695312 0.648438 4.472656 1.953125 3.328125 C 3.265625 2.179688 5.34375 1.28125 8.1875 0.625 L 8.890625 1.75 C 8.140625 2.632812 7.632812 3.4375 7.375 4.15625 C 7.125 4.882812 7 5.578125 7 6.234375 C 7 8.046875 7.828125 9.453125 9.484375 10.453125 C 11.140625 11.460938 13.460938 11.96875 16.453125 11.96875 C 18.546875 11.96875 20.304688 11.675781 21.734375 11.09375 C 23.160156 10.507812 24.234375 9.703125 24.953125 8.671875 C 25.679688 7.648438 26.046875 6.488281 26.046875 5.1875 C 26.046875 3.875 25.550781 2.75 24.5625 1.8125 C 23.582031 0.882812 21.601562 0.421875 18.625 0.421875 L 14.84375 0.421875 C 12.695312 0.421875 10.898438 0.140625 9.453125 -0.421875 C 8.003906 -0.984375 6.90625 -1.765625 6.15625 -2.765625 C 5.414062 -3.765625 5.046875 -4.941406 5.046875 -6.296875 C 5.046875 -8.492188 5.90625 -10.335938 7.625 -11.828125 C 9.351562 -13.316406 11.570312 -14.644531 14.28125 -15.8125 L 14.90625 -15.265625 C 14.4375 -14.929688 13.945312 -14.53125 13.4375 -14.0625 C 12.925781 -13.601562 12.671875 -12.929688 12.671875 -12.046875 C 12.671875 -10.546875 13.507812 -9.796875 15.1875 -9.796875 L 21.984375 -9.796875 C 25.015625 -9.796875 27.660156 -9.46875 29.921875 -8.8125 C 32.179688 -8.164062 33.953125 -7.109375 35.234375 -5.640625 C 36.523438 -4.171875 37.171875 -2.242188 37.171875 0.140625 C 37.171875 2.472656 36.410156 4.628906 34.890625 6.609375 C 33.378906 8.597656 31.035156 10.1875 27.859375 11.375 C 24.679688 12.5625 20.550781 13.15625 15.46875 13.15625 Z M 16.453125 -14.90625 C 13.554688 -14.90625 10.972656 -15.300781 8.703125 -16.09375 C 6.441406 -16.894531 4.660156 -18.125 3.359375 -19.78125 C 2.054688 -21.4375 1.40625 -23.546875 1.40625 -26.109375 C 1.40625 -28.671875 2.054688 -30.78125 3.359375 -32.4375 C 4.660156 -34.101562 6.441406 -35.332031 8.703125 -36.125 C 10.972656 -36.914062 13.554688 -37.3125 16.453125 -37.3125 C 19.347656 -37.3125 21.925781 -36.914062 24.1875 -36.125 C 26.445312 -35.332031 28.226562 -34.101562 29.53125 -32.4375 C 30.84375 -30.78125 31.5 -28.671875 31.5 -26.109375 C 31.5 -23.546875 30.84375 -21.4375 29.53125 -19.78125 C 28.226562 -18.125 26.445312 -16.894531 24.1875 -16.09375 C 21.925781 -15.300781 19.347656 -14.90625 16.453125 -14.90625 Z M 16.453125 -16.171875 C 17.335938 -16.171875 18.035156 -16.894531 18.546875 -18.34375 C 19.054688 -19.789062 19.3125 -22.378906 19.3125 -26.109375 C 19.3125 -29.835938 19.054688 -32.425781 18.546875 -33.875 C 18.035156 -35.320312 17.335938 -36.046875 16.453125 -36.046875 C 15.566406 -36.046875 14.863281 -35.320312 14.34375 -33.875 C 13.832031 -32.425781 13.578125 -29.835938 13.578125 -26.109375 C 13.578125 -22.378906 13.832031 -19.789062 14.34375 -18.34375 C 14.863281 -16.894531 15.566406 -16.171875 16.453125 -16.171875 Z M 27.859375 -31.15625 L 26.390625 -31.640625 C 27.140625 -33.597656 28.296875 -35.171875 29.859375 -36.359375 C 31.421875 -37.554688 33.132812 -38.15625 35 -38.15625 C 36.632812 -38.15625 37.847656 -37.707031 38.640625 -36.8125 C 39.429688 -35.925781 39.828125 -34.832031 39.828125 -33.53125 C 39.828125 -32.175781 39.460938 -31.125 38.734375 -30.375 C 38.015625 -29.632812 37.144531 -29.265625 36.125 -29.265625 C 35.238281 -29.265625 34.429688 -29.566406 33.703125 -30.171875 C 32.984375 -30.773438 32.578125 -31.679688 32.484375 -32.890625 C 32.390625 -34.109375 32.832031 -35.648438 33.8125 -37.515625 L 34.09375 -37.03125 C 32.457031 -36.425781 31.171875 -35.675781 30.234375 -34.78125 C 29.304688 -33.894531 28.515625 -32.6875 27.859375 -31.15625 Z M 27.859375 -31.15625 "/></g></g></g><g fill="#ffffff" fill-opacity="1"><g transform="translate(536.126153, 626.363196)"><g><path d="M 17.78125 -54.734375 L 17.78125 -6.515625 C 17.78125 -4.546875 18.070312 -3.210938 18.65625 -2.515625 C 19.238281 -1.816406 20.253906 -1.46875 21.703125 -1.46875 L 21.703125 0 C 20.765625 -0.0390625 19.363281 -0.0976562 17.5 -0.171875 C 15.632812 -0.242188 13.722656 -0.28125 11.765625 -0.28125 C 9.796875 -0.28125 7.804688 -0.242188 5.796875 -0.171875 C 3.796875 -0.0976562 2.285156 -0.0390625 1.265625 0 L 1.265625 -1.46875 C 2.710938 -1.46875 3.726562 -1.816406 4.3125 -2.515625 C 4.894531 -3.210938 5.1875 -4.546875 5.1875 -6.515625 L 5.1875 -46.34375 C 5.1875 -48.4375 4.90625 -49.984375 4.34375 -50.984375 C 3.78125 -51.992188 2.753906 -52.5 1.265625 -52.5 L 1.265625 -53.96875 C 2.753906 -53.832031 4.195312 -53.765625 5.59375 -53.765625 C 7.925781 -53.765625 10.109375 -53.84375 12.140625 -54 C 14.171875 -54.164062 16.050781 -54.410156 17.78125 -54.734375 Z M 17.78125 -54.734375 "/></g></g></g><g fill="#ffffff" fill-opacity="1"><g transform="translate(558.384911, 626.363196)"><g><path d="M 20.15625 -37.3125 C 24.257812 -37.3125 27.488281 -36.109375 29.84375 -33.703125 C 32.207031 -31.296875 33.390625 -27.269531 33.390625 -21.625 L 11.484375 -21.625 L 11.34375 -22.953125 L 23.171875 -22.953125 C 23.210938 -25.242188 23.117188 -27.359375 22.890625 -29.296875 C 22.660156 -31.234375 22.285156 -32.785156 21.765625 -33.953125 C 21.253906 -35.117188 20.554688 -35.703125 19.671875 -35.703125 C 18.410156 -35.703125 17.382812 -34.707031 16.59375 -32.71875 C 15.800781 -30.738281 15.285156 -27.347656 15.046875 -22.546875 L 15.328125 -21.984375 C 15.285156 -21.515625 15.265625 -21.046875 15.265625 -20.578125 C 15.265625 -20.109375 15.265625 -19.617188 15.265625 -19.109375 C 15.265625 -15.835938 15.671875 -13.289062 16.484375 -11.46875 C 17.296875 -9.65625 18.320312 -8.398438 19.5625 -7.703125 C 20.800781 -7.003906 22.050781 -6.65625 23.3125 -6.65625 C 23.96875 -6.65625 24.75 -6.742188 25.65625 -6.921875 C 26.5625 -7.109375 27.550781 -7.539062 28.625 -8.21875 C 29.695312 -8.894531 30.75 -9.9375 31.78125 -11.34375 L 32.96875 -10.921875 C 32.40625 -9.054688 31.503906 -7.203125 30.265625 -5.359375 C 29.035156 -3.515625 27.441406 -1.992188 25.484375 -0.796875 C 23.523438 0.390625 21.144531 0.984375 18.34375 0.984375 C 15.351562 0.984375 12.632812 0.378906 10.1875 -0.828125 C 7.738281 -2.046875 5.789062 -4.054688 4.34375 -6.859375 C 2.894531 -9.660156 2.171875 -13.414062 2.171875 -18.125 C 2.171875 -22.601562 2.960938 -26.253906 4.546875 -29.078125 C 6.140625 -31.898438 8.300781 -33.976562 11.03125 -35.3125 C 13.757812 -36.644531 16.800781 -37.3125 20.15625 -37.3125 Z M 20.15625 -37.3125 "/></g></g></g><g fill="#ffffff" fill-opacity="1"><g transform="translate(593.592978, 626.363196)"><g><path d="M 11.28125 -54.734375 C 13.695312 -54.734375 15.570312 -54.234375 16.90625 -53.234375 C 18.238281 -52.234375 18.90625 -50.726562 18.90625 -48.71875 C 18.90625 -46.707031 18.238281 -45.203125 16.90625 -44.203125 C 15.570312 -43.203125 13.695312 -42.703125 11.28125 -42.703125 C 8.851562 -42.703125 6.972656 -43.203125 5.640625 -44.203125 C 4.304688 -45.203125 3.640625 -46.707031 3.640625 -48.71875 C 3.640625 -50.726562 4.304688 -52.234375 5.640625 -53.234375 C 6.972656 -54.234375 8.851562 -54.734375 11.28125 -54.734375 Z M 17.984375 -37.09375 L 17.984375 -6.515625 C 17.984375 -4.546875 18.273438 -3.210938 18.859375 -2.515625 C 19.441406 -1.816406 20.457031 -1.46875 21.90625 -1.46875 L 21.90625 0 C 20.976562 -0.0390625 19.578125 -0.0976562 17.703125 -0.171875 C 15.835938 -0.242188 13.925781 -0.28125 11.96875 -0.28125 C 10.007812 -0.28125 8.023438 -0.242188 6.015625 -0.171875 C 4.015625 -0.0976562 2.5 -0.0390625 1.46875 0 L 1.46875 -1.46875 C 2.914062 -1.46875 3.929688 -1.816406 4.515625 -2.515625 C 5.097656 -3.210938 5.390625 -4.546875 5.390625 -6.515625 L 5.390625 -28.703125 C 5.390625 -30.796875 5.109375 -32.34375 4.546875 -33.34375 C 3.984375 -34.351562 2.957031 -34.859375 1.46875 -34.859375 L 1.46875 -36.328125 C 2.957031 -36.191406 4.40625 -36.125 5.8125 -36.125 C 8.144531 -36.125 10.328125 -36.203125 12.359375 -36.359375 C 14.390625 -36.523438 16.265625 -36.769531 17.984375 -37.09375 Z M 17.984375 -37.09375 "/></g></g></g><g fill="#ffffff" fill-opacity="1"><g transform="translate(616.691732, 626.363196)"><g><path d="M 17.640625 -47.671875 L 17.640625 -36.328125 L 24.5 -36.328125 L 24.5 -34.9375 L 17.640625 -34.9375 L 17.640625 -5.875 C 17.640625 -4.988281 17.800781 -4.347656 18.125 -3.953125 C 18.457031 -3.554688 18.992188 -3.359375 19.734375 -3.359375 C 20.253906 -3.359375 20.863281 -3.507812 21.5625 -3.8125 C 22.257812 -4.113281 22.910156 -4.640625 23.515625 -5.390625 L 24.5625 -4.546875 C 23.582031 -2.867188 22.285156 -1.523438 20.671875 -0.515625 C 19.066406 0.484375 17.050781 0.984375 14.625 0.984375 C 13.082031 0.984375 11.691406 0.785156 10.453125 0.390625 C 9.222656 -0.00390625 8.210938 -0.601562 7.421875 -1.40625 C 6.390625 -2.425781 5.734375 -3.691406 5.453125 -5.203125 C 5.179688 -6.722656 5.046875 -8.695312 5.046875 -11.125 L 5.046875 -34.9375 L -0.28125 -34.9375 L -0.28125 -36.328125 L 5.046875 -36.328125 L 5.046875 -44.59375 C 7.515625 -44.59375 9.765625 -44.835938 11.796875 -45.328125 C 13.828125 -45.816406 15.773438 -46.597656 17.640625 -47.671875 Z M 17.640625 -47.671875 "/></g></g></g><g fill="#ffffff" fill-opacity="1"><g transform="translate(641.190372, 626.363196)"><g><path d="M 38.359375 -37.09375 L 38.359375 -7.625 C 38.359375 -5.53125 38.648438 -3.976562 39.234375 -2.96875 C 39.816406 -1.96875 40.832031 -1.46875 42.28125 -1.46875 L 42.28125 0 C 40.832031 -0.132812 39.382812 -0.203125 37.9375 -0.203125 C 35.601562 -0.203125 33.429688 -0.132812 31.421875 0 C 29.421875 0.132812 27.535156 0.390625 25.765625 0.765625 L 25.765625 -4.265625 C 24.640625 -2.398438 23.128906 -1.054688 21.234375 -0.234375 C 19.347656 0.578125 17.144531 0.984375 14.625 0.984375 C 12.476562 0.984375 10.785156 0.710938 9.546875 0.171875 C 8.316406 -0.359375 7.375 -1.019531 6.71875 -1.8125 C 6.019531 -2.65625 5.503906 -3.773438 5.171875 -5.171875 C 4.847656 -6.578125 4.6875 -8.46875 4.6875 -10.84375 L 4.6875 -28.703125 C 4.6875 -30.796875 4.40625 -32.34375 3.84375 -33.34375 C 3.289062 -34.351562 2.265625 -34.859375 0.765625 -34.859375 L 0.765625 -36.328125 C 2.265625 -36.191406 3.710938 -36.125 5.109375 -36.125 C 7.441406 -36.125 9.625 -36.203125 11.65625 -36.359375 C 13.6875 -36.523438 15.566406 -36.769531 17.296875 -37.09375 L 17.296875 -7.0625 C 17.296875 -6.082031 17.410156 -5.265625 17.640625 -4.609375 C 17.867188 -3.960938 18.238281 -3.472656 18.75 -3.140625 C 19.269531 -2.816406 19.925781 -2.65625 20.71875 -2.65625 C 21.601562 -2.65625 22.421875 -2.863281 23.171875 -3.28125 C 23.921875 -3.707031 24.539062 -4.304688 25.03125 -5.078125 C 25.519531 -5.847656 25.765625 -6.722656 25.765625 -7.703125 L 25.765625 -28.703125 C 25.765625 -30.796875 25.484375 -32.34375 24.921875 -33.34375 C 24.359375 -34.351562 23.332031 -34.859375 21.84375 -34.859375 L 21.84375 -36.328125 C 23.332031 -36.191406 24.78125 -36.125 26.1875 -36.125 C 28.519531 -36.125 30.695312 -36.203125 32.71875 -36.359375 C 34.75 -36.523438 36.628906 -36.769531 38.359375 -37.09375 Z M 38.359375 -37.09375 "/></g></g></g><g fill="#ffffff" fill-opacity="1"><g transform="translate(684.727998, 626.363196)"><g><path d="M 29.125 -37.3125 C 31.269531 -37.3125 32.957031 -37.039062 34.1875 -36.5 C 35.425781 -35.96875 36.375 -35.304688 37.03125 -34.515625 C 37.726562 -33.671875 38.238281 -32.546875 38.5625 -31.140625 C 38.894531 -29.742188 39.0625 -27.859375 39.0625 -25.484375 L 39.0625 -6.515625 C 39.0625 -4.546875 39.351562 -3.210938 39.9375 -2.515625 C 40.519531 -1.816406 41.535156 -1.46875 42.984375 -1.46875 L 42.984375 0 C 42.046875 -0.0390625 40.628906 -0.0976562 38.734375 -0.171875 C 36.847656 -0.242188 35 -0.28125 33.1875 -0.28125 C 31.21875 -0.28125 29.300781 -0.242188 27.4375 -0.171875 C 25.570312 -0.0976562 24.171875 -0.0390625 23.234375 0 L 23.234375 -1.46875 C 24.453125 -1.46875 25.289062 -1.816406 25.75 -2.515625 C 26.21875 -3.210938 26.453125 -4.546875 26.453125 -6.515625 L 26.453125 -29.265625 C 26.453125 -30.242188 26.335938 -31.054688 26.109375 -31.703125 C 25.878906 -32.359375 25.519531 -32.847656 25.03125 -33.171875 C 24.539062 -33.503906 23.875 -33.671875 23.03125 -33.671875 C 22.1875 -33.671875 21.378906 -33.457031 20.609375 -33.03125 C 19.835938 -32.613281 19.207031 -32.019531 18.71875 -31.25 C 18.226562 -30.476562 17.984375 -29.601562 17.984375 -28.625 L 17.984375 -6.515625 C 17.984375 -4.546875 18.226562 -3.210938 18.71875 -2.515625 C 19.207031 -1.816406 20.035156 -1.46875 21.203125 -1.46875 L 21.203125 0 C 20.316406 -0.0390625 19.007812 -0.0976562 17.28125 -0.171875 C 15.5625 -0.242188 13.789062 -0.28125 11.96875 -0.28125 C 10.007812 -0.28125 8.023438 -0.242188 6.015625 -0.171875 C 4.015625 -0.0976562 2.5 -0.0390625 1.46875 0 L 1.46875 -1.46875 C 2.914062 -1.46875 3.929688 -1.816406 4.515625 -2.515625 C 5.097656 -3.210938 5.390625 -4.546875 5.390625 -6.515625 L 5.390625 -28.703125 C 5.390625 -30.796875 5.109375 -32.34375 4.546875 -33.34375 C 3.984375 -34.351562 2.957031 -34.859375 1.46875 -34.859375 L 1.46875 -36.328125 C 2.957031 -36.191406 4.40625 -36.125 5.8125 -36.125 C 8.144531 -36.125 10.328125 -36.203125 12.359375 -36.359375 C 14.390625 -36.523438 16.265625 -36.769531 17.984375 -37.09375 L 17.984375 -32.0625 C 19.109375 -33.925781 20.613281 -35.265625 22.5 -36.078125 C 24.394531 -36.898438 26.601562 -37.3125 29.125 -37.3125 Z M 29.125 -37.3125 "/></g></g></g><g fill="#ffffff" fill-opacity="1"><g transform="translate(728.12564, 626.363196)"><g><path d="M 15.46875 13.15625 C 12.289062 13.15625 9.546875 12.910156 7.234375 12.421875 C 4.929688 11.929688 3.148438 11.226562 1.890625 10.3125 C 0.628906 9.40625 0 8.300781 0 7 C 0 5.695312 0.648438 4.472656 1.953125 3.328125 C 3.265625 2.179688 5.34375 1.28125 8.1875 0.625 L 8.890625 1.75 C 8.140625 2.632812 7.632812 3.4375 7.375 4.15625 C 7.125 4.882812 7 5.578125 7 6.234375 C 7 8.046875 7.828125 9.453125 9.484375 10.453125 C 11.140625 11.460938 13.460938 11.96875 16.453125 11.96875 C 18.546875 11.96875 20.304688 11.675781 21.734375 11.09375 C 23.160156 10.507812 24.234375 9.703125 24.953125 8.671875 C 25.679688 7.648438 26.046875 6.488281 26.046875 5.1875 C 26.046875 3.875 25.550781 2.75 24.5625 1.8125 C 23.582031 0.882812 21.601562 0.421875 18.625 0.421875 L 14.84375 0.421875 C 12.695312 0.421875 10.898438 0.140625 9.453125 -0.421875 C 8.003906 -0.984375 6.90625 -1.765625 6.15625 -2.765625 C 5.414062 -3.765625 5.046875 -4.941406 5.046875 -6.296875 C 5.046875 -8.492188 5.90625 -10.335938 7.625 -11.828125 C 9.351562 -13.316406 11.570312 -14.644531 14.28125 -15.8125 L 14.90625 -15.265625 C 14.4375 -14.929688 13.945312 -14.53125 13.4375 -14.0625 C 12.925781 -13.601562 12.671875 -12.929688 12.671875 -12.046875 C 12.671875 -10.546875 13.507812 -9.796875 15.1875 -9.796875 L 21.984375 -9.796875 C 25.015625 -9.796875 27.660156 -9.46875 29.921875 -8.8125 C 32.179688 -8.164062 33.953125 -7.109375 35.234375 -5.640625 C 36.523438 -4.171875 37.171875 -2.242188 37.171875 0.140625 C 37.171875 2.472656 36.410156 4.628906 34.890625 6.609375 C 33.378906 8.597656 31.035156 10.1875 27.859375 11.375 C 24.679688 12.5625 20.550781 13.15625 15.46875 13.15625 Z M 16.453125 -14.90625 C 13.554688 -14.90625 10.972656 -15.300781 8.703125 -16.09375 C 6.441406 -16.894531 4.660156 -18.125 3.359375 -19.78125 C 2.054688 -21.4375 1.40625 -23.546875 1.40625 -26.109375 C 1.40625 -28.671875 2.054688 -30.78125 3.359375 -32.4375 C 4.660156 -34.101562 6.441406 -35.332031 8.703125 -36.125 C 10.972656 -36.914062 13.554688 -37.3125 16.453125 -37.3125 C 19.347656 -37.3125 21.925781 -36.914062 24.1875 -36.125 C 26.445312 -35.332031 28.226562 -34.101562 29.53125 -32.4375 C 30.84375 -30.78125 31.5 -28.671875 31.5 -26.109375 C 31.5 -23.546875 30.84375 -21.4375 29.53125 -19.78125 C 28.226562 -18.125 26.445312 -16.894531 24.1875 -16.09375 C 21.925781 -15.300781 19.347656 -14.90625 16.453125 -14.90625 Z M 16.453125 -16.171875 C 17.335938 -16.171875 18.035156 -16.894531 18.546875 -18.34375 C 19.054688 -19.789062 19.3125 -22.378906 19.3125 -26.109375 C 19.3125 -29.835938 19.054688 -32.425781 18.546875 -33.875 C 18.035156 -35.320312 17.335938 -36.046875 16.453125 -36.046875 C 15.566406 -36.046875 14.863281 -35.320312 14.34375 -33.875 C 13.832031 -32.425781 13.578125 -29.835938 13.578125 -26.109375 C 13.578125 -22.378906 13.832031 -19.789062 14.34375 -18.34375 C 14.863281 -16.894531 15.566406 -16.171875 16.453125 -16.171875 Z M 27.859375 -31.15625 L 26.390625 -31.640625 C 27.140625 -33.597656 28.296875 -35.171875 29.859375 -36.359375 C 31.421875 -37.554688 33.132812 -38.15625 35 -38.15625 C 36.632812 -38.15625 37.847656 -37.707031 38.640625 -36.8125 C 39.429688 -35.925781 39.828125 -34.832031 39.828125 -33.53125 C 39.828125 -32.175781 39.460938 -31.125 38.734375 -30.375 C 38.015625 -29.632812 37.144531 -29.265625 36.125 -29.265625 C 35.238281 -29.265625 34.429688 -29.566406 33.703125 -30.171875 C 32.984375 -30.773438 32.578125 -31.679688 32.484375 -32.890625 C 32.390625 -34.109375 32.832031 -35.648438 33.8125 -37.515625 L 34.09375 -37.03125 C 32.457031 -36.425781 31.171875 -35.675781 30.234375 -34.78125 C 29.304688 -33.894531 28.515625 -32.6875 27.859375 -31.15625 Z M 27.859375 -31.15625 "/></g></g></g></svg>