<svg xmlns="http://www.w3.org/2000/svg" xmlns:xlink="http://www.w3.org/1999/xlink" width="157" zoomAndPan="magnify" viewBox="0 0 117.75 120.750001" height="161" preserveAspectRatio="xMidYMid meet" version="1.0"><defs><clipPath id="edea6a0cd4"><path d="M 0 0.00390625 L 117.5 0.00390625 L 117.5 120.496094 L 0 120.496094 Z M 0 0.00390625 " clip-rule="nonzero"/></clipPath><clipPath id="692ddfbfc9"><path d="M 6.039062 7.535156 L 111.460938 7.535156 L 111.460938 112.957031 L 6.039062 112.957031 Z M 6.039062 7.535156 " clip-rule="nonzero"/></clipPath><clipPath id="410d1fbb36"><path d="M 111.183594 60.242188 C 111.183594 89.207031 87.710938 112.679688 58.746094 112.679688 C 29.78125 112.679688 6.320312 89.207031 6.320312 60.242188 C 6.320312 31.277344 29.796875 7.816406 58.746094 7.816406 C 87.699219 7.816406 111.183594 31.292969 111.183594 60.242188 " clip-rule="nonzero"/></clipPath><clipPath id="b0b1b4b5f8"><path d="M 0.226562 0.667969 L 105.363281 0.667969 L 105.363281 105.804688 L 0.226562 105.804688 Z M 0.226562 0.667969 " clip-rule="nonzero"/></clipPath><clipPath id="6bd001c3b4"><path d="M 105.183594 53.242188 C 105.183594 82.207031 81.710938 105.679688 52.746094 105.679688 C 23.78125 105.679688 0.320312 82.207031 0.320312 53.242188 C 0.320312 24.277344 23.796875 0.816406 52.746094 0.816406 C 81.699219 0.816406 105.183594 24.292969 105.183594 53.242188 " clip-rule="nonzero"/></clipPath><clipPath id="a754bd9dde"><rect x="0" width="106" y="0" height="106"/></clipPath><clipPath id="ef70986ed8"><path d="M 4.15625 6 L 113 6 L 113 114.839844 L 4.15625 114.839844 Z M 4.15625 6 " clip-rule="nonzero"/></clipPath><clipPath id="73560cc925"><path d="M 112.914062 60.242188 C 112.914062 90.15625 88.671875 114.398438 58.757812 114.398438 L 58.757812 112.679688 L 58.757812 114.410156 C 28.832031 114.410156 4.59375 90.15625 4.59375 60.242188 L 6.320312 60.242188 L 4.59375 60.242188 C 4.59375 30.34375 28.832031 6.089844 58.746094 6.089844 L 58.746094 7.816406 L 58.746094 6.089844 C 88.660156 6.089844 112.902344 30.34375 112.902344 60.242188 L 111.183594 60.242188 L 112.914062 60.242188 M 109.457031 60.242188 C 109.457031 32.242188 86.75 9.53125 58.746094 9.53125 C 30.746094 9.53125 8.046875 32.242188 8.046875 60.242188 C 8.046875 88.246094 30.746094 110.953125 58.746094 110.953125 C 86.75 110.953125 109.457031 88.257812 109.457031 60.242188 Z M 109.457031 60.242188 " clip-rule="nonzero"/></clipPath><clipPath id="157853cc93"><path d="M 0.550781 0 L 109 0 L 109 108.480469 L 0.550781 108.480469 Z M 0.550781 0 " clip-rule="nonzero"/></clipPath><clipPath id="da19701fb2"><path d="M 108.914062 54.242188 C 108.914062 84.15625 84.671875 108.398438 54.757812 108.398438 L 54.757812 106.679688 L 54.757812 108.410156 C 24.832031 108.410156 0.59375 84.15625 0.59375 54.242188 L 2.320312 54.242188 L 0.59375 54.242188 C 0.59375 24.34375 24.832031 0.0898438 54.746094 0.0898438 L 54.746094 1.816406 L 54.746094 0.0898438 C 84.660156 0.0898438 108.902344 24.34375 108.902344 54.242188 L 107.183594 54.242188 L 108.914062 54.242188 M 105.457031 54.242188 C 105.457031 26.242188 82.75 3.53125 54.746094 3.53125 C 26.746094 3.53125 4.046875 26.242188 4.046875 54.242188 C 4.046875 82.246094 26.746094 104.953125 54.746094 104.953125 C 82.75 104.953125 105.457031 82.257812 105.457031 54.242188 Z M 105.457031 54.242188 " clip-rule="nonzero"/></clipPath><clipPath id="b0bd9ca93c"><rect x="0" width="109" y="0" height="109"/></clipPath><clipPath id="b617a0179c"><path d="M 79.457031 70.601562 L 82.28125 70.601562 L 82.28125 92.71875 L 79.457031 92.71875 Z M 79.457031 70.601562 " clip-rule="nonzero"/></clipPath><clipPath id="f687d2cd86"><path d="M 79.542969 90.363281 L 79.542969 70.757812 L 82.085938 70.757812 L 82.085938 92.40625 Z M 79.542969 90.363281 " clip-rule="nonzero"/></clipPath><clipPath id="cbe431eddc"><path d="M 0.511719 0.652344 L 3.144531 0.652344 L 3.144531 22.445312 L 0.511719 22.445312 Z M 0.511719 0.652344 " clip-rule="nonzero"/></clipPath><clipPath id="7340221470"><path d="M 0.542969 20.363281 L 0.542969 0.757812 L 3.085938 0.757812 L 3.085938 22.40625 Z M 0.542969 20.363281 " clip-rule="nonzero"/></clipPath><clipPath id="b8a798e0e3"><rect x="0" width="4" y="0" height="23"/></clipPath><clipPath id="d84f9e8dcc"><path d="M 86.519531 70.601562 L 89.34375 70.601562 L 89.34375 96.484375 L 86.519531 96.484375 Z M 86.519531 70.601562 " clip-rule="nonzero"/></clipPath><clipPath id="cc3870e398"><path d="M 86.785156 96.265625 L 86.785156 70.757812 L 89.328125 70.757812 L 89.328125 96.191406 Z M 86.785156 96.265625 " clip-rule="nonzero"/></clipPath><clipPath id="dfd1cf4ee0"><path d="M 0.695312 0.652344 L 3.332031 0.652344 L 3.332031 26.277344 L 0.695312 26.277344 Z M 0.695312 0.652344 " clip-rule="nonzero"/></clipPath><clipPath id="97afca934e"><path d="M 0.785156 26.265625 L 0.785156 0.757812 L 3.328125 0.757812 L 3.328125 26.191406 Z M 0.785156 26.265625 " clip-rule="nonzero"/></clipPath><clipPath id="925a99d342"><rect x="0" width="4" y="0" height="27"/></clipPath><clipPath id="70e98aa399"><path d="M 83.222656 70.601562 L 86 70.601562 L 86 95.542969 L 83.222656 95.542969 Z M 83.222656 70.601562 " clip-rule="nonzero"/></clipPath><clipPath id="74e0b1fd1c"><path d="M 83.242188 93.355469 L 83.242188 70.757812 L 85.789062 70.757812 L 85.789062 95.460938 Z M 83.242188 93.355469 " clip-rule="nonzero"/></clipPath><clipPath id="445795f380"><path d="M 0.222656 0.652344 L 2.976562 0.652344 L 2.976562 25.542969 L 0.222656 25.542969 Z M 0.222656 0.652344 " clip-rule="nonzero"/></clipPath><clipPath id="39f3949c61"><path d="M 0.242188 23.355469 L 0.242188 0.757812 L 2.789062 0.757812 L 2.789062 25.460938 Z M 0.242188 23.355469 " clip-rule="nonzero"/></clipPath><clipPath id="73dafb833c"><rect x="0" width="3" y="0" height="26"/></clipPath><clipPath id="d98b9f8c8e"><path d="M 21.570312 23.535156 L 85.578125 23.535156 L 85.578125 96.957031 L 21.570312 96.957031 Z M 21.570312 23.535156 " clip-rule="nonzero"/></clipPath><clipPath id="f5676baeb4"><path d="M 36.441406 60.167969 C 36.441406 76.839844 45.675781 89.925781 60.4375 89.925781 C 66.707031 89.925781 71.890625 86.527344 75.773438 82.621094 L 75.773438 70.757812 L 78.316406 70.757812 L 78.316406 89.363281 C 76.585938 91.128906 70.28125 96.761719 59.964844 96.761719 C 47.722656 96.761719 21.921875 89.800781 21.921875 59.453125 L 21.921875 61.046875 C 21.921875 30.695312 47.722656 23.734375 59.964844 23.734375 C 72.207031 23.734375 78.800781 29.488281 78.800781 29.488281 L 83.839844 23.976562 L 85.15625 23.976562 L 85.15625 47.246094 L 83.949219 47.246094 C 83.949219 47.246094 75.1875 28.40625 60.425781 28.40625 C 45.664062 28.40625 36.441406 43.644531 36.441406 60.328125 Z M 36.441406 60.167969 " clip-rule="nonzero"/></clipPath><clipPath id="a6bf750fa9"><path d="M 0.792969 0.710938 L 64.257812 0.710938 L 64.257812 73.957031 L 0.792969 73.957031 Z M 0.792969 0.710938 " clip-rule="nonzero"/></clipPath><clipPath id="e5057d4006"><path d="M 15.441406 37.167969 C 15.441406 53.839844 24.675781 66.925781 39.4375 66.925781 C 45.707031 66.925781 50.890625 63.527344 54.773438 59.621094 L 54.773438 47.757812 L 57.316406 47.757812 L 57.316406 66.363281 C 55.585938 68.128906 49.28125 73.761719 38.964844 73.761719 C 26.722656 73.761719 0.921875 66.800781 0.921875 36.453125 L 0.921875 38.046875 C 0.921875 7.695312 26.722656 0.734375 38.964844 0.734375 C 51.207031 0.734375 57.800781 6.488281 57.800781 6.488281 L 62.839844 0.976562 L 64.15625 0.976562 L 64.15625 24.246094 L 62.949219 24.246094 C 62.949219 24.246094 54.1875 5.40625 39.425781 5.40625 C 24.664062 5.40625 15.441406 20.644531 15.441406 37.328125 Z M 15.441406 37.167969 " clip-rule="nonzero"/></clipPath><clipPath id="d68f8087c1"><rect x="0" width="65" y="0" height="74"/></clipPath><clipPath id="6c44a3b462"><path d="M 75.785156 67.886719 L 89.414062 67.886719 L 89.414062 69.746094 L 75.785156 69.746094 Z M 75.785156 67.886719 " clip-rule="nonzero"/></clipPath><clipPath id="af0b6621cf"><path d="M 0.785156 0.886719 L 14.414062 0.886719 L 14.414062 2.746094 L 0.785156 2.746094 Z M 0.785156 0.886719 " clip-rule="nonzero"/></clipPath><clipPath id="b686832bf1"><rect x="0" width="15" y="0" height="3"/></clipPath><clipPath id="de877f52d8"><path d="M 69.574219 61.1875 L 95.929688 61.1875 L 95.929688 63.539062 L 69.574219 63.539062 Z M 69.574219 61.1875 " clip-rule="nonzero"/></clipPath><clipPath id="9d133095fa"><path d="M 82.5625 63.296875 L 93.683594 63.296875 L 95.558594 61.335938 L 82.5625 61.335938 L 82.597656 61.335938 L 69.589844 61.335938 L 71.464844 63.296875 L 82.597656 63.296875 Z M 82.5625 63.296875 " clip-rule="nonzero"/></clipPath><clipPath id="f66e358782"><path d="M 0.574219 0.3125 L 26.796875 0.3125 L 26.796875 2.46875 L 0.574219 2.46875 Z M 0.574219 0.3125 " clip-rule="nonzero"/></clipPath><clipPath id="2946100d32"><path d="M 13.5625 2.296875 L 24.683594 2.296875 L 26.558594 0.335938 L 13.5625 0.335938 L 13.597656 0.335938 L 0.589844 0.335938 L 2.464844 2.296875 L 13.597656 2.296875 Z M 13.5625 2.296875 " clip-rule="nonzero"/></clipPath><clipPath id="e1bd07d99e"><rect x="0" width="27" y="0" height="3"/></clipPath><clipPath id="3d6c9e21e7"><path d="M 72.398438 64.480469 L 92.636719 64.480469 L 92.636719 66.835938 L 72.398438 66.835938 Z M 72.398438 64.480469 " clip-rule="nonzero"/></clipPath><clipPath id="338a1951bf"><path d="M 82.5625 66.570312 L 90.617188 66.570312 L 92.382812 64.683594 L 82.5625 64.683594 L 82.597656 64.683594 L 72.777344 64.683594 L 74.542969 66.570312 L 82.597656 66.570312 " clip-rule="nonzero"/></clipPath><clipPath id="015266878c"><path d="M 0.566406 0.664062 L 20.445312 0.664062 L 20.445312 2.582031 L 0.566406 2.582031 Z M 0.566406 0.664062 " clip-rule="nonzero"/></clipPath><clipPath id="b3baca5d1f"><path d="M 10.5625 2.570312 L 18.617188 2.570312 L 20.382812 0.683594 L 10.5625 0.683594 L 10.597656 0.683594 L 0.777344 0.683594 L 2.542969 2.570312 L 10.597656 2.570312 " clip-rule="nonzero"/></clipPath><clipPath id="1edfb37c8e"><rect x="0" width="21" y="0" height="3"/></clipPath><clipPath id="dbebe1c567"><rect x="0" width="118" y="0" height="121"/></clipPath></defs><g clip-path="url(#edea6a0cd4)"><g transform="matrix(1, 0, 0, 1, 0, -0.000000000000006552)"><g clip-path="url(#dbebe1c567)"><g clip-path="url(#692ddfbfc9)"><g clip-path="url(#410d1fbb36)"><g transform="matrix(1, 0, 0, 1, 6, 7)"><g clip-path="url(#a754bd9dde)"><g clip-path="url(#b0b1b4b5f8)"><g clip-path="url(#6bd001c3b4)"><rect x="-48.861" width="203.472" fill="#ffffff" y="-50.953" height="208.656002" fill-opacity="1"/></g></g></g></g></g></g><g clip-path="url(#ef70986ed8)"><g clip-path="url(#73560cc925)"><g transform="matrix(1, 0, 0, 1, 4, 6)"><g clip-path="url(#b0bd9ca93c)"><g clip-path="url(#157853cc93)"><g clip-path="url(#da19701fb2)"><rect x="-46.861" width="203.472" fill="#ab2d32" y="-49.953" height="208.656002" fill-opacity="1"/></g></g></g></g></g></g><g clip-path="url(#b617a0179c)"><g clip-path="url(#f687d2cd86)"><g transform="matrix(1, 0, 0, 1, 79, 70)"><g clip-path="url(#b8a798e0e3)"><g clip-path="url(#cbe431eddc)"><g clip-path="url(#7340221470)"><rect x="-121.861" width="203.472" fill="#ab2d32" y="-113.953" height="208.656002" fill-opacity="1"/></g></g></g></g></g></g><g clip-path="url(#d84f9e8dcc)"><g clip-path="url(#cc3870e398)"><g transform="matrix(1, 0, 0, 1, 86, 70)"><g clip-path="url(#925a99d342)"><g clip-path="url(#dfd1cf4ee0)"><g clip-path="url(#97afca934e)"><rect x="-128.861" width="203.472" fill="#ab2d32" y="-113.953" height="208.656002" fill-opacity="1"/></g></g></g></g></g></g><g clip-path="url(#70e98aa399)"><g clip-path="url(#74e0b1fd1c)"><g transform="matrix(1, 0, 0, 1, 83, 70)"><g clip-path="url(#73dafb833c)"><g clip-path="url(#445795f380)"><g clip-path="url(#39f3949c61)"><rect x="-125.861" width="203.472" fill="#ab2d32" y="-113.953" height="208.656002" fill-opacity="1"/></g></g></g></g></g></g><g clip-path="url(#d98b9f8c8e)"><g clip-path="url(#f5676baeb4)"><g transform="matrix(1, 0, 0, 1, 21, 23)"><g clip-path="url(#d68f8087c1)"><g clip-path="url(#a6bf750fa9)"><g clip-path="url(#e5057d4006)"><rect x="-63.861" width="203.472" fill="#ab2d32" y="-66.953" height="208.656002" fill-opacity="1"/></g></g></g></g></g></g><g clip-path="url(#6c44a3b462)"><g transform="matrix(1, 0, 0, 1, 75, 67)"><g clip-path="url(#b686832bf1)"><g clip-path="url(#af0b6621cf)"><rect x="-117.861" width="203.472" fill="#ab2d32" y="-110.953" height="208.656002" fill-opacity="1"/></g></g></g></g><g clip-path="url(#de877f52d8)"><g clip-path="url(#9d133095fa)"><g transform="matrix(1, 0, 0, 1, 69, 61)"><g clip-path="url(#e1bd07d99e)"><g clip-path="url(#f66e358782)"><g clip-path="url(#2946100d32)"><rect x="-111.861" width="203.472" fill="#ab2d32" y="-104.953" height="208.656002" fill-opacity="1"/></g></g></g></g></g></g><g clip-path="url(#3d6c9e21e7)"><g clip-path="url(#338a1951bf)"><g transform="matrix(1, 0, 0, 1, 72, 64)"><g clip-path="url(#1edfb37c8e)"><g clip-path="url(#015266878c)"><g clip-path="url(#b3baca5d1f)"><rect x="-114.861" width="203.472" fill="#ab2d32" y="-107.953" height="208.656002" fill-opacity="1"/></g></g></g></g></g></g></g></g></g></svg>