<svg xmlns="http://www.w3.org/2000/svg" xmlns:xlink="http://www.w3.org/1999/xlink" width="500" zoomAndPan="magnify" viewBox="0 0 375 74.999997" height="100" preserveAspectRatio="xMidYMid meet" version="1.0"><defs><g/><clipPath id="fe3ea5a146"><path d="M 3.75 11.25 L 56.25 11.25 L 56.25 63.75 L 3.75 63.75 Z M 3.75 11.25 " clip-rule="nonzero"/></clipPath><clipPath id="3663f1d31d"><path d="M 56.109375 37.496094 C 56.109375 51.921875 44.421875 63.609375 29.996094 63.609375 C 15.574219 63.609375 3.890625 51.921875 3.890625 37.496094 C 3.890625 23.074219 15.582031 11.390625 29.996094 11.390625 C 44.414062 11.390625 56.109375 23.082031 56.109375 37.496094 " clip-rule="nonzero"/></clipPath><clipPath id="447d8819cb"><path d="M 0.839844 0.28125 L 53.160156 0.28125 L 53.160156 52.75 L 0.839844 52.75 Z M 0.839844 0.28125 " clip-rule="nonzero"/></clipPath><clipPath id="275f852379"><path d="M 53.109375 26.496094 C 53.109375 40.921875 41.421875 52.609375 26.996094 52.609375 C 12.574219 52.609375 0.890625 40.921875 0.890625 26.496094 C 0.890625 12.074219 12.582031 0.390625 26.996094 0.390625 C 41.414062 0.390625 53.109375 12.082031 53.109375 26.496094 " clip-rule="nonzero"/></clipPath><clipPath id="5335a9536e"><rect x="0" width="54" y="0" height="53"/></clipPath><clipPath id="038eb002be"><path d="M 3 10.3125 L 57 10.3125 L 57 64.6875 L 3 64.6875 Z M 3 10.3125 " clip-rule="nonzero"/></clipPath><clipPath id="2ad164c70a"><path d="M 56.972656 37.496094 C 56.972656 52.394531 44.898438 64.464844 30.003906 64.464844 L 30.003906 63.609375 L 30.003906 64.472656 C 15.101562 64.472656 3.03125 52.394531 3.03125 37.496094 L 3.890625 37.496094 L 3.03125 37.496094 C 3.03125 22.609375 15.101562 10.53125 29.996094 10.53125 L 29.996094 11.390625 L 29.996094 10.53125 C 44.894531 10.53125 56.964844 22.609375 56.964844 37.496094 L 56.109375 37.496094 L 56.972656 37.496094 M 55.25 37.496094 C 55.25 23.554688 43.941406 12.246094 29.996094 12.246094 C 16.054688 12.246094 4.75 23.554688 4.75 37.496094 C 4.75 51.441406 16.054688 62.75 29.996094 62.75 C 43.941406 62.75 55.25 51.449219 55.25 37.496094 Z M 55.25 37.496094 " clip-rule="nonzero"/></clipPath><clipPath id="d8a2d47af4"><path d="M 0 0.320312 L 54 0.320312 L 54 54.558594 L 0 54.558594 Z M 0 0.320312 " clip-rule="nonzero"/></clipPath><clipPath id="6348a76e72"><path d="M 53.972656 27.496094 C 53.972656 42.394531 41.898438 54.464844 27.003906 54.464844 L 27.003906 53.609375 L 27.003906 54.472656 C 12.101562 54.472656 0.03125 42.394531 0.03125 27.496094 L 0.890625 27.496094 L 0.03125 27.496094 C 0.03125 12.609375 12.101562 0.53125 26.996094 0.53125 L 26.996094 1.390625 L 26.996094 0.53125 C 41.894531 0.53125 53.964844 12.609375 53.964844 27.496094 L 53.109375 27.496094 L 53.972656 27.496094 M 52.25 27.496094 C 52.25 13.554688 40.941406 2.246094 26.996094 2.246094 C 13.054688 2.246094 1.75 13.554688 1.75 27.496094 C 1.75 41.441406 13.054688 52.75 26.996094 52.75 C 40.941406 52.75 52.25 41.449219 52.25 27.496094 Z M 52.25 27.496094 " clip-rule="nonzero"/></clipPath><clipPath id="32a30faa4a"><rect x="0" width="54" y="0" height="55"/></clipPath><clipPath id="192db0a66b"><path d="M 40.3125 42.65625 L 41.71875 42.65625 L 41.71875 53.671875 L 40.3125 53.671875 Z M 40.3125 42.65625 " clip-rule="nonzero"/></clipPath><clipPath id="33e08b399f"><path d="M 40.355469 52.496094 L 40.355469 42.734375 L 41.621094 42.734375 L 41.621094 53.515625 Z M 40.355469 52.496094 " clip-rule="nonzero"/></clipPath><clipPath id="d3da8e7a03"><path d="M 0.320312 0.71875 L 1.71875 0.71875 L 1.71875 11.519531 L 0.320312 11.519531 Z M 0.320312 0.71875 " clip-rule="nonzero"/></clipPath><clipPath id="66c5f6284e"><path d="M 0.355469 10.496094 L 0.355469 0.734375 L 1.621094 0.734375 L 1.621094 11.515625 Z M 0.355469 10.496094 " clip-rule="nonzero"/></clipPath><clipPath id="0129348de3"><rect x="0" width="2" y="0" height="12"/></clipPath><clipPath id="9e0d32453f"><path d="M 43.828125 42.65625 L 45.234375 42.65625 L 45.234375 55.546875 L 43.828125 55.546875 Z M 43.828125 42.65625 " clip-rule="nonzero"/></clipPath><clipPath id="b294e70e32"><path d="M 43.960938 55.4375 L 43.960938 42.734375 L 45.226562 42.734375 L 45.226562 55.398438 Z M 43.960938 55.4375 " clip-rule="nonzero"/></clipPath><clipPath id="1879c0a03c"><path d="M 0.921875 0.71875 L 2.234375 0.71875 L 2.234375 13.441406 L 0.921875 13.441406 Z M 0.921875 0.71875 " clip-rule="nonzero"/></clipPath><clipPath id="5f315c67a9"><path d="M 0.960938 13.4375 L 0.960938 0.734375 L 2.226562 0.734375 L 2.226562 13.398438 Z M 0.960938 13.4375 " clip-rule="nonzero"/></clipPath><clipPath id="2be7af4f82"><rect x="0" width="3" y="0" height="14"/></clipPath><clipPath id="fe6ada1b63"><path d="M 42.1875 42.65625 L 43.59375 42.65625 L 43.59375 55.078125 L 42.1875 55.078125 Z M 42.1875 42.65625 " clip-rule="nonzero"/></clipPath><clipPath id="417848053d"><path d="M 42.195312 53.988281 L 42.195312 42.734375 L 43.464844 42.734375 L 43.464844 55.035156 Z M 42.195312 53.988281 " clip-rule="nonzero"/></clipPath><clipPath id="1c040c63e0"><path d="M 0.1875 0.71875 L 1.59375 0.71875 L 1.59375 13.078125 L 0.1875 13.078125 Z M 0.1875 0.71875 " clip-rule="nonzero"/></clipPath><clipPath id="167bb5826f"><path d="M 0.195312 11.988281 L 0.195312 0.734375 L 1.464844 0.734375 L 1.464844 13.035156 Z M 0.195312 11.988281 " clip-rule="nonzero"/></clipPath><clipPath id="7ba82a1fba"><rect x="0" width="2" y="0" height="14"/></clipPath><clipPath id="ce7a830c8d"><path d="M 11.484375 19.21875 L 43.359375 19.21875 L 43.359375 55.78125 L 11.484375 55.78125 Z M 11.484375 19.21875 " clip-rule="nonzero"/></clipPath><clipPath id="ec9e393349"><path d="M 18.890625 37.460938 C 18.890625 45.765625 23.488281 52.277344 30.839844 52.277344 C 33.960938 52.277344 36.542969 50.585938 38.476562 48.640625 L 38.476562 42.734375 L 39.742188 42.734375 L 39.742188 52 C 38.882812 52.878906 35.742188 55.683594 30.605469 55.683594 C 24.507812 55.683594 11.660156 52.21875 11.660156 37.105469 L 11.660156 37.898438 C 11.660156 22.785156 24.507812 19.316406 30.605469 19.316406 C 36.699219 19.316406 39.984375 22.183594 39.984375 22.183594 L 42.492188 19.4375 L 43.148438 19.4375 L 43.148438 31.027344 L 42.546875 31.027344 C 42.546875 31.027344 38.183594 21.644531 30.835938 21.644531 C 23.484375 21.644531 18.890625 29.230469 18.890625 37.539062 Z M 18.890625 37.460938 " clip-rule="nonzero"/></clipPath><clipPath id="2bc97cc3cf"><path d="M 0.519531 0.21875 L 32.199219 0.21875 L 32.199219 36.78125 L 0.519531 36.78125 Z M 0.519531 0.21875 " clip-rule="nonzero"/></clipPath><clipPath id="f0f617c037"><path d="M 7.890625 18.460938 C 7.890625 26.765625 12.488281 33.277344 19.839844 33.277344 C 22.960938 33.277344 25.542969 31.585938 27.476562 29.640625 L 27.476562 23.734375 L 28.742188 23.734375 L 28.742188 33 C 27.882812 33.878906 24.742188 36.683594 19.605469 36.683594 C 13.507812 36.683594 0.660156 33.21875 0.660156 18.105469 L 0.660156 18.898438 C 0.660156 3.785156 13.507812 0.316406 19.605469 0.316406 C 25.699219 0.316406 28.984375 3.183594 28.984375 3.183594 L 31.492188 0.4375 L 32.148438 0.4375 L 32.148438 12.027344 L 31.546875 12.027344 C 31.546875 12.027344 27.183594 2.644531 19.835938 2.644531 C 12.484375 2.644531 7.890625 10.230469 7.890625 18.539062 Z M 7.890625 18.460938 " clip-rule="nonzero"/></clipPath><clipPath id="5e6ed207a6"><rect x="0" width="33" y="0" height="37"/></clipPath><clipPath id="ebd4488628"><path d="M 38.480469 41.304688 L 45.269531 41.304688 L 45.269531 42.230469 L 38.480469 42.230469 Z M 38.480469 41.304688 " clip-rule="nonzero"/></clipPath><clipPath id="c8b81516ce"><path d="M 0.480469 0.304688 L 7.269531 0.304688 L 7.269531 1.230469 L 0.480469 1.230469 Z M 0.480469 0.304688 " clip-rule="nonzero"/></clipPath><clipPath id="dd56667cb4"><rect x="0" width="8" y="0" height="2"/></clipPath><clipPath id="53d7a1789e"><path d="M 35.390625 38 L 48.515625 38 L 48.515625 39.140625 L 35.390625 39.140625 Z M 35.390625 38 " clip-rule="nonzero"/></clipPath><clipPath id="c83b9ae6d9"><path d="M 41.859375 39.019531 L 47.398438 39.019531 L 48.328125 38.042969 L 41.859375 38.042969 L 41.875 38.042969 L 35.398438 38.042969 L 36.332031 39.019531 L 41.875 39.019531 Z M 41.859375 39.019531 " clip-rule="nonzero"/></clipPath><clipPath id="7ca86bfc97"><path d="M 0.390625 0 L 13.480469 0 L 13.480469 1.121094 L 0.390625 1.121094 Z M 0.390625 0 " clip-rule="nonzero"/></clipPath><clipPath id="79e57b58d9"><path d="M 6.859375 1.019531 L 12.398438 1.019531 L 13.328125 0.0429688 L 6.859375 0.0429688 L 6.875 0.0429688 L 0.398438 0.0429688 L 1.332031 1.019531 L 6.875 1.019531 Z M 6.859375 1.019531 " clip-rule="nonzero"/></clipPath><clipPath id="e65cde2ec0"><rect x="0" width="14" y="0" height="2"/></clipPath><clipPath id="ebe8983613"><path d="M 36.796875 39.609375 L 46.875 39.609375 L 46.875 40.78125 L 36.796875 40.78125 Z M 36.796875 39.609375 " clip-rule="nonzero"/></clipPath><clipPath id="6e5fe9fd66"><path d="M 41.859375 40.648438 L 45.871094 40.648438 L 46.75 39.710938 L 41.859375 39.710938 L 41.875 39.710938 L 36.984375 39.710938 L 37.863281 40.648438 L 41.875 40.648438 " clip-rule="nonzero"/></clipPath><clipPath id="6f54aa739a"><path d="M 0.960938 0.609375 L 10.800781 0.609375 L 10.800781 1.78125 L 0.960938 1.78125 Z M 0.960938 0.609375 " clip-rule="nonzero"/></clipPath><clipPath id="85bbc7b6c6"><path d="M 5.859375 1.648438 L 9.871094 1.648438 L 10.75 0.710938 L 5.859375 0.710938 L 5.875 0.710938 L 0.984375 0.710938 L 1.863281 1.648438 L 5.875 1.648438 " clip-rule="nonzero"/></clipPath><clipPath id="b6d8a12b0d"><rect x="0" width="11" y="0" height="2"/></clipPath><clipPath id="a222107786"><rect x="0" width="309" y="0" height="35"/></clipPath><clipPath id="a0544f1432"><path d="M 143.28125 6.660156 L 149.40625 6.660156 L 149.40625 12.785156 L 143.28125 12.785156 Z M 143.28125 6.660156 " clip-rule="nonzero"/></clipPath><clipPath id="db7c7e5d43"><path d="M 0.359375 0.441406 L 287.878906 0.441406 L 287.878906 18.921875 L 0.359375 18.921875 Z M 0.359375 0.441406 " clip-rule="nonzero"/></clipPath><clipPath id="e97ae83409"><rect x="0" width="288" y="0" height="19"/></clipPath><clipPath id="2944c2be43"><rect x="0" width="288" y="0" height="19"/></clipPath></defs><rect x="-37.5" width="450" fill="#ffffff" y="-7.5" height="89.999996" fill-opacity="1"/><rect x="-37.5" width="450" fill="#001431" y="-7.5" height="89.999996" fill-opacity="1"/><g clip-path="url(#fe3ea5a146)"><g clip-path="url(#3663f1d31d)"><g transform="matrix(1, 0, 0, 1, 3, 11)"><g clip-path="url(#5335a9536e)"><g clip-path="url(#447d8819cb)"><g clip-path="url(#275f852379)"><rect x="-85.5" width="540" fill="#ffffff" height="107.999996" y="-27.499999" fill-opacity="1"/></g></g></g></g></g></g><g clip-path="url(#038eb002be)"><g clip-path="url(#2ad164c70a)"><g transform="matrix(1, 0, 0, 1, 3, 10)"><g clip-path="url(#32a30faa4a)"><g clip-path="url(#d8a2d47af4)"><g clip-path="url(#6348a76e72)"><rect x="-85.5" width="540" fill="#ab2d32" height="107.999996" y="-26.499999" fill-opacity="1"/></g></g></g></g></g></g><g clip-path="url(#192db0a66b)"><g clip-path="url(#33e08b399f)"><g transform="matrix(1, 0, 0, 1, 40, 42)"><g clip-path="url(#0129348de3)"><g clip-path="url(#d3da8e7a03)"><g clip-path="url(#66c5f6284e)"><rect x="-122.5" width="540" fill="#ab2d32" height="107.999996" y="-58.499999" fill-opacity="1"/></g></g></g></g></g></g><g clip-path="url(#9e0d32453f)"><g clip-path="url(#b294e70e32)"><g transform="matrix(1, 0, 0, 1, 43, 42)"><g clip-path="url(#2be7af4f82)"><g clip-path="url(#1879c0a03c)"><g clip-path="url(#5f315c67a9)"><rect x="-125.5" width="540" fill="#ab2d32" height="107.999996" y="-58.499999" fill-opacity="1"/></g></g></g></g></g></g><g clip-path="url(#fe6ada1b63)"><g clip-path="url(#417848053d)"><g transform="matrix(1, 0, 0, 1, 42, 42)"><g clip-path="url(#7ba82a1fba)"><g clip-path="url(#1c040c63e0)"><g clip-path="url(#167bb5826f)"><rect x="-124.5" width="540" fill="#ab2d32" height="107.999996" y="-58.499999" fill-opacity="1"/></g></g></g></g></g></g><g clip-path="url(#ce7a830c8d)"><g clip-path="url(#ec9e393349)"><g transform="matrix(1, 0, 0, 1, 11, 19)"><g clip-path="url(#5e6ed207a6)"><g clip-path="url(#2bc97cc3cf)"><g clip-path="url(#f0f617c037)"><rect x="-93.5" width="540" fill="#ab2d32" height="107.999996" y="-35.499999" fill-opacity="1"/></g></g></g></g></g></g><g clip-path="url(#ebd4488628)"><g transform="matrix(1, 0, 0, 1, 38, 41)"><g clip-path="url(#dd56667cb4)"><g clip-path="url(#c8b81516ce)"><rect x="-120.5" width="540" fill="#ab2d32" height="107.999996" y="-57.499999" fill-opacity="1"/></g></g></g></g><g clip-path="url(#53d7a1789e)"><g clip-path="url(#c83b9ae6d9)"><g transform="matrix(1, 0, 0, 1, 35, 38)"><g clip-path="url(#e65cde2ec0)"><g clip-path="url(#7ca86bfc97)"><g clip-path="url(#79e57b58d9)"><rect x="-117.5" width="540" fill="#ab2d32" height="107.999996" y="-54.499999" fill-opacity="1"/></g></g></g></g></g></g><g clip-path="url(#ebe8983613)"><g clip-path="url(#6e5fe9fd66)"><g transform="matrix(1, 0, 0, 1, 36, 39)"><g clip-path="url(#b6d8a12b0d)"><g clip-path="url(#6f54aa739a)"><g clip-path="url(#85bbc7b6c6)"><rect x="-118.5" width="540" fill="#ab2d32" height="107.999996" y="-55.499999" fill-opacity="1"/></g></g></g></g></g></g><g transform="matrix(1, 0, 0, 1, 59, 11)"><g clip-path="url(#a222107786)"><g fill="#ffffff" fill-opacity="1"><g transform="translate(0.999552, 26.951555)"><g><path d="M 7.390625 -18.765625 C 8.296875 -18.765625 9.015625 -18.675781 9.546875 -18.5 C 10.085938 -18.332031 10.632812 -18.082031 11.1875 -17.75 C 11.382812 -17.644531 11.554688 -17.554688 11.703125 -17.484375 C 11.847656 -17.421875 11.972656 -17.390625 12.078125 -17.390625 C 12.234375 -17.390625 12.351562 -17.476562 12.4375 -17.65625 C 12.53125 -17.84375 12.601562 -18.132812 12.65625 -18.53125 L 13.25 -18.53125 C 13.164062 -17.375 13.125 -15.394531 13.125 -12.59375 L 12.515625 -12.59375 C 12.453125 -13.53125 12.238281 -14.425781 11.875 -15.28125 C 11.519531 -16.132812 11.015625 -16.820312 10.359375 -17.34375 C 9.710938 -17.875 8.957031 -18.140625 8.09375 -18.140625 C 7.238281 -18.140625 6.546875 -17.898438 6.015625 -17.421875 C 5.492188 -16.953125 5.234375 -16.304688 5.234375 -15.484375 C 5.234375 -14.878906 5.363281 -14.347656 5.625 -13.890625 C 5.882812 -13.441406 6.25 -13.03125 6.71875 -12.65625 C 7.1875 -12.289062 7.90625 -11.785156 8.875 -11.140625 L 9.703125 -10.5625 C 10.734375 -9.882812 11.539062 -9.296875 12.125 -8.796875 C 12.71875 -8.296875 13.203125 -7.710938 13.578125 -7.046875 C 13.953125 -6.378906 14.140625 -5.601562 14.140625 -4.71875 C 14.140625 -3.601562 13.851562 -2.664062 13.28125 -1.90625 C 12.707031 -1.15625 11.925781 -0.585938 10.9375 -0.203125 C 9.957031 0.171875 8.867188 0.359375 7.671875 0.359375 C 6.703125 0.359375 5.894531 0.269531 5.25 0.09375 C 4.613281 -0.0703125 4.023438 -0.300781 3.484375 -0.59375 C 3.109375 -0.84375 2.816406 -0.96875 2.609375 -0.96875 C 2.453125 -0.96875 2.328125 -0.875 2.234375 -0.6875 C 2.148438 -0.507812 2.082031 -0.21875 2.03125 0.1875 L 1.4375 0.1875 C 1.5 -0.90625 1.53125 -3.25 1.53125 -6.84375 L 2.140625 -6.84375 C 2.253906 -4.90625 2.6875 -3.332031 3.4375 -2.125 C 4.1875 -0.914062 5.332031 -0.3125 6.875 -0.3125 C 7.8125 -0.3125 8.582031 -0.5625 9.1875 -1.0625 C 9.789062 -1.570312 10.09375 -2.296875 10.09375 -3.234375 C 10.09375 -4.203125 9.78125 -5.03125 9.15625 -5.71875 C 8.53125 -6.414062 7.546875 -7.195312 6.203125 -8.0625 C 5.160156 -8.738281 4.328125 -9.328125 3.703125 -9.828125 C 3.078125 -10.335938 2.5625 -10.9375 2.15625 -11.625 C 1.757812 -12.3125 1.5625 -13.101562 1.5625 -14 C 1.5625 -15.039062 1.828125 -15.921875 2.359375 -16.640625 C 2.890625 -17.367188 3.597656 -17.90625 4.484375 -18.25 C 5.367188 -18.59375 6.335938 -18.765625 7.390625 -18.765625 Z M 7.390625 -18.765625 "/></g></g></g><g fill="#ffffff" fill-opacity="1"><g transform="translate(16.192648, 26.951555)"><g><path d="M 16.71875 -18.4375 C 16.59375 -16.78125 16.53125 -15.300781 16.53125 -14 C 16.53125 -13.1875 16.554688 -12.53125 16.609375 -12.03125 L 16.015625 -12.03125 C 15.597656 -14.164062 15.023438 -15.664062 14.296875 -16.53125 C 13.578125 -17.394531 12.59375 -17.828125 11.34375 -17.828125 L 10.75 -17.828125 L 10.75 -2.96875 C 10.75 -2.238281 10.820312 -1.707031 10.96875 -1.375 C 11.113281 -1.050781 11.375 -0.832031 11.75 -0.71875 C 12.125 -0.601562 12.71875 -0.535156 13.53125 -0.515625 L 13.53125 0 C 11.34375 -0.0507812 9.695312 -0.078125 8.59375 -0.078125 C 7.5 -0.078125 5.910156 -0.0507812 3.828125 0 L 3.828125 -0.515625 C 4.640625 -0.535156 5.234375 -0.601562 5.609375 -0.71875 C 5.984375 -0.832031 6.242188 -1.050781 6.390625 -1.375 C 6.535156 -1.707031 6.609375 -2.238281 6.609375 -2.96875 L 6.609375 -17.828125 L 6.046875 -17.828125 C 5.210938 -17.828125 4.503906 -17.644531 3.921875 -17.28125 C 3.335938 -16.914062 2.835938 -16.3125 2.421875 -15.46875 C 2.003906 -14.632812 1.648438 -13.488281 1.359375 -12.03125 L 0.75 -12.03125 C 0.800781 -12.53125 0.828125 -13.1875 0.828125 -14 C 0.828125 -15.300781 0.769531 -16.78125 0.65625 -18.4375 C 2.226562 -18.382812 4.90625 -18.359375 8.6875 -18.359375 C 12.476562 -18.359375 15.15625 -18.382812 16.71875 -18.4375 Z M 16.71875 -18.4375 "/></g></g></g><g fill="#ffffff" fill-opacity="1"><g transform="translate(33.571045, 26.951555)"><g><path d="M 17.46875 -17.90625 C 16.894531 -17.820312 16.472656 -17.675781 16.203125 -17.46875 C 15.929688 -17.257812 15.75 -16.925781 15.65625 -16.46875 C 15.5625 -16.019531 15.515625 -15.351562 15.515625 -14.46875 L 15.515625 -7.578125 C 15.515625 -5.097656 15.160156 -3.257812 14.453125 -2.0625 C 13.984375 -1.289062 13.304688 -0.691406 12.421875 -0.265625 C 11.535156 0.148438 10.445312 0.359375 9.15625 0.359375 C 7.144531 0.359375 5.585938 -0.0703125 4.484375 -0.9375 C 3.679688 -1.582031 3.140625 -2.394531 2.859375 -3.375 C 2.585938 -4.351562 2.453125 -5.726562 2.453125 -7.5 L 2.453125 -15.671875 C 2.453125 -16.328125 2.398438 -16.800781 2.296875 -17.09375 C 2.203125 -17.394531 2.019531 -17.597656 1.75 -17.703125 C 1.488281 -17.804688 1.070312 -17.875 0.5 -17.90625 L 0.5 -18.4375 C 1.382812 -18.382812 2.738281 -18.359375 4.5625 -18.359375 C 6.363281 -18.359375 7.738281 -18.382812 8.6875 -18.4375 L 8.6875 -17.90625 C 8.0625 -17.875 7.601562 -17.804688 7.3125 -17.703125 C 7.03125 -17.597656 6.835938 -17.394531 6.734375 -17.09375 C 6.628906 -16.800781 6.578125 -16.328125 6.578125 -15.671875 L 6.578125 -5.859375 C 6.578125 -4.035156 6.84375 -2.691406 7.375 -1.828125 C 7.90625 -0.972656 8.835938 -0.546875 10.171875 -0.546875 C 11.910156 -0.546875 13.132812 -1.128906 13.84375 -2.296875 C 14.5625 -3.472656 14.921875 -5.132812 14.921875 -7.28125 L 14.921875 -14.15625 C 14.921875 -15.164062 14.859375 -15.910156 14.734375 -16.390625 C 14.609375 -16.878906 14.375 -17.234375 14.03125 -17.453125 C 13.6875 -17.671875 13.140625 -17.820312 12.390625 -17.90625 L 12.390625 -18.4375 C 13.046875 -18.382812 13.984375 -18.359375 15.203125 -18.359375 C 16.171875 -18.359375 16.925781 -18.382812 17.46875 -18.4375 Z M 17.46875 -17.90625 "/></g></g></g><g fill="#ffffff" fill-opacity="1"><g transform="translate(51.495764, 26.951555)"><g><path d="M 8.921875 -18.4375 C 12.304688 -18.4375 14.84375 -17.664062 16.53125 -16.125 C 18.21875 -14.59375 19.0625 -12.359375 19.0625 -9.421875 C 19.0625 -7.523438 18.644531 -5.867188 17.8125 -4.453125 C 16.988281 -3.046875 15.800781 -1.953125 14.25 -1.171875 C 12.695312 -0.390625 10.84375 0 8.6875 0 L 7.078125 -0.03125 C 6.078125 -0.0625 5.347656 -0.078125 4.890625 -0.078125 C 3.109375 -0.078125 1.773438 -0.0507812 0.890625 0 L 0.890625 -0.515625 C 1.460938 -0.554688 1.878906 -0.628906 2.140625 -0.734375 C 2.410156 -0.835938 2.59375 -1.035156 2.6875 -1.328125 C 2.789062 -1.617188 2.84375 -2.097656 2.84375 -2.765625 L 2.84375 -15.671875 C 2.84375 -16.328125 2.789062 -16.800781 2.6875 -17.09375 C 2.59375 -17.394531 2.410156 -17.597656 2.140625 -17.703125 C 1.878906 -17.804688 1.460938 -17.875 0.890625 -17.90625 L 0.890625 -18.4375 C 1.617188 -18.382812 2.664062 -18.359375 4.03125 -18.359375 L 4.84375 -18.359375 L 5.890625 -18.375 C 7.304688 -18.414062 8.316406 -18.4375 8.921875 -18.4375 Z M 8.90625 -17.96875 C 8.363281 -17.96875 7.957031 -17.90625 7.6875 -17.78125 C 7.414062 -17.65625 7.226562 -17.4375 7.125 -17.125 C 7.019531 -16.8125 6.96875 -16.34375 6.96875 -15.71875 L 6.96875 -2.703125 C 6.96875 -2.078125 7.019531 -1.609375 7.125 -1.296875 C 7.226562 -0.984375 7.414062 -0.765625 7.6875 -0.640625 C 7.957031 -0.523438 8.367188 -0.46875 8.921875 -0.46875 C 11.023438 -0.46875 12.519531 -1.203125 13.40625 -2.671875 C 14.289062 -4.140625 14.734375 -6.351562 14.734375 -9.3125 C 14.734375 -12.28125 14.273438 -14.460938 13.359375 -15.859375 C 12.453125 -17.265625 10.96875 -17.96875 8.90625 -17.96875 Z M 8.90625 -17.96875 "/></g></g></g><g fill="#ffffff" fill-opacity="1"><g transform="translate(71.449563, 26.951555)"><g><path d="M 8.921875 -17.90625 C 8.335938 -17.875 7.914062 -17.804688 7.65625 -17.703125 C 7.394531 -17.597656 7.210938 -17.394531 7.109375 -17.09375 C 7.015625 -16.800781 6.96875 -16.328125 6.96875 -15.671875 L 6.96875 -2.765625 C 6.96875 -2.097656 7.015625 -1.617188 7.109375 -1.328125 C 7.210938 -1.035156 7.394531 -0.835938 7.65625 -0.734375 C 7.914062 -0.628906 8.335938 -0.554688 8.921875 -0.515625 L 8.921875 0 C 7.984375 -0.0507812 6.675781 -0.078125 5 -0.078125 C 3.144531 -0.078125 1.773438 -0.0507812 0.890625 0 L 0.890625 -0.515625 C 1.460938 -0.554688 1.878906 -0.628906 2.140625 -0.734375 C 2.410156 -0.835938 2.59375 -1.035156 2.6875 -1.328125 C 2.789062 -1.617188 2.84375 -2.097656 2.84375 -2.765625 L 2.84375 -15.671875 C 2.84375 -16.328125 2.789062 -16.800781 2.6875 -17.09375 C 2.59375 -17.394531 2.410156 -17.597656 2.140625 -17.703125 C 1.878906 -17.804688 1.460938 -17.875 0.890625 -17.90625 L 0.890625 -18.4375 C 1.773438 -18.382812 3.144531 -18.359375 5 -18.359375 C 6.675781 -18.359375 7.984375 -18.382812 8.921875 -18.4375 Z M 8.921875 -17.90625 "/></g></g></g><g fill="#ffffff" fill-opacity="1"><g transform="translate(81.023159, 26.951555)"><g><path d="M 10.328125 -18.796875 C 12.171875 -18.796875 13.78125 -18.421875 15.15625 -17.671875 C 16.539062 -16.929688 17.613281 -15.851562 18.375 -14.4375 C 19.144531 -13.019531 19.53125 -11.332031 19.53125 -9.375 C 19.53125 -7.46875 19.140625 -5.773438 18.359375 -4.296875 C 17.578125 -2.816406 16.484375 -1.671875 15.078125 -0.859375 C 13.679688 -0.046875 12.09375 0.359375 10.3125 0.359375 C 8.46875 0.359375 6.851562 -0.0078125 5.46875 -0.75 C 4.09375 -1.5 3.023438 -2.582031 2.265625 -4 C 1.503906 -5.414062 1.125 -7.101562 1.125 -9.0625 C 1.125 -10.96875 1.515625 -12.65625 2.296875 -14.125 C 3.078125 -15.601562 4.164062 -16.75 5.5625 -17.5625 C 6.957031 -18.382812 8.546875 -18.796875 10.328125 -18.796875 Z M 10.234375 -18.328125 C 9.273438 -18.328125 8.429688 -17.941406 7.703125 -17.171875 C 6.972656 -16.398438 6.410156 -15.316406 6.015625 -13.921875 C 5.628906 -12.535156 5.4375 -10.945312 5.4375 -9.15625 C 5.4375 -7.351562 5.65625 -5.765625 6.09375 -4.390625 C 6.539062 -3.023438 7.140625 -1.96875 7.890625 -1.21875 C 8.648438 -0.476562 9.488281 -0.109375 10.40625 -0.109375 C 11.363281 -0.109375 12.207031 -0.492188 12.9375 -1.265625 C 13.664062 -2.035156 14.222656 -3.113281 14.609375 -4.5 C 15.003906 -5.882812 15.203125 -7.472656 15.203125 -9.265625 C 15.203125 -11.066406 14.976562 -12.65625 14.53125 -14.03125 C 14.09375 -15.40625 13.492188 -16.460938 12.734375 -17.203125 C 11.984375 -17.953125 11.148438 -18.328125 10.234375 -18.328125 Z M 10.234375 -18.328125 "/></g></g></g><g fill="#ffffff" fill-opacity="1"><g transform="translate(101.653501, 26.951555)"><g/></g></g><g fill="#ffffff" fill-opacity="1"><g transform="translate(107.715133, 26.951555)"><g><path d="M 9.078125 -17.90625 C 8.453125 -17.875 7.992188 -17.804688 7.703125 -17.703125 C 7.421875 -17.597656 7.226562 -17.394531 7.125 -17.09375 C 7.019531 -16.800781 6.96875 -16.328125 6.96875 -15.671875 L 6.96875 -2.453125 C 6.96875 -1.890625 7.007812 -1.484375 7.09375 -1.234375 C 7.1875 -0.984375 7.34375 -0.8125 7.5625 -0.71875 C 7.78125 -0.632812 8.128906 -0.59375 8.609375 -0.59375 L 9.890625 -0.59375 C 11.066406 -0.59375 12.082031 -1.125 12.9375 -2.1875 C 13.800781 -3.25 14.363281 -4.65625 14.625 -6.40625 L 15.234375 -6.40625 C 15.179688 -5.8125 15.15625 -5.046875 15.15625 -4.109375 C 15.15625 -2.441406 15.210938 -1.070312 15.328125 0 C 14.148438 -0.0507812 12.164062 -0.078125 9.375 -0.078125 C 5.59375 -0.078125 2.765625 -0.0507812 0.890625 0 L 0.890625 -0.515625 C 1.460938 -0.554688 1.878906 -0.628906 2.140625 -0.734375 C 2.410156 -0.835938 2.59375 -1.035156 2.6875 -1.328125 C 2.789062 -1.617188 2.84375 -2.097656 2.84375 -2.765625 L 2.84375 -15.671875 C 2.84375 -16.328125 2.789062 -16.800781 2.6875 -17.09375 C 2.59375 -17.394531 2.410156 -17.597656 2.140625 -17.703125 C 1.878906 -17.804688 1.460938 -17.875 0.890625 -17.90625 L 0.890625 -18.4375 C 1.773438 -18.382812 3.144531 -18.359375 5 -18.359375 C 6.769531 -18.359375 8.128906 -18.382812 9.078125 -18.4375 Z M 9.078125 -17.90625 "/></g></g></g><g fill="#ffffff" fill-opacity="1"><g transform="translate(123.610646, 26.951555)"><g><path d="M 15.15625 -3.953125 C 15.15625 -2.359375 15.210938 -1.039062 15.328125 0 C 14.148438 -0.0507812 12.164062 -0.078125 9.375 -0.078125 C 5.59375 -0.078125 2.765625 -0.0507812 0.890625 0 L 0.890625 -0.515625 C 1.460938 -0.554688 1.878906 -0.628906 2.140625 -0.734375 C 2.410156 -0.835938 2.59375 -1.035156 2.6875 -1.328125 C 2.789062 -1.617188 2.84375 -2.097656 2.84375 -2.765625 L 2.84375 -15.671875 C 2.84375 -16.328125 2.789062 -16.800781 2.6875 -17.09375 C 2.59375 -17.394531 2.410156 -17.597656 2.140625 -17.703125 C 1.878906 -17.804688 1.460938 -17.875 0.890625 -17.90625 L 0.890625 -18.4375 C 2.765625 -18.382812 5.59375 -18.359375 9.375 -18.359375 C 11.925781 -18.359375 13.738281 -18.382812 14.8125 -18.4375 C 14.6875 -16.988281 14.625 -15.703125 14.625 -14.578125 C 14.625 -13.816406 14.648438 -13.226562 14.703125 -12.8125 L 14.109375 -12.8125 C 13.847656 -14.664062 13.378906 -15.960938 12.703125 -16.703125 C 12.023438 -17.453125 11.070312 -17.828125 9.84375 -17.828125 L 8.765625 -17.828125 C 8.234375 -17.828125 7.84375 -17.785156 7.59375 -17.703125 C 7.351562 -17.617188 7.1875 -17.445312 7.09375 -17.1875 C 7.007812 -16.9375 6.96875 -16.535156 6.96875 -15.984375 L 6.96875 -9.53125 L 7.8125 -9.53125 C 8.726562 -9.53125 9.425781 -9.867188 9.90625 -10.546875 C 10.382812 -11.222656 10.71875 -12.03125 10.90625 -12.96875 L 11.5 -12.96875 C 11.445312 -12.238281 11.421875 -11.421875 11.421875 -10.515625 L 11.421875 -9.265625 C 11.421875 -8.378906 11.472656 -7.148438 11.578125 -5.578125 L 10.984375 -5.578125 C 10.617188 -7.859375 9.5625 -9 7.8125 -9 L 6.96875 -9 L 6.96875 -2.453125 C 6.96875 -1.890625 7.007812 -1.484375 7.09375 -1.234375 C 7.1875 -0.984375 7.351562 -0.8125 7.59375 -0.71875 C 7.84375 -0.632812 8.234375 -0.59375 8.765625 -0.59375 L 10.046875 -0.59375 C 11.273438 -0.59375 12.265625 -1.015625 13.015625 -1.859375 C 13.773438 -2.703125 14.3125 -4.128906 14.625 -6.140625 L 15.234375 -6.140625 C 15.179688 -5.566406 15.15625 -4.835938 15.15625 -3.953125 Z M 15.15625 -3.953125 "/></g></g></g><g fill="#ffffff" fill-opacity="1"><g transform="translate(140.104513, 26.951555)"><g><path d="M 10.546875 -18.796875 C 11.617188 -18.796875 12.523438 -18.644531 13.265625 -18.34375 C 14.003906 -18.050781 14.726562 -17.640625 15.4375 -17.109375 C 15.644531 -16.953125 15.816406 -16.875 15.953125 -16.875 C 16.128906 -16.875 16.269531 -17 16.375 -17.25 C 16.476562 -17.5 16.554688 -17.894531 16.609375 -18.4375 L 17.203125 -18.4375 C 17.140625 -17.25 17.109375 -15.144531 17.109375 -12.125 L 16.5 -12.125 C 16.363281 -13.3125 16.160156 -14.269531 15.890625 -15 C 15.617188 -15.726562 15.171875 -16.34375 14.546875 -16.84375 C 14.128906 -17.238281 13.617188 -17.550781 13.015625 -17.78125 C 12.410156 -18.007812 11.785156 -18.125 11.140625 -18.125 C 9.921875 -18.125 8.90625 -17.707031 8.09375 -16.875 C 7.289062 -16.050781 6.695312 -14.960938 6.3125 -13.609375 C 5.9375 -12.253906 5.75 -10.769531 5.75 -9.15625 C 5.75 -3.15625 7.414062 -0.15625 10.75 -0.15625 C 11.507812 -0.15625 12.125 -0.328125 12.59375 -0.671875 C 12.820312 -0.828125 12.984375 -1.007812 13.078125 -1.21875 C 13.171875 -1.425781 13.21875 -1.695312 13.21875 -2.03125 L 13.21875 -4.578125 C 13.21875 -5.398438 13.148438 -5.992188 13.015625 -6.359375 C 12.878906 -6.734375 12.628906 -6.988281 12.265625 -7.125 C 11.910156 -7.269531 11.351562 -7.359375 10.59375 -7.390625 L 10.59375 -7.90625 C 11.664062 -7.851562 13.148438 -7.828125 15.046875 -7.828125 C 16.585938 -7.828125 17.75 -7.851562 18.53125 -7.90625 L 18.53125 -7.390625 C 18.1875 -7.359375 17.9375 -7.289062 17.78125 -7.1875 C 17.625 -7.082031 17.515625 -6.878906 17.453125 -6.578125 C 17.390625 -6.285156 17.359375 -5.8125 17.359375 -5.15625 L 17.359375 0 L 16.84375 0 C 16.820312 -0.363281 16.742188 -0.703125 16.609375 -1.015625 C 16.484375 -1.328125 16.3125 -1.484375 16.09375 -1.484375 C 15.789062 -1.484375 15.320312 -1.300781 14.6875 -0.9375 C 13.175781 -0.0703125 11.75 0.359375 10.40625 0.359375 C 7.40625 0.359375 5.109375 -0.457031 3.515625 -2.09375 C 1.921875 -3.738281 1.125 -6.039062 1.125 -9 C 1.125 -10.945312 1.523438 -12.65625 2.328125 -14.125 C 3.140625 -15.601562 4.253906 -16.75 5.671875 -17.5625 C 7.097656 -18.382812 8.722656 -18.796875 10.546875 -18.796875 Z M 10.546875 -18.796875 "/></g></g></g><g fill="#ffffff" fill-opacity="1"><g transform="translate(159.043734, 26.951555)"><g><path d="M 15.90625 -2.1875 C 16.132812 -1.613281 16.394531 -1.195312 16.6875 -0.9375 C 16.976562 -0.675781 17.265625 -0.535156 17.546875 -0.515625 L 17.546875 0 C 16.503906 -0.0507812 15.1875 -0.078125 13.59375 -0.078125 C 11.820312 -0.078125 10.5 -0.0507812 9.625 0 L 9.625 -0.515625 C 10.289062 -0.554688 10.757812 -0.640625 11.03125 -0.765625 C 11.3125 -0.898438 11.453125 -1.128906 11.453125 -1.453125 C 11.453125 -1.765625 11.347656 -2.179688 11.140625 -2.703125 L 9.578125 -6.96875 L 3.90625 -6.96875 L 3.234375 -5.1875 C 2.742188 -3.9375 2.5 -2.972656 2.5 -2.296875 C 2.5 -1.648438 2.691406 -1.203125 3.078125 -0.953125 C 3.472656 -0.703125 4.050781 -0.554688 4.8125 -0.515625 L 4.8125 0 C 3.632812 -0.0507812 2.5625 -0.078125 1.59375 -0.078125 C 0.789062 -0.078125 0.128906 -0.0507812 -0.390625 0 L -0.390625 -0.515625 C 0.460938 -0.671875 1.207031 -1.582031 1.84375 -3.25 L 7.78125 -18.484375 C 7.96875 -18.460938 8.269531 -18.453125 8.6875 -18.453125 C 9.101562 -18.453125 9.398438 -18.460938 9.578125 -18.484375 Z M 9.390625 -7.5 L 6.8125 -14.53125 L 4.109375 -7.5 Z M 9.390625 -7.5 "/></g></g></g><g fill="#ffffff" fill-opacity="1"><g transform="translate(175.875496, 26.951555)"><g><path d="M 9.078125 -17.90625 C 8.453125 -17.875 7.992188 -17.804688 7.703125 -17.703125 C 7.421875 -17.597656 7.226562 -17.394531 7.125 -17.09375 C 7.019531 -16.800781 6.96875 -16.328125 6.96875 -15.671875 L 6.96875 -2.453125 C 6.96875 -1.890625 7.007812 -1.484375 7.09375 -1.234375 C 7.1875 -0.984375 7.34375 -0.8125 7.5625 -0.71875 C 7.78125 -0.632812 8.128906 -0.59375 8.609375 -0.59375 L 9.890625 -0.59375 C 11.066406 -0.59375 12.082031 -1.125 12.9375 -2.1875 C 13.800781 -3.25 14.363281 -4.65625 14.625 -6.40625 L 15.234375 -6.40625 C 15.179688 -5.8125 15.15625 -5.046875 15.15625 -4.109375 C 15.15625 -2.441406 15.210938 -1.070312 15.328125 0 C 14.148438 -0.0507812 12.164062 -0.078125 9.375 -0.078125 C 5.59375 -0.078125 2.765625 -0.0507812 0.890625 0 L 0.890625 -0.515625 C 1.460938 -0.554688 1.878906 -0.628906 2.140625 -0.734375 C 2.410156 -0.835938 2.59375 -1.035156 2.6875 -1.328125 C 2.789062 -1.617188 2.84375 -2.097656 2.84375 -2.765625 L 2.84375 -15.671875 C 2.84375 -16.328125 2.789062 -16.800781 2.6875 -17.09375 C 2.59375 -17.394531 2.410156 -17.597656 2.140625 -17.703125 C 1.878906 -17.804688 1.460938 -17.875 0.890625 -17.90625 L 0.890625 -18.4375 C 1.773438 -18.382812 3.144531 -18.359375 5 -18.359375 C 6.769531 -18.359375 8.128906 -18.382812 9.078125 -18.4375 Z M 9.078125 -17.90625 "/></g></g></g><g fill="#ffffff" fill-opacity="1"><g transform="translate(191.77101, 26.951555)"><g><path d="M 15.15625 -3.953125 C 15.15625 -2.359375 15.210938 -1.039062 15.328125 0 C 14.148438 -0.0507812 12.164062 -0.078125 9.375 -0.078125 C 5.59375 -0.078125 2.765625 -0.0507812 0.890625 0 L 0.890625 -0.515625 C 1.460938 -0.554688 1.878906 -0.628906 2.140625 -0.734375 C 2.410156 -0.835938 2.59375 -1.035156 2.6875 -1.328125 C 2.789062 -1.617188 2.84375 -2.097656 2.84375 -2.765625 L 2.84375 -15.671875 C 2.84375 -16.328125 2.789062 -16.800781 2.6875 -17.09375 C 2.59375 -17.394531 2.410156 -17.597656 2.140625 -17.703125 C 1.878906 -17.804688 1.460938 -17.875 0.890625 -17.90625 L 0.890625 -18.4375 C 2.765625 -18.382812 5.59375 -18.359375 9.375 -18.359375 C 11.925781 -18.359375 13.738281 -18.382812 14.8125 -18.4375 C 14.6875 -16.988281 14.625 -15.703125 14.625 -14.578125 C 14.625 -13.816406 14.648438 -13.226562 14.703125 -12.8125 L 14.109375 -12.8125 C 13.847656 -14.664062 13.378906 -15.960938 12.703125 -16.703125 C 12.023438 -17.453125 11.070312 -17.828125 9.84375 -17.828125 L 8.765625 -17.828125 C 8.234375 -17.828125 7.84375 -17.785156 7.59375 -17.703125 C 7.351562 -17.617188 7.1875 -17.445312 7.09375 -17.1875 C 7.007812 -16.9375 6.96875 -16.535156 6.96875 -15.984375 L 6.96875 -9.53125 L 7.8125 -9.53125 C 8.726562 -9.53125 9.425781 -9.867188 9.90625 -10.546875 C 10.382812 -11.222656 10.71875 -12.03125 10.90625 -12.96875 L 11.5 -12.96875 C 11.445312 -12.238281 11.421875 -11.421875 11.421875 -10.515625 L 11.421875 -9.265625 C 11.421875 -8.378906 11.472656 -7.148438 11.578125 -5.578125 L 10.984375 -5.578125 C 10.617188 -7.859375 9.5625 -9 7.8125 -9 L 6.96875 -9 L 6.96875 -2.453125 C 6.96875 -1.890625 7.007812 -1.484375 7.09375 -1.234375 C 7.1875 -0.984375 7.351562 -0.8125 7.59375 -0.71875 C 7.84375 -0.632812 8.234375 -0.59375 8.765625 -0.59375 L 10.046875 -0.59375 C 11.273438 -0.59375 12.265625 -1.015625 13.015625 -1.859375 C 13.773438 -2.703125 14.3125 -4.128906 14.625 -6.140625 L 15.234375 -6.140625 C 15.179688 -5.566406 15.15625 -4.835938 15.15625 -3.953125 Z M 15.15625 -3.953125 "/></g></g></g><g fill="#ffffff" fill-opacity="1"><g transform="translate(208.264877, 26.951555)"><g/></g></g><g fill="#ffffff" fill-opacity="1"><g transform="translate(214.326509, 26.951555)"><g><path d="M 10.546875 -18.796875 C 11.617188 -18.796875 12.523438 -18.644531 13.265625 -18.34375 C 14.003906 -18.050781 14.726562 -17.640625 15.4375 -17.109375 C 15.644531 -16.953125 15.816406 -16.875 15.953125 -16.875 C 16.128906 -16.875 16.269531 -17 16.375 -17.25 C 16.476562 -17.5 16.554688 -17.894531 16.609375 -18.4375 L 17.203125 -18.4375 C 17.140625 -17.25 17.109375 -15.144531 17.109375 -12.125 L 16.5 -12.125 C 16.363281 -13.3125 16.160156 -14.269531 15.890625 -15 C 15.617188 -15.726562 15.171875 -16.34375 14.546875 -16.84375 C 14.128906 -17.238281 13.617188 -17.550781 13.015625 -17.78125 C 12.410156 -18.007812 11.785156 -18.125 11.140625 -18.125 C 9.921875 -18.125 8.90625 -17.707031 8.09375 -16.875 C 7.289062 -16.050781 6.695312 -14.960938 6.3125 -13.609375 C 5.9375 -12.253906 5.75 -10.769531 5.75 -9.15625 C 5.75 -3.15625 7.414062 -0.15625 10.75 -0.15625 C 11.507812 -0.15625 12.125 -0.328125 12.59375 -0.671875 C 12.820312 -0.828125 12.984375 -1.007812 13.078125 -1.21875 C 13.171875 -1.425781 13.21875 -1.695312 13.21875 -2.03125 L 13.21875 -4.578125 C 13.21875 -5.398438 13.148438 -5.992188 13.015625 -6.359375 C 12.878906 -6.734375 12.628906 -6.988281 12.265625 -7.125 C 11.910156 -7.269531 11.351562 -7.359375 10.59375 -7.390625 L 10.59375 -7.90625 C 11.664062 -7.851562 13.148438 -7.828125 15.046875 -7.828125 C 16.585938 -7.828125 17.75 -7.851562 18.53125 -7.90625 L 18.53125 -7.390625 C 18.1875 -7.359375 17.9375 -7.289062 17.78125 -7.1875 C 17.625 -7.082031 17.515625 -6.878906 17.453125 -6.578125 C 17.390625 -6.285156 17.359375 -5.8125 17.359375 -5.15625 L 17.359375 0 L 16.84375 0 C 16.820312 -0.363281 16.742188 -0.703125 16.609375 -1.015625 C 16.484375 -1.328125 16.3125 -1.484375 16.09375 -1.484375 C 15.789062 -1.484375 15.320312 -1.300781 14.6875 -0.9375 C 13.175781 -0.0703125 11.75 0.359375 10.40625 0.359375 C 7.40625 0.359375 5.109375 -0.457031 3.515625 -2.09375 C 1.921875 -3.738281 1.125 -6.039062 1.125 -9 C 1.125 -10.945312 1.523438 -12.65625 2.328125 -14.125 C 3.140625 -15.601562 4.253906 -16.75 5.671875 -17.5625 C 7.097656 -18.382812 8.722656 -18.796875 10.546875 -18.796875 Z M 10.546875 -18.796875 "/></g></g></g><g fill="#ffffff" fill-opacity="1"><g transform="translate(233.44795, 26.951555)"><g><path d="M 10.328125 -18.796875 C 12.171875 -18.796875 13.78125 -18.421875 15.15625 -17.671875 C 16.539062 -16.929688 17.613281 -15.851562 18.375 -14.4375 C 19.144531 -13.019531 19.53125 -11.332031 19.53125 -9.375 C 19.53125 -7.46875 19.140625 -5.773438 18.359375 -4.296875 C 17.578125 -2.816406 16.484375 -1.671875 15.078125 -0.859375 C 13.679688 -0.046875 12.09375 0.359375 10.3125 0.359375 C 8.46875 0.359375 6.851562 -0.0078125 5.46875 -0.75 C 4.09375 -1.5 3.023438 -2.582031 2.265625 -4 C 1.503906 -5.414062 1.125 -7.101562 1.125 -9.0625 C 1.125 -10.96875 1.515625 -12.65625 2.296875 -14.125 C 3.078125 -15.601562 4.164062 -16.75 5.5625 -17.5625 C 6.957031 -18.382812 8.546875 -18.796875 10.328125 -18.796875 Z M 10.234375 -18.328125 C 9.273438 -18.328125 8.429688 -17.941406 7.703125 -17.171875 C 6.972656 -16.398438 6.410156 -15.316406 6.015625 -13.921875 C 5.628906 -12.535156 5.4375 -10.945312 5.4375 -9.15625 C 5.4375 -7.351562 5.65625 -5.765625 6.09375 -4.390625 C 6.539062 -3.023438 7.140625 -1.96875 7.890625 -1.21875 C 8.648438 -0.476562 9.488281 -0.109375 10.40625 -0.109375 C 11.363281 -0.109375 12.207031 -0.492188 12.9375 -1.265625 C 13.664062 -2.035156 14.222656 -3.113281 14.609375 -4.5 C 15.003906 -5.882812 15.203125 -7.472656 15.203125 -9.265625 C 15.203125 -11.066406 14.976562 -12.65625 14.53125 -14.03125 C 14.09375 -15.40625 13.492188 -16.460938 12.734375 -17.203125 C 11.984375 -17.953125 11.148438 -18.328125 10.234375 -18.328125 Z M 10.234375 -18.328125 "/></g></g></g><g fill="#ffffff" fill-opacity="1"><g transform="translate(253.870039, 26.951555)"><g><path d="M 9.078125 -17.90625 C 8.453125 -17.875 7.992188 -17.804688 7.703125 -17.703125 C 7.421875 -17.597656 7.226562 -17.394531 7.125 -17.09375 C 7.019531 -16.800781 6.96875 -16.328125 6.96875 -15.671875 L 6.96875 -2.453125 C 6.96875 -1.890625 7.007812 -1.484375 7.09375 -1.234375 C 7.1875 -0.984375 7.34375 -0.8125 7.5625 -0.71875 C 7.78125 -0.632812 8.128906 -0.59375 8.609375 -0.59375 L 9.890625 -0.59375 C 11.066406 -0.59375 12.082031 -1.125 12.9375 -2.1875 C 13.800781 -3.25 14.363281 -4.65625 14.625 -6.40625 L 15.234375 -6.40625 C 15.179688 -5.8125 15.15625 -5.046875 15.15625 -4.109375 C 15.15625 -2.441406 15.210938 -1.070312 15.328125 0 C 14.148438 -0.0507812 12.164062 -0.078125 9.375 -0.078125 C 5.59375 -0.078125 2.765625 -0.0507812 0.890625 0 L 0.890625 -0.515625 C 1.460938 -0.554688 1.878906 -0.628906 2.140625 -0.734375 C 2.410156 -0.835938 2.59375 -1.035156 2.6875 -1.328125 C 2.789062 -1.617188 2.84375 -2.097656 2.84375 -2.765625 L 2.84375 -15.671875 C 2.84375 -16.328125 2.789062 -16.800781 2.6875 -17.09375 C 2.59375 -17.394531 2.410156 -17.597656 2.140625 -17.703125 C 1.878906 -17.804688 1.460938 -17.875 0.890625 -17.90625 L 0.890625 -18.4375 C 1.773438 -18.382812 3.144531 -18.359375 5 -18.359375 C 6.769531 -18.359375 8.128906 -18.382812 9.078125 -18.4375 Z M 9.078125 -17.90625 "/></g></g></g><g fill="#ffffff" fill-opacity="1"><g transform="translate(269.765537, 26.951555)"><g><path d="M 8.921875 -17.90625 C 8.335938 -17.875 7.914062 -17.804688 7.65625 -17.703125 C 7.394531 -17.597656 7.210938 -17.394531 7.109375 -17.09375 C 7.015625 -16.800781 6.96875 -16.328125 6.96875 -15.671875 L 6.96875 -2.765625 C 6.96875 -2.097656 7.015625 -1.617188 7.109375 -1.328125 C 7.210938 -1.035156 7.394531 -0.835938 7.65625 -0.734375 C 7.914062 -0.628906 8.335938 -0.554688 8.921875 -0.515625 L 8.921875 0 C 7.984375 -0.0507812 6.675781 -0.078125 5 -0.078125 C 3.144531 -0.078125 1.773438 -0.0507812 0.890625 0 L 0.890625 -0.515625 C 1.460938 -0.554688 1.878906 -0.628906 2.140625 -0.734375 C 2.410156 -0.835938 2.59375 -1.035156 2.6875 -1.328125 C 2.789062 -1.617188 2.84375 -2.097656 2.84375 -2.765625 L 2.84375 -15.671875 C 2.84375 -16.328125 2.789062 -16.800781 2.6875 -17.09375 C 2.59375 -17.394531 2.410156 -17.597656 2.140625 -17.703125 C 1.878906 -17.804688 1.460938 -17.875 0.890625 -17.90625 L 0.890625 -18.4375 C 1.773438 -18.382812 3.144531 -18.359375 5 -18.359375 C 6.675781 -18.359375 7.984375 -18.382812 8.921875 -18.4375 Z M 8.921875 -17.90625 "/></g></g></g><g fill="#ffffff" fill-opacity="1"><g transform="translate(279.547386, 26.951555)"><g><path d="M 18.046875 -17.90625 C 17.472656 -17.820312 17.050781 -17.675781 16.78125 -17.46875 C 16.507812 -17.257812 16.328125 -16.925781 16.234375 -16.46875 C 16.140625 -16.019531 16.09375 -15.351562 16.09375 -14.46875 L 16.09375 0.046875 L 15.46875 0.03125 L 14.765625 0.046875 L 3.46875 -14.265625 L 3.46875 -4.265625 C 3.46875 -3.242188 3.519531 -2.492188 3.625 -2.015625 C 3.726562 -1.535156 3.953125 -1.1875 4.296875 -0.96875 C 4.640625 -0.757812 5.203125 -0.609375 5.984375 -0.515625 L 5.984375 0 C 5.304688 -0.0507812 4.367188 -0.078125 3.171875 -0.078125 C 2.222656 -0.078125 1.46875 -0.0507812 0.90625 0 L 0.90625 -0.515625 C 1.476562 -0.609375 1.898438 -0.757812 2.171875 -0.96875 C 2.441406 -1.175781 2.625 -1.503906 2.71875 -1.953125 C 2.8125 -2.398438 2.859375 -3.066406 2.859375 -3.953125 L 2.859375 -15.671875 C 2.859375 -16.328125 2.8125 -16.800781 2.71875 -17.09375 C 2.625 -17.394531 2.441406 -17.597656 2.171875 -17.703125 C 1.898438 -17.804688 1.476562 -17.875 0.90625 -17.90625 L 0.90625 -18.4375 C 1.46875 -18.382812 2.222656 -18.359375 3.171875 -18.359375 C 4.046875 -18.359375 4.796875 -18.382812 5.421875 -18.4375 L 15.484375 -6.015625 L 15.484375 -14.15625 C 15.484375 -15.1875 15.429688 -15.9375 15.328125 -16.40625 C 15.222656 -16.882812 15 -17.234375 14.65625 -17.453125 C 14.3125 -17.671875 13.75 -17.820312 12.96875 -17.90625 L 12.96875 -18.4375 C 13.644531 -18.382812 14.582031 -18.359375 15.78125 -18.359375 C 16.75 -18.359375 17.503906 -18.382812 18.046875 -18.4375 Z M 18.046875 -17.90625 "/></g></g></g><g fill="#ffffff" fill-opacity="1"><g transform="translate(298.330635, 26.951555)"><g><path d="M 8.921875 -17.90625 C 8.335938 -17.875 7.914062 -17.804688 7.65625 -17.703125 C 7.394531 -17.597656 7.210938 -17.394531 7.109375 -17.09375 C 7.015625 -16.800781 6.96875 -16.328125 6.96875 -15.671875 L 6.96875 -2.765625 C 6.96875 -2.097656 7.015625 -1.617188 7.109375 -1.328125 C 7.210938 -1.035156 7.394531 -0.835938 7.65625 -0.734375 C 7.914062 -0.628906 8.335938 -0.554688 8.921875 -0.515625 L 8.921875 0 C 7.984375 -0.0507812 6.675781 -0.078125 5 -0.078125 C 3.144531 -0.078125 1.773438 -0.0507812 0.890625 0 L 0.890625 -0.515625 C 1.460938 -0.554688 1.878906 -0.628906 2.140625 -0.734375 C 2.410156 -0.835938 2.59375 -1.035156 2.6875 -1.328125 C 2.789062 -1.617188 2.84375 -2.097656 2.84375 -2.765625 L 2.84375 -15.671875 C 2.84375 -16.328125 2.789062 -16.800781 2.6875 -17.09375 C 2.59375 -17.394531 2.410156 -17.597656 2.140625 -17.703125 C 1.878906 -17.804688 1.460938 -17.875 0.890625 -17.90625 L 0.890625 -18.4375 C 1.773438 -18.382812 3.144531 -18.359375 5 -18.359375 C 6.675781 -18.359375 7.984375 -18.382812 8.921875 -18.4375 Z M 8.921875 -17.90625 "/></g></g></g></g></g><g transform="matrix(1, 0, 0, 1, 69, 43)"><g clip-path="url(#2944c2be43)"><g clip-path="url(#a0544f1432)"><path fill="#ab2d32" d="M 149.441406 9.742188 C 149.441406 10.152344 149.363281 10.546875 149.207031 10.921875 C 149.050781 11.300781 148.828125 11.632812 148.539062 11.921875 C 148.25 12.210938 147.917969 12.433594 147.539062 12.589844 C 147.164062 12.746094 146.769531 12.824219 146.363281 12.824219 C 145.953125 12.824219 145.558594 12.746094 145.183594 12.589844 C 144.804688 12.433594 144.472656 12.210938 144.183594 11.921875 C 143.894531 11.632812 143.671875 11.300781 143.515625 10.921875 C 143.359375 10.546875 143.28125 10.152344 143.28125 9.742188 C 143.28125 9.335938 143.359375 8.941406 143.515625 8.5625 C 143.671875 8.1875 143.894531 7.851562 144.183594 7.5625 C 144.472656 7.273438 144.804688 7.050781 145.183594 6.894531 C 145.558594 6.738281 145.953125 6.660156 146.363281 6.660156 C 146.769531 6.660156 147.164062 6.738281 147.539062 6.894531 C 147.917969 7.050781 148.25 7.273438 148.539062 7.5625 C 148.828125 7.851562 149.050781 8.1875 149.207031 8.5625 C 149.363281 8.941406 149.441406 9.335938 149.441406 9.742188 Z M 149.441406 9.742188 " fill-opacity="1" fill-rule="nonzero"/></g><g clip-path="url(#db7c7e5d43)"><g><g clip-path="url(#e97ae83409)"><g fill="#ffffff" fill-opacity="1"><g transform="translate(1.529262, 13.153805)"><g><path d="M 9 -0.140625 L 9.109375 -0.140625 L 9.109375 0 L 6.3125 0 L 6.3125 -0.140625 L 6.421875 -0.140625 C 6.597656 -0.140625 6.726562 -0.195312 6.8125 -0.3125 C 6.90625 -0.425781 6.953125 -0.535156 6.953125 -0.640625 C 6.953125 -0.753906 6.9375 -0.859375 6.90625 -0.953125 L 6.15625 -2.765625 L 2.703125 -2.765625 L 1.953125 -1 C 1.898438 -0.875 1.875 -0.757812 1.875 -0.65625 C 1.875 -0.550781 1.921875 -0.4375 2.015625 -0.3125 C 2.109375 -0.195312 2.242188 -0.140625 2.421875 -0.140625 L 2.53125 -0.140625 L 2.53125 0 L -0.0625 0 L -0.0625 -0.140625 L 0.046875 -0.140625 C 0.234375 -0.140625 0.421875 -0.203125 0.609375 -0.328125 C 0.804688 -0.460938 0.972656 -0.660156 1.109375 -0.921875 C 3.097656 -5.179688 4.132812 -7.410156 4.21875 -7.609375 C 4.375 -7.992188 4.453125 -8.25 4.453125 -8.375 L 4.578125 -8.375 L 7.953125 -0.921875 C 8.210938 -0.398438 8.5625 -0.140625 9 -0.140625 Z M 2.875 -3.171875 L 5.984375 -3.171875 L 4.453125 -6.921875 Z M 2.875 -3.171875 "/></g></g></g><g fill="#ffffff" fill-opacity="1"><g transform="translate(9.409242, 13.153805)"><g><path d="M 9.125 -8.046875 L 9.015625 -8.046875 C 8.816406 -8.046875 8.617188 -7.976562 8.421875 -7.84375 C 8.234375 -7.71875 8.070312 -7.519531 7.9375 -7.25 C 5.957031 -3 4.925781 -0.773438 4.84375 -0.578125 C 4.6875 -0.191406 4.601562 0.0625 4.59375 0.1875 L 4.46875 0.1875 L 1.109375 -7.25 C 0.847656 -7.78125 0.5 -8.046875 0.0625 -8.046875 L -0.046875 -8.046875 L -0.046875 -8.1875 L 2.75 -8.1875 L 2.75 -8.046875 L 2.640625 -8.046875 C 2.460938 -8.046875 2.328125 -7.984375 2.234375 -7.859375 C 2.148438 -7.734375 2.109375 -7.617188 2.109375 -7.515625 C 2.109375 -7.421875 2.125 -7.320312 2.15625 -7.21875 L 4.59375 -1.265625 L 7.109375 -7.1875 C 7.148438 -7.300781 7.171875 -7.410156 7.171875 -7.515625 C 7.171875 -7.617188 7.125 -7.734375 7.03125 -7.859375 C 6.945312 -7.984375 6.8125 -8.046875 6.625 -8.046875 L 6.53125 -8.046875 L 6.53125 -8.1875 L 9.125 -8.1875 Z M 9.125 -8.046875 "/></g></g></g><g fill="#ffffff" fill-opacity="1"><g transform="translate(18.448039, 13.153805)"><g><path d="M 9.125 -8.046875 L 9.015625 -8.046875 C 8.816406 -8.046875 8.617188 -7.976562 8.421875 -7.84375 C 8.234375 -7.71875 8.070312 -7.519531 7.9375 -7.25 C 5.957031 -3 4.925781 -0.773438 4.84375 -0.578125 C 4.6875 -0.191406 4.601562 0.0625 4.59375 0.1875 L 4.46875 0.1875 L 1.109375 -7.25 C 0.847656 -7.78125 0.5 -8.046875 0.0625 -8.046875 L -0.046875 -8.046875 L -0.046875 -8.1875 L 2.75 -8.1875 L 2.75 -8.046875 L 2.640625 -8.046875 C 2.460938 -8.046875 2.328125 -7.984375 2.234375 -7.859375 C 2.148438 -7.734375 2.109375 -7.617188 2.109375 -7.515625 C 2.109375 -7.421875 2.125 -7.320312 2.15625 -7.21875 L 4.59375 -1.265625 L 7.109375 -7.1875 C 7.148438 -7.300781 7.171875 -7.410156 7.171875 -7.515625 C 7.171875 -7.617188 7.125 -7.734375 7.03125 -7.859375 C 6.945312 -7.984375 6.8125 -8.046875 6.625 -8.046875 L 6.53125 -8.046875 L 6.53125 -8.1875 L 9.125 -8.1875 Z M 9.125 -8.046875 "/></g></g></g><g fill="#ffffff" fill-opacity="1"><g transform="translate(25.919026, 13.153805)"><g><path d="M 1.65625 -0.125 C 1.539062 -0.0078125 1.394531 0.046875 1.21875 0.046875 C 1.050781 0.046875 0.90625 -0.0078125 0.78125 -0.125 C 0.664062 -0.238281 0.609375 -0.378906 0.609375 -0.546875 C 0.609375 -0.722656 0.664062 -0.867188 0.78125 -0.984375 C 0.90625 -1.109375 1.050781 -1.171875 1.21875 -1.171875 C 1.394531 -1.171875 1.539062 -1.109375 1.65625 -0.984375 C 1.78125 -0.867188 1.84375 -0.722656 1.84375 -0.546875 C 1.84375 -0.378906 1.78125 -0.238281 1.65625 -0.125 Z M 1.65625 -0.125 "/></g></g></g><g fill="#ffffff" fill-opacity="1"><g transform="translate(28.35936, 13.153805)"><g/></g></g><g fill="#ffffff" fill-opacity="1"><g transform="translate(31.767649, 13.153805)"><g><path d="M 9.125 -8.046875 L 9.015625 -8.046875 C 8.816406 -8.046875 8.617188 -7.976562 8.421875 -7.84375 C 8.234375 -7.71875 8.070312 -7.519531 7.9375 -7.25 C 5.957031 -3 4.925781 -0.773438 4.84375 -0.578125 C 4.6875 -0.191406 4.601562 0.0625 4.59375 0.1875 L 4.46875 0.1875 L 1.109375 -7.25 C 0.847656 -7.78125 0.5 -8.046875 0.0625 -8.046875 L -0.046875 -8.046875 L -0.046875 -8.1875 L 2.75 -8.1875 L 2.75 -8.046875 L 2.640625 -8.046875 C 2.460938 -8.046875 2.328125 -7.984375 2.234375 -7.859375 C 2.148438 -7.734375 2.109375 -7.617188 2.109375 -7.515625 C 2.109375 -7.421875 2.125 -7.320312 2.15625 -7.21875 L 4.59375 -1.265625 L 7.109375 -7.1875 C 7.148438 -7.300781 7.171875 -7.410156 7.171875 -7.515625 C 7.171875 -7.617188 7.125 -7.734375 7.03125 -7.859375 C 6.945312 -7.984375 6.8125 -8.046875 6.625 -8.046875 L 6.53125 -8.046875 L 6.53125 -8.1875 L 9.125 -8.1875 Z M 9.125 -8.046875 "/></g></g></g><g fill="#ffffff" fill-opacity="1"><g transform="translate(40.806446, 13.153805)"><g><path d="M 0.9375 -0.140625 C 1.1875 -0.140625 1.398438 -0.210938 1.578125 -0.359375 C 1.765625 -0.503906 1.859375 -0.675781 1.859375 -0.875 L 1.859375 -7.3125 C 1.859375 -7.507812 1.765625 -7.679688 1.578125 -7.828125 C 1.398438 -7.972656 1.179688 -8.046875 0.921875 -8.046875 L 0.75 -8.046875 L 0.75 -8.1875 L 3.828125 -8.1875 L 3.828125 -8.046875 L 3.65625 -8.046875 C 3.40625 -8.046875 3.191406 -7.976562 3.015625 -7.84375 C 2.835938 -7.707031 2.742188 -7.539062 2.734375 -7.34375 L 2.734375 -0.859375 C 2.734375 -0.660156 2.820312 -0.488281 3 -0.34375 C 3.1875 -0.207031 3.40625 -0.140625 3.65625 -0.140625 L 3.828125 -0.140625 L 3.84375 0 L 0.75 0 L 0.75 -0.140625 Z M 0.9375 -0.140625 "/></g></g></g><g fill="#ffffff" fill-opacity="1"><g transform="translate(45.387194, 13.153805)"><g><path d="M 3.296875 -7.765625 L 2.578125 -7.765625 L 2.578125 -0.875 C 2.585938 -0.59375 2.710938 -0.378906 2.953125 -0.234375 C 3.078125 -0.171875 3.210938 -0.140625 3.359375 -0.140625 L 3.53125 -0.140625 L 3.546875 0 L 0.75 0 L 0.75 -0.140625 L 0.9375 -0.140625 C 1.144531 -0.140625 1.320312 -0.207031 1.46875 -0.34375 C 1.625 -0.488281 1.703125 -0.660156 1.703125 -0.859375 L 1.703125 -7.34375 C 1.703125 -7.539062 1.625 -7.707031 1.46875 -7.84375 C 1.320312 -7.976562 1.144531 -8.046875 0.9375 -8.046875 L 0.75 -8.046875 L 0.75 -8.1875 L 4.171875 -8.1875 C 5.023438 -8.1875 5.695312 -7.988281 6.1875 -7.59375 C 6.6875 -7.207031 6.9375 -6.695312 6.9375 -6.0625 C 6.9375 -5.425781 6.738281 -4.890625 6.34375 -4.453125 C 5.945312 -4.023438 5.4375 -3.78125 4.8125 -3.71875 C 5.101562 -3.59375 5.453125 -3.238281 5.859375 -2.65625 C 5.859375 -2.65625 6.019531 -2.453125 6.34375 -2.046875 C 6.664062 -1.648438 6.921875 -1.34375 7.109375 -1.125 C 7.304688 -0.90625 7.46875 -0.734375 7.59375 -0.609375 C 7.9375 -0.296875 8.320312 -0.140625 8.75 -0.140625 L 8.75 0 L 8.328125 0 C 7.609375 0 7.046875 -0.140625 6.640625 -0.421875 C 6.328125 -0.628906 6.046875 -0.890625 5.796875 -1.203125 C 5.742188 -1.273438 5.515625 -1.59375 5.109375 -2.15625 C 4.703125 -2.726562 4.484375 -3.03125 4.453125 -3.0625 C 3.960938 -3.675781 3.503906 -3.984375 3.078125 -3.984375 L 3.078125 -4.125 C 4.140625 -4.125 4.78125 -4.175781 5 -4.28125 C 5.300781 -4.4375 5.507812 -4.601562 5.625 -4.78125 C 5.851562 -5.132812 5.96875 -5.53125 5.96875 -5.96875 C 5.96875 -6.53125 5.800781 -6.957031 5.46875 -7.25 C 5.144531 -7.550781 4.703125 -7.71875 4.140625 -7.75 C 3.898438 -7.757812 3.617188 -7.765625 3.296875 -7.765625 Z M 3.296875 -7.765625 "/></g></g></g><g fill="#ffffff" fill-opacity="1"><g transform="translate(53.458037, 13.153805)"><g><path d="M 5.15625 0.1875 C 3.800781 0.175781 2.71875 -0.207031 1.90625 -0.96875 C 1.09375 -1.738281 0.6875 -2.78125 0.6875 -4.09375 C 0.6875 -5.40625 1.09375 -6.445312 1.90625 -7.21875 C 2.71875 -7.988281 3.765625 -8.375 5.046875 -8.375 C 6.335938 -8.375 7.429688 -8.101562 8.328125 -7.5625 L 8.640625 -5.625 L 8.515625 -5.625 C 8.316406 -6.425781 7.941406 -7.015625 7.390625 -7.390625 C 6.847656 -7.773438 6.070312 -7.96875 5.0625 -7.96875 C 4.0625 -7.96875 3.242188 -7.617188 2.609375 -6.921875 C 1.984375 -6.222656 1.671875 -5.28125 1.671875 -4.09375 C 1.671875 -2.90625 1.988281 -1.960938 2.625 -1.265625 C 3.257812 -0.566406 4.132812 -0.21875 5.25 -0.21875 C 6.375 -0.21875 7.34375 -0.613281 8.15625 -1.40625 L 8.171875 -3.21875 C 8.179688 -3.382812 8.128906 -3.515625 8.015625 -3.609375 C 7.898438 -3.703125 7.742188 -3.75 7.546875 -3.75 L 7.359375 -3.75 L 7.359375 -3.890625 L 9.84375 -3.890625 L 9.84375 -3.75 L 9.65625 -3.75 C 9.25 -3.75 9.046875 -3.566406 9.046875 -3.203125 L 9.046875 -1.5625 C 8.660156 -1.09375 8.132812 -0.679688 7.46875 -0.328125 C 6.800781 0.015625 6.03125 0.1875 5.15625 0.1875 Z M 5.15625 0.1875 "/></g></g></g><g fill="#ffffff" fill-opacity="1"><g transform="translate(63.369375, 13.153805)"><g><path d="M 0.9375 -0.140625 C 1.1875 -0.140625 1.398438 -0.210938 1.578125 -0.359375 C 1.765625 -0.503906 1.859375 -0.675781 1.859375 -0.875 L 1.859375 -7.3125 C 1.859375 -7.507812 1.765625 -7.679688 1.578125 -7.828125 C 1.398438 -7.972656 1.179688 -8.046875 0.921875 -8.046875 L 0.75 -8.046875 L 0.75 -8.1875 L 3.828125 -8.1875 L 3.828125 -8.046875 L 3.65625 -8.046875 C 3.40625 -8.046875 3.191406 -7.976562 3.015625 -7.84375 C 2.835938 -7.707031 2.742188 -7.539062 2.734375 -7.34375 L 2.734375 -0.859375 C 2.734375 -0.660156 2.820312 -0.488281 3 -0.34375 C 3.1875 -0.207031 3.40625 -0.140625 3.65625 -0.140625 L 3.828125 -0.140625 L 3.84375 0 L 0.75 0 L 0.75 -0.140625 Z M 0.9375 -0.140625 "/></g></g></g><g fill="#ffffff" fill-opacity="1"><g transform="translate(67.950123, 13.153805)"><g><path d="M 0.9375 -0.140625 C 1.15625 -0.140625 1.335938 -0.207031 1.484375 -0.34375 C 1.640625 -0.488281 1.722656 -0.660156 1.734375 -0.859375 L 1.734375 -7.3125 C 1.722656 -7.507812 1.632812 -7.679688 1.46875 -7.828125 C 1.3125 -7.972656 1.125 -8.046875 0.90625 -8.046875 L 0.75 -8.046875 L 0.75 -8.1875 L 3.578125 -8.1875 L 3.578125 -8.046875 L 3.40625 -8.046875 C 3.1875 -8.046875 3 -7.972656 2.84375 -7.828125 C 2.6875 -7.679688 2.609375 -7.507812 2.609375 -7.3125 L 2.609375 -0.421875 L 4.734375 -0.421875 C 5.148438 -0.421875 5.503906 -0.492188 5.796875 -0.640625 C 6.085938 -0.785156 6.304688 -0.957031 6.453125 -1.15625 C 6.609375 -1.351562 6.757812 -1.617188 6.90625 -1.953125 L 7.03125 -1.953125 L 6.28125 0 L 0.75 0 L 0.75 -0.140625 Z M 0.9375 -0.140625 "/></g></g></g><g fill="#ffffff" fill-opacity="1"><g transform="translate(74.930329, 13.153805)"><g><path d="M 0.9375 -0.140625 C 1.1875 -0.140625 1.398438 -0.210938 1.578125 -0.359375 C 1.765625 -0.503906 1.859375 -0.675781 1.859375 -0.875 L 1.859375 -7.3125 C 1.859375 -7.507812 1.765625 -7.679688 1.578125 -7.828125 C 1.398438 -7.972656 1.179688 -8.046875 0.921875 -8.046875 L 0.75 -8.046875 L 0.75 -8.1875 L 3.828125 -8.1875 L 3.828125 -8.046875 L 3.65625 -8.046875 C 3.40625 -8.046875 3.191406 -7.976562 3.015625 -7.84375 C 2.835938 -7.707031 2.742188 -7.539062 2.734375 -7.34375 L 2.734375 -0.859375 C 2.734375 -0.660156 2.820312 -0.488281 3 -0.34375 C 3.1875 -0.207031 3.40625 -0.140625 3.65625 -0.140625 L 3.828125 -0.140625 L 3.84375 0 L 0.75 0 L 0.75 -0.140625 Z M 0.9375 -0.140625 "/></g></g></g><g fill="#ffffff" fill-opacity="1"><g transform="translate(79.306589, 13.153805)"><g><path d="M 2.96875 -7.828125 C 3.675781 -8.191406 4.445312 -8.375 5.28125 -8.375 C 6.125 -8.375 6.894531 -8.191406 7.59375 -7.828125 C 8.289062 -7.472656 8.847656 -6.96875 9.265625 -6.3125 C 9.679688 -5.65625 9.890625 -4.910156 9.890625 -4.078125 C 9.890625 -3.253906 9.679688 -2.515625 9.265625 -1.859375 C 8.847656 -1.210938 8.289062 -0.707031 7.59375 -0.34375 C 6.894531 0.0078125 6.175781 0.1875 5.4375 0.1875 C 4.707031 0.1875 4.054688 0.0820312 3.484375 -0.125 C 2.921875 -0.332031 2.429688 -0.625 2.015625 -1 C 1.609375 -1.375 1.285156 -1.828125 1.046875 -2.359375 C 0.804688 -2.898438 0.6875 -3.53125 0.6875 -4.25 C 0.6875 -4.96875 0.890625 -5.65625 1.296875 -6.3125 C 1.710938 -6.96875 2.269531 -7.472656 2.96875 -7.828125 Z M 2.71875 -1.296875 C 3.40625 -0.578125 4.257812 -0.21875 5.28125 -0.21875 C 6.300781 -0.21875 7.15625 -0.578125 7.84375 -1.296875 C 8.53125 -2.023438 8.875 -2.957031 8.875 -4.09375 C 8.875 -5.226562 8.53125 -6.15625 7.84375 -6.875 C 7.15625 -7.601562 6.300781 -7.96875 5.28125 -7.96875 C 4.257812 -7.96875 3.40625 -7.601562 2.71875 -6.875 C 2.03125 -6.15625 1.6875 -5.226562 1.6875 -4.09375 C 1.6875 -2.957031 2.03125 -2.023438 2.71875 -1.296875 Z M 2.71875 -1.296875 "/></g></g></g><g fill="#ffffff" fill-opacity="1"><g transform="translate(89.858677, 13.153805)"><g/></g></g><g fill="#ffffff" fill-opacity="1"><g transform="translate(93.266965, 13.153805)"><g><path d="M 5.15625 0.1875 C 3.800781 0.175781 2.71875 -0.207031 1.90625 -0.96875 C 1.09375 -1.738281 0.6875 -2.78125 0.6875 -4.09375 C 0.6875 -5.40625 1.09375 -6.445312 1.90625 -7.21875 C 2.71875 -7.988281 3.765625 -8.375 5.046875 -8.375 C 6.335938 -8.375 7.429688 -8.101562 8.328125 -7.5625 L 8.640625 -5.625 L 8.515625 -5.625 C 8.316406 -6.425781 7.941406 -7.015625 7.390625 -7.390625 C 6.847656 -7.773438 6.070312 -7.96875 5.0625 -7.96875 C 4.0625 -7.96875 3.242188 -7.617188 2.609375 -6.921875 C 1.984375 -6.222656 1.671875 -5.28125 1.671875 -4.09375 C 1.671875 -2.90625 1.988281 -1.960938 2.625 -1.265625 C 3.257812 -0.566406 4.132812 -0.21875 5.25 -0.21875 C 6.375 -0.21875 7.34375 -0.613281 8.15625 -1.40625 L 8.171875 -3.21875 C 8.179688 -3.382812 8.128906 -3.515625 8.015625 -3.609375 C 7.898438 -3.703125 7.742188 -3.75 7.546875 -3.75 L 7.359375 -3.75 L 7.359375 -3.890625 L 9.84375 -3.890625 L 9.84375 -3.75 L 9.65625 -3.75 C 9.25 -3.75 9.046875 -3.566406 9.046875 -3.203125 L 9.046875 -1.5625 C 8.660156 -1.09375 8.132812 -0.679688 7.46875 -0.328125 C 6.800781 0.015625 6.03125 0.1875 5.15625 0.1875 Z M 5.15625 0.1875 "/></g></g></g><g fill="#ffffff" fill-opacity="1"><g transform="translate(103.382791, 13.153805)"><g><path d="M 2.96875 -7.828125 C 3.675781 -8.191406 4.445312 -8.375 5.28125 -8.375 C 6.125 -8.375 6.894531 -8.191406 7.59375 -7.828125 C 8.289062 -7.472656 8.847656 -6.96875 9.265625 -6.3125 C 9.679688 -5.65625 9.890625 -4.910156 9.890625 -4.078125 C 9.890625 -3.253906 9.679688 -2.515625 9.265625 -1.859375 C 8.847656 -1.210938 8.289062 -0.707031 7.59375 -0.34375 C 6.894531 0.0078125 6.175781 0.1875 5.4375 0.1875 C 4.707031 0.1875 4.054688 0.0820312 3.484375 -0.125 C 2.921875 -0.332031 2.429688 -0.625 2.015625 -1 C 1.609375 -1.375 1.285156 -1.828125 1.046875 -2.359375 C 0.804688 -2.898438 0.6875 -3.53125 0.6875 -4.25 C 0.6875 -4.96875 0.890625 -5.65625 1.296875 -6.3125 C 1.710938 -6.96875 2.269531 -7.472656 2.96875 -7.828125 Z M 2.71875 -1.296875 C 3.40625 -0.578125 4.257812 -0.21875 5.28125 -0.21875 C 6.300781 -0.21875 7.15625 -0.578125 7.84375 -1.296875 C 8.53125 -2.023438 8.875 -2.957031 8.875 -4.09375 C 8.875 -5.226562 8.53125 -6.15625 7.84375 -6.875 C 7.15625 -7.601562 6.300781 -7.96875 5.28125 -7.96875 C 4.257812 -7.96875 3.40625 -7.601562 2.71875 -6.875 C 2.03125 -6.15625 1.6875 -5.226562 1.6875 -4.09375 C 1.6875 -2.957031 2.03125 -2.023438 2.71875 -1.296875 Z M 2.71875 -1.296875 "/></g></g></g><g fill="#ffffff" fill-opacity="1"><g transform="translate(113.730391, 13.153805)"><g><path d="M 0.9375 -0.140625 C 1.15625 -0.140625 1.335938 -0.207031 1.484375 -0.34375 C 1.640625 -0.488281 1.722656 -0.660156 1.734375 -0.859375 L 1.734375 -7.3125 C 1.722656 -7.507812 1.632812 -7.679688 1.46875 -7.828125 C 1.3125 -7.972656 1.125 -8.046875 0.90625 -8.046875 L 0.75 -8.046875 L 0.75 -8.1875 L 3.578125 -8.1875 L 3.578125 -8.046875 L 3.40625 -8.046875 C 3.1875 -8.046875 3 -7.972656 2.84375 -7.828125 C 2.6875 -7.679688 2.609375 -7.507812 2.609375 -7.3125 L 2.609375 -0.421875 L 4.734375 -0.421875 C 5.148438 -0.421875 5.503906 -0.492188 5.796875 -0.640625 C 6.085938 -0.785156 6.304688 -0.957031 6.453125 -1.15625 C 6.609375 -1.351562 6.757812 -1.617188 6.90625 -1.953125 L 7.03125 -1.953125 L 6.28125 0 L 0.75 0 L 0.75 -0.140625 Z M 0.9375 -0.140625 "/></g></g></g><g fill="#ffffff" fill-opacity="1"><g transform="translate(120.710597, 13.153805)"><g><path d="M 0.9375 -0.140625 C 1.1875 -0.140625 1.398438 -0.210938 1.578125 -0.359375 C 1.765625 -0.503906 1.859375 -0.675781 1.859375 -0.875 L 1.859375 -7.3125 C 1.859375 -7.507812 1.765625 -7.679688 1.578125 -7.828125 C 1.398438 -7.972656 1.179688 -8.046875 0.921875 -8.046875 L 0.75 -8.046875 L 0.75 -8.1875 L 3.828125 -8.1875 L 3.828125 -8.046875 L 3.65625 -8.046875 C 3.40625 -8.046875 3.191406 -7.976562 3.015625 -7.84375 C 2.835938 -7.707031 2.742188 -7.539062 2.734375 -7.34375 L 2.734375 -0.859375 C 2.734375 -0.660156 2.820312 -0.488281 3 -0.34375 C 3.1875 -0.207031 3.40625 -0.140625 3.65625 -0.140625 L 3.828125 -0.140625 L 3.84375 0 L 0.75 0 L 0.75 -0.140625 Z M 0.9375 -0.140625 "/></g></g></g><g fill="#ffffff" fill-opacity="1"><g transform="translate(125.291345, 13.153805)"><g><path d="M 9.921875 -8.046875 C 9.710938 -8.046875 9.535156 -7.976562 9.390625 -7.84375 C 9.253906 -7.71875 9.179688 -7.554688 9.171875 -7.359375 L 9.171875 -1.5625 C 9.171875 -1.03125 9.203125 -0.523438 9.265625 -0.046875 L 9.296875 0.1875 L 9.171875 0.1875 L 2.078125 -6.53125 L 2.078125 -0.84375 C 2.078125 -0.644531 2.148438 -0.476562 2.296875 -0.34375 C 2.441406 -0.207031 2.617188 -0.140625 2.828125 -0.140625 L 3.0625 -0.140625 L 3.0625 0 L 0.484375 0 L 0.484375 -0.140625 L 0.703125 -0.140625 C 0.910156 -0.140625 1.085938 -0.207031 1.234375 -0.34375 C 1.378906 -0.476562 1.453125 -0.644531 1.453125 -0.84375 L 1.453125 -6.6875 C 1.453125 -7.238281 1.421875 -7.734375 1.359375 -8.171875 L 1.34375 -8.390625 L 1.484375 -8.375 L 8.5625 -1.703125 L 8.5625 -7.359375 C 8.539062 -7.554688 8.457031 -7.71875 8.3125 -7.84375 C 8.175781 -7.976562 8.003906 -8.046875 7.796875 -8.046875 L 7.578125 -8.046875 L 7.578125 -8.1875 L 10.15625 -8.1875 L 10.15625 -8.046875 Z M 9.921875 -8.046875 "/></g></g></g><g fill="#ffffff" fill-opacity="1"><g transform="translate(135.911595, 13.153805)"><g><path d="M 0.9375 -0.140625 C 1.1875 -0.140625 1.398438 -0.210938 1.578125 -0.359375 C 1.765625 -0.503906 1.859375 -0.675781 1.859375 -0.875 L 1.859375 -7.3125 C 1.859375 -7.507812 1.765625 -7.679688 1.578125 -7.828125 C 1.398438 -7.972656 1.179688 -8.046875 0.921875 -8.046875 L 0.75 -8.046875 L 0.75 -8.1875 L 3.828125 -8.1875 L 3.828125 -8.046875 L 3.65625 -8.046875 C 3.40625 -8.046875 3.191406 -7.976562 3.015625 -7.84375 C 2.835938 -7.707031 2.742188 -7.539062 2.734375 -7.34375 L 2.734375 -0.859375 C 2.734375 -0.660156 2.820312 -0.488281 3 -0.34375 C 3.1875 -0.207031 3.40625 -0.140625 3.65625 -0.140625 L 3.828125 -0.140625 L 3.84375 0 L 0.75 0 L 0.75 -0.140625 Z M 0.9375 -0.140625 "/></g></g></g><g fill="#ffffff" fill-opacity="1"><g transform="translate(140.505068, 13.153805)"><g/></g></g><g fill="#ffffff" fill-opacity="1"><g transform="translate(143.913356, 13.153805)"><g/></g></g><g fill="#ffffff" fill-opacity="1"><g transform="translate(147.321645, 13.153805)"><g/></g></g><g fill="#ffffff" fill-opacity="1"><g transform="translate(150.747633, 13.153805)"><g><path d="M 9 -0.140625 L 9.109375 -0.140625 L 9.109375 0 L 6.3125 0 L 6.3125 -0.140625 L 6.421875 -0.140625 C 6.597656 -0.140625 6.726562 -0.195312 6.8125 -0.3125 C 6.90625 -0.425781 6.953125 -0.535156 6.953125 -0.640625 C 6.953125 -0.753906 6.9375 -0.859375 6.90625 -0.953125 L 6.15625 -2.765625 L 2.703125 -2.765625 L 1.953125 -1 C 1.898438 -0.875 1.875 -0.757812 1.875 -0.65625 C 1.875 -0.550781 1.921875 -0.4375 2.015625 -0.3125 C 2.109375 -0.195312 2.242188 -0.140625 2.421875 -0.140625 L 2.53125 -0.140625 L 2.53125 0 L -0.0625 0 L -0.0625 -0.140625 L 0.046875 -0.140625 C 0.234375 -0.140625 0.421875 -0.203125 0.609375 -0.328125 C 0.804688 -0.460938 0.972656 -0.660156 1.109375 -0.921875 C 3.097656 -5.179688 4.132812 -7.410156 4.21875 -7.609375 C 4.375 -7.992188 4.453125 -8.25 4.453125 -8.375 L 4.578125 -8.375 L 7.953125 -0.921875 C 8.210938 -0.398438 8.5625 -0.140625 9 -0.140625 Z M 2.875 -3.171875 L 5.984375 -3.171875 L 4.453125 -6.921875 Z M 2.875 -3.171875 "/></g></g></g><g fill="#ffffff" fill-opacity="1"><g transform="translate(158.627613, 13.153805)"><g><path d="M 9.125 -8.046875 L 9.015625 -8.046875 C 8.816406 -8.046875 8.617188 -7.976562 8.421875 -7.84375 C 8.234375 -7.71875 8.070312 -7.519531 7.9375 -7.25 C 5.957031 -3 4.925781 -0.773438 4.84375 -0.578125 C 4.6875 -0.191406 4.601562 0.0625 4.59375 0.1875 L 4.46875 0.1875 L 1.109375 -7.25 C 0.847656 -7.78125 0.5 -8.046875 0.0625 -8.046875 L -0.046875 -8.046875 L -0.046875 -8.1875 L 2.75 -8.1875 L 2.75 -8.046875 L 2.640625 -8.046875 C 2.460938 -8.046875 2.328125 -7.984375 2.234375 -7.859375 C 2.148438 -7.734375 2.109375 -7.617188 2.109375 -7.515625 C 2.109375 -7.421875 2.125 -7.320312 2.15625 -7.21875 L 4.59375 -1.265625 L 7.109375 -7.1875 C 7.148438 -7.300781 7.171875 -7.410156 7.171875 -7.515625 C 7.171875 -7.617188 7.125 -7.734375 7.03125 -7.859375 C 6.945312 -7.984375 6.8125 -8.046875 6.625 -8.046875 L 6.53125 -8.046875 L 6.53125 -8.1875 L 9.125 -8.1875 Z M 9.125 -8.046875 "/></g></g></g><g fill="#ffffff" fill-opacity="1"><g transform="translate(167.66641, 13.153805)"><g><path d="M 9.125 -8.046875 L 9.015625 -8.046875 C 8.816406 -8.046875 8.617188 -7.976562 8.421875 -7.84375 C 8.234375 -7.71875 8.070312 -7.519531 7.9375 -7.25 C 5.957031 -3 4.925781 -0.773438 4.84375 -0.578125 C 4.6875 -0.191406 4.601562 0.0625 4.59375 0.1875 L 4.46875 0.1875 L 1.109375 -7.25 C 0.847656 -7.78125 0.5 -8.046875 0.0625 -8.046875 L -0.046875 -8.046875 L -0.046875 -8.1875 L 2.75 -8.1875 L 2.75 -8.046875 L 2.640625 -8.046875 C 2.460938 -8.046875 2.328125 -7.984375 2.234375 -7.859375 C 2.148438 -7.734375 2.109375 -7.617188 2.109375 -7.515625 C 2.109375 -7.421875 2.125 -7.320312 2.15625 -7.21875 L 4.59375 -1.265625 L 7.109375 -7.1875 C 7.148438 -7.300781 7.171875 -7.410156 7.171875 -7.515625 C 7.171875 -7.617188 7.125 -7.734375 7.03125 -7.859375 C 6.945312 -7.984375 6.8125 -8.046875 6.625 -8.046875 L 6.53125 -8.046875 L 6.53125 -8.1875 L 9.125 -8.1875 Z M 9.125 -8.046875 "/></g></g></g><g fill="#ffffff" fill-opacity="1"><g transform="translate(175.137397, 13.153805)"><g><path d="M 1.65625 -0.125 C 1.539062 -0.0078125 1.394531 0.046875 1.21875 0.046875 C 1.050781 0.046875 0.90625 -0.0078125 0.78125 -0.125 C 0.664062 -0.238281 0.609375 -0.378906 0.609375 -0.546875 C 0.609375 -0.722656 0.664062 -0.867188 0.78125 -0.984375 C 0.90625 -1.109375 1.050781 -1.171875 1.21875 -1.171875 C 1.394531 -1.171875 1.539062 -1.109375 1.65625 -0.984375 C 1.78125 -0.867188 1.84375 -0.722656 1.84375 -0.546875 C 1.84375 -0.378906 1.78125 -0.238281 1.65625 -0.125 Z M 1.65625 -0.125 "/></g></g></g><g fill="#ffffff" fill-opacity="1"><g transform="translate(177.577731, 13.153805)"><g/></g></g><g fill="#ffffff" fill-opacity="1"><g transform="translate(180.986019, 13.153805)"><g><path d="M 9 -0.140625 L 9.109375 -0.140625 L 9.109375 0 L 6.3125 0 L 6.3125 -0.140625 L 6.421875 -0.140625 C 6.597656 -0.140625 6.726562 -0.195312 6.8125 -0.3125 C 6.90625 -0.425781 6.953125 -0.535156 6.953125 -0.640625 C 6.953125 -0.753906 6.9375 -0.859375 6.90625 -0.953125 L 6.15625 -2.765625 L 2.703125 -2.765625 L 1.953125 -1 C 1.898438 -0.875 1.875 -0.757812 1.875 -0.65625 C 1.875 -0.550781 1.921875 -0.4375 2.015625 -0.3125 C 2.109375 -0.195312 2.242188 -0.140625 2.421875 -0.140625 L 2.53125 -0.140625 L 2.53125 0 L -0.0625 0 L -0.0625 -0.140625 L 0.046875 -0.140625 C 0.234375 -0.140625 0.421875 -0.203125 0.609375 -0.328125 C 0.804688 -0.460938 0.972656 -0.660156 1.109375 -0.921875 C 3.097656 -5.179688 4.132812 -7.410156 4.21875 -7.609375 C 4.375 -7.992188 4.453125 -8.25 4.453125 -8.375 L 4.578125 -8.375 L 7.953125 -0.921875 C 8.210938 -0.398438 8.5625 -0.140625 9 -0.140625 Z M 2.875 -3.171875 L 5.984375 -3.171875 L 4.453125 -6.921875 Z M 2.875 -3.171875 "/></g></g></g><g fill="#ffffff" fill-opacity="1"><g transform="translate(190.024817, 13.153805)"><g><path d="M 9.921875 -8.046875 C 9.710938 -8.046875 9.535156 -7.976562 9.390625 -7.84375 C 9.253906 -7.71875 9.179688 -7.554688 9.171875 -7.359375 L 9.171875 -1.5625 C 9.171875 -1.03125 9.203125 -0.523438 9.265625 -0.046875 L 9.296875 0.1875 L 9.171875 0.1875 L 2.078125 -6.53125 L 2.078125 -0.84375 C 2.078125 -0.644531 2.148438 -0.476562 2.296875 -0.34375 C 2.441406 -0.207031 2.617188 -0.140625 2.828125 -0.140625 L 3.0625 -0.140625 L 3.0625 0 L 0.484375 0 L 0.484375 -0.140625 L 0.703125 -0.140625 C 0.910156 -0.140625 1.085938 -0.207031 1.234375 -0.34375 C 1.378906 -0.476562 1.453125 -0.644531 1.453125 -0.84375 L 1.453125 -6.6875 C 1.453125 -7.238281 1.421875 -7.734375 1.359375 -8.171875 L 1.34375 -8.390625 L 1.484375 -8.375 L 8.5625 -1.703125 L 8.5625 -7.359375 C 8.539062 -7.554688 8.457031 -7.71875 8.3125 -7.84375 C 8.175781 -7.976562 8.003906 -8.046875 7.796875 -8.046875 L 7.578125 -8.046875 L 7.578125 -8.1875 L 10.15625 -8.1875 L 10.15625 -8.046875 Z M 9.921875 -8.046875 "/></g></g></g><g fill="#ffffff" fill-opacity="1"><g transform="translate(200.645067, 13.153805)"><g><path d="M 9.6875 -4.09375 C 9.6875 -2.832031 9.289062 -1.832031 8.5 -1.09375 C 7.71875 -0.363281 6.65625 0 5.3125 0 L 0.75 0 L 0.75 -0.140625 L 0.921875 -0.140625 C 1.140625 -0.140625 1.320312 -0.210938 1.46875 -0.359375 C 1.613281 -0.503906 1.691406 -0.675781 1.703125 -0.875 L 1.703125 -7.3125 C 1.691406 -7.53125 1.609375 -7.707031 1.453125 -7.84375 C 1.304688 -7.976562 1.125 -8.046875 0.90625 -8.046875 L 0.75 -8.046875 L 0.75 -8.1875 L 5.3125 -8.1875 C 6.195312 -8.1875 6.96875 -8.019531 7.625 -7.6875 C 8.289062 -7.363281 8.800781 -6.890625 9.15625 -6.265625 C 9.507812 -5.648438 9.6875 -4.925781 9.6875 -4.09375 Z M 2.59375 -7.78125 L 2.59375 -0.40625 L 5.3125 -0.40625 C 6.351562 -0.40625 7.175781 -0.734375 7.78125 -1.390625 C 8.394531 -2.054688 8.703125 -2.957031 8.703125 -4.09375 C 8.703125 -5.226562 8.394531 -6.125 7.78125 -6.78125 C 7.175781 -7.445312 6.351562 -7.78125 5.3125 -7.78125 Z M 2.59375 -7.78125 "/></g></g></g><g fill="#ffffff" fill-opacity="1"><g transform="translate(210.801804, 13.153805)"><g><path d="M 3.296875 -7.765625 L 2.578125 -7.765625 L 2.578125 -0.875 C 2.585938 -0.59375 2.710938 -0.378906 2.953125 -0.234375 C 3.078125 -0.171875 3.210938 -0.140625 3.359375 -0.140625 L 3.53125 -0.140625 L 3.546875 0 L 0.75 0 L 0.75 -0.140625 L 0.9375 -0.140625 C 1.144531 -0.140625 1.320312 -0.207031 1.46875 -0.34375 C 1.625 -0.488281 1.703125 -0.660156 1.703125 -0.859375 L 1.703125 -7.34375 C 1.703125 -7.539062 1.625 -7.707031 1.46875 -7.84375 C 1.320312 -7.976562 1.144531 -8.046875 0.9375 -8.046875 L 0.75 -8.046875 L 0.75 -8.1875 L 4.171875 -8.1875 C 5.023438 -8.1875 5.695312 -7.988281 6.1875 -7.59375 C 6.6875 -7.207031 6.9375 -6.695312 6.9375 -6.0625 C 6.9375 -5.425781 6.738281 -4.890625 6.34375 -4.453125 C 5.945312 -4.023438 5.4375 -3.78125 4.8125 -3.71875 C 5.101562 -3.59375 5.453125 -3.238281 5.859375 -2.65625 C 5.859375 -2.65625 6.019531 -2.453125 6.34375 -2.046875 C 6.664062 -1.648438 6.921875 -1.34375 7.109375 -1.125 C 7.304688 -0.90625 7.46875 -0.734375 7.59375 -0.609375 C 7.9375 -0.296875 8.320312 -0.140625 8.75 -0.140625 L 8.75 0 L 8.328125 0 C 7.609375 0 7.046875 -0.140625 6.640625 -0.421875 C 6.328125 -0.628906 6.046875 -0.890625 5.796875 -1.203125 C 5.742188 -1.273438 5.515625 -1.59375 5.109375 -2.15625 C 4.703125 -2.726562 4.484375 -3.03125 4.453125 -3.0625 C 3.960938 -3.675781 3.503906 -3.984375 3.078125 -3.984375 L 3.078125 -4.125 C 4.140625 -4.125 4.78125 -4.175781 5 -4.28125 C 5.300781 -4.4375 5.507812 -4.601562 5.625 -4.78125 C 5.851562 -5.132812 5.96875 -5.53125 5.96875 -5.96875 C 5.96875 -6.53125 5.800781 -6.957031 5.46875 -7.25 C 5.144531 -7.550781 4.703125 -7.71875 4.140625 -7.75 C 3.898438 -7.757812 3.617188 -7.765625 3.296875 -7.765625 Z M 3.296875 -7.765625 "/></g></g></g><g fill="#ffffff" fill-opacity="1"><g transform="translate(219.349803, 13.153805)"><g><path d="M 0.9375 -0.140625 C 1.15625 -0.140625 1.335938 -0.207031 1.484375 -0.34375 C 1.640625 -0.488281 1.722656 -0.660156 1.734375 -0.859375 L 1.734375 -7.34375 C 1.734375 -7.539062 1.65625 -7.707031 1.5 -7.84375 C 1.34375 -7.976562 1.15625 -8.046875 0.9375 -8.046875 L 0.75 -8.046875 L 0.75 -8.1875 L 4.734375 -8.1875 C 5.109375 -8.1875 5.4375 -8.210938 5.71875 -8.265625 C 6 -8.316406 6.179688 -8.363281 6.265625 -8.40625 L 6.265625 -6.84375 L 6.109375 -6.859375 L 6.109375 -7.0625 C 6.109375 -7.257812 6.046875 -7.425781 5.921875 -7.5625 C 5.796875 -7.695312 5.628906 -7.765625 5.421875 -7.765625 L 2.59375 -7.765625 L 2.59375 -4.296875 L 4.921875 -4.296875 C 5.109375 -4.296875 5.25 -4.347656 5.34375 -4.453125 C 5.4375 -4.566406 5.484375 -4.707031 5.484375 -4.875 L 5.484375 -5.046875 L 5.640625 -5.046875 L 5.640625 -3.140625 L 5.484375 -3.140625 L 5.484375 -3.3125 C 5.484375 -3.570312 5.390625 -3.742188 5.203125 -3.828125 C 5.128906 -3.859375 5.050781 -3.878906 4.96875 -3.890625 L 2.59375 -3.890625 L 2.59375 -0.421875 L 4.734375 -0.421875 C 5.148438 -0.421875 5.5 -0.492188 5.78125 -0.640625 C 6.070312 -0.785156 6.289062 -0.957031 6.4375 -1.15625 C 6.59375 -1.351562 6.75 -1.617188 6.90625 -1.953125 L 7.03125 -1.953125 L 6.28125 0 L 0.75 0 L 0.75 -0.140625 Z M 0.9375 -0.140625 "/></g></g></g><g fill="#ffffff" fill-opacity="1"><g transform="translate(226.793521, 13.153805)"><g><path d="M 9 -0.140625 L 9.109375 -0.140625 L 9.109375 0 L 6.3125 0 L 6.3125 -0.140625 L 6.421875 -0.140625 C 6.597656 -0.140625 6.726562 -0.195312 6.8125 -0.3125 C 6.90625 -0.425781 6.953125 -0.535156 6.953125 -0.640625 C 6.953125 -0.753906 6.9375 -0.859375 6.90625 -0.953125 L 6.15625 -2.765625 L 2.703125 -2.765625 L 1.953125 -1 C 1.898438 -0.875 1.875 -0.757812 1.875 -0.65625 C 1.875 -0.550781 1.921875 -0.4375 2.015625 -0.3125 C 2.109375 -0.195312 2.242188 -0.140625 2.421875 -0.140625 L 2.53125 -0.140625 L 2.53125 0 L -0.0625 0 L -0.0625 -0.140625 L 0.046875 -0.140625 C 0.234375 -0.140625 0.421875 -0.203125 0.609375 -0.328125 C 0.804688 -0.460938 0.972656 -0.660156 1.109375 -0.921875 C 3.097656 -5.179688 4.132812 -7.410156 4.21875 -7.609375 C 4.375 -7.992188 4.453125 -8.25 4.453125 -8.375 L 4.578125 -8.375 L 7.953125 -0.921875 C 8.210938 -0.398438 8.5625 -0.140625 9 -0.140625 Z M 2.875 -3.171875 L 5.984375 -3.171875 L 4.453125 -6.921875 Z M 2.875 -3.171875 "/></g></g></g><g fill="#ffffff" fill-opacity="1"><g transform="translate(235.832318, 13.153805)"><g/></g></g><g fill="#ffffff" fill-opacity="1"><g transform="translate(239.240607, 13.153805)"><g><path d="M 5.15625 0.1875 C 3.800781 0.175781 2.71875 -0.207031 1.90625 -0.96875 C 1.09375 -1.738281 0.6875 -2.78125 0.6875 -4.09375 C 0.6875 -5.40625 1.09375 -6.445312 1.90625 -7.21875 C 2.71875 -7.988281 3.765625 -8.375 5.046875 -8.375 C 6.335938 -8.375 7.429688 -8.101562 8.328125 -7.5625 L 8.640625 -5.625 L 8.515625 -5.625 C 8.316406 -6.425781 7.941406 -7.015625 7.390625 -7.390625 C 6.847656 -7.773438 6.070312 -7.96875 5.0625 -7.96875 C 4.0625 -7.96875 3.242188 -7.617188 2.609375 -6.921875 C 1.984375 -6.222656 1.671875 -5.28125 1.671875 -4.09375 C 1.671875 -2.90625 1.988281 -1.960938 2.625 -1.265625 C 3.257812 -0.566406 4.132812 -0.21875 5.25 -0.21875 C 6.375 -0.21875 7.34375 -0.613281 8.15625 -1.40625 L 8.171875 -3.21875 C 8.179688 -3.382812 8.128906 -3.515625 8.015625 -3.609375 C 7.898438 -3.703125 7.742188 -3.75 7.546875 -3.75 L 7.359375 -3.75 L 7.359375 -3.890625 L 9.84375 -3.890625 L 9.84375 -3.75 L 9.65625 -3.75 C 9.25 -3.75 9.046875 -3.566406 9.046875 -3.203125 L 9.046875 -1.5625 C 8.660156 -1.09375 8.132812 -0.679688 7.46875 -0.328125 C 6.800781 0.015625 6.03125 0.1875 5.15625 0.1875 Z M 5.15625 0.1875 "/></g></g></g><g fill="#ffffff" fill-opacity="1"><g transform="translate(249.356433, 13.153805)"><g><path d="M 2.96875 -7.828125 C 3.675781 -8.191406 4.445312 -8.375 5.28125 -8.375 C 6.125 -8.375 6.894531 -8.191406 7.59375 -7.828125 C 8.289062 -7.472656 8.847656 -6.96875 9.265625 -6.3125 C 9.679688 -5.65625 9.890625 -4.910156 9.890625 -4.078125 C 9.890625 -3.253906 9.679688 -2.515625 9.265625 -1.859375 C 8.847656 -1.210938 8.289062 -0.707031 7.59375 -0.34375 C 6.894531 0.0078125 6.175781 0.1875 5.4375 0.1875 C 4.707031 0.1875 4.054688 0.0820312 3.484375 -0.125 C 2.921875 -0.332031 2.429688 -0.625 2.015625 -1 C 1.609375 -1.375 1.285156 -1.828125 1.046875 -2.359375 C 0.804688 -2.898438 0.6875 -3.53125 0.6875 -4.25 C 0.6875 -4.96875 0.890625 -5.65625 1.296875 -6.3125 C 1.710938 -6.96875 2.269531 -7.472656 2.96875 -7.828125 Z M 2.71875 -1.296875 C 3.40625 -0.578125 4.257812 -0.21875 5.28125 -0.21875 C 6.300781 -0.21875 7.15625 -0.578125 7.84375 -1.296875 C 8.53125 -2.023438 8.875 -2.957031 8.875 -4.09375 C 8.875 -5.226562 8.53125 -6.15625 7.84375 -6.875 C 7.15625 -7.601562 6.300781 -7.96875 5.28125 -7.96875 C 4.257812 -7.96875 3.40625 -7.601562 2.71875 -6.875 C 2.03125 -6.15625 1.6875 -5.226562 1.6875 -4.09375 C 1.6875 -2.957031 2.03125 -2.023438 2.71875 -1.296875 Z M 2.71875 -1.296875 "/></g></g></g><g fill="#ffffff" fill-opacity="1"><g transform="translate(259.704033, 13.153805)"><g><path d="M 0.9375 -0.140625 C 1.15625 -0.140625 1.335938 -0.207031 1.484375 -0.34375 C 1.640625 -0.488281 1.722656 -0.660156 1.734375 -0.859375 L 1.734375 -7.3125 C 1.722656 -7.507812 1.632812 -7.679688 1.46875 -7.828125 C 1.3125 -7.972656 1.125 -8.046875 0.90625 -8.046875 L 0.75 -8.046875 L 0.75 -8.1875 L 3.578125 -8.1875 L 3.578125 -8.046875 L 3.40625 -8.046875 C 3.1875 -8.046875 3 -7.972656 2.84375 -7.828125 C 2.6875 -7.679688 2.609375 -7.507812 2.609375 -7.3125 L 2.609375 -0.421875 L 4.734375 -0.421875 C 5.148438 -0.421875 5.503906 -0.492188 5.796875 -0.640625 C 6.085938 -0.785156 6.304688 -0.957031 6.453125 -1.15625 C 6.609375 -1.351562 6.757812 -1.617188 6.90625 -1.953125 L 7.03125 -1.953125 L 6.28125 0 L 0.75 0 L 0.75 -0.140625 Z M 0.9375 -0.140625 "/></g></g></g><g fill="#ffffff" fill-opacity="1"><g transform="translate(266.684238, 13.153805)"><g><path d="M 0.9375 -0.140625 C 1.1875 -0.140625 1.398438 -0.210938 1.578125 -0.359375 C 1.765625 -0.503906 1.859375 -0.675781 1.859375 -0.875 L 1.859375 -7.3125 C 1.859375 -7.507812 1.765625 -7.679688 1.578125 -7.828125 C 1.398438 -7.972656 1.179688 -8.046875 0.921875 -8.046875 L 0.75 -8.046875 L 0.75 -8.1875 L 3.828125 -8.1875 L 3.828125 -8.046875 L 3.65625 -8.046875 C 3.40625 -8.046875 3.191406 -7.976562 3.015625 -7.84375 C 2.835938 -7.707031 2.742188 -7.539062 2.734375 -7.34375 L 2.734375 -0.859375 C 2.734375 -0.660156 2.820312 -0.488281 3 -0.34375 C 3.1875 -0.207031 3.40625 -0.140625 3.65625 -0.140625 L 3.828125 -0.140625 L 3.84375 0 L 0.75 0 L 0.75 -0.140625 Z M 0.9375 -0.140625 "/></g></g></g><g fill="#ffffff" fill-opacity="1"><g transform="translate(271.264986, 13.153805)"><g><path d="M 9.921875 -8.046875 C 9.710938 -8.046875 9.535156 -7.976562 9.390625 -7.84375 C 9.253906 -7.71875 9.179688 -7.554688 9.171875 -7.359375 L 9.171875 -1.5625 C 9.171875 -1.03125 9.203125 -0.523438 9.265625 -0.046875 L 9.296875 0.1875 L 9.171875 0.1875 L 2.078125 -6.53125 L 2.078125 -0.84375 C 2.078125 -0.644531 2.148438 -0.476562 2.296875 -0.34375 C 2.441406 -0.207031 2.617188 -0.140625 2.828125 -0.140625 L 3.0625 -0.140625 L 3.0625 0 L 0.484375 0 L 0.484375 -0.140625 L 0.703125 -0.140625 C 0.910156 -0.140625 1.085938 -0.207031 1.234375 -0.34375 C 1.378906 -0.476562 1.453125 -0.644531 1.453125 -0.84375 L 1.453125 -6.6875 C 1.453125 -7.238281 1.421875 -7.734375 1.359375 -8.171875 L 1.34375 -8.390625 L 1.484375 -8.375 L 8.5625 -1.703125 L 8.5625 -7.359375 C 8.539062 -7.554688 8.457031 -7.71875 8.3125 -7.84375 C 8.175781 -7.976562 8.003906 -8.046875 7.796875 -8.046875 L 7.578125 -8.046875 L 7.578125 -8.1875 L 10.15625 -8.1875 L 10.15625 -8.046875 Z M 9.921875 -8.046875 "/></g></g></g><g fill="#ffffff" fill-opacity="1"><g transform="translate(281.885237, 13.153805)"><g><path d="M 0.9375 -0.140625 C 1.1875 -0.140625 1.398438 -0.210938 1.578125 -0.359375 C 1.765625 -0.503906 1.859375 -0.675781 1.859375 -0.875 L 1.859375 -7.3125 C 1.859375 -7.507812 1.765625 -7.679688 1.578125 -7.828125 C 1.398438 -7.972656 1.179688 -8.046875 0.921875 -8.046875 L 0.75 -8.046875 L 0.75 -8.1875 L 3.828125 -8.1875 L 3.828125 -8.046875 L 3.65625 -8.046875 C 3.40625 -8.046875 3.191406 -7.976562 3.015625 -7.84375 C 2.835938 -7.707031 2.742188 -7.539062 2.734375 -7.34375 L 2.734375 -0.859375 C 2.734375 -0.660156 2.820312 -0.488281 3 -0.34375 C 3.1875 -0.207031 3.40625 -0.140625 3.65625 -0.140625 L 3.828125 -0.140625 L 3.84375 0 L 0.75 0 L 0.75 -0.140625 Z M 0.9375 -0.140625 "/></g></g></g></g></g></g></g></g></svg>